<?xml version="1.0" standalone="no"?>
<svg xmlns:xlink="http://www.w3.org/1999/xlink" xmlns="http://www.w3.org/2000/svg" id="workspace"><path d="M272.250 16.290 L 269.500 16.500 267.000 16.765 L 264.500 17.030 256.000 18.687 L 247.500 20.344 238.735 24.159 L 229.969 27.974 227.235 29.714 L 224.500 31.454 224.000 31.983 L 223.500 32.511 220.000 35.154 L 216.500 37.796 214.500 39.730 L 212.500 41.664 210.000 45.008 L 207.500 48.352 202.494 54.926 L 197.488 61.500 195.531 64.500 L 193.575 67.500 191.924 70.500 L 190.274 73.500 186.041 81.500 L 181.807 89.500 180.460 92.000 L 179.113 94.500 178.499 99.227 L 177.884 103.953 176.942 104.536 L 176.000 105.118 176.000 107.868 L 176.000 110.618 174.532 112.559 L 173.064 114.500 173.032 116.583 L 173.000 118.667 172.333 119.334 L 171.666 120.000 171.363 125.611 L 171.061 131.222 169.936 132.577 L 168.811 133.933 169.327 135.216 L 169.842 136.500 169.921 134.750 L 170.000 133.000 171.000 133.000 L 172.000 133.000 172.000 136.860 L 172.000 140.721 172.520 145.610 L 173.041 150.500 171.535 146.000 L 170.030 141.500 170.015 139.250 L 170.000 137.000 169.134 137.000 L 168.269 137.000 169.018 140.750 L 169.767 144.500 172.431 156.500 L 175.094 168.500 176.491 174.900 L 177.887 181.301 176.035 184.900 L 174.183 188.500 171.342 191.103 L 168.500 193.707 166.872 194.275 L 165.244 194.844 164.363 193.963 L 163.483 193.083 161.992 194.023 L 160.500 194.962 163.406 197.481 L 166.311 200.000 167.656 200.000 L 169.000 200.000 169.000 201.030 L 169.000 202.060 172.007 199.837 L 175.014 197.614 176.140 198.740 L 177.266 199.866 176.568 201.683 L 175.871 203.500 175.864 204.000 L 175.857 204.500 174.179 206.422 L 172.500 208.344 173.636 207.684 L 174.771 207.023 175.247 209.512 L 175.723 212.000 175.247 214.488 L 174.771 216.977 173.886 216.429 L 173.000 215.882 173.000 216.882 L 173.000 217.882 174.000 218.500 L 175.000 219.118 174.994 221.809 L 174.987 224.500 172.202 226.084 L 169.416 227.668 168.208 231.700 L 167.000 235.732 167.000 241.877 L 167.000 248.022 164.750 252.489 L 162.500 256.956 161.191 256.487 L 159.883 256.018 160.347 258.967 L 160.812 261.915 157.906 263.202 L 155.000 264.488 155.000 265.244 L 155.000 266.000 156.622 266.000 L 158.245 266.000 157.000 267.500 L 155.755 269.000 154.271 269.000 L 152.786 269.000 153.334 267.573 L 153.881 266.147 152.690 263.581 L 151.500 261.016 150.691 261.008 L 149.882 261.000 150.447 261.915 L 151.012 262.829 149.756 263.252 L 148.500 263.676 147.319 262.088 L 146.138 260.500 145.184 263.000 L 144.230 265.500 145.201 266.706 L 146.172 267.912 145.527 268.956 L 144.882 270.000 143.941 270.000 L 143.000 270.000 143.118 269.250 L 143.237 268.500 143.118 266.677 L 143.000 264.853 141.250 265.190 L 139.500 265.527 139.414 266.514 L 139.327 267.500 138.487 269.500 L 137.646 271.500 136.573 272.214 L 135.500 272.927 135.414 273.714 L 135.327 274.500 134.695 276.000 L 134.063 277.500 134.281 279.392 L 134.500 281.285 133.000 281.719 L 131.500 282.152 132.878 281.188 L 134.256 280.224 133.559 279.095 L 132.862 277.967 131.936 278.540 L 131.010 279.112 131.255 282.565 L 131.500 286.017 132.681 285.566 L 133.863 285.115 133.781 288.009 L 133.698 290.902 132.535 291.348 L 131.371 291.795 131.578 294.776 L 131.784 297.756 129.656 297.200 L 127.528 296.643 125.055 294.350 L 122.582 292.058 121.823 293.279 L 121.064 294.500 121.976 294.815 L 122.888 295.129 122.337 296.565 L 121.786 298.000 124.004 298.000 L 126.222 298.000 123.861 300.053 L 121.500 302.106 123.836 301.458 L 126.172 300.811 125.051 302.905 L 123.930 305.000 125.058 305.000 L 126.187 305.000 126.710 303.000 L 127.233 301.000 129.117 301.000 L 131.000 301.000 131.000 301.974 L 131.000 302.949 128.030 304.485 L 125.059 306.021 123.994 308.010 L 122.930 310.000 123.848 310.000 L 124.766 310.000 124.615 312.750 L 124.463 315.500 123.673 316.750 L 122.882 318.000 124.441 318.000 L 126.000 318.000 126.000 318.917 L 126.000 319.833 124.750 320.341 L 123.500 320.848 124.784 321.754 L 126.068 322.660 125.427 324.330 L 124.786 326.000 125.952 326.000 L 127.118 326.000 126.316 327.250 L 125.513 328.500 125.461 330.724 L 125.408 332.948 173.954 332.724 L 222.500 332.500 222.500 331.013 L 222.500 329.527 225.254 328.207 L 228.008 326.887 229.004 327.503 L 230.000 328.118 230.000 328.948 L 230.000 329.778 228.750 329.731 L 227.500 329.685 225.750 329.842 L 224.000 330.000 224.000 331.622 L 224.000 333.245 225.500 332.000 L 227.000 330.755 227.000 331.878 L 227.000 333.000 235.559 333.000 L 244.118 333.000 243.500 332.000 L 242.882 331.000 243.941 331.000 L 245.000 331.000 245.000 331.906 L 245.000 332.811 253.500 332.903 L 262.000 332.995 262.015 331.248 L 262.031 329.500 262.923 330.910 L 263.816 332.320 269.493 332.791 L 275.170 333.262 274.835 330.881 L 274.500 328.500 273.000 327.176 L 271.500 325.852 272.750 326.485 L 274.000 327.118 274.000 326.133 L 274.000 325.147 272.097 315.324 L 270.194 305.500 269.484 301.000 L 268.774 296.500 267.934 295.454 L 267.094 294.409 266.589 289.247 L 266.083 284.084 267.567 279.086 L 269.051 274.088 272.276 270.751 L 275.500 267.414 278.500 265.167 L 281.500 262.920 274.333 266.431 L 267.166 269.942 262.261 268.485 L 257.356 267.028 248.928 258.525 L 240.500 250.021 239.427 250.010 L 238.354 250.000 233.293 245.250 L 228.233 240.500 224.005 232.500 L 219.777 224.500 218.639 223.058 L 217.500 221.616 219.000 222.500 L 220.500 223.384 219.128 221.692 L 217.755 220.000 218.628 219.985 L 219.500 219.969 218.186 219.136 L 216.873 218.303 216.625 209.965 L 216.377 201.626 215.190 201.230 L 214.003 200.834 214.648 198.268 L 215.292 195.702 214.146 196.410 L 213.000 197.118 213.000 194.226 L 213.000 191.333 212.250 190.583 L 211.500 189.833 211.375 188.917 L 211.250 188.000 211.110 187.250 L 210.969 186.500 209.919 188.000 L 208.869 189.500 209.502 187.250 L 210.135 185.000 209.182 185.000 L 208.230 185.000 206.491 182.345 L 204.751 179.691 206.399 180.323 L 208.046 180.955 206.953 178.913 L 205.861 176.871 204.519 177.984 L 203.178 179.097 202.707 178.299 L 202.235 177.500 201.436 174.000 L 200.636 170.500 200.352 169.000 L 200.067 167.500 199.384 157.218 L 198.701 146.935 199.801 143.218 L 200.901 139.500 201.480 136.709 L 202.059 133.918 203.199 134.623 L 204.340 135.328 203.667 133.414 L 202.995 131.500 204.358 133.250 L 205.720 135.000 207.360 135.000 L 209.000 135.000 209.100 128.750 L 209.199 122.500 209.892 120.013 L 210.584 117.526 210.180 114.773 L 209.776 112.020 209.048 112.470 L 208.320 112.920 208.187 105.710 L 208.053 98.500 207.642 95.545 L 207.230 92.589 208.275 90.295 L 209.321 88.000 210.861 88.000 L 212.400 88.000 211.283 86.883 L 210.166 85.766 212.083 82.352 L 214.000 78.939 214.000 77.374 L 214.000 75.809 215.750 72.654 L 217.500 69.500 221.275 64.589 L 225.049 59.677 228.219 57.339 L 231.389 55.000 232.694 55.000 L 234.000 55.000 234.000 54.185 L 234.000 53.370 237.537 51.684 L 241.075 49.997 243.287 47.975 L 245.500 45.953 247.521 44.227 L 249.542 42.500 248.571 43.250 L 247.600 44.000 246.800 44.000 L 246.000 44.000 246.000 43.167 L 246.000 42.333 254.998 37.417 L 263.997 32.500 263.576 31.372 L 263.156 30.244 264.328 28.999 L 265.500 27.755 263.500 28.770 L 261.500 29.784 257.964 30.253 L 254.429 30.722 254.429 28.861 L 254.429 27.000 255.214 27.000 L 256.000 27.000 256.000 26.025 L 256.000 25.050 252.750 25.535 L 249.500 26.020 251.000 25.422 L 252.500 24.824 257.777 22.412 L 263.055 20.000 265.968 20.000 L 268.882 20.000 269.500 19.000 L 270.118 18.000 272.559 18.000 L 275.000 18.000 275.000 17.040 L 275.000 16.081 272.250 16.290 M294.786 23.000 L 293.786 23.000 294.371 24.523 L 294.955 26.046 292.914 24.954 L 290.872 23.861 289.525 24.979 L 288.178 26.097 287.451 24.920 L 286.723 23.743 285.787 25.415 L 284.852 27.088 282.801 26.437 L 280.750 25.786 281.383 26.811 L 282.017 27.837 279.009 28.498 L 276.000 29.159 276.000 30.079 L 276.000 31.000 274.565 31.000 L 273.130 31.000 270.315 32.075 L 267.500 33.149 269.250 34.435 L 271.000 35.720 271.000 36.383 L 271.000 37.046 268.593 35.469 L 266.185 33.891 265.534 34.946 L 264.882 36.000 266.441 36.000 L 268.000 36.000 268.000 37.000 L 268.000 38.000 265.071 38.000 L 262.143 38.000 260.635 39.508 L 259.128 41.015 258.505 40.008 L 257.882 39.000 256.000 39.000 L 254.118 39.000 253.459 40.067 L 252.800 41.133 253.376 41.709 L 253.952 42.285 255.500 41.000 L 257.048 39.715 257.666 40.332 L 258.283 40.950 255.892 43.048 L 253.500 45.147 257.000 44.437 L 260.500 43.726 263.250 43.655 L 266.000 43.584 266.000 42.792 L 266.000 42.000 264.750 41.970 L 263.500 41.939 265.054 41.029 L 266.609 40.120 268.554 40.431 L 270.500 40.743 271.500 39.974 L 272.500 39.206 277.500 38.667 L 282.500 38.128 284.500 37.703 L 286.500 37.278 288.172 36.562 L 289.844 35.846 291.672 36.796 L 293.500 37.745 295.928 37.352 L 298.356 36.958 299.069 38.111 L 299.781 39.264 301.446 36.723 L 303.111 34.182 303.263 32.160 L 303.415 30.139 304.276 30.670 L 305.136 31.202 304.545 32.742 L 303.955 34.282 304.545 36.141 L 305.135 38.000 306.586 38.000 L 308.038 38.000 307.429 35.572 L 306.820 33.145 307.858 31.322 L 308.897 29.500 310.116 32.949 L 311.334 36.398 312.097 34.449 L 312.859 32.500 312.930 31.191 L 313.000 29.882 311.750 30.633 L 310.500 31.384 311.893 29.668 L 313.285 27.952 312.893 27.673 L 312.500 27.395 309.595 25.573 L 306.691 23.751 307.314 25.376 L 307.937 27.000 307.122 27.000 L 306.307 27.000 303.117 25.408 L 299.926 23.817 298.475 25.021 L 297.024 26.225 296.405 24.613 L 295.786 23.000 294.786 23.000 M344.471 76.317 L 343.124 74.500 344.038 78.500 L 344.952 82.500 344.976 86.750 L 345.000 91.000 344.008 91.000 L 343.016 91.000 344.440 94.750 L 345.865 98.500 346.818 103.500 L 347.771 108.500 347.208 114.000 L 346.645 119.500 346.831 125.800 L 347.017 132.101 348.895 139.300 L 350.773 146.500 351.372 151.500 L 351.972 156.500 352.610 165.000 L 353.249 173.500 354.743 175.210 L 356.237 176.919 355.514 179.710 L 354.791 182.500 353.284 193.500 L 351.776 204.500 351.693 208.435 L 351.610 212.370 352.749 212.750 L 353.888 213.129 353.386 214.436 L 352.885 215.742 354.584 216.394 L 356.283 217.046 355.019 215.523 L 353.755 214.000 354.128 213.923 L 354.500 213.847 356.250 213.512 L 358.000 213.177 358.079 214.838 L 358.158 216.500 358.654 215.276 L 359.149 214.052 357.809 212.137 L 356.468 210.223 356.868 205.361 L 357.268 200.500 358.064 202.500 L 358.859 204.500 358.930 201.750 L 359.000 199.000 358.015 199.000 L 357.031 199.000 357.541 193.750 L 358.051 188.500 358.593 186.750 L 359.135 185.000 360.067 185.000 L 361.000 185.000 361.000 186.500 L 361.000 188.000 361.941 188.000 L 362.882 188.000 363.475 187.041 L 364.068 186.081 362.845 184.123 L 361.621 182.164 362.743 179.832 L 363.865 177.500 363.948 180.000 L 364.031 182.500 365.000 181.000 L 365.969 179.500 365.985 181.917 L 366.000 184.333 366.447 183.886 L 366.894 183.439 367.399 180.470 L 367.903 177.500 369.451 167.761 L 371.000 158.022 371.032 157.261 L 371.064 156.500 372.532 158.441 L 374.000 160.382 374.000 157.344 L 374.000 154.306 375.852 152.171 L 377.703 150.036 378.352 150.685 L 379.000 151.333 379.082 149.417 L 379.164 147.500 379.607 144.824 L 380.049 142.148 379.068 141.542 L 378.087 140.936 378.669 139.420 L 379.251 137.904 377.375 136.378 L 375.500 134.852 376.750 135.485 L 378.000 136.118 378.000 134.963 L 378.000 133.809 376.284 130.904 L 374.569 128.000 373.878 128.000 L 373.187 128.000 373.710 130.000 L 374.233 132.000 375.117 132.000 L 376.000 132.000 376.000 132.969 L 376.000 133.937 374.326 133.295 L 372.653 132.653 373.455 134.576 L 374.257 136.500 374.764 138.849 L 375.271 141.199 373.386 140.831 L 371.500 140.464 371.372 136.982 L 371.244 133.500 370.447 131.573 L 369.650 129.647 369.575 125.813 L 369.500 121.980 368.359 122.417 L 367.217 122.854 364.036 118.677 L 360.855 114.500 364.265 118.229 L 367.675 121.957 367.588 116.132 L 367.500 110.306 366.128 108.653 L 364.755 107.000 365.398 107.000 L 366.041 107.000 363.983 102.966 L 361.924 98.931 362.623 97.716 L 363.321 96.500 362.541 97.202 L 361.762 97.905 360.491 96.634 L 359.221 95.364 358.709 89.614 L 358.198 83.865 357.849 83.649 L 357.500 83.434 355.727 82.076 L 353.954 80.717 354.584 82.359 L 355.214 84.000 354.190 84.000 L 353.167 84.000 352.707 82.750 L 352.247 81.500 351.515 84.250 L 350.783 87.000 349.610 87.000 L 348.437 87.000 347.128 82.567 L 345.819 78.135 344.471 76.317 M228.809 122.044 L 228.500 122.088 224.500 123.503 L 220.500 124.918 218.250 127.515 L 216.000 130.112 216.000 135.056 L 216.000 140.000 215.117 140.000 L 214.233 140.000 213.710 142.000 L 213.187 144.000 215.094 144.000 L 217.000 144.000 217.000 145.883 L 217.000 147.767 219.750 148.295 L 222.500 148.823 223.724 147.810 L 224.948 146.798 222.355 143.399 L 219.763 140.000 222.381 140.000 L 225.000 140.000 225.000 139.434 L 225.000 138.869 223.995 136.991 L 222.991 135.114 224.156 132.557 L 225.321 130.000 226.079 130.000 L 226.836 130.000 228.535 129.348 L 230.233 128.697 229.116 130.783 L 228.000 132.869 228.000 135.212 L 228.000 137.555 229.637 139.892 L 231.274 142.229 235.826 141.716 L 240.378 141.203 241.765 139.352 L 243.152 137.500 242.666 133.711 L 242.180 129.922 240.967 128.461 L 239.755 127.000 234.279 127.000 L 228.802 127.000 225.343 128.642 L 221.883 130.283 220.870 129.270 L 219.857 128.257 222.564 126.129 L 225.270 124.000 226.576 124.000 L 227.882 124.000 228.500 123.000 L 229.118 122.000 228.809 122.044 M233.554 122.125 L 229.500 122.250 234.539 122.990 L 239.577 123.730 242.611 125.299 L 245.646 126.868 246.945 128.434 L 248.245 130.000 249.245 130.000 L 250.245 130.000 249.040 128.548 L 247.836 127.097 242.721 124.548 L 237.607 122.000 233.554 122.125 M313.685 128.150 L 313.500 128.300 310.700 128.721 L 307.900 129.143 306.277 132.545 L 304.655 135.947 305.806 138.474 L 306.957 141.000 307.902 141.000 L 308.847 141.000 307.308 137.915 L 305.769 134.831 307.032 133.665 L 308.294 132.500 307.726 134.126 L 307.158 135.751 309.739 136.927 L 312.319 138.102 313.144 136.801 L 313.969 135.500 313.985 136.867 L 314.000 138.233 316.500 137.755 L 319.000 137.277 319.000 137.771 L 319.000 138.265 316.847 140.133 L 314.694 142.000 316.290 142.000 L 317.887 142.000 319.443 139.777 L 321.000 137.555 321.000 136.171 L 321.000 134.786 319.688 135.289 L 318.377 135.793 318.799 132.914 L 319.222 130.035 316.546 129.017 L 313.870 128.000 313.685 128.150 M187.250 158.250 L 188.499 158.666 190.282 163.468 L 192.064 168.269 191.588 168.745 L 191.112 169.222 188.556 163.924 L 186.000 158.626 186.000 158.230 L 186.000 157.833 187.250 158.250 M257.744 187.472 L 255.000 186.783 255.000 187.892 L 255.000 189.000 256.000 189.000 L 257.000 189.000 257.000 190.883 L 257.000 192.767 258.750 193.221 L 260.500 193.674 261.750 193.254 L 263.000 192.833 263.000 191.539 L 263.000 190.245 261.744 189.203 L 260.489 188.161 257.744 187.472 M290.832 210.587 L 289.500 210.173 286.500 211.074 L 283.500 211.975 275.000 212.563 L 266.500 213.152 260.500 213.465 L 254.500 213.778 254.500 213.963 L 254.500 214.149 252.386 214.547 L 250.273 214.946 247.528 215.989 L 244.783 217.033 246.065 218.578 L 247.347 220.123 251.924 219.777 L 256.500 219.432 257.557 218.776 L 258.614 218.120 260.557 218.419 L 262.500 218.717 263.181 217.660 L 263.863 216.604 271.803 216.501 L 279.742 216.399 282.336 214.699 L 284.930 213.000 288.906 213.000 L 292.882 213.000 293.500 212.000 L 294.118 211.000 293.141 211.000 L 292.164 211.000 290.832 210.587 M333.483 216.000 L 333.153 216.000 329.827 218.749 L 326.500 221.498 324.910 222.999 L 323.320 224.500 318.183 231.500 L 313.045 238.500 310.773 241.465 L 308.500 244.430 316.000 240.374 L 323.500 236.318 323.209 234.670 L 322.918 233.023 324.051 230.905 L 325.184 228.787 328.005 229.351 L 330.826 229.915 332.436 227.458 L 334.046 225.000 333.457 225.000 L 332.869 225.000 330.783 226.116 L 328.697 227.233 329.317 225.616 L 329.937 224.000 328.897 224.000 L 327.857 224.000 329.429 222.429 L 331.000 220.857 331.000 219.870 L 331.000 218.882 331.886 219.430 L 332.773 219.978 333.293 217.989 L 333.813 216.000 333.483 216.000 M360.040 230.525 L 359.080 229.932 360.174 233.216 L 361.268 236.500 364.135 239.549 L 367.002 242.598 366.079 243.549 L 365.155 244.500 366.457 248.241 L 367.758 251.982 369.381 254.459 L 371.004 256.936 372.502 256.361 L 374.000 255.786 374.000 257.831 L 374.000 259.877 371.250 259.688 L 368.500 259.500 368.500 261.000 L 368.500 262.500 374.452 263.394 L 380.404 264.287 380.783 263.152 L 381.161 262.016 383.159 263.085 L 385.156 264.154 386.360 263.692 L 387.565 263.230 393.032 264.067 L 398.500 264.904 402.500 266.156 L 406.500 267.407 412.952 270.668 L 419.404 273.929 419.738 273.595 L 420.073 273.261 418.929 263.880 L 417.786 254.500 418.343 249.778 L 418.899 245.056 418.081 244.550 L 417.263 244.044 416.600 239.897 L 415.936 235.750 414.912 233.836 L 413.888 231.922 401.194 232.606 L 388.500 233.289 383.250 233.269 L 378.000 233.249 378.000 235.412 L 378.000 237.574 380.250 237.721 L 382.500 237.867 388.739 238.512 L 394.979 239.157 395.548 240.078 L 396.118 241.000 394.309 241.156 L 392.500 241.312 390.000 241.481 L 387.500 241.650 384.000 242.442 L 380.500 243.233 378.663 245.168 L 376.826 247.103 377.375 248.535 L 377.924 249.966 379.462 249.376 L 381.000 248.786 381.000 251.652 L 381.000 254.519 383.000 255.768 L 385.000 257.017 385.000 258.401 L 385.000 259.786 383.532 260.349 L 382.064 260.913 381.473 259.956 L 380.882 259.000 381.432 258.111 L 381.981 257.221 377.388 253.111 L 372.796 249.000 371.945 249.000 L 371.095 249.000 371.473 246.014 L 371.851 243.027 366.425 238.392 L 361.000 233.757 361.000 232.438 L 361.000 231.118 360.040 230.525 M341.809 284.032 L 341.500 284.064 339.750 285.392 L 338.000 286.720 338.008 287.610 L 338.016 288.500 340.758 289.827 L 343.500 291.155 345.000 291.712 L 346.500 292.269 344.597 290.786 L 342.694 289.303 343.411 288.145 L 344.127 286.986 342.569 286.388 L 341.011 285.790 341.565 284.895 L 342.118 284.000 341.809 284.032 M328.813 294.480 L 328.379 294.046 326.281 295.516 L 324.183 296.985 324.749 299.149 L 325.315 301.313 324.023 300.514 L 322.731 299.716 323.192 302.858 L 323.654 306.000 322.827 306.000 L 322.000 306.000 322.000 307.544 L 322.000 309.088 323.750 308.794 L 325.500 308.500 325.260 309.720 L 325.020 310.940 327.010 312.005 L 329.000 313.070 329.000 311.976 L 329.000 310.882 330.016 311.510 L 331.033 312.138 330.522 312.964 L 330.011 313.790 331.256 314.257 L 332.500 314.723 334.500 313.932 L 336.500 313.141 335.500 313.038 L 334.500 312.936 336.440 311.469 L 338.379 310.002 336.106 307.884 L 333.833 305.767 334.829 304.771 L 335.826 303.774 336.913 304.446 L 338.000 305.118 338.000 306.437 L 338.000 307.755 339.500 309.000 L 341.000 310.245 341.000 308.699 L 341.000 307.153 338.500 304.182 L 336.000 301.211 336.000 300.106 L 336.000 299.000 335.429 299.000 L 334.857 299.000 333.476 300.381 L 332.095 301.762 332.298 302.148 L 332.500 302.533 331.614 301.831 L 330.729 301.129 329.558 302.314 L 328.388 303.500 327.725 305.250 L 327.063 307.000 325.909 307.000 L 324.755 307.000 325.869 305.658 L 326.982 304.317 327.360 301.408 L 327.737 298.500 328.492 296.707 L 329.247 294.914 328.813 294.480 M221.000 297.232 L 223.000 298.481 223.000 299.741 L 223.000 301.000 221.500 301.000 L 220.000 301.000 220.000 302.000 L 220.000 303.000 221.667 303.000 L 223.333 303.000 222.658 303.676 L 221.982 304.352 224.050 306.553 L 226.119 308.755 222.457 309.442 L 218.796 310.129 218.317 309.650 L 217.838 309.171 219.022 306.958 L 220.206 304.746 219.353 304.123 L 218.500 303.500 218.250 302.250 L 218.000 301.000 219.000 301.000 L 220.000 301.000 220.000 299.892 L 220.000 298.783 217.416 299.432 L 214.832 300.080 215.475 299.040 L 216.118 298.000 217.559 298.000 L 219.000 298.000 219.000 296.992 L 219.000 295.983 221.000 297.232 M351.115 297.000 L 350.230 297.000 348.571 299.532 L 346.912 302.064 346.049 301.530 L 345.187 300.997 345.737 303.101 L 346.287 305.205 345.351 305.852 L 344.415 306.500 342.730 310.000 L 341.046 313.500 341.023 312.281 L 341.000 311.063 339.500 311.638 L 338.000 312.214 338.000 313.149 L 338.000 314.084 337.025 315.292 L 336.050 316.500 333.594 319.500 L 331.139 322.500 329.820 321.103 L 328.500 319.706 330.250 320.321 L 332.000 320.937 332.000 319.403 L 332.000 317.869 331.038 316.071 L 330.076 314.274 327.038 313.016 L 324.000 311.757 324.000 310.879 L 324.000 310.000 322.933 310.000 L 321.865 310.000 322.578 312.246 L 323.291 314.492 324.884 315.657 L 326.478 316.823 327.239 316.352 L 328.000 315.882 328.000 316.941 L 328.000 318.000 327.404 318.000 L 326.809 318.000 323.893 315.924 L 320.976 313.847 321.477 313.037 L 321.978 312.227 320.611 311.092 L 319.244 309.958 318.785 311.729 L 318.326 313.500 318.746 314.750 L 319.167 316.000 320.189 316.000 L 321.211 316.000 324.356 318.645 L 327.500 321.290 327.730 324.046 L 327.960 326.802 326.486 327.367 L 325.012 327.933 326.167 330.466 L 327.321 333.000 331.661 333.000 L 336.000 333.000 336.000 329.441 L 336.000 325.882 335.000 326.500 L 334.000 327.118 334.000 326.166 L 334.000 325.214 335.500 324.638 L 337.000 324.063 337.000 322.464 L 337.000 320.865 339.000 321.500 L 341.000 322.135 341.079 319.817 L 341.158 317.500 341.627 318.644 L 342.096 319.788 344.002 319.289 L 345.908 318.791 345.329 315.895 L 344.750 313.000 345.934 313.000 L 347.118 313.000 346.543 312.069 L 345.967 311.138 346.984 310.510 L 348.000 309.882 348.000 310.727 L 348.000 311.571 349.961 311.571 L 351.922 311.571 350.461 309.957 L 349.000 308.343 349.000 306.671 L 349.000 305.000 351.174 305.000 L 353.349 305.000 351.000 302.500 L 348.651 300.000 350.326 300.000 L 352.000 300.000 352.000 298.500 L 352.000 297.000 351.115 297.000 M268.960 306.287 L 269.847 309.074 270.501 312.787 L 271.154 316.500 271.703 319.886 L 272.251 323.273 271.183 322.613 L 270.116 321.953 269.520 317.227 L 268.925 312.500 268.499 308.000 L 268.073 303.500 268.960 306.287 M235.931 308.000 L 237.095 308.000 239.548 310.646 L 242.000 313.292 242.000 314.146 L 242.000 315.000 243.042 315.000 L 244.084 315.000 246.230 317.000 L 248.377 319.000 246.738 319.000 L 245.099 319.000 243.992 317.250 L 242.884 315.500 243.266 317.000 L 243.648 318.500 246.445 319.863 L 249.243 321.225 250.106 319.863 L 250.969 318.500 250.985 319.250 L 251.000 320.000 250.933 320.591 L 250.867 321.182 252.683 322.577 L 254.500 323.973 251.174 322.862 L 247.848 321.752 246.724 322.876 L 245.600 324.000 247.940 324.000 L 250.280 324.000 251.608 325.750 L 252.936 327.500 252.968 328.125 L 253.000 328.750 250.482 328.750 L 247.964 328.750 247.327 327.720 L 246.691 326.691 247.845 327.405 L 249.000 328.118 249.000 326.559 L 249.000 325.000 247.674 325.000 L 246.349 325.000 244.088 322.594 L 241.828 320.188 239.856 319.673 L 237.884 319.157 238.228 320.828 L 238.573 322.500 240.536 322.225 L 242.500 321.950 240.730 323.036 L 238.960 324.122 237.031 323.510 L 235.102 322.898 235.620 321.548 L 236.137 320.199 234.457 320.350 L 232.777 320.500 231.921 318.250 L 231.064 316.000 232.591 316.000 L 234.118 316.000 233.543 316.931 L 232.967 317.862 233.976 318.485 L 234.984 319.108 236.742 318.085 L 238.500 317.061 237.173 317.030 L 235.846 317.000 232.923 314.077 L 230.000 311.154 230.000 310.077 L 230.000 309.000 231.977 310.977 L 233.955 312.955 235.463 312.376 L 236.972 311.797 237.924 314.301 L 238.877 316.806 239.869 317.419 L 240.862 318.033 241.465 317.057 L 242.068 316.081 238.418 312.040 L 234.767 308.000 235.931 308.000 M223.642 311.015 L 226.783 311.000 227.440 313.618 L 228.097 316.236 227.467 316.866 L 226.836 317.497 225.542 315.726 L 224.247 313.956 221.538 314.986 L 218.828 316.016 219.247 314.758 L 219.667 313.500 220.833 313.375 L 222.000 313.250 222.750 313.110 L 223.500 312.969 222.000 312.000 L 220.500 311.031 223.642 311.015 " stroke="#000000" fill="none"/><path d="M271.000 16.224 L 263.500 16.396 260.000 17.242 L 256.500 18.088 253.564 18.546 L 250.629 19.004 244.314 21.137 L 238.000 23.270 238.000 24.202 L 238.000 25.135 235.875 24.460 L 233.750 23.786 234.427 24.881 L 235.104 25.977 233.552 25.382 L 232.000 24.786 232.000 25.709 L 232.000 26.632 227.767 29.011 L 223.533 31.390 221.154 33.445 L 218.775 35.500 215.111 39.057 L 211.446 42.615 202.769 54.225 L 194.092 65.836 192.186 69.392 L 190.280 72.947 189.640 72.474 L 189.000 72.000 189.476 72.643 L 189.953 73.286 184.476 83.588 L 179.000 93.890 179.000 95.778 L 179.000 97.667 178.250 98.417 L 177.500 99.167 177.375 100.083 L 177.250 101.000 177.055 102.750 L 176.859 104.500 176.095 102.547 L 175.331 100.594 174.526 104.047 L 173.721 107.500 173.485 108.250 L 173.250 109.000 173.125 110.559 L 173.000 112.118 172.003 111.502 L 171.006 110.886 171.978 113.443 L 172.950 116.000 171.975 118.565 L 171.000 121.130 171.000 125.615 L 171.000 130.099 169.425 133.144 L 167.851 136.189 169.903 145.845 L 171.956 155.500 172.603 160.926 L 173.249 166.353 174.568 169.509 L 175.887 172.664 176.570 177.815 L 177.253 182.965 175.516 185.732 L 173.780 188.500 170.771 191.236 L 167.762 193.971 166.881 193.427 L 166.000 192.882 165.968 194.191 L 165.936 195.500 164.468 193.559 L 163.000 191.618 163.000 192.777 L 163.000 193.937 161.573 193.390 L 160.146 192.842 160.633 194.703 L 161.119 196.564 164.111 198.532 L 167.103 200.500 168.052 200.250 L 169.000 200.000 169.000 201.155 L 169.000 202.310 170.998 200.501 L 172.997 198.693 175.066 199.616 L 177.134 200.539 175.067 202.923 L 173.000 205.306 173.000 206.594 L 173.000 207.882 174.000 208.500 L 175.000 209.118 174.985 213.309 L 174.969 217.500 174.008 216.000 L 173.046 214.500 173.571 212.500 L 174.095 210.500 172.925 212.381 L 171.754 214.262 173.377 217.665 L 175.000 221.068 175.000 222.555 L 175.000 224.043 172.554 225.157 L 170.108 226.272 168.416 230.386 L 166.724 234.500 166.794 241.597 L 166.864 248.695 164.947 251.847 L 163.029 255.000 161.015 255.000 L 159.000 255.000 159.000 256.361 L 159.000 257.723 156.500 257.245 L 154.000 256.767 154.000 258.451 L 154.000 260.135 156.250 259.460 L 158.500 258.785 156.862 260.495 L 155.223 262.206 153.163 261.552 L 151.102 260.898 151.658 259.449 L 152.214 258.000 151.190 258.000 L 150.167 258.000 149.162 260.750 L 148.158 263.500 148.079 262.250 L 148.000 261.000 146.096 261.000 L 144.193 261.000 140.592 264.188 L 136.991 267.376 137.997 267.998 L 139.003 268.620 137.001 270.768 L 135.000 272.916 135.000 274.625 L 135.000 276.333 134.317 275.650 L 133.634 274.967 131.897 278.724 L 130.159 282.480 131.330 283.316 L 132.500 284.152 131.250 284.659 L 130.000 285.167 130.000 286.151 L 130.000 287.135 132.242 286.423 L 134.484 285.712 133.120 287.356 L 131.755 289.000 133.128 289.036 L 134.500 289.072 131.500 291.531 L 128.500 293.990 130.372 293.995 L 132.245 294.000 131.000 295.500 L 129.755 297.000 128.878 297.000 L 128.000 297.000 128.000 295.333 L 128.000 293.667 127.381 294.286 L 126.762 294.905 125.381 293.524 L 124.000 292.143 124.000 291.643 L 124.000 291.143 125.576 289.567 L 127.151 287.992 124.826 287.122 L 122.500 286.253 121.806 288.061 L 121.113 289.869 119.056 290.970 L 117.000 292.070 117.000 291.035 L 117.000 290.000 118.000 290.000 L 119.000 290.000 119.000 289.106 L 119.000 288.212 116.501 288.356 L 114.001 288.500 114.001 290.309 L 114.000 292.118 115.000 291.500 L 116.000 290.882 116.000 291.819 L 116.000 292.755 114.500 294.000 L 113.000 295.245 113.000 296.091 L 113.000 296.937 114.750 296.294 L 116.500 295.651 117.300 294.325 L 118.099 293.000 119.672 293.000 L 121.245 293.000 119.880 294.644 L 118.516 296.288 120.844 295.550 L 123.172 294.811 122.056 296.895 L 120.940 298.980 119.845 298.740 L 118.750 298.500 118.264 299.833 L 117.778 301.166 120.889 299.557 L 124.000 297.949 124.000 299.006 L 124.000 300.063 122.506 300.636 L 121.011 301.210 121.538 302.061 L 122.064 302.913 123.696 302.286 L 125.328 301.660 124.422 303.080 L 123.515 304.500 123.507 309.250 L 123.500 314.000 124.285 314.000 L 125.070 314.000 124.000 316.000 L 122.930 318.000 124.465 318.000 L 126.000 318.000 126.000 318.779 L 126.000 319.558 124.000 321.000 L 122.000 322.442 122.000 323.343 L 122.000 324.245 123.411 323.074 L 124.822 321.903 125.443 322.908 L 126.064 323.912 123.282 325.706 L 120.501 327.500 118.250 329.430 L 116.000 331.361 116.000 331.966 L 116.000 332.571 118.001 332.571 L 120.001 332.571 120.576 330.759 L 121.152 328.947 123.607 327.338 L 126.062 325.729 126.573 326.240 L 127.084 326.751 124.042 329.311 L 121.000 331.871 121.000 332.590 L 121.000 333.310 123.000 331.500 L 125.000 329.690 125.000 331.345 L 125.000 333.000 174.800 333.000 L 224.600 333.000 225.800 331.800 L 227.000 330.600 227.000 331.800 L 227.000 333.000 245.059 333.000 L 263.118 333.000 262.438 331.900 L 261.759 330.800 263.909 331.951 L 266.060 333.102 271.280 332.801 L 276.500 332.500 276.338 331.500 L 276.177 330.500 274.559 323.000 L 272.941 315.500 270.979 305.000 L 269.017 294.500 267.988 289.500 L 266.959 284.500 267.600 281.500 L 268.241 278.500 269.760 275.500 L 271.279 272.500 273.894 270.000 L 276.510 267.500 280.505 264.213 L 284.500 260.926 276.659 264.536 L 268.817 268.145 264.839 267.473 L 260.861 266.801 260.323 265.400 L 259.786 264.000 258.562 264.000 L 257.338 264.000 256.009 261.517 L 254.680 259.033 252.946 258.483 L 251.211 257.932 248.856 254.481 L 246.500 251.031 244.000 250.133 L 241.500 249.236 235.376 243.319 L 229.252 237.401 225.287 229.450 L 221.321 221.500 220.505 216.000 L 219.690 210.500 219.347 205.500 L 219.004 200.500 217.940 196.000 L 216.877 191.500 216.293 188.533 L 215.709 185.567 214.345 184.203 L 212.982 182.839 213.550 181.919 L 214.118 181.000 213.059 181.000 L 212.000 181.000 212.000 179.500 L 212.000 178.000 211.218 178.000 L 210.436 178.000 210.212 175.294 L 209.988 172.588 208.847 171.544 L 207.707 170.500 208.508 171.905 L 209.309 173.309 208.241 172.649 L 207.173 171.989 207.632 167.994 L 208.091 164.000 206.994 164.000 L 205.898 164.000 204.417 160.456 L 202.936 156.912 203.436 156.103 L 203.936 155.295 202.579 153.439 L 201.222 151.584 201.659 150.445 L 202.096 149.307 202.312 146.497 L 202.528 143.687 204.282 143.429 L 206.037 143.172 209.018 144.659 L 212.000 146.146 212.000 147.180 L 212.000 148.214 213.500 147.638 L 215.000 147.063 215.000 148.464 L 215.000 149.865 216.868 150.458 L 218.736 151.051 222.457 151.191 L 226.178 151.331 226.839 150.342 L 227.500 149.354 229.250 148.708 L 231.000 148.063 231.000 147.031 L 231.000 146.000 229.901 146.000 L 228.802 146.000 225.401 144.386 L 222.000 142.772 222.000 141.319 L 222.000 139.865 224.130 140.541 L 226.260 141.217 225.578 136.672 L 224.896 132.126 226.850 131.080 L 228.804 130.035 228.288 132.006 L 227.773 133.978 226.886 133.430 L 226.000 132.882 226.000 134.129 L 226.000 135.376 228.250 138.759 L 230.500 142.142 235.217 141.721 L 239.934 141.300 241.467 140.028 L 243.000 138.755 243.000 134.909 L 243.000 131.063 244.303 131.563 L 245.606 132.063 247.277 134.891 L 248.947 137.719 248.307 138.360 L 247.667 139.000 249.833 139.000 L 252.000 139.000 252.000 138.223 L 252.000 137.445 250.521 135.334 L 249.043 133.223 243.771 129.794 L 238.500 126.365 235.286 126.170 L 232.072 125.974 228.085 126.869 L 224.099 127.765 223.556 127.222 L 223.013 126.679 224.807 125.422 L 226.602 124.165 230.142 123.501 L 233.682 122.837 237.697 123.918 L 241.712 124.999 246.424 128.598 L 251.137 132.196 251.776 131.558 L 252.414 130.919 249.589 128.492 L 246.763 126.064 242.309 123.908 L 237.855 121.751 230.166 122.197 L 222.477 122.642 219.782 124.407 L 217.088 126.172 216.044 125.527 L 215.000 124.882 214.863 126.691 L 214.726 128.500 214.716 130.048 L 214.706 131.597 212.952 131.729 L 211.197 131.861 211.377 130.680 L 211.556 129.500 212.433 128.095 L 213.309 126.691 212.155 127.405 L 211.000 128.118 211.000 125.302 L 211.000 122.487 211.931 119.241 L 212.862 115.995 214.475 114.382 L 216.089 112.768 215.670 111.634 L 215.250 110.500 213.875 110.833 L 212.500 111.167 213.241 110.425 L 213.983 109.684 212.865 108.337 L 211.747 106.990 211.690 101.568 L 211.634 96.146 212.939 94.573 L 214.245 93.000 213.729 93.000 L 213.213 93.000 214.038 89.250 L 214.863 85.500 215.512 81.034 L 216.161 76.567 217.250 74.534 L 218.338 72.500 218.099 72.500 L 217.859 72.500 218.874 69.832 L 219.888 67.165 224.694 62.332 L 229.500 57.500 232.000 56.045 L 234.500 54.590 241.500 51.175 L 248.500 47.760 251.152 44.630 L 253.805 41.500 254.563 42.244 L 255.321 42.988 253.708 44.770 L 252.095 46.553 259.400 45.526 L 266.704 44.500 268.102 43.418 L 269.500 42.336 275.493 40.950 L 281.486 39.564 292.493 39.698 L 303.500 39.833 306.750 40.164 L 310.000 40.496 310.000 41.223 L 310.000 41.950 312.500 41.000 L 315.000 40.050 315.000 41.025 L 315.000 42.000 316.515 42.000 L 318.029 42.000 320.048 38.750 L 322.066 35.500 321.585 38.329 L 321.104 41.159 322.492 40.007 L 323.880 38.855 324.214 36.677 L 324.547 34.500 325.774 34.750 L 327.000 35.000 327.000 33.458 L 327.000 31.916 325.000 29.770 L 323.000 27.623 323.000 26.545 L 323.000 25.467 317.386 22.109 L 311.772 18.751 311.136 19.626 L 310.500 20.500 306.776 20.612 L 303.053 20.723 303.477 20.038 L 303.901 19.352 301.700 19.426 L 299.500 19.500 298.883 20.344 L 298.265 21.189 295.307 19.659 L 292.349 18.129 291.088 19.879 L 289.826 21.628 286.771 21.180 L 283.716 20.731 284.522 22.036 L 285.328 23.340 283.553 22.659 L 281.777 21.977 282.332 23.422 L 282.886 24.866 279.841 25.535 L 276.796 26.204 274.898 28.102 L 273.000 30.000 271.000 30.000 L 269.000 30.000 269.000 30.906 L 269.000 31.813 266.837 31.247 L 264.675 30.682 266.948 28.841 L 269.222 27.000 271.670 27.000 L 274.118 27.000 273.500 26.000 L 272.882 25.000 270.998 25.000 L 269.114 25.000 265.562 27.096 L 262.011 29.191 261.401 27.601 L 260.790 26.011 259.645 26.669 L 258.500 27.327 261.302 24.664 L 264.103 22.000 265.111 22.000 L 266.118 22.000 265.537 21.061 L 264.957 20.121 266.728 20.202 L 268.500 20.283 273.500 18.168 L 278.500 16.053 271.000 16.224 M327.322 37.019 L 326.500 37.038 324.000 39.813 L 321.500 42.589 321.161 44.491 L 320.822 46.392 322.487 45.011 L 324.152 43.629 324.937 44.898 L 325.722 46.168 326.354 44.520 L 326.986 42.873 327.924 43.453 L 328.862 44.033 329.505 42.992 L 330.149 41.950 328.835 42.225 L 327.522 42.500 327.833 39.750 L 328.143 37.000 327.322 37.019 M353.031 68.000 L 352.063 68.000 352.700 69.661 L 353.337 71.321 351.419 70.783 L 349.500 70.244 348.000 69.872 L 346.500 69.500 346.657 71.357 L 346.813 73.213 345.707 72.107 L 344.600 71.000 343.741 71.000 L 342.882 71.000 343.613 72.250 L 344.344 73.500 342.047 71.500 L 339.750 69.500 340.493 73.000 L 341.235 76.500 341.805 77.458 L 342.375 78.415 342.645 80.948 L 342.915 83.480 341.973 81.990 L 341.031 80.500 341.015 83.685 L 341.000 86.870 342.096 89.685 L 343.192 92.500 344.527 97.533 L 345.861 102.566 346.029 108.033 L 346.196 113.500 346.024 121.070 L 345.852 128.641 347.448 134.799 L 349.044 140.957 349.980 145.896 L 350.917 150.834 351.495 159.667 L 352.073 168.500 352.620 171.950 L 353.166 175.401 354.517 176.450 L 355.869 177.500 354.491 185.000 L 353.114 192.500 351.914 201.133 L 350.714 209.767 352.531 215.832 L 354.348 221.897 356.674 224.604 L 359.000 227.311 359.118 228.406 L 359.237 229.500 359.107 230.286 L 358.976 231.071 363.593 241.786 L 368.210 252.500 369.067 255.360 L 369.923 258.220 368.397 259.745 L 366.871 261.271 367.900 262.300 L 368.929 263.329 381.215 263.689 L 393.500 264.048 399.500 265.692 L 405.500 267.337 412.461 270.624 L 419.422 273.911 419.789 273.545 L 420.156 273.178 418.998 263.485 L 417.841 253.792 418.514 248.896 L 419.188 244.000 418.094 244.000 L 417.000 244.000 417.000 241.649 L 417.000 239.298 415.836 235.899 L 414.672 232.500 413.586 231.752 L 412.500 231.004 409.500 231.670 L 406.500 232.337 402.500 232.511 L 398.500 232.684 388.126 232.842 L 377.752 233.000 378.330 239.250 L 378.907 245.500 377.410 242.033 L 375.914 238.565 376.207 236.033 L 376.500 233.500 374.217 233.385 L 371.934 233.270 373.334 234.885 L 374.734 236.500 375.384 241.000 L 376.033 245.500 373.267 242.412 L 370.500 239.323 369.442 239.681 L 368.385 240.038 366.018 237.519 L 363.651 235.000 364.481 235.000 L 365.310 235.000 363.534 233.037 L 361.757 231.074 362.433 229.315 L 363.108 227.556 364.038 229.028 L 364.969 230.500 364.985 229.309 L 365.000 228.118 364.064 227.539 L 363.127 226.961 363.276 224.980 L 363.426 223.000 364.213 223.000 L 365.000 223.000 365.015 224.250 L 365.031 225.500 365.927 224.083 L 366.824 222.667 365.976 220.436 L 365.128 218.206 365.569 217.764 L 366.010 217.323 366.454 208.439 L 366.898 199.555 365.699 198.778 L 364.500 198.000 365.773 197.177 L 367.047 196.353 367.477 186.927 L 367.907 177.500 369.547 170.500 L 371.187 163.500 371.344 161.250 L 371.500 159.000 372.143 159.000 L 372.786 159.000 373.393 160.582 L 374.000 162.164 374.000 166.338 L 374.000 170.513 373.010 173.966 L 372.019 177.419 372.889 178.289 L 373.758 179.158 374.853 172.942 L 375.948 166.726 375.320 165.708 L 374.691 164.691 375.845 165.405 L 377.000 166.118 376.985 162.809 L 376.969 159.500 376.000 161.000 L 375.031 162.500 375.015 160.332 L 375.000 158.164 375.605 156.588 L 376.210 155.011 377.105 155.565 L 378.000 156.118 378.125 155.059 L 378.250 154.000 378.375 153.083 L 378.500 152.167 379.250 151.417 L 380.000 150.667 380.000 147.077 L 380.000 143.487 380.986 140.047 L 381.973 136.608 380.498 134.356 L 379.023 132.105 379.579 130.654 L 380.136 129.202 378.914 128.447 L 377.691 127.691 378.405 128.845 L 379.118 130.000 378.220 130.000 L 377.321 130.000 376.161 127.453 L 375.000 124.906 375.000 123.483 L 375.000 122.061 372.981 118.467 L 370.962 114.872 369.432 112.536 L 367.901 110.200 369.200 109.600 L 370.500 109.000 369.250 108.417 L 368.000 107.833 368.006 105.667 L 368.012 103.500 369.501 106.354 L 370.989 109.208 370.461 110.063 L 369.932 110.919 371.207 112.959 L 372.481 115.000 373.729 115.000 L 374.976 115.000 375.622 119.036 L 376.267 123.073 378.194 124.104 L 380.121 125.135 378.681 122.318 L 377.241 119.500 376.541 116.250 L 375.841 113.000 374.921 113.000 L 374.000 113.000 374.159 112.250 L 374.318 111.500 373.584 109.500 L 372.850 107.500 371.505 103.750 L 370.161 100.000 371.139 100.000 L 372.118 100.000 371.500 99.000 L 370.882 98.000 369.514 98.000 L 368.147 98.000 367.731 99.750 L 367.315 101.500 366.147 98.658 L 364.980 95.816 364.629 91.658 L 364.279 87.500 362.149 86.517 L 360.019 85.534 360.170 84.517 L 360.321 83.500 359.131 80.500 L 357.941 77.500 357.307 76.000 L 356.673 74.500 356.586 73.800 L 356.500 73.100 355.250 71.850 L 354.000 70.600 354.000 69.300 L 354.000 68.000 353.031 68.000 M313.500 124.195 L 307.500 124.127 305.030 125.113 L 302.560 126.098 299.214 128.650 L 295.869 131.202 296.340 131.673 L 296.811 132.144 300.656 129.749 L 304.500 127.354 306.500 126.563 L 308.500 125.771 314.000 125.017 L 319.500 124.262 313.500 124.195 M327.740 127.447 L 324.500 125.852 327.750 128.498 L 331.000 131.145 331.000 133.191 L 331.000 135.237 327.750 132.785 L 324.500 130.332 321.101 129.166 L 317.702 128.000 313.601 128.035 L 309.500 128.071 307.500 129.285 L 305.500 130.500 305.182 134.571 L 304.863 138.641 306.388 139.907 L 307.912 141.172 308.956 140.527 L 310.000 139.882 310.000 140.827 L 310.000 141.773 313.250 142.254 L 316.500 142.736 317.658 142.296 L 318.817 141.856 320.005 138.989 L 321.193 136.121 320.374 134.810 L 319.556 133.500 319.367 132.250 L 319.177 131.000 320.914 131.000 L 322.651 131.000 324.826 133.314 L 327.000 135.629 327.000 137.114 L 327.000 138.600 328.200 139.800 L 329.400 141.000 331.669 141.000 L 333.937 141.000 333.299 139.336 L 332.660 137.672 333.830 138.395 L 335.000 139.118 335.000 138.019 L 335.000 136.920 332.990 132.981 L 330.980 129.041 327.740 127.447 M302.830 132.000 L 302.464 132.000 298.732 134.536 L 295.000 137.072 295.000 138.106 L 295.000 139.139 297.050 138.820 L 299.099 138.500 301.148 135.250 L 303.196 132.000 302.830 132.000 M258.886 175.430 L 257.691 174.691 258.405 175.845 L 259.118 177.000 258.000 177.000 L 256.882 177.000 257.457 177.931 L 258.033 178.862 256.776 179.638 L 255.520 180.415 258.010 181.046 L 260.500 181.677 260.215 182.944 L 259.930 184.211 261.087 185.605 L 262.245 187.000 260.345 187.000 L 258.445 187.000 256.354 185.535 L 254.263 184.071 253.771 184.563 L 253.279 185.055 253.980 188.892 L 254.682 192.728 258.986 198.864 L 263.290 205.000 263.895 205.077 L 264.500 205.153 266.265 205.490 L 268.030 205.827 269.274 204.583 L 270.518 203.339 272.009 203.746 L 273.500 204.152 272.122 203.188 L 270.744 202.224 271.424 201.123 L 272.104 200.023 270.594 200.602 L 269.084 201.182 268.573 198.841 L 268.062 196.500 267.806 194.500 L 267.550 192.500 268.427 191.099 L 269.305 189.697 266.342 187.099 L 263.378 184.500 262.039 181.784 L 260.699 179.068 259.742 179.659 L 258.786 180.250 259.434 178.209 L 260.081 176.168 258.886 175.430 M360.858 187.848 L 361.215 189.500 362.158 190.663 L 363.101 191.827 363.590 194.663 L 364.079 197.500 364.646 199.375 L 365.214 201.250 364.107 200.566 L 363.000 199.882 363.000 202.941 L 363.000 206.000 362.000 206.000 L 361.000 206.000 360.985 209.750 L 360.969 213.500 360.008 212.000 L 359.046 210.500 359.514 208.500 L 359.982 206.500 359.405 207.756 L 358.829 209.012 357.915 208.447 L 357.000 207.882 357.070 205.191 L 357.141 202.500 357.995 204.500 L 358.850 206.500 358.675 197.500 L 358.500 188.500 359.500 187.348 L 360.500 186.197 360.858 187.848 M278.973 199.015 L 278.445 199.000 276.138 200.616 L 273.831 202.231 274.873 203.273 L 275.915 204.315 277.458 203.035 L 279.000 201.755 279.000 202.500 L 279.000 203.245 280.547 201.961 L 282.095 200.677 280.797 199.854 L 279.500 199.031 278.973 199.015 M271.000 207.801 L 265.500 207.198 262.298 208.384 L 259.097 209.570 258.382 210.285 L 257.667 211.000 256.278 211.000 L 254.890 211.000 250.474 213.012 L 246.058 215.024 245.016 216.970 L 243.975 218.916 245.922 219.958 L 247.869 221.000 250.234 221.000 L 252.600 221.000 253.550 221.898 L 254.500 222.796 259.750 223.492 L 265.000 224.188 265.000 223.094 L 265.000 222.000 264.831 221.750 L 264.662 221.500 265.833 219.313 L 267.003 217.125 271.016 217.181 L 275.028 217.236 275.546 218.074 L 276.064 218.913 277.782 218.274 L 279.500 217.635 282.000 215.880 L 284.500 214.125 292.500 213.004 L 300.500 211.882 304.746 210.191 L 308.993 208.500 308.996 207.750 L 309.000 207.000 308.743 207.000 L 308.487 207.000 304.993 208.056 L 301.500 209.112 294.004 209.653 L 286.507 210.193 285.004 210.962 L 283.500 211.730 282.208 211.268 L 280.917 210.806 282.089 209.393 L 283.261 207.981 279.880 208.192 L 276.500 208.403 271.000 207.801 M334.754 214.420 L 334.499 214.165 330.999 217.180 L 327.500 220.194 323.365 224.031 L 319.231 227.868 313.595 235.866 L 307.958 243.863 305.229 245.982 L 302.500 248.100 308.000 245.028 L 313.500 241.956 320.250 238.268 L 327.000 234.579 327.000 233.821 L 327.000 233.063 325.573 233.610 L 324.146 234.158 324.690 232.079 L 325.233 230.000 327.224 230.000 L 329.214 230.000 328.638 231.500 L 328.063 233.000 328.942 233.000 L 329.822 233.000 331.933 228.639 L 334.044 224.278 333.420 222.651 L 332.796 221.025 333.902 217.850 L 335.009 214.676 334.754 214.420 M119.689 279.250 L 119.232 277.500 118.991 278.250 L 118.750 279.000 118.610 279.750 L 118.469 280.500 117.683 281.739 L 116.896 282.977 118.698 282.405 L 120.500 281.833 118.250 283.827 L 116.000 285.821 116.000 286.410 L 116.000 287.000 118.385 287.000 L 120.770 287.000 122.408 284.500 L 124.046 282.000 122.901 282.000 L 121.755 282.000 122.991 280.511 L 124.227 279.022 125.113 279.570 L 126.000 280.118 126.000 279.059 L 126.000 278.000 125.122 278.000 L 124.245 278.000 123.000 279.500 L 121.755 281.000 120.951 281.000 L 120.147 281.000 119.689 279.250 M348.500 279.369 L 347.500 279.082 346.298 280.291 L 345.096 281.500 343.590 282.750 L 342.084 284.000 341.197 284.000 L 340.310 284.000 338.653 285.831 L 336.996 287.662 337.664 288.331 L 338.333 289.000 336.608 289.000 L 334.882 289.000 335.372 289.792 L 335.861 290.585 334.043 290.722 L 332.225 290.859 328.151 293.679 L 324.076 296.500 324.038 297.750 L 324.000 299.000 322.936 299.000 L 321.872 299.000 322.186 302.250 L 322.500 305.500 321.229 305.243 L 319.958 304.986 320.560 307.743 L 321.162 310.500 320.222 309.169 L 319.282 307.839 318.652 310.990 L 318.022 314.141 319.531 317.060 L 321.041 319.979 321.081 320.740 L 321.121 321.500 323.133 323.642 L 325.145 325.783 325.384 327.142 L 325.622 328.500 326.378 330.750 L 327.135 333.000 331.567 333.000 L 336.000 333.000 336.076 332.250 L 336.151 331.500 336.371 327.986 L 336.590 324.473 337.364 323.220 L 338.138 321.967 339.136 322.584 L 340.135 323.201 340.689 321.080 L 341.244 318.958 342.814 320.229 L 344.384 321.500 343.567 320.143 L 342.750 318.786 344.843 319.450 L 346.936 320.114 345.877 317.077 L 344.818 314.039 346.183 312.770 L 347.548 311.500 348.911 311.204 L 350.274 310.909 352.812 313.204 L 355.350 315.500 352.008 311.250 L 348.666 307.001 349.333 306.334 L 350.000 305.667 350.000 306.940 L 350.000 308.214 351.341 307.700 L 352.681 307.185 353.623 307.843 L 354.564 308.500 357.718 312.861 L 360.873 317.222 363.437 318.551 L 366.000 319.881 366.000 318.971 L 366.000 318.060 363.010 315.849 L 360.020 313.639 359.372 311.596 L 358.723 309.553 354.458 305.407 L 350.193 301.262 352.648 298.806 L 355.104 296.350 353.085 293.925 L 351.067 291.500 351.033 292.716 L 351.000 293.933 347.500 291.867 L 344.000 289.802 344.000 288.401 L 344.000 287.000 345.059 287.000 L 346.118 287.000 345.518 286.029 L 344.918 285.059 347.513 284.407 L 350.107 283.756 349.804 281.706 L 349.500 279.657 348.500 279.369 M234.662 313.750 L 235.167 315.000 236.615 315.000 L 238.063 315.000 238.669 316.581 L 239.276 318.161 241.151 317.671 L 243.026 317.180 244.028 319.053 L 245.031 320.926 246.414 320.395 L 247.798 319.864 248.388 320.818 L 248.978 321.773 246.760 322.353 L 244.542 322.933 243.721 321.466 L 242.901 320.000 240.919 320.000 L 238.937 320.000 238.399 318.599 L 237.862 317.197 235.931 316.692 L 234.000 316.187 234.079 314.344 L 234.158 312.500 234.662 313.750 M354.578 323.330 L 352.256 319.913 351.721 321.958 L 351.187 324.003 351.988 323.507 L 352.790 323.011 353.395 324.588 L 354.000 326.164 354.000 327.782 L 354.000 329.400 352.800 328.200 L 351.600 327.000 350.550 327.032 L 349.500 327.064 351.388 328.493 L 353.276 329.923 355.170 328.909 L 357.064 327.895 356.424 330.448 L 355.783 333.000 357.392 333.000 L 359.000 333.000 359.000 331.941 L 359.000 330.882 359.907 331.442 L 360.813 332.003 360.268 329.917 L 359.722 327.831 358.312 327.289 L 356.901 326.748 354.578 323.330 M383.532 322.306 L 381.063 319.500 381.032 320.346 L 381.000 321.191 383.199 324.279 L 385.398 327.367 384.199 327.767 L 383.000 328.167 383.000 330.024 L 383.000 331.882 384.107 332.566 L 385.214 333.250 384.540 331.125 L 383.865 329.000 384.933 329.000 L 386.000 329.000 386.000 327.056 L 386.000 325.112 383.532 322.306 " stroke="#000000" fill="none"/><path d="M236.457 40.283 L 235.169 39.079 232.677 41.040 L 230.185 43.000 229.463 43.000 L 228.742 43.000 224.908 46.464 L 221.074 49.928 222.077 50.548 L 223.080 51.168 225.154 48.531 L 227.228 45.895 227.785 46.451 L 228.341 47.008 225.984 49.517 L 223.626 52.026 224.649 53.049 L 225.671 54.071 229.355 50.697 L 233.038 47.323 230.769 46.177 L 228.500 45.031 230.000 45.134 L 231.500 45.237 232.597 45.118 L 233.694 45.000 235.720 43.243 L 237.746 41.486 236.457 40.283 M220.490 51.634 L 219.016 51.069 217.349 54.284 L 215.683 57.500 214.948 60.743 L 214.214 63.986 215.169 63.396 L 216.123 62.806 217.037 60.403 L 217.950 58.000 219.098 58.000 L 220.245 58.000 218.980 59.524 L 217.715 61.048 218.192 61.525 L 218.668 62.001 221.334 59.009 L 224.000 56.017 224.000 55.009 L 224.000 54.000 223.107 54.000 L 222.214 54.000 221.638 55.500 L 221.063 57.000 219.281 56.921 L 217.500 56.842 218.761 56.334 L 220.023 55.826 220.993 54.013 L 221.963 52.200 220.490 51.634 M202.595 71.756 L 202.018 70.500 202.550 72.665 L 203.081 74.830 201.290 76.165 L 199.500 77.500 199.201 78.897 L 198.902 80.293 194.543 85.897 L 190.184 91.500 188.658 96.000 L 187.131 100.500 186.078 100.254 L 185.024 100.008 183.563 103.504 L 182.102 107.000 180.801 107.008 L 179.500 107.016 178.278 109.648 L 177.056 112.281 177.587 113.140 L 178.118 114.000 177.104 114.000 L 176.091 114.000 175.415 117.750 L 174.739 121.500 173.922 122.539 L 173.105 123.579 172.188 127.657 L 171.272 131.735 172.041 133.117 L 172.809 134.500 173.280 137.516 L 173.752 140.532 176.547 149.016 L 179.342 157.500 180.171 157.833 L 181.000 158.167 181.000 159.476 L 181.000 160.786 182.483 161.355 L 183.966 161.924 183.426 163.333 L 182.885 164.742 184.343 165.301 L 185.801 165.861 185.565 170.180 L 185.328 174.500 188.240 177.222 L 191.152 179.945 190.510 181.970 L 189.867 183.995 187.490 184.592 L 185.114 185.188 183.990 184.494 L 182.866 183.799 183.129 185.150 L 183.392 186.500 182.611 188.805 L 181.830 191.110 180.665 190.696 L 179.500 190.282 179.741 186.891 L 179.981 183.500 178.630 185.250 L 177.280 187.000 176.390 187.031 L 175.500 187.063 173.718 189.512 L 171.935 191.962 173.468 191.374 L 175.000 190.786 175.000 192.393 L 175.000 194.000 173.961 194.000 L 172.921 194.000 174.211 195.424 L 175.500 196.848 177.000 195.388 L 178.500 193.928 177.029 193.018 L 175.558 192.109 176.231 191.435 L 176.905 190.762 178.460 192.317 L 180.015 193.872 178.901 194.561 L 177.786 195.250 178.967 195.980 L 180.148 196.709 178.569 198.288 L 176.991 199.866 176.980 203.183 L 176.968 206.500 176.557 213.953 L 176.147 221.405 177.108 223.203 L 178.070 225.000 177.035 225.000 L 176.000 225.000 176.000 226.500 L 176.000 228.000 175.000 228.000 L 174.000 228.000 174.000 230.559 L 174.000 233.118 174.960 232.525 L 175.920 231.932 175.046 234.716 L 174.171 237.500 173.611 240.750 L 173.050 244.000 174.084 244.000 L 175.118 244.000 174.500 245.000 L 173.882 246.000 175.274 246.000 L 176.667 246.000 176.667 249.000 L 176.667 252.000 175.833 252.000 L 175.000 252.000 175.000 255.500 L 175.000 259.000 172.000 259.000 L 169.000 259.000 167.000 257.000 L 165.000 255.000 165.000 256.277 L 165.000 257.555 166.464 259.645 L 167.928 261.735 167.598 265.409 L 167.269 269.083 165.384 270.510 L 163.500 271.936 164.758 271.968 L 166.015 272.000 163.367 274.972 L 160.719 277.944 159.929 277.456 L 159.138 276.967 158.510 277.984 L 157.882 279.000 159.132 279.000 L 160.382 279.000 158.602 280.302 L 156.822 281.603 153.161 281.845 L 149.500 282.088 149.167 283.044 L 148.833 284.000 147.762 284.000 L 146.690 284.000 148.595 281.854 L 150.500 279.708 149.000 280.178 L 147.500 280.648 145.372 285.074 L 143.244 289.500 144.302 290.170 L 145.359 290.840 145.575 292.311 L 145.791 293.783 142.952 296.891 L 140.113 300.000 138.556 300.000 L 137.000 300.000 137.000 298.500 L 137.000 297.000 135.893 297.000 L 134.786 297.000 135.382 298.552 L 135.977 300.104 134.989 299.493 L 134.000 298.882 134.000 300.772 L 134.000 302.662 136.500 304.000 L 139.000 305.338 139.000 306.700 L 139.000 308.063 140.443 308.616 L 141.886 309.170 140.943 311.650 L 140.000 314.130 140.157 318.315 L 140.314 322.500 140.933 317.500 L 141.553 312.500 142.462 317.000 L 143.372 321.500 143.215 323.000 L 143.058 324.500 143.612 323.250 L 144.167 322.000 145.102 322.000 L 146.038 322.000 145.455 324.324 L 144.871 326.648 146.483 327.986 L 148.095 329.323 147.100 329.938 L 146.106 330.553 147.129 332.026 L 148.152 333.500 148.673 332.208 L 149.194 330.917 150.762 332.208 L 152.329 333.500 149.664 329.270 L 147.000 325.040 147.000 324.020 L 147.000 323.000 148.066 323.000 L 149.131 323.000 151.217 324.116 L 153.303 325.233 152.651 323.533 L 151.999 321.833 153.249 322.245 L 154.500 322.657 154.795 324.644 L 155.091 326.631 158.561 327.886 L 162.031 329.141 161.488 330.020 L 160.944 330.900 162.906 331.950 L 164.869 333.000 169.543 333.000 L 174.217 333.000 173.527 330.250 L 172.838 327.500 170.853 325.649 L 168.868 323.799 169.516 323.151 L 170.164 322.503 171.442 324.252 L 172.720 326.000 173.360 326.000 L 174.000 326.000 174.000 323.941 L 174.000 321.882 175.000 322.500 L 176.000 323.118 176.000 322.181 L 176.000 321.244 173.750 319.674 L 171.500 318.105 173.225 318.052 L 174.950 318.000 173.947 315.361 L 172.944 312.723 173.463 312.203 L 173.983 311.684 173.147 310.592 L 172.310 309.500 171.667 307.698 L 171.023 305.896 172.116 306.571 L 173.208 307.247 175.013 311.278 L 176.818 315.310 176.236 316.829 L 175.653 318.347 177.326 317.705 L 179.000 317.063 179.000 317.972 L 179.000 318.882 177.951 319.530 L 176.903 320.178 178.000 321.500 L 179.097 322.822 178.032 323.480 L 176.967 324.138 177.640 325.226 L 178.312 326.314 178.187 329.657 L 178.061 333.000 183.837 333.000 L 189.614 333.000 190.716 330.250 L 191.818 327.500 191.659 330.000 L 191.500 332.500 205.250 332.778 L 219.000 333.056 219.000 332.028 L 219.000 331.000 218.000 331.000 L 217.000 331.000 216.965 329.250 L 216.929 327.500 215.715 329.500 L 214.500 331.500 213.250 331.750 L 212.000 332.000 212.000 329.622 L 212.000 327.245 213.403 326.081 L 214.806 324.917 215.240 326.208 L 215.675 327.500 217.401 326.075 L 219.126 324.650 217.508 323.744 L 215.889 322.839 216.993 321.508 L 218.097 320.178 217.049 319.530 L 216.000 318.882 216.000 317.048 L 216.000 315.214 214.500 314.638 L 213.000 314.063 213.000 314.466 L 213.000 314.870 213.962 317.399 L 214.924 319.929 213.850 320.593 L 212.776 321.256 211.964 319.942 L 211.152 318.629 209.620 319.900 L 208.088 321.172 207.082 320.551 L 206.076 319.929 206.995 317.512 L 207.914 315.096 206.480 315.646 L 205.046 316.196 203.866 313.606 L 202.686 311.016 201.343 312.130 L 200.000 313.245 200.000 311.622 L 200.000 310.000 199.079 310.000 L 198.159 310.000 197.473 306.875 L 196.786 303.750 198.143 302.781 L 199.500 301.811 197.765 302.368 L 196.031 302.926 194.972 300.948 L 193.914 298.970 195.457 298.378 L 197.000 297.786 197.000 296.786 L 197.000 295.786 195.583 296.330 L 194.166 296.874 193.549 295.267 L 192.932 293.660 193.743 293.080 L 194.555 292.500 194.481 289.750 L 194.407 287.000 195.904 287.000 L 197.400 287.000 196.200 285.800 L 195.000 284.600 195.000 283.800 L 195.000 283.000 197.250 282.921 L 199.500 282.842 198.306 282.356 L 197.112 281.871 197.663 280.435 L 198.214 279.000 197.138 279.000 L 196.063 279.000 196.701 277.336 L 197.340 275.672 196.170 276.395 L 195.000 277.118 195.000 276.059 L 195.000 275.000 196.500 275.000 L 198.000 275.000 198.000 274.139 L 198.000 273.277 195.351 273.784 L 192.703 274.290 193.410 273.145 L 194.118 272.000 197.309 271.970 L 200.500 271.939 198.742 270.915 L 196.984 269.892 196.061 270.462 L 195.138 271.033 194.469 269.950 L 193.800 268.867 197.421 269.184 L 201.042 269.500 201.092 270.500 L 201.143 271.500 202.573 273.081 L 204.004 274.662 203.336 275.331 L 202.667 276.000 200.167 276.000 L 197.667 276.000 198.362 276.696 L 199.058 277.391 200.279 277.590 L 201.500 277.790 202.963 278.145 L 204.426 278.500 205.698 282.000 L 206.970 285.500 206.985 285.622 L 207.000 285.744 202.750 286.550 L 198.500 287.355 201.224 287.741 L 203.949 288.128 205.642 287.181 L 207.334 286.233 208.547 287.367 L 209.760 288.500 208.880 290.815 L 208.000 293.131 208.965 294.934 L 209.930 296.737 209.298 297.369 L 208.667 298.000 209.774 298.000 L 210.882 298.000 211.487 297.021 L 212.092 296.042 212.428 292.271 L 212.764 288.500 215.561 288.000 L 218.359 287.500 216.707 285.849 L 215.056 284.199 216.517 282.986 L 217.978 281.773 217.430 280.887 L 216.882 280.000 218.191 279.965 L 219.500 279.929 217.000 278.500 L 214.500 277.071 216.143 277.035 L 217.786 277.000 218.324 275.599 L 218.862 274.197 216.698 273.631 L 214.534 273.066 215.660 271.940 L 216.786 270.814 219.432 272.547 L 222.078 274.281 221.789 275.987 L 221.500 277.693 223.000 279.538 L 224.500 281.384 223.311 280.670 L 222.121 279.957 222.285 282.131 L 222.449 284.305 224.099 284.736 L 225.750 285.168 225.909 287.834 L 226.068 290.500 226.113 292.033 L 226.157 293.567 228.828 293.533 L 231.500 293.500 234.500 299.698 L 237.500 305.897 238.219 305.948 L 238.937 306.000 238.281 304.250 L 237.626 302.500 239.110 303.500 L 240.594 304.500 238.686 302.750 L 236.778 301.000 237.639 300.985 L 238.500 300.969 237.000 300.000 L 235.500 299.031 237.439 299.015 L 239.377 299.000 237.189 296.961 L 235.000 294.922 235.000 293.461 L 235.000 292.000 235.455 292.000 L 235.909 292.000 238.609 294.700 L 241.310 297.401 240.794 294.700 L 240.277 292.000 241.249 292.000 L 242.222 292.000 239.861 290.086 L 237.500 288.172 238.228 287.442 L 238.955 286.711 242.417 289.084 L 245.880 291.456 244.690 292.322 L 243.500 293.189 245.500 292.481 L 247.500 291.773 249.250 291.270 L 251.000 290.767 251.000 289.957 L 251.000 289.147 252.250 288.717 L 253.500 288.287 251.751 288.550 L 250.002 288.812 249.442 287.906 L 248.882 287.000 247.819 287.000 L 246.755 287.000 248.000 288.500 L 249.245 290.000 248.345 290.000 L 247.444 290.000 245.615 287.864 L 243.786 285.728 243.084 286.864 L 242.382 288.000 240.441 286.532 L 238.500 285.064 237.281 285.032 L 236.063 285.000 236.725 286.750 L 237.388 288.500 235.595 286.722 L 233.801 284.944 235.023 283.472 L 236.245 282.000 238.122 282.000 L 240.000 282.000 239.750 283.250 L 239.500 284.500 242.676 284.535 L 245.852 284.569 245.367 283.785 L 244.882 283.000 246.382 283.000 L 247.882 283.000 248.566 284.107 L 249.250 285.214 250.045 283.927 L 250.840 282.640 254.388 286.188 L 257.935 289.735 260.468 289.251 L 263.000 288.767 263.000 289.800 L 263.000 290.833 261.750 291.399 L 260.500 291.965 262.500 291.720 L 264.500 291.475 264.717 287.544 L 264.935 283.612 265.436 282.306 L 265.937 281.000 264.591 281.000 L 263.244 281.000 259.372 279.281 L 255.500 277.562 254.500 277.435 L 253.500 277.307 251.500 276.476 L 249.500 275.646 248.765 274.573 L 248.031 273.500 248.015 274.797 L 248.000 276.093 245.531 274.297 L 243.063 272.500 243.031 271.357 L 243.000 270.214 241.549 269.657 L 240.098 269.100 237.214 264.051 L 234.331 259.003 233.505 259.751 L 232.679 260.500 233.409 259.234 L 234.138 257.967 235.239 258.648 L 236.340 259.328 235.556 257.414 L 234.773 255.500 234.270 253.750 L 233.767 252.000 232.883 252.000 L 232.000 252.000 232.000 250.680 L 232.000 249.360 228.661 245.430 L 225.322 241.500 221.841 236.500 L 218.359 231.500 214.285 222.500 L 210.211 213.500 207.466 205.250 L 204.721 197.000 203.015 197.000 L 201.310 197.000 199.655 195.171 L 198.000 193.343 198.000 191.055 L 198.000 188.768 196.362 183.634 L 194.724 178.500 189.292 167.500 L 183.861 156.500 184.564 152.215 L 185.267 147.931 187.206 145.465 L 189.145 143.000 190.603 143.000 L 192.060 143.000 191.657 149.020 L 191.254 155.039 191.985 155.491 L 192.715 155.942 194.772 151.721 L 196.829 147.500 198.044 142.500 L 199.259 137.500 199.613 126.049 L 199.966 114.597 198.733 113.814 L 197.500 113.031 198.750 113.015 L 200.000 113.000 200.000 111.045 L 200.000 109.091 202.421 102.421 L 204.842 95.752 204.334 94.429 L 203.827 93.107 205.414 87.650 L 207.000 82.192 207.000 78.974 L 207.000 75.755 205.370 77.108 L 203.740 78.461 204.477 75.105 L 205.214 71.750 204.192 72.381 L 203.171 73.012 202.595 71.756 M199.428 214.000 L 199.856 214.000 201.868 219.250 L 203.880 224.500 208.350 235.200 L 212.820 245.900 213.632 247.200 L 214.444 248.500 214.785 250.000 L 215.127 251.500 215.314 255.346 L 215.500 259.191 214.750 259.655 L 214.000 260.118 214.000 258.559 L 214.000 257.000 213.434 257.000 L 212.869 257.000 210.684 258.055 L 208.500 259.110 210.039 257.805 L 211.579 256.500 211.726 254.270 L 211.873 252.039 211.077 251.548 L 210.281 251.056 210.545 253.458 L 210.808 255.860 209.436 256.386 L 208.064 256.913 207.463 255.940 L 206.862 254.967 205.931 255.543 L 205.000 256.118 205.000 254.392 L 205.000 252.667 204.291 253.376 L 203.581 254.085 203.860 257.941 L 204.138 261.797 203.176 262.391 L 202.213 262.986 201.588 260.493 L 200.962 258.000 199.481 258.000 L 198.000 258.000 198.000 259.500 L 198.000 261.000 199.059 261.000 L 200.118 261.000 199.475 262.041 L 198.832 263.081 197.131 262.542 L 195.430 262.002 193.694 264.940 L 191.959 267.878 189.979 268.507 L 188.000 269.135 188.000 270.234 L 188.000 271.333 187.428 270.761 L 186.856 270.189 189.178 266.307 L 191.500 262.424 192.657 260.462 L 193.814 258.500 194.764 258.702 L 195.714 258.905 195.430 255.325 L 195.146 251.746 194.189 250.789 L 193.231 249.831 191.616 252.138 L 190.000 254.445 190.000 255.818 L 190.000 257.191 188.261 260.346 L 186.522 263.500 185.106 265.250 L 183.690 267.000 182.238 267.000 L 180.786 267.000 181.373 265.471 L 181.960 263.942 178.959 263.342 L 175.958 262.742 175.326 261.719 L 174.694 260.697 176.552 259.338 L 178.409 257.980 179.254 259.490 L 180.099 261.000 181.836 261.000 L 183.573 261.000 187.331 255.967 L 191.088 250.934 191.611 249.572 L 192.134 248.210 191.064 244.239 L 189.995 240.268 187.437 237.710 L 184.880 235.153 184.524 230.826 L 184.169 226.500 184.668 227.750 L 185.167 229.000 186.193 229.000 L 187.219 229.000 186.828 225.651 L 186.437 222.301 188.172 222.755 L 189.907 223.209 191.870 226.976 L 193.834 230.743 196.356 233.265 L 198.879 235.788 199.301 235.366 L 199.723 234.944 201.421 238.222 L 203.119 241.500 202.495 236.500 L 201.871 231.500 201.395 228.500 L 200.919 225.500 199.965 222.000 L 199.011 218.500 199.006 216.250 L 199.000 214.000 199.428 214.000 M405.768 236.000 L 404.699 236.000 405.368 246.202 L 406.037 256.405 407.122 257.075 L 408.206 257.746 407.079 259.852 L 405.952 261.959 406.586 264.488 L 407.221 267.017 409.657 267.629 L 412.093 268.240 412.725 267.608 L 413.357 266.976 412.151 257.738 L 410.945 248.500 408.891 242.250 L 406.837 236.000 405.768 236.000 M140.433 289.000 L 138.865 289.000 139.502 291.005 L 140.138 293.010 138.569 293.612 L 137.000 294.214 137.000 295.229 L 137.000 296.245 138.524 294.980 L 140.048 293.715 140.701 294.368 L 141.354 295.021 139.427 296.479 L 137.500 297.936 138.500 297.936 L 139.500 297.936 141.000 296.718 L 142.500 295.500 142.398 293.500 L 142.296 291.500 142.148 290.250 L 142.000 289.000 140.433 289.000 M254.330 292.480 L 252.000 290.954 252.000 291.869 L 252.000 292.783 249.373 293.442 L 246.747 294.102 248.947 296.443 L 251.146 298.785 249.823 299.313 L 248.500 299.842 250.668 299.921 L 252.836 300.000 254.668 300.666 L 256.500 301.332 254.000 299.199 L 251.500 297.067 252.667 297.033 L 253.833 297.000 254.292 298.250 L 254.750 299.500 255.951 298.374 L 257.152 297.248 253.826 296.089 L 250.500 294.929 251.942 294.036 L 253.385 293.144 254.661 294.822 L 255.936 296.500 255.984 295.500 L 256.031 294.500 256.776 295.673 L 257.522 296.845 260.986 296.137 L 264.449 295.429 261.192 294.080 L 257.936 292.731 257.298 293.369 L 256.660 294.007 254.330 292.480 M254.133 303.079 L 252.500 303.158 253.694 303.644 L 254.888 304.129 254.340 305.556 L 253.792 306.983 255.646 307.565 L 257.500 308.146 259.204 309.053 L 260.907 309.959 261.515 308.976 L 262.123 307.993 264.311 308.351 L 266.500 308.708 265.105 308.253 L 263.710 307.797 265.105 306.804 L 266.500 305.811 264.500 306.519 L 262.500 307.227 260.735 307.734 L 258.970 308.241 259.553 306.722 L 260.136 305.202 259.080 304.549 L 258.023 303.896 258.618 305.448 L 259.214 307.000 258.013 307.000 L 256.813 307.000 256.290 305.000 L 255.767 303.000 254.133 303.079 M251.538 307.070 L 250.245 304.654 249.555 306.827 L 248.865 309.000 246.183 309.015 L 243.500 309.031 245.000 310.000 L 246.500 310.969 245.832 310.985 L 245.164 311.000 243.645 310.417 L 242.126 309.834 242.670 308.417 L 243.214 307.000 241.050 307.000 L 238.887 307.000 240.659 310.000 L 242.431 313.000 243.716 313.000 L 245.000 313.000 245.000 313.969 L 245.000 314.937 246.541 314.346 L 248.082 313.755 247.791 315.091 L 247.500 316.427 252.500 319.018 L 257.500 321.608 263.286 323.935 L 269.072 326.261 269.696 325.637 L 270.320 325.013 269.160 321.140 L 268.000 317.268 268.000 314.103 L 268.000 310.937 266.498 310.361 L 264.996 309.784 262.375 310.442 L 259.754 311.100 261.626 312.468 L 263.497 313.836 262.926 314.408 L 262.354 314.979 259.995 312.780 L 257.635 310.582 254.067 310.832 L 250.500 311.083 251.665 310.285 L 252.831 309.487 251.538 307.070 " stroke="#000000" fill="none"/></svg>