<?xml version="1.0" standalone="no"?>
<svg xmlns:xlink="http://www.w3.org/1999/xlink" xmlns="http://www.w3.org/2000/svg" id="workspace"><path d="M85.000 0.000 L 0.000 0.000 0.000 166.500 L 0.000 333.000 32.567 333.000 L 65.135 333.000 64.483 330.750 L 63.832 328.500 59.394 314.500 L 54.955 300.500 54.079 298.500 L 53.202 296.500 52.169 293.500 L 51.137 290.500 49.975 280.000 L 48.813 269.500 47.347 262.000 L 45.882 254.500 43.420 244.500 L 40.959 234.500 38.865 229.500 L 36.772 224.500 33.339 220.275 L 29.907 216.050 28.278 214.421 L 26.649 212.792 27.898 210.791 L 29.148 208.791 28.213 209.368 L 27.278 209.946 27.544 205.223 L 27.811 200.500 28.359 198.000 L 28.906 195.500 29.499 190.500 L 30.092 185.500 30.580 181.500 L 31.068 177.500 31.566 176.086 L 32.063 174.672 32.595 171.086 L 33.127 167.500 33.638 165.000 L 34.149 162.500 34.483 159.000 L 34.817 155.500 35.332 153.500 L 35.847 151.500 36.042 151.000 L 36.237 150.500 36.149 149.842 L 36.061 149.184 37.456 141.342 L 38.851 133.500 39.354 130.500 L 39.857 127.500 42.507 111.000 L 45.157 94.500 46.263 89.000 L 47.369 83.500 47.217 82.849 L 47.066 82.199 48.605 74.849 L 50.145 67.500 50.636 64.500 L 51.127 61.500 51.193 60.000 L 51.259 58.500 52.711 50.500 L 54.164 42.500 54.502 40.500 L 54.841 38.500 55.438 34.000 L 56.035 29.500 56.451 28.000 L 56.868 26.500 57.493 21.525 L 58.117 16.549 58.315 16.352 L 58.513 16.154 74.006 15.622 L 89.500 15.091 122.500 14.831 L 155.500 14.572 162.750 14.204 L 170.000 13.836 170.000 6.918 L 170.000 0.000 85.000 0.000 M493.192 -0.000 L 486.333 0.000 485.832 0.501 L 485.331 1.002 486.216 7.251 L 487.102 13.500 487.150 15.500 L 487.199 17.500 488.157 22.500 L 489.115 27.500 489.590 29.803 L 490.065 32.107 494.782 31.803 L 499.500 31.500 499.775 15.750 L 500.051 -0.000 493.192 -0.000 M264.500 34.583 L 251.500 34.362 242.817 36.931 L 234.134 39.500 230.817 42.158 L 227.500 44.817 222.909 48.658 L 218.319 52.500 214.814 57.500 L 211.310 62.500 210.027 66.000 L 208.744 69.500 208.486 89.000 L 208.227 108.500 210.364 110.329 L 212.500 112.158 209.500 111.501 L 206.500 110.844 204.849 109.357 L 203.199 107.870 202.543 108.931 L 201.887 109.992 201.505 111.975 L 201.123 113.958 202.110 114.568 L 203.097 115.178 202.049 116.441 L 201.000 117.705 201.388 121.102 L 201.776 124.500 201.888 126.809 L 202.000 129.118 203.107 128.434 L 204.214 127.750 203.540 129.875 L 202.865 132.000 203.992 132.000 L 205.118 132.000 204.500 133.000 L 203.882 134.000 204.941 134.000 L 206.000 134.000 205.771 134.750 L 205.541 135.500 207.436 138.665 L 209.331 141.830 211.565 142.847 L 213.799 143.865 215.712 143.365 L 217.625 142.865 218.813 148.011 L 220.001 153.157 220.627 158.486 L 221.254 163.815 220.561 169.361 L 219.868 174.907 217.877 175.539 L 215.886 176.171 214.258 179.585 L 212.630 183.000 210.815 183.000 L 209.000 183.000 209.000 183.285 L 209.000 183.569 211.119 189.535 L 213.237 195.500 213.083 201.813 L 212.929 208.127 215.464 211.140 L 218.000 214.153 217.965 217.327 L 217.929 220.500 216.554 222.984 L 215.180 225.467 215.958 226.984 L 216.736 228.500 217.940 233.634 L 219.144 238.767 223.205 239.417 L 227.267 240.066 227.597 239.737 L 227.927 239.407 226.463 234.544 L 225.000 229.682 225.000 228.841 L 225.000 228.000 226.443 228.000 L 227.887 228.000 229.283 229.994 L 230.679 231.987 231.188 231.478 L 231.697 230.970 233.599 233.629 L 235.500 236.288 237.250 237.866 L 239.000 239.444 239.006 240.472 L 239.013 241.500 241.836 243.106 L 244.659 244.711 247.955 252.888 L 251.251 261.065 250.650 264.767 L 250.050 268.468 247.275 272.405 L 244.500 276.342 243.018 276.832 L 241.536 277.321 243.315 275.542 L 245.095 273.762 244.798 273.598 L 244.500 273.434 242.964 272.272 L 241.427 271.110 241.206 273.781 L 240.985 276.453 239.155 280.152 L 237.324 283.852 239.735 285.676 L 242.147 287.500 242.701 291.722 L 243.256 295.944 239.878 299.314 L 236.500 302.684 231.000 303.490 L 225.500 304.296 217.090 304.398 L 208.680 304.500 207.257 309.587 L 205.834 314.675 209.898 320.475 L 213.961 326.276 214.592 329.638 L 215.223 333.000 278.170 333.000 L 341.118 333.000 340.500 332.000 L 339.882 331.000 337.615 331.000 L 335.349 331.000 333.022 328.524 L 330.696 326.047 330.551 321.757 L 330.406 317.466 329.687 316.302 L 328.967 315.138 330.059 314.464 L 331.151 313.789 329.062 311.843 L 326.974 309.898 326.056 310.465 L 325.138 311.033 324.520 310.032 L 323.901 309.031 321.700 309.181 L 319.500 309.331 312.185 308.064 L 304.869 306.797 304.328 307.339 L 303.787 307.880 302.643 306.965 L 301.500 306.050 298.849 303.775 L 296.198 301.500 295.592 298.796 L 294.985 296.092 297.181 294.046 L 299.377 292.000 297.939 291.964 L 296.500 291.928 293.619 289.572 L 290.739 287.216 290.432 283.358 L 290.125 279.500 292.237 277.250 L 294.349 275.000 292.902 275.000 L 291.455 275.000 289.664 271.675 L 287.874 268.351 287.605 263.579 L 287.335 258.808 288.738 257.405 L 290.140 256.003 292.320 255.584 L 294.500 255.165 303.889 254.209 L 313.279 253.254 314.189 251.627 L 315.099 250.000 316.721 250.000 L 318.343 250.000 320.113 248.398 L 321.883 246.796 324.314 246.648 L 326.745 246.500 326.268 245.256 L 325.790 244.011 325.000 244.500 L 324.210 244.989 323.648 243.526 L 323.087 242.064 324.172 241.394 L 325.257 240.723 323.628 239.812 L 322.000 238.901 321.968 237.200 L 321.936 235.500 320.468 233.559 L 319.000 231.618 319.000 227.866 L 319.000 224.113 321.137 222.617 L 323.274 221.120 322.670 218.099 L 322.065 215.077 323.533 213.610 L 325.000 212.143 325.000 209.837 L 325.000 207.531 322.980 211.016 L 320.961 214.500 318.491 219.500 L 316.021 224.500 315.382 229.250 L 314.742 234.000 313.621 233.984 L 312.500 233.967 308.750 231.734 L 304.999 229.500 296.377 223.604 L 287.755 217.707 285.128 212.104 L 282.500 206.500 282.000 221.500 L 281.500 236.500 276.811 229.313 L 272.122 222.126 269.556 220.445 L 266.990 218.763 265.369 220.109 L 263.747 221.455 260.374 221.671 L 257.000 221.886 257.000 221.057 L 257.000 220.227 254.250 219.650 L 251.500 219.073 248.346 218.437 L 245.193 217.801 238.846 219.973 L 232.500 222.144 231.000 222.731 L 229.500 223.318 228.750 223.159 L 228.000 223.000 228.000 224.167 L 228.000 225.333 227.342 224.675 L 226.684 224.017 225.426 225.061 L 224.168 226.105 223.418 223.803 L 222.667 221.500 222.553 219.310 L 222.439 217.120 223.933 218.310 L 225.427 219.500 223.138 215.565 L 220.849 211.630 222.425 212.937 L 224.000 214.245 224.000 213.314 L 224.000 212.382 222.532 210.441 L 221.064 208.500 221.032 207.694 L 221.000 206.888 223.581 209.694 L 226.161 212.500 225.417 211.000 L 224.672 209.500 222.670 206.500 L 220.669 203.500 224.467 207.000 L 228.266 210.500 226.597 207.871 L 224.928 205.242 226.620 204.592 L 228.311 203.943 230.855 206.222 L 233.399 208.500 231.555 205.500 L 229.712 202.500 232.170 204.750 L 234.629 207.000 235.564 206.985 L 236.500 206.969 235.000 206.000 L 233.500 205.031 235.083 205.015 L 236.667 205.000 237.416 205.750 L 238.166 206.500 240.833 206.775 L 243.500 207.050 245.500 207.167 L 247.500 207.284 250.000 206.790 L 252.500 206.296 252.502 204.411 L 252.504 202.527 254.338 202.173 L 256.172 201.820 255.567 199.410 L 254.962 197.000 256.981 197.000 L 259.000 197.000 259.000 196.132 L 259.000 195.264 265.250 195.257 L 271.500 195.251 274.000 195.055 L 276.500 194.859 274.835 194.180 L 273.170 193.500 269.141 189.762 L 265.113 186.024 263.998 184.262 L 262.884 182.500 262.359 183.750 L 261.833 185.000 260.917 185.000 L 260.000 185.000 260.000 183.500 L 260.000 182.000 258.833 182.000 L 257.667 182.000 258.350 181.317 L 259.033 180.633 256.105 179.402 L 253.177 178.171 252.031 172.652 L 250.886 167.132 250.768 164.816 L 250.651 162.500 249.425 161.000 L 248.199 159.500 247.572 155.500 L 246.946 151.500 246.723 148.000 L 246.500 144.500 245.595 143.095 L 244.691 141.691 246.095 142.500 L 247.500 143.309 244.750 140.350 L 242.000 137.391 242.000 135.862 L 242.000 134.333 241.250 133.583 L 240.500 132.833 240.422 132.167 L 240.345 131.500 239.547 127.675 L 238.749 123.851 239.875 122.725 L 241.000 121.600 241.000 119.825 L 241.000 118.050 243.500 119.025 L 246.000 120.000 248.250 120.880 L 250.500 121.760 251.000 121.711 L 251.500 121.662 253.875 122.933 L 256.250 124.204 258.504 122.998 L 260.758 121.791 260.298 120.033 L 259.839 118.275 261.919 117.731 L 264.000 117.187 264.000 115.026 L 264.000 112.865 266.250 113.576 L 268.500 114.287 269.807 116.143 L 271.113 118.000 272.679 118.000 L 274.245 118.000 272.945 116.434 L 271.646 114.868 268.872 113.434 L 266.099 112.000 261.927 112.000 L 257.755 112.000 258.910 110.608 L 260.066 109.216 261.892 108.739 L 263.718 108.261 267.269 109.482 L 270.820 110.702 273.274 113.351 L 275.729 116.000 276.858 116.000 L 277.987 116.000 277.697 117.902 L 277.407 119.805 276.081 121.402 L 274.755 123.000 276.859 123.000 L 278.962 123.000 279.596 125.527 L 280.230 128.054 281.481 127.016 L 282.731 125.978 283.989 120.050 L 285.247 114.122 284.597 111.532 L 283.947 108.943 280.474 107.286 L 277.000 105.630 277.000 104.886 L 277.000 104.143 278.409 102.734 L 279.818 101.324 279.159 100.355 L 278.500 99.386 275.500 98.269 L 272.500 97.152 265.900 96.703 L 259.301 96.254 255.822 97.450 L 252.343 98.646 250.921 98.073 L 249.500 97.500 249.361 95.750 L 249.222 94.000 251.111 94.000 L 253.000 94.000 253.000 92.500 L 253.000 91.000 254.000 91.000 L 255.000 91.000 255.000 88.500 L 255.000 86.000 253.833 86.000 L 252.667 86.000 253.309 85.357 L 253.952 84.715 255.640 86.107 L 257.327 87.500 255.995 85.000 L 254.662 82.500 254.746 82.112 L 254.829 81.724 256.165 80.877 L 257.500 80.031 261.000 80.000 L 264.500 79.969 263.118 79.094 L 261.736 78.219 264.425 76.457 L 267.114 74.695 272.146 74.212 L 277.179 73.728 275.839 72.898 L 274.500 72.067 283.500 72.562 L 292.500 73.058 297.352 73.494 L 302.205 73.930 306.602 76.507 L 311.000 79.084 311.000 80.542 L 311.000 82.000 311.879 82.000 L 312.757 82.000 314.116 85.250 L 315.476 88.500 315.213 89.324 L 314.950 90.149 316.069 89.457 L 317.188 88.766 316.733 86.383 L 316.277 84.000 317.108 84.000 L 317.939 84.000 317.810 80.553 L 317.680 77.107 317.090 77.172 L 316.500 77.237 315.628 77.118 L 314.755 77.000 315.926 75.589 L 317.097 74.178 316.032 73.520 L 314.967 72.862 315.582 71.868 L 316.196 70.874 314.500 69.000 L 312.804 67.126 313.388 66.181 L 313.973 65.235 312.124 62.868 L 310.275 60.500 309.616 58.500 L 308.957 56.500 305.509 52.798 L 302.061 49.096 299.280 47.588 L 296.500 46.080 298.396 46.040 L 300.292 46.000 297.579 43.485 L 294.865 40.970 291.183 39.378 L 287.500 37.785 282.500 36.295 L 277.500 34.804 264.500 34.583 M495.607 36.000 L 491.214 36.000 490.651 37.468 L 490.087 38.936 490.928 39.456 L 491.769 39.976 491.506 43.238 L 491.242 46.500 492.371 47.235 L 493.500 47.969 492.128 47.985 L 490.755 48.000 491.938 49.426 L 493.122 50.852 492.811 52.676 L 492.500 54.500 496.250 54.810 L 500.000 55.121 500.000 45.560 L 500.000 36.000 495.607 36.000 M266.191 101.136 L 268.882 101.000 269.510 102.016 L 270.138 103.033 271.069 102.457 L 272.000 101.882 272.000 104.218 L 272.000 106.555 273.494 108.688 L 274.988 110.821 273.737 110.638 L 272.486 110.454 270.166 108.829 L 267.846 107.204 260.740 107.598 L 253.634 107.991 256.455 105.047 L 259.276 102.103 261.388 101.688 L 263.500 101.272 266.191 101.136 M210.240 115.128 L 212.056 116.100 211.306 117.300 L 210.556 118.500 210.278 119.750 L 210.000 121.000 209.727 122.257 L 209.454 123.514 207.769 125.920 L 206.083 128.326 206.601 129.163 L 207.118 130.000 206.059 130.000 L 205.000 130.000 205.000 126.723 L 205.000 123.445 206.505 121.296 L 208.010 119.147 208.217 116.652 L 208.423 114.156 210.240 115.128 M300.634 115.134 L 296.072 115.370 295.567 116.685 L 295.063 118.000 295.615 119.439 L 296.167 120.878 299.182 121.540 L 302.198 122.202 303.349 120.976 L 304.500 119.750 303.250 119.292 L 302.000 118.833 302.000 117.417 L 302.000 116.000 304.000 116.000 L 306.000 116.000 308.000 118.000 L 310.000 120.000 310.000 119.023 L 310.000 118.046 307.598 116.472 L 305.195 114.898 300.634 115.134 M277.500 132.398 L 276.500 132.129 274.370 134.315 L 272.239 136.500 270.916 139.000 L 269.592 141.500 269.546 143.000 L 269.500 144.500 271.395 145.613 L 273.290 146.726 270.184 149.022 L 267.079 151.318 267.686 152.409 L 268.293 153.500 266.947 152.250 L 265.600 151.000 264.467 151.000 L 263.334 151.000 263.508 153.250 L 263.682 155.500 261.841 156.807 L 260.000 158.113 260.000 159.557 L 260.000 161.000 262.000 163.000 L 264.000 165.000 263.250 165.004 L 262.500 165.007 265.640 166.922 L 268.780 168.837 271.140 169.169 L 273.500 169.500 273.500 168.000 L 273.500 166.500 276.365 165.250 L 279.230 164.000 280.115 164.000 L 281.000 164.000 281.000 165.500 L 281.000 167.000 282.000 167.000 L 283.000 167.000 282.750 165.750 L 282.500 164.500 284.500 164.850 L 286.500 165.200 287.178 166.293 L 287.857 167.386 290.678 166.028 L 293.500 164.670 288.500 163.814 L 283.500 162.959 281.000 161.863 L 278.500 160.767 276.873 159.952 L 275.246 159.137 271.623 158.457 L 268.000 157.777 268.000 156.782 L 268.000 155.786 266.566 156.336 L 265.133 156.886 265.261 155.193 L 265.390 153.500 268.195 153.290 L 271.000 153.081 271.000 153.988 L 271.000 154.896 274.250 153.779 L 277.500 152.662 279.250 150.678 L 281.000 148.694 281.000 149.730 L 281.000 150.767 283.115 151.320 L 285.230 151.873 287.115 150.696 L 289.000 149.519 289.000 148.318 L 289.000 147.118 288.079 146.549 L 287.157 145.979 284.329 145.612 L 281.500 145.244 278.875 144.545 L 276.251 143.846 275.118 141.359 L 273.985 138.872 275.421 137.436 L 276.857 136.000 278.002 136.000 L 279.147 136.000 278.823 134.333 L 278.500 132.666 277.500 132.398 M212.418 133.000 L 212.836 133.000 214.418 133.607 L 216.000 134.214 216.000 136.107 L 216.000 138.000 215.250 137.882 L 214.500 137.763 213.500 137.904 L 212.500 138.044 214.872 139.868 L 217.244 141.692 215.622 142.315 L 214.000 142.937 214.000 141.910 L 214.000 140.882 212.855 141.590 L 211.710 142.297 212.216 139.649 L 212.723 137.000 211.950 137.000 L 211.177 137.000 211.512 135.250 L 211.847 133.500 211.923 133.250 L 212.000 133.000 212.418 133.000 M189.777 185.362 L 188.708 184.702 189.402 187.468 L 190.097 190.233 190.639 192.943 L 191.180 195.652 188.801 197.211 L 186.422 198.770 178.461 200.492 L 170.500 202.215 163.470 205.539 L 156.441 208.863 150.653 211.028 L 144.866 213.194 133.183 211.946 L 121.500 210.697 114.686 211.435 L 107.873 212.173 104.585 215.059 L 101.297 217.946 98.573 224.018 L 95.848 230.089 93.857 237.272 L 91.867 244.456 91.016 245.480 L 90.166 246.505 88.183 254.002 L 86.199 261.500 82.018 273.000 L 77.837 284.500 77.060 292.735 L 76.283 300.970 72.141 305.463 L 68.000 309.955 68.100 312.728 L 68.199 315.500 68.881 317.941 L 69.562 320.381 68.420 325.941 L 67.277 331.500 67.710 332.270 L 68.143 333.040 107.104 332.977 L 146.064 332.913 145.473 331.957 L 144.882 331.000 145.882 331.000 L 146.882 331.000 147.500 332.000 L 148.118 333.000 149.214 333.000 L 150.310 333.000 148.655 331.171 L 147.000 329.343 147.030 327.921 L 147.061 326.500 148.216 328.500 L 149.370 330.500 150.614 331.750 L 151.857 333.000 152.897 333.000 L 153.937 333.000 153.357 331.489 L 152.777 329.977 154.639 330.649 L 156.500 331.320 154.367 328.910 L 152.234 326.500 150.543 323.157 L 148.853 319.814 149.353 319.314 L 149.853 318.814 151.403 321.657 L 152.953 324.500 155.528 327.365 L 158.103 330.231 158.712 329.622 L 159.321 329.013 157.366 327.256 L 155.411 325.500 153.387 322.000 L 151.363 318.500 150.775 316.249 L 150.187 313.997 150.963 314.477 L 151.740 314.957 152.986 317.966 L 154.232 320.975 155.079 320.451 L 155.926 319.927 153.967 316.714 L 152.007 313.500 152.040 312.500 L 152.072 311.500 154.531 314.500 L 156.990 317.500 156.995 316.849 L 157.000 316.199 154.510 310.849 L 152.020 305.500 152.100 302.500 L 152.180 299.500 153.119 302.750 L 154.057 306.000 154.590 306.000 L 155.123 306.000 154.479 301.712 L 153.836 297.424 155.668 295.415 L 157.500 293.406 156.613 294.721 L 155.726 296.036 156.318 301.034 L 156.910 306.033 158.426 308.198 L 159.943 310.364 158.830 311.705 L 157.717 313.046 159.532 312.349 L 161.347 311.653 160.685 313.378 L 160.023 315.104 160.907 314.558 L 161.790 314.011 162.398 315.596 L 163.006 317.180 162.355 318.234 L 161.704 319.288 164.646 317.550 L 167.589 315.812 167.743 313.757 L 167.898 311.702 168.790 310.810 L 169.682 309.918 172.841 313.149 L 176.000 316.380 176.000 317.071 L 176.000 317.762 181.269 320.428 L 186.539 323.094 190.303 322.840 L 194.067 322.587 193.747 321.043 L 193.427 319.500 191.714 319.794 L 190.000 320.088 190.000 319.044 L 190.000 318.000 189.250 318.118 L 188.500 318.237 187.312 318.118 L 186.124 318.000 186.264 316.146 L 186.404 314.293 187.976 314.704 L 189.549 315.115 192.525 313.564 L 195.500 312.012 197.114 312.006 L 198.727 312.000 201.364 309.364 L 204.000 306.727 204.000 305.364 L 204.000 304.000 202.500 304.000 L 201.000 304.000 201.000 304.832 L 201.000 305.664 197.347 306.786 L 193.694 307.907 192.028 307.015 L 190.363 306.124 188.431 306.416 L 186.500 306.708 184.250 305.694 L 182.000 304.679 181.997 303.589 L 181.994 302.500 178.930 300.500 L 175.866 298.500 174.933 296.815 L 174.000 295.131 174.945 292.644 L 175.891 290.157 175.892 284.828 L 175.894 279.500 175.500 272.018 L 175.106 264.535 174.053 264.184 L 173.000 263.833 173.000 261.964 L 173.000 260.094 174.161 257.547 L 175.321 255.000 176.161 255.000 L 177.000 255.000 177.000 253.441 L 177.000 251.882 176.100 252.438 L 175.200 252.995 175.521 249.535 L 175.843 246.075 177.582 243.131 L 179.321 240.186 180.825 240.763 L 182.328 241.340 181.636 240.220 L 180.944 239.101 184.615 238.412 L 188.285 237.724 185.987 235.990 L 183.688 234.256 184.313 232.628 L 184.937 231.000 185.969 231.000 L 187.000 231.000 187.000 232.000 L 187.000 233.000 188.465 233.000 L 189.930 233.000 190.932 231.127 L 191.934 229.254 191.516 227.082 L 191.097 224.910 191.654 223.461 L 192.210 222.011 193.121 222.575 L 194.033 223.138 193.442 224.094 L 192.851 225.050 193.676 224.906 L 194.500 224.763 195.000 224.965 L 195.500 225.167 197.500 225.464 L 199.500 225.761 203.750 226.508 L 208.000 227.256 208.000 226.432 L 208.000 225.608 205.594 222.054 L 203.188 218.500 202.536 215.345 L 201.883 212.190 202.941 211.536 L 204.000 210.882 204.000 209.941 L 204.000 209.000 202.750 209.006 L 201.500 209.012 198.601 210.524 L 195.702 212.036 195.254 211.587 L 194.805 211.139 196.903 209.829 L 199.000 208.519 199.000 207.713 L 199.000 206.908 195.631 199.704 L 192.262 192.500 191.554 189.261 L 190.846 186.023 189.777 185.362 M271.905 235.330 L 273.500 237.738 275.202 236.655 L 276.904 235.571 277.392 236.059 L 277.880 236.547 278.119 241.774 L 278.357 247.000 278.964 247.000 L 279.571 247.000 279.683 248.750 L 279.795 250.500 280.556 256.500 L 281.318 262.500 281.253 269.000 L 281.188 275.500 280.565 284.000 L 279.942 292.500 279.908 299.500 L 279.874 306.500 279.018 304.382 L 278.162 302.264 277.582 297.882 L 277.002 293.500 275.470 282.666 L 273.939 271.831 271.834 265.666 L 269.728 259.500 268.342 256.756 L 266.955 254.012 266.846 250.256 L 266.738 246.500 267.267 241.225 L 267.796 235.950 269.053 234.436 L 270.309 232.923 271.905 235.330 M347.250 250.194 L 343.000 247.850 343.000 251.980 L 343.000 256.110 344.939 260.367 L 346.879 264.624 347.089 274.562 L 347.300 284.500 348.117 293.000 L 348.934 301.500 349.486 304.613 L 350.039 307.725 354.935 310.769 L 359.831 313.812 361.623 316.547 L 363.415 319.283 365.022 325.891 L 366.628 332.500 368.814 332.820 L 371.000 333.139 370.978 329.320 L 370.956 325.500 368.982 321.150 L 367.008 316.800 367.592 313.150 L 368.176 309.499 367.066 301.516 L 365.955 293.534 364.522 288.517 L 363.089 283.500 360.425 273.255 L 357.760 263.010 354.630 257.774 L 351.500 252.538 347.250 250.194 M213.151 282.855 L 203.803 282.500 203.342 283.250 L 202.882 284.000 203.691 284.059 L 204.500 284.119 211.066 284.595 L 217.631 285.072 220.066 284.141 L 222.500 283.209 213.151 282.855 M353.316 311.661 L 351.859 310.821 352.179 321.911 L 352.500 333.000 353.068 333.000 L 353.635 333.000 354.568 327.750 L 355.500 322.500 357.500 322.500 L 359.500 322.500 360.025 326.000 L 360.550 329.500 361.262 327.000 L 361.973 324.500 361.986 322.845 L 362.000 321.189 358.387 316.845 L 354.774 312.500 353.316 311.661 M174.156 321.377 L 169.500 318.899 173.919 322.985 L 178.338 327.071 179.154 325.786 L 179.969 324.500 179.985 323.583 L 180.000 322.667 179.406 323.261 L 178.812 323.855 174.156 321.377 M203.633 320.785 L 202.330 319.070 201.165 320.235 L 200.000 321.400 200.000 322.669 L 200.000 323.937 198.649 323.419 L 197.298 322.900 195.214 327.700 L 193.131 332.500 197.662 332.809 L 202.194 333.117 203.569 331.309 L 204.944 329.500 204.358 328.000 L 203.773 326.500 203.229 324.594 L 202.685 322.687 203.842 323.403 L 205.000 324.118 204.968 323.309 L 204.936 322.500 203.633 320.785 M209.031 328.000 L 208.063 328.000 208.705 329.674 L 209.347 331.347 207.756 330.737 L 206.166 330.126 205.614 331.563 L 205.063 333.000 209.638 333.000 L 214.214 333.000 213.607 331.418 L 213.000 329.836 213.000 328.918 L 213.000 328.000 212.073 328.000 L 211.147 328.000 210.689 329.750 L 210.232 331.500 210.116 329.750 L 210.000 328.000 209.031 328.000 " stroke="#000000" fill="none"/><path d="M86.000 0.000 L 0.000 0.000 0.000 166.509 L 0.000 333.019 91.500 332.990 L 183.000 332.960 183.000 331.921 L 183.000 330.882 181.992 331.505 L 180.985 332.128 179.373 330.516 L 177.762 328.905 178.435 328.231 L 179.109 327.558 179.804 328.529 L 180.500 329.500 183.654 331.250 L 186.809 333.000 200.331 333.000 L 213.853 333.000 214.311 331.250 L 214.768 329.500 214.884 331.250 L 215.000 333.000 280.000 333.000 L 345.000 333.000 345.000 332.321 L 345.000 331.642 343.797 328.315 L 342.594 324.988 339.865 323.780 L 337.136 322.572 337.725 319.536 L 338.314 316.500 339.407 315.765 L 340.500 315.031 339.500 315.000 L 338.500 314.969 339.803 314.143 L 341.106 313.317 341.492 310.265 L 341.878 307.213 337.197 304.857 L 332.516 302.500 331.290 301.000 L 330.064 299.500 330.032 298.312 L 330.000 297.123 332.750 294.133 L 335.500 291.143 338.259 290.461 L 341.019 289.778 341.524 288.961 L 342.029 288.144 339.949 287.484 L 337.869 286.824 334.438 283.811 L 331.006 280.799 331.562 279.899 L 332.118 279.000 331.380 279.000 L 330.642 279.000 327.071 280.250 L 323.500 281.500 322.400 282.906 L 321.299 284.311 319.241 283.773 L 317.183 283.235 313.261 283.952 L 309.339 284.669 307.235 283.891 L 305.131 283.113 304.053 281.098 L 302.975 279.084 305.224 277.880 L 307.474 276.676 315.828 276.835 L 324.181 276.994 325.340 277.719 L 326.500 278.444 327.750 278.633 L 329.000 278.823 329.000 277.979 L 329.000 277.135 331.163 276.448 L 333.326 275.762 331.413 274.684 L 329.500 273.607 334.000 272.459 L 338.500 271.311 340.357 272.248 L 342.215 273.185 343.357 272.039 L 344.500 270.892 342.000 268.996 L 339.500 267.101 337.062 266.484 L 334.624 265.867 333.386 264.184 L 332.149 262.500 331.099 265.250 L 330.050 268.000 327.525 268.000 L 325.000 268.000 325.000 269.254 L 325.000 270.507 315.250 270.201 L 305.500 269.896 300.999 269.934 L 296.497 269.972 293.499 267.554 L 290.500 265.136 292.412 263.713 L 294.325 262.289 293.610 260.425 L 292.894 258.561 293.605 259.272 L 294.316 259.983 295.759 258.785 L 297.202 257.588 298.851 257.287 L 300.500 256.986 306.749 256.743 L 312.998 256.500 312.999 255.812 L 313.000 255.124 315.000 255.275 L 317.000 255.426 317.000 256.213 L 317.000 257.000 323.418 257.000 L 329.836 257.000 331.418 256.393 L 333.000 255.786 333.000 253.452 L 333.000 251.118 334.000 250.500 L 335.000 249.882 335.000 247.058 L 335.000 244.233 333.000 243.710 L 331.000 243.187 331.000 241.094 L 331.000 239.000 330.000 239.000 L 329.000 239.000 329.000 238.062 L 329.000 237.123 326.000 233.839 L 323.000 230.554 323.000 226.746 L 323.000 222.937 324.419 222.393 L 325.838 221.848 328.380 223.513 L 330.922 225.179 331.560 227.190 L 332.199 229.201 333.006 228.351 L 333.814 227.500 334.801 223.844 L 335.787 220.187 334.694 219.094 L 333.600 218.000 334.641 218.000 L 335.683 218.000 335.602 213.000 L 335.521 208.000 334.869 208.000 L 334.217 208.000 333.589 205.500 L 332.962 203.000 330.849 203.000 L 328.736 203.000 325.618 206.308 L 322.500 209.616 319.161 216.470 L 315.822 223.323 315.271 228.661 L 314.720 234.000 314.320 234.000 L 313.920 234.000 310.210 232.006 L 306.500 230.012 297.500 223.749 L 288.500 217.486 285.500 211.493 L 282.500 205.500 282.000 220.408 L 281.500 235.316 280.375 233.908 L 279.250 232.500 277.727 229.500 L 276.204 226.500 273.352 223.292 L 270.500 220.085 267.750 219.067 L 265.000 218.050 265.000 219.025 L 265.000 220.000 263.264 220.000 L 261.528 220.000 264.946 217.750 L 268.364 215.500 271.432 212.402 L 274.500 209.305 276.754 206.757 L 279.008 204.210 279.660 200.949 L 280.312 197.689 279.233 198.356 L 278.154 199.023 277.531 201.860 L 276.908 204.697 273.704 207.657 L 270.500 210.618 267.000 213.093 L 263.500 215.568 260.703 216.784 L 257.906 218.000 257.541 218.000 L 257.177 218.000 257.387 216.750 L 257.596 215.500 258.666 213.500 L 259.737 211.500 260.944 208.000 L 262.151 204.500 267.113 200.250 L 272.074 196.000 278.803 196.000 L 285.531 196.000 288.962 194.160 L 292.393 192.320 292.782 191.154 L 293.171 189.988 289.835 190.007 L 286.500 190.027 281.773 189.991 L 277.046 189.955 275.855 187.730 L 274.665 185.505 274.582 180.896 L 274.500 176.288 281.500 176.120 L 288.500 175.951 290.750 173.420 L 293.000 170.888 293.000 169.012 L 293.000 167.136 296.012 164.992 L 299.024 162.847 298.547 162.077 L 298.071 161.306 295.286 161.154 L 292.500 161.002 289.184 160.247 L 285.867 159.493 288.208 155.997 L 290.549 152.500 292.775 151.513 L 295.000 150.526 295.000 148.763 L 295.000 147.000 293.468 147.000 L 291.936 147.000 291.103 144.750 L 290.271 142.500 291.275 140.295 L 292.280 138.090 289.979 130.936 L 287.679 123.781 288.764 116.768 L 289.850 109.755 287.859 107.628 L 285.868 105.500 284.316 102.241 L 282.763 98.982 279.382 97.377 L 276.000 95.772 276.000 94.957 L 276.000 94.143 274.336 92.479 L 272.672 90.815 278.350 91.524 L 284.027 92.234 283.444 90.715 L 282.862 89.197 280.681 88.457 L 278.500 87.718 281.297 87.288 L 284.094 86.858 288.463 87.790 L 292.832 88.722 294.166 87.876 L 295.500 87.031 293.688 87.015 L 291.876 87.000 286.923 85.380 L 281.970 83.760 281.328 82.722 L 280.687 81.684 286.093 82.306 L 291.500 82.928 287.500 81.033 L 283.500 79.138 285.681 78.470 L 287.862 77.803 288.373 76.469 L 288.885 75.135 293.890 75.365 L 298.895 75.595 300.776 77.298 L 302.657 79.000 304.257 79.000 L 305.857 79.000 307.429 80.571 L 309.000 82.143 309.000 83.130 L 309.000 84.118 307.845 83.405 L 306.691 82.691 307.324 83.715 L 307.957 84.740 310.841 85.934 L 313.725 87.129 314.383 94.210 L 315.041 101.292 314.769 101.564 L 314.497 101.836 309.664 100.730 L 304.831 99.624 302.853 100.860 L 300.875 102.095 298.937 101.480 L 297.000 100.865 297.000 101.498 L 297.000 102.131 297.991 103.982 L 298.981 105.833 295.491 110.011 L 292.000 114.189 292.000 115.030 L 292.000 115.870 293.154 118.685 L 294.307 121.500 294.572 122.800 L 294.838 124.099 295.856 125.326 L 296.873 126.552 300.464 127.851 L 304.055 129.149 307.471 126.325 L 310.888 123.500 312.112 119.500 L 313.337 115.500 313.602 114.100 L 313.867 112.700 315.137 111.915 L 316.407 111.131 316.602 105.815 L 316.797 100.500 317.745 94.500 L 318.692 88.500 318.417 82.000 L 318.141 75.500 317.594 71.573 L 317.046 67.647 316.273 67.073 L 315.500 66.500 313.431 63.500 L 311.362 60.500 309.431 56.268 L 307.500 52.036 305.937 51.510 L 304.374 50.984 301.237 46.534 L 298.101 42.085 293.301 39.659 L 288.500 37.233 282.000 35.319 L 275.500 33.405 263.500 33.671 L 251.500 33.938 246.000 35.506 L 240.500 37.074 239.000 37.358 L 237.500 37.641 235.500 38.495 L 233.500 39.348 227.955 43.575 L 222.409 47.802 221.043 49.448 L 219.677 51.095 218.982 49.971 L 218.288 48.848 215.394 51.488 L 212.500 54.127 215.250 52.449 L 218.000 50.770 218.000 51.428 L 218.000 52.086 214.083 57.293 L 210.166 62.500 209.451 66.500 L 208.736 70.500 208.352 72.500 L 207.967 74.500 207.869 88.602 L 207.771 102.703 208.432 104.785 L 209.092 106.866 205.819 107.183 L 202.546 107.500 201.288 110.000 L 200.029 112.500 200.015 117.145 L 200.000 121.789 202.027 128.353 L 204.054 134.916 207.324 139.208 L 210.593 143.500 214.045 144.000 L 217.498 144.500 219.235 152.500 L 220.972 160.500 220.349 167.327 L 219.726 174.154 217.455 175.017 L 215.184 175.881 213.375 178.942 L 211.567 182.003 209.895 182.533 L 208.223 183.064 210.729 190.270 L 213.235 197.476 212.718 203.170 L 212.202 208.864 213.443 209.340 L 214.685 209.816 216.429 213.492 L 218.173 217.167 216.993 220.017 L 215.813 222.866 213.156 222.547 L 210.500 222.228 209.750 222.114 L 209.000 222.000 209.000 220.500 L 209.000 219.000 207.962 219.000 L 206.924 219.000 207.286 212.500 L 207.648 206.000 205.939 206.000 L 204.230 206.000 202.684 203.640 L 201.138 201.281 199.819 199.867 L 198.500 198.452 198.145 196.976 L 197.790 195.500 197.561 194.500 L 197.332 193.500 195.563 187.640 L 193.794 181.780 194.373 179.140 L 194.952 176.500 195.593 174.250 L 196.233 172.000 194.571 172.000 L 192.909 172.000 190.455 174.455 L 188.000 176.909 188.000 180.773 L 188.000 184.637 189.566 189.910 L 191.132 195.183 189.316 196.584 L 187.500 197.986 185.000 198.574 L 182.500 199.163 174.598 201.072 L 166.696 202.981 161.432 205.951 L 156.169 208.922 149.904 211.032 L 143.640 213.143 137.488 212.071 L 131.336 211.000 126.911 211.000 L 122.487 211.000 119.434 210.124 L 116.380 209.249 114.499 210.624 L 112.618 212.000 109.496 212.000 L 106.374 212.000 103.759 214.750 L 101.143 217.500 98.493 222.801 L 95.843 228.102 94.623 232.301 L 93.403 236.500 85.863 236.581 L 78.322 236.662 76.439 237.385 L 74.556 238.108 76.021 239.013 L 77.486 239.918 77.205 245.663 L 76.925 251.408 77.367 250.954 L 77.809 250.500 78.385 245.103 L 78.961 239.705 79.268 239.398 L 79.575 239.092 83.878 238.404 L 88.180 237.716 87.455 248.108 L 86.729 258.500 85.662 259.184 L 84.595 259.868 83.798 259.375 L 83.000 258.882 83.000 260.048 L 83.000 261.214 84.500 260.638 L 86.000 260.063 86.000 260.430 L 86.000 260.797 83.033 266.437 L 80.066 272.077 80.940 271.537 L 81.813 270.997 81.305 272.943 L 80.796 274.889 78.898 273.704 L 77.000 272.519 77.000 271.700 L 77.000 270.882 75.845 271.595 L 74.691 272.309 75.351 271.240 L 76.012 270.172 76.567 261.358 L 77.123 252.544 76.614 253.052 L 76.106 253.561 75.585 256.530 L 75.065 259.500 74.820 262.750 L 74.575 266.000 73.894 266.000 L 73.214 266.000 72.573 264.330 L 71.932 262.660 73.150 261.907 L 74.369 261.154 70.942 260.827 L 67.516 260.500 67.226 258.965 L 66.936 257.430 69.081 257.269 L 71.226 257.107 71.732 256.601 L 72.238 256.095 70.845 254.798 L 69.452 253.500 67.976 253.169 L 66.500 252.838 65.711 251.438 L 64.922 250.038 61.972 246.808 L 59.022 243.578 59.933 242.667 L 60.844 241.756 60.281 240.289 L 59.718 238.822 63.109 239.013 L 66.500 239.203 68.250 239.101 L 70.000 239.000 70.000 238.000 L 70.000 237.000 64.622 237.000 L 59.245 237.000 58.000 235.500 L 56.755 234.000 55.378 234.000 L 54.000 234.000 54.000 234.786 L 54.000 235.571 52.000 235.571 L 50.000 235.571 50.000 234.786 L 50.000 234.000 51.500 234.000 L 53.000 234.000 53.000 233.059 L 53.000 232.118 51.845 231.405 L 50.691 230.691 51.405 231.845 L 52.118 233.000 50.670 233.000 L 49.223 233.000 48.561 229.472 L 47.899 225.944 47.011 226.493 L 46.123 227.042 45.080 225.271 L 44.037 223.500 43.203 224.761 L 42.369 226.021 39.934 223.349 L 37.500 220.677 38.579 221.292 L 39.659 221.907 39.517 219.974 L 39.374 218.041 38.527 217.270 L 37.679 216.500 38.329 217.637 L 38.978 218.773 37.606 219.912 L 36.234 221.051 35.660 219.558 L 35.087 218.064 36.104 217.436 L 37.120 216.808 35.310 215.450 L 33.500 214.092 32.250 215.737 L 31.000 217.382 31.000 216.199 L 31.000 215.016 34.457 194.758 L 37.914 174.500 42.038 150.500 L 46.162 126.500 47.016 121.000 L 47.869 115.500 52.351 88.500 L 56.832 61.500 59.943 42.111 L 63.054 22.722 63.529 21.953 L 64.005 21.183 93.752 21.014 L 123.500 20.845 136.000 20.499 L 148.500 20.153 171.750 20.009 L 195.000 19.866 195.118 18.683 L 195.237 17.500 195.094 16.676 L 194.950 15.851 195.932 16.458 L 196.913 17.064 196.362 18.782 L 195.811 20.500 196.982 19.000 L 198.152 17.500 198.657 18.742 L 199.161 19.984 201.081 18.957 L 203.000 17.930 203.000 19.131 L 203.000 20.333 203.643 19.691 L 204.285 19.048 203.151 17.682 L 202.017 16.316 202.759 15.511 L 203.500 14.705 201.553 15.753 L 199.605 16.800 197.333 15.937 L 195.062 15.073 185.281 14.564 L 175.500 14.055 173.750 14.028 L 172.000 14.000 172.000 7.000 L 172.000 0.000 86.000 0.000 M462.450 0.000 L 460.901 0.000 461.680 6.250 L 462.458 12.500 462.479 15.750 L 462.500 19.000 463.500 18.661 L 464.500 18.321 464.401 12.411 L 464.303 6.500 464.151 3.250 L 464.000 0.000 462.450 0.000 M492.000 0.000 L 484.000 0.000 484.028 1.250 L 484.056 2.500 486.388 17.288 L 488.720 32.075 490.610 33.612 L 492.500 35.148 491.319 34.558 L 490.138 33.967 489.641 34.771 L 489.144 35.575 490.622 45.038 L 492.100 54.500 493.300 62.500 L 494.500 70.500 497.000 70.500 L 499.500 70.500 499.764 52.233 L 500.027 33.967 497.075 34.487 L 494.122 35.007 493.487 33.979 L 492.851 32.950 493.676 33.094 L 494.500 33.237 497.250 33.118 L 500.000 33.000 500.000 16.500 L 500.000 0.000 492.000 0.000 M465.000 19.000 L 464.000 19.000 463.875 19.500 L 463.750 20.000 463.582 21.250 L 463.413 22.500 464.754 27.813 L 466.095 33.125 465.441 35.187 L 464.786 37.250 466.143 38.110 L 467.500 38.969 465.500 39.000 L 463.500 39.031 464.600 39.765 L 465.701 40.500 466.885 42.750 L 468.070 45.000 467.060 45.000 L 466.050 45.000 466.987 47.465 L 467.924 49.929 466.959 50.525 L 465.995 51.121 466.930 52.869 L 467.865 54.616 468.584 61.558 L 469.303 68.500 469.258 70.743 L 469.212 72.987 470.261 72.339 L 471.309 71.691 470.598 72.842 L 469.887 73.992 469.501 75.996 L 469.115 78.000 470.057 78.000 L 471.000 78.000 471.000 79.559 L 471.000 81.118 469.750 80.485 L 468.500 79.852 470.441 81.426 L 472.382 83.000 471.130 83.000 L 469.877 83.000 470.578 87.750 L 471.278 92.500 472.389 93.235 L 473.500 93.969 472.379 93.985 L 471.258 94.000 472.162 98.750 L 473.065 103.500 473.385 106.106 L 473.704 108.712 474.368 109.787 L 475.033 110.862 474.110 111.432 L 473.188 112.002 473.711 114.001 L 474.233 116.000 475.367 116.015 L 476.500 116.031 475.176 116.870 L 473.852 117.709 475.498 119.355 L 477.143 121.000 476.235 121.000 L 475.327 121.000 475.417 124.850 L 475.506 128.700 476.744 130.192 L 477.983 131.684 477.349 132.318 L 476.715 132.952 477.980 134.476 L 479.245 136.000 478.057 136.000 L 476.869 136.000 477.349 140.250 L 477.830 144.500 478.922 147.334 L 480.014 150.168 479.379 151.196 L 478.744 152.224 480.122 153.096 L 481.500 153.969 480.419 153.985 L 479.339 154.000 479.624 158.661 L 479.910 163.322 480.569 164.911 L 481.229 166.500 481.574 172.000 L 481.919 177.500 482.469 181.500 L 483.018 185.500 483.569 190.000 L 484.120 194.500 485.048 199.866 L 485.975 205.232 485.549 205.921 L 485.123 206.610 486.005 210.521 L 486.887 214.432 485.693 215.908 L 484.500 217.384 485.771 216.620 L 487.043 215.856 487.025 218.678 L 487.008 221.500 487.375 227.137 L 487.742 232.774 488.526 234.041 L 489.309 235.309 488.155 234.595 L 487.000 233.882 487.000 235.048 L 487.000 236.214 485.534 235.651 L 484.068 235.089 484.679 238.146 L 485.290 241.202 483.895 242.120 L 482.500 243.038 484.500 244.644 L 486.500 246.250 484.248 245.718 L 481.995 245.186 481.129 246.733 L 480.263 248.281 479.025 247.515 L 477.786 246.750 479.143 245.890 L 480.500 245.031 479.309 245.015 L 478.118 245.000 477.542 245.932 L 476.967 246.863 479.193 248.422 L 481.419 249.981 480.209 251.191 L 479.000 252.400 479.000 251.200 L 479.000 250.000 478.088 250.000 L 477.176 250.000 477.631 255.250 L 478.086 260.500 479.505 271.000 L 480.923 281.500 481.579 287.000 L 482.235 292.500 482.457 295.086 L 482.679 297.671 483.212 298.586 L 483.745 299.500 484.536 304.500 L 485.327 309.500 485.577 310.500 L 485.827 311.500 486.917 318.500 L 488.006 325.500 488.429 328.000 L 488.851 330.500 488.926 331.750 L 489.000 333.000 494.530 333.000 L 500.060 333.000 499.967 290.277 L 499.875 247.555 499.042 246.527 L 498.209 245.500 497.605 241.000 L 497.001 236.500 494.996 223.000 L 492.990 209.500 488.045 175.000 L 483.100 140.500 481.521 128.500 L 479.942 116.500 479.440 112.500 L 478.938 108.500 478.439 105.975 L 477.940 103.450 477.560 99.975 L 477.181 96.500 475.538 84.500 L 473.895 72.500 473.359 69.500 L 472.823 66.500 471.951 59.500 L 471.080 52.500 470.413 50.000 L 469.746 47.500 469.416 44.500 L 469.086 41.500 468.498 37.000 L 467.910 32.500 467.532 30.500 L 467.153 28.500 466.982 28.500 L 466.812 28.500 466.542 25.000 L 466.272 21.500 466.136 20.250 L 466.000 19.000 465.000 19.000 M76.469 28.000 L 75.000 28.000 74.844 29.750 L 74.689 31.500 74.920 33.993 L 75.152 36.485 75.528 36.862 L 75.905 37.238 77.343 35.800 L 78.782 34.361 77.807 32.620 L 76.833 30.879 77.385 29.439 L 77.937 28.000 76.469 28.000 M79.717 43.836 L 79.272 41.500 79.136 43.750 L 79.000 46.000 78.122 46.000 L 77.245 46.000 75.958 44.449 L 74.670 42.898 71.662 43.199 L 68.654 43.500 68.243 44.751 L 67.833 46.001 69.577 45.332 L 71.321 44.663 70.710 47.081 L 70.099 49.500 71.550 47.559 L 73.000 45.618 73.100 48.059 L 73.199 50.500 73.850 48.191 L 74.500 45.882 75.000 45.876 L 75.500 45.871 77.293 46.559 L 79.086 47.247 79.624 46.709 L 80.162 46.172 79.717 43.836 M81.037 57.500 L 80.215 55.500 79.499 57.252 L 78.784 59.004 79.552 61.752 L 80.320 64.500 80.751 62.657 L 81.182 60.814 83.091 61.314 L 85.000 61.813 85.000 60.906 L 85.000 60.000 83.933 60.000 L 82.865 60.000 83.500 58.000 L 84.135 56.000 83.067 56.000 L 82.000 56.000 81.930 57.750 L 81.859 59.500 81.037 57.500 M497.500 73.000 L 495.000 73.000 495.074 74.750 L 495.148 76.500 497.460 91.500 L 499.771 106.500 499.886 89.750 L 500.000 73.000 497.500 73.000 M261.567 131.664 L 263.134 132.266 262.067 133.333 L 261.000 134.400 261.033 135.950 L 261.067 137.500 263.033 135.139 L 265.000 132.778 265.000 133.889 L 265.000 135.000 263.167 136.750 L 261.333 138.500 260.382 138.678 L 259.431 138.856 259.559 136.178 L 259.688 133.500 259.844 132.281 L 260.000 131.063 261.567 131.664 M215.701 227.414 L 216.902 229.500 217.569 233.778 L 218.235 238.056 219.868 238.900 L 221.500 239.744 226.357 240.449 L 231.214 241.155 230.502 240.003 L 229.791 238.852 231.645 239.903 L 233.500 240.954 237.591 241.973 L 241.682 242.992 243.225 244.746 L 244.767 246.500 247.949 253.816 L 251.130 261.131 250.501 263.997 L 249.871 266.862 248.602 267.915 L 247.333 268.969 244.713 267.734 L 242.093 266.500 241.563 264.391 L 241.033 262.282 235.766 261.577 L 230.500 260.872 226.000 260.378 L 221.500 259.885 217.750 259.967 L 214.000 260.048 214.000 259.056 L 214.000 258.063 212.629 258.589 L 211.258 259.115 210.686 257.624 L 210.114 256.134 213.105 255.477 L 216.096 254.820 214.934 253.421 L 213.773 252.022 212.972 252.517 L 212.171 253.012 211.821 251.962 L 211.470 250.911 209.304 250.748 L 207.138 250.585 207.319 250.042 L 207.500 249.500 206.750 249.250 L 206.000 249.000 205.000 249.000 L 204.000 249.000 203.921 250.750 L 203.842 252.500 203.324 251.208 L 202.806 249.917 201.403 251.081 L 200.000 252.245 200.000 250.956 L 200.000 249.667 199.403 250.264 L 198.805 250.862 200.586 253.876 L 202.367 256.891 203.183 256.387 L 204.000 255.882 204.000 256.858 L 204.000 257.833 202.857 258.214 L 201.713 258.596 202.810 260.645 L 203.906 262.694 202.753 263.847 L 201.600 265.000 204.050 265.014 L 206.500 265.027 222.378 265.328 L 238.255 265.628 239.706 267.564 L 241.157 269.500 240.572 273.935 L 239.988 278.370 238.407 280.782 L 236.827 283.194 232.664 282.529 L 228.500 281.865 216.094 281.182 L 203.687 280.500 202.094 281.750 L 200.500 283.000 202.441 284.500 L 204.382 286.000 206.941 286.118 L 209.500 286.237 210.000 286.223 L 210.500 286.209 215.000 285.449 L 219.500 284.689 228.000 284.491 L 236.500 284.292 238.500 285.296 L 240.500 286.299 241.235 287.400 L 241.969 288.500 241.985 292.677 L 242.000 296.855 239.365 298.927 L 236.730 301.000 233.365 301.000 L 230.000 301.000 230.000 299.933 L 230.000 298.865 227.881 299.538 L 225.762 300.210 223.429 298.962 L 221.096 297.713 220.491 294.958 L 219.886 292.203 217.693 291.510 L 215.500 290.817 213.708 290.573 L 211.915 290.328 211.399 291.164 L 210.882 292.000 209.334 292.000 L 207.786 292.000 208.362 290.500 L 208.937 289.000 208.337 289.000 L 207.736 289.000 204.191 291.191 L 200.646 293.382 201.515 291.941 L 202.384 290.500 200.776 291.803 L 199.168 293.105 198.551 291.161 L 197.934 289.216 195.769 288.650 L 193.604 288.084 192.454 289.038 L 191.304 289.992 191.215 286.844 L 191.125 283.695 189.813 282.863 L 188.500 282.031 189.263 282.015 L 190.026 282.000 185.190 277.189 L 180.354 272.378 181.459 268.439 L 182.564 264.500 183.532 264.679 L 184.500 264.857 186.250 263.274 L 188.000 261.690 188.000 260.345 L 188.000 259.000 190.000 259.000 L 192.000 259.000 192.000 257.500 L 192.000 256.000 191.250 256.222 L 190.500 256.445 187.750 254.607 L 185.000 252.770 185.000 251.385 L 185.000 250.000 185.906 250.000 L 186.813 250.000 186.375 248.250 L 185.938 246.500 189.219 244.305 L 192.500 242.110 194.414 241.385 L 196.328 240.660 195.472 242.080 L 194.616 243.500 196.420 242.035 L 198.224 240.569 201.610 240.861 L 204.996 241.153 204.391 239.576 L 203.786 238.000 207.093 238.000 L 210.400 238.000 209.200 236.800 L 208.000 235.600 208.000 232.392 L 208.000 229.184 211.250 227.257 L 214.500 225.329 215.701 227.414 M277.261 237.000 L 277.652 237.000 277.654 244.250 L 277.656 251.500 278.455 258.500 L 279.254 265.500 279.234 272.500 L 279.215 279.500 278.933 287.813 L 278.650 296.126 277.947 294.813 L 277.244 293.500 276.576 287.500 L 275.907 281.500 275.430 277.912 L 274.952 274.323 272.461 266.476 L 269.971 258.629 270.985 257.615 L 272.000 256.600 272.000 254.147 L 272.000 251.694 270.045 253.949 L 268.089 256.203 267.461 253.352 L 266.833 250.500 266.397 249.118 L 265.961 247.735 271.415 242.368 L 276.869 237.000 277.261 237.000 M91.625 238.000 L 93.000 238.000 93.000 238.891 L 93.000 239.782 91.022 244.141 L 89.044 248.500 89.022 246.375 L 89.000 244.250 89.625 241.125 L 90.250 238.000 91.625 238.000 M347.312 249.724 L 342.139 246.947 342.687 252.724 L 343.235 258.500 344.762 260.936 L 346.290 263.372 346.729 276.436 L 347.167 289.500 348.658 299.500 L 350.149 309.500 351.245 321.250 L 352.341 333.000 356.049 333.000 L 359.757 333.000 360.997 330.008 L 362.236 327.016 362.231 322.758 L 362.226 318.500 363.568 321.500 L 364.910 324.500 364.969 326.500 L 365.027 328.500 365.630 330.750 L 366.233 333.000 369.154 333.000 L 372.074 333.000 371.525 328.427 L 370.976 323.855 369.303 320.677 L 367.630 317.500 367.877 310.852 L 368.125 304.204 366.993 297.852 L 365.861 291.500 364.451 287.000 L 363.042 282.500 361.010 274.000 L 358.979 265.500 355.732 259.000 L 352.484 252.500 347.312 249.724 M312.678 293.686 L 319.161 294.111 321.581 295.031 L 324.000 295.950 324.000 297.382 L 324.000 298.814 318.750 298.438 L 313.500 298.062 310.000 297.405 L 306.500 296.749 305.203 295.713 L 303.905 294.677 305.050 293.969 L 306.194 293.262 312.678 293.686 M475.787 295.000 L 475.000 295.000 474.882 295.750 L 474.763 296.500 474.933 297.405 L 475.103 298.309 477.552 315.158 L 480.000 332.006 480.000 332.503 L 480.000 333.000 480.912 333.000 L 481.824 333.000 481.562 330.750 L 481.301 328.500 480.114 321.000 L 478.928 313.500 477.953 307.500 L 476.978 301.500 476.776 298.250 L 476.575 295.000 475.787 295.000 " stroke="#000000" fill="none"/><path d="M80.586 0.000 L 0.000 0.000 0.000 166.500 L 0.000 333.000 32.000 333.000 L 64.000 333.000 64.000 331.111 L 64.000 329.223 60.379 317.861 L 56.757 306.500 53.997 299.500 L 51.236 292.500 50.033 281.500 L 48.831 270.500 47.317 263.000 L 45.802 255.500 45.434 253.624 L 45.066 251.748 42.941 243.124 L 40.817 234.500 37.414 227.340 L 34.011 220.180 29.360 216.086 L 24.708 211.991 25.932 204.746 L 27.156 197.500 27.514 195.000 L 27.873 192.500 30.465 178.000 L 33.056 163.500 35.007 152.500 L 36.959 141.500 43.928 100.000 L 50.897 58.500 52.495 48.000 L 54.093 37.500 55.846 27.250 L 57.600 17.000 58.550 16.125 L 59.500 15.249 109.421 14.620 L 159.343 13.990 159.613 13.720 L 159.884 13.450 160.528 6.725 L 161.172 0.000 80.586 0.000 M166.360 0.004 L 162.500 0.009 162.202 7.004 L 161.904 14.000 165.452 14.000 L 169.000 14.000 169.031 13.750 L 169.062 13.500 169.641 6.750 L 170.219 -0.000 166.360 0.004 M497.818 1.750 L 497.498 -0.500 496.680 0.766 L 495.862 2.033 495.397 4.597 L 494.932 7.160 495.914 6.553 L 496.895 5.947 496.474 8.133 L 496.053 10.319 497.777 11.628 L 499.500 12.936 498.309 12.968 L 497.118 13.000 496.490 11.984 L 495.862 10.967 495.133 11.418 L 494.405 11.868 492.952 10.934 L 491.500 10.000 492.522 9.250 L 493.543 8.500 493.631 5.836 L 493.718 3.171 492.316 3.709 L 490.914 4.247 491.466 4.799 L 492.018 5.352 489.759 7.896 L 487.500 10.439 489.250 9.097 L 491.000 7.755 491.118 9.628 L 491.237 11.500 491.078 12.734 L 490.920 13.968 492.677 13.294 L 494.434 12.619 492.967 14.205 L 491.500 15.790 490.843 15.394 L 490.187 14.997 490.692 16.929 L 491.197 18.862 492.521 18.353 L 493.845 17.845 494.431 16.319 L 495.017 14.792 496.493 15.359 L 497.969 15.926 498.812 14.213 L 499.655 12.500 499.904 8.250 L 500.153 4.000 499.146 4.000 L 498.139 4.000 497.818 1.750 M262.000 34.663 L 258.500 34.373 252.500 35.021 L 246.500 35.669 242.500 36.933 L 238.500 38.197 234.680 40.169 L 230.859 42.141 228.802 43.820 L 226.744 45.500 219.985 52.253 L 213.225 59.006 211.513 62.613 L 209.801 66.221 208.741 79.360 L 207.681 92.500 208.430 100.295 L 209.179 108.090 212.946 110.583 L 216.714 113.076 217.801 115.462 L 218.888 117.848 217.549 118.959 L 216.211 120.070 215.355 119.917 L 214.500 119.763 213.367 119.882 L 212.233 120.000 211.666 122.250 L 211.099 124.500 212.550 122.559 L 214.000 120.618 214.000 122.328 L 214.000 124.038 216.403 123.435 L 218.806 122.832 219.803 124.613 L 220.800 126.395 219.988 128.531 L 219.176 130.667 220.031 132.050 L 220.886 133.433 220.056 134.466 L 219.226 135.500 218.543 139.647 L 217.859 143.795 218.836 144.398 L 219.812 145.002 219.288 147.006 L 218.764 149.011 219.889 150.366 L 221.013 151.721 221.231 161.611 L 221.449 171.500 221.007 174.248 L 220.564 176.996 218.815 176.441 L 217.067 175.886 216.622 178.193 L 216.177 180.500 216.270 182.500 L 216.364 184.500 215.691 187.000 L 215.018 189.500 215.584 188.276 L 216.149 187.052 218.625 188.674 L 221.100 190.296 220.594 191.616 L 220.087 192.936 221.198 193.622 L 222.309 194.309 221.595 193.155 L 220.882 192.000 221.858 192.000 L 222.833 192.000 223.167 192.857 L 223.500 193.714 228.426 199.107 L 233.353 204.500 232.617 203.250 L 231.882 202.000 233.008 202.000 L 234.135 202.000 233.500 200.000 L 232.865 198.000 234.183 197.985 L 235.500 197.969 234.034 197.042 L 232.567 196.114 231.284 197.180 L 230.000 198.245 230.000 196.711 L 230.000 195.176 232.500 195.451 L 235.000 195.725 235.000 195.012 L 235.000 194.298 237.750 194.399 L 240.500 194.500 240.250 195.750 L 240.000 197.000 242.750 197.118 L 245.500 197.237 246.250 197.118 L 247.000 197.000 247.000 198.059 L 247.000 199.118 248.087 198.446 L 249.174 197.774 248.087 196.687 L 247.000 195.600 247.000 194.741 L 247.000 193.882 248.000 194.500 L 249.000 195.118 249.000 193.738 L 249.000 192.358 255.250 193.133 L 261.500 193.909 265.898 194.485 L 270.295 195.061 269.025 193.530 L 267.755 192.000 266.396 192.000 L 265.036 192.000 261.560 188.624 L 258.085 185.249 257.542 185.791 L 257.000 186.333 256.999 185.417 L 256.997 184.500 253.000 180.000 L 249.003 175.500 248.986 173.000 L 248.969 170.500 248.117 171.845 L 247.265 173.190 246.602 170.549 L 245.939 167.908 246.624 166.800 L 247.309 165.691 246.145 166.411 L 244.980 167.130 242.377 164.036 L 239.774 160.943 238.137 162.221 L 236.500 163.500 237.833 161.798 L 239.165 160.096 238.515 158.048 L 237.865 156.000 239.183 155.965 L 240.500 155.929 238.000 154.500 L 235.500 153.071 236.905 153.035 L 238.310 153.000 236.558 151.064 L 234.806 149.128 234.705 145.564 L 234.604 142.000 233.802 142.000 L 233.000 142.000 233.000 141.031 L 233.000 140.063 234.750 140.607 L 236.500 141.151 234.767 140.035 L 233.033 138.919 234.214 137.029 L 235.394 135.140 232.947 133.068 L 230.500 130.996 232.414 131.668 L 234.328 132.340 233.551 131.083 L 232.774 129.826 230.788 130.345 L 228.802 130.864 229.392 130.274 L 229.983 129.684 228.943 128.431 L 227.903 127.178 228.931 126.543 L 229.959 125.907 228.800 124.052 L 227.641 122.196 229.321 119.633 L 231.000 117.070 231.000 114.535 L 231.000 112.000 232.000 112.000 L 233.000 112.000 233.000 110.941 L 233.000 109.882 231.829 110.606 L 230.658 111.329 232.579 108.707 L 234.500 106.085 235.886 106.292 L 237.273 106.500 237.538 104.819 L 237.803 103.138 236.401 102.601 L 235.000 102.063 235.000 101.063 L 235.000 100.063 236.492 100.635 L 237.983 101.208 238.596 99.609 L 239.210 98.011 240.259 98.660 L 241.309 99.309 240.620 98.193 L 239.930 97.078 242.965 94.374 L 246.000 91.669 246.000 89.984 L 246.000 88.299 249.115 85.912 L 252.230 83.524 253.102 81.232 L 253.973 78.940 258.487 77.006 L 263.000 75.071 263.000 74.036 L 263.000 73.000 264.800 73.000 L 266.600 73.000 267.571 72.029 L 268.543 71.057 273.182 70.671 L 277.822 70.284 287.661 71.649 L 297.500 73.015 298.745 72.541 L 299.990 72.067 304.495 73.998 L 309.000 75.929 309.000 75.369 L 309.000 74.809 306.932 71.904 L 304.864 69.000 305.732 69.000 L 306.600 69.000 307.800 70.200 L 309.000 71.400 309.000 70.259 L 309.000 69.118 307.932 68.458 L 306.864 67.798 307.420 66.347 L 307.977 64.896 306.989 65.507 L 306.000 66.118 306.000 65.094 L 306.000 64.070 303.924 62.959 L 301.849 61.849 303.088 64.174 L 304.327 66.500 302.418 65.000 L 300.508 63.500 299.182 62.250 L 297.857 61.000 298.761 61.000 L 299.666 61.000 299.536 59.232 L 299.405 57.465 298.634 56.216 L 297.862 54.967 296.944 55.535 L 296.025 56.102 294.441 54.801 L 292.857 53.500 289.028 49.850 L 285.200 46.200 286.125 45.275 L 287.051 44.349 284.076 41.237 L 281.102 38.125 279.025 37.013 L 276.947 35.901 271.224 35.427 L 265.500 34.953 262.000 34.663 M497.838 38.977 L 497.500 36.453 495.752 36.800 L 494.003 37.146 495.502 38.644 L 497.000 40.143 497.000 41.630 L 497.000 43.118 496.000 42.500 L 495.000 41.882 495.000 42.882 L 495.000 43.882 495.910 44.444 L 496.820 45.006 498.435 44.386 L 500.051 43.766 499.114 42.633 L 498.177 41.500 497.838 38.977 M289.667 39.000 L 288.333 39.000 287.667 39.667 L 287.000 40.333 287.000 41.167 L 287.000 42.000 288.250 41.991 L 289.500 41.982 292.235 45.241 L 294.969 48.500 294.622 45.000 L 294.275 41.500 292.637 41.177 L 291.000 40.853 291.000 39.927 L 291.000 39.000 289.667 39.000 M291.000 55.500 L 292.000 56.118 292.000 57.157 L 292.000 58.197 295.750 61.575 L 299.500 64.954 300.309 64.977 L 301.118 65.000 300.570 65.886 L 300.022 66.773 302.261 67.492 L 304.500 68.212 302.751 68.679 L 301.002 69.146 298.751 67.299 L 296.500 65.451 296.220 64.136 L 295.940 62.821 292.970 60.321 L 290.000 57.822 290.000 56.352 L 290.000 54.882 291.000 55.500 M307.595 60.000 L 306.333 60.000 305.788 60.545 L 305.244 61.090 307.872 63.905 L 310.500 66.720 312.348 69.429 L 314.197 72.137 314.759 71.575 L 315.321 71.012 313.791 69.256 L 312.261 67.500 312.714 66.250 L 313.167 65.000 312.024 65.000 L 310.882 65.000 311.450 64.081 L 312.018 63.161 310.438 61.581 L 308.857 60.000 307.595 60.000 M257.184 99.223 L 254.500 99.468 252.261 99.802 L 250.022 100.136 245.590 104.568 L 241.158 109.000 239.329 109.063 L 237.500 109.127 239.875 110.077 L 242.250 111.028 247.875 107.295 L 253.500 103.561 253.786 103.816 L 254.071 104.071 255.607 102.536 L 257.143 101.000 259.130 101.000 L 261.118 101.000 260.493 99.989 L 259.869 98.978 257.184 99.223 M254.219 111.123 L 253.500 111.246 251.269 112.352 L 249.038 113.458 248.465 114.952 L 247.891 116.447 249.637 117.724 L 251.382 119.000 253.491 119.000 L 255.600 119.000 256.550 118.077 L 257.500 117.154 260.500 116.827 L 263.500 116.500 263.155 114.500 L 262.810 112.500 262.441 112.119 L 262.072 111.738 257.963 112.782 L 253.853 113.825 254.395 112.412 L 254.937 111.000 254.219 111.123 M264.828 158.527 L 261.156 157.939 260.425 159.121 L 259.695 160.303 263.078 163.063 L 266.460 165.824 267.980 165.032 L 269.500 164.239 273.000 164.635 L 276.500 165.030 274.267 164.053 L 272.033 163.077 272.608 161.580 L 273.182 160.084 270.841 159.599 L 268.500 159.115 264.828 158.527 M191.009 196.052 L 190.500 196.105 188.500 197.478 L 186.500 198.851 177.766 200.903 L 169.033 202.955 163.019 205.990 L 157.006 209.026 151.610 211.045 L 146.214 213.064 143.357 213.160 L 140.500 213.256 129.872 211.939 L 119.243 210.622 113.372 211.899 L 107.500 213.175 106.000 213.913 L 104.500 214.651 101.291 219.377 L 98.082 224.103 95.943 231.302 L 93.803 238.500 91.799 243.500 L 89.794 248.500 88.966 252.500 L 88.138 256.500 83.008 270.500 L 77.879 284.500 77.349 291.000 L 76.819 297.500 75.859 300.668 L 74.899 303.836 72.603 305.341 L 70.307 306.845 69.011 309.974 L 67.714 313.104 68.841 316.864 L 69.968 320.625 68.984 324.056 L 68.000 327.487 68.000 330.243 L 68.000 333.000 104.508 333.000 L 141.017 333.000 139.758 330.969 L 138.500 328.939 139.878 328.081 L 141.256 327.224 140.576 326.123 L 139.896 325.023 141.459 325.623 L 143.023 326.223 142.407 324.617 L 141.790 323.011 140.821 323.610 L 139.852 324.209 141.126 322.169 L 142.400 320.129 143.355 320.719 L 144.309 321.309 143.642 320.229 L 142.975 319.150 144.148 316.575 L 145.321 314.000 146.161 314.000 L 147.000 314.000 146.995 312.750 L 146.990 311.500 151.565 302.330 L 156.141 293.160 157.713 292.556 L 159.286 291.953 159.738 292.405 L 160.190 292.857 158.095 294.651 L 156.000 296.444 156.000 299.563 L 156.000 302.681 159.029 308.742 L 162.058 314.803 163.440 315.950 L 164.822 317.097 165.470 316.049 L 166.118 315.000 164.952 315.000 L 163.786 315.000 164.324 313.599 L 164.862 312.197 162.927 311.691 L 160.992 311.185 161.593 309.618 L 162.194 308.051 163.779 309.637 L 165.365 311.222 166.600 309.532 L 167.836 307.842 169.738 308.860 L 171.640 309.878 174.814 313.772 L 177.989 317.667 179.648 317.667 L 181.307 317.667 179.232 315.987 L 177.158 314.308 176.869 312.904 L 176.580 311.500 177.732 309.424 L 178.884 307.348 177.684 303.924 L 176.484 300.500 175.492 299.000 L 174.500 297.500 174.096 281.500 L 173.691 265.500 173.596 257.500 L 173.500 249.500 174.250 246.827 L 174.999 244.154 177.527 241.151 L 180.054 238.147 183.195 237.457 L 186.336 236.767 184.607 235.800 L 182.879 234.833 181.503 235.360 L 180.128 235.888 180.450 233.194 L 180.772 230.500 180.886 229.250 L 181.000 228.000 182.417 228.000 L 183.833 228.000 184.359 226.750 L 184.884 225.500 185.992 227.250 L 187.099 229.000 188.181 229.000 L 189.262 229.000 188.725 225.750 L 188.188 222.500 187.844 221.000 L 187.500 219.500 188.750 219.750 L 190.000 220.000 190.000 217.871 L 190.000 215.742 193.415 211.963 L 196.829 208.183 195.415 204.079 L 194.001 199.975 192.760 197.987 L 191.519 196.000 191.009 196.052 M214.506 202.333 L 213.000 202.333 213.000 204.720 L 213.000 207.106 215.500 210.785 L 218.000 214.464 217.965 217.482 L 217.929 220.500 216.587 222.922 L 215.246 225.344 216.623 228.640 L 218.000 231.936 218.000 233.777 L 218.000 235.618 219.250 237.197 L 220.500 238.777 224.261 239.436 L 228.022 240.095 226.641 236.297 L 225.260 232.500 223.409 226.500 L 221.557 220.500 221.476 219.500 L 221.395 218.500 219.697 215.300 L 218.000 212.099 218.000 211.115 L 218.000 210.130 216.840 207.315 L 215.679 204.500 215.845 203.417 L 216.011 202.333 214.506 202.333 M284.963 212.353 L 282.000 206.500 282.285 217.000 L 282.571 227.500 282.035 232.000 L 281.500 236.500 278.538 232.000 L 275.576 227.500 272.704 223.750 L 269.832 220.000 267.416 220.000 L 265.000 220.000 265.000 221.500 L 265.000 223.000 266.000 223.000 L 267.000 223.000 267.000 224.500 L 267.000 226.000 266.404 226.000 L 265.809 226.000 262.847 223.891 L 259.885 221.782 259.284 222.382 L 258.684 222.983 257.244 221.788 L 255.805 220.593 253.674 220.268 L 251.543 219.943 250.571 218.971 L 249.600 218.000 247.216 218.000 L 244.832 218.000 235.416 221.714 L 226.000 225.428 226.000 226.095 L 226.000 226.763 229.750 229.613 L 233.500 232.463 237.500 236.681 L 241.500 240.899 244.000 244.352 L 246.500 247.804 247.221 247.361 L 247.941 246.918 248.410 249.209 L 248.879 251.500 249.520 254.500 L 250.161 257.500 250.672 261.103 L 251.182 264.706 248.999 269.782 L 246.815 274.857 244.761 276.679 L 242.708 278.500 242.268 277.244 L 241.829 275.988 240.915 276.553 L 240.000 277.118 240.000 278.937 L 240.000 280.755 238.544 281.963 L 237.088 283.172 239.578 285.336 L 242.068 287.500 242.673 291.305 L 243.279 295.109 241.974 297.548 L 240.669 299.987 238.257 301.567 L 235.844 303.148 231.672 303.763 L 227.500 304.378 218.333 304.148 L 209.166 303.918 207.564 309.426 L 205.963 314.934 209.286 319.287 L 212.608 323.640 213.710 326.570 L 214.813 329.500 215.375 331.250 L 215.937 333.000 274.469 333.000 L 333.000 333.000 332.991 332.250 L 332.983 331.500 329.703 328.000 L 326.422 324.500 326.273 322.250 L 326.124 320.000 328.312 319.985 L 330.500 319.969 329.029 319.039 L 327.558 318.109 328.288 317.379 L 329.018 316.648 326.835 314.324 L 324.651 312.000 323.576 311.994 L 322.500 311.988 319.670 310.512 L 316.840 309.036 314.670 309.034 L 312.500 309.032 306.632 308.726 L 300.764 308.420 297.882 305.194 L 295.000 301.968 295.000 298.043 L 295.000 294.118 296.031 293.481 L 297.063 292.843 293.809 290.650 L 290.555 288.457 289.701 284.141 L 288.848 279.826 290.605 277.885 L 292.361 275.943 289.039 276.222 L 285.718 276.500 285.275 275.250 L 284.833 274.000 287.167 273.985 L 289.500 273.969 288.500 273.235 L 287.500 272.500 287.289 270.500 L 287.078 268.500 286.878 263.689 L 286.678 258.877 288.649 256.906 L 290.620 254.936 298.560 254.444 L 306.500 253.952 309.829 252.872 L 313.157 251.793 316.612 246.393 L 320.066 240.992 319.020 239.037 L 317.973 237.081 318.095 236.291 L 318.216 235.500 317.492 233.250 L 316.767 231.000 315.883 231.000 L 315.000 231.000 315.000 232.975 L 315.000 234.950 312.343 233.940 L 309.686 232.930 300.470 226.505 L 291.254 220.079 290.769 220.564 L 290.285 221.048 289.106 219.628 L 287.927 218.207 284.963 212.353 M271.015 233.000 L 271.786 233.000 272.386 234.564 L 272.986 236.128 274.743 235.949 L 276.500 235.770 277.795 235.885 L 279.091 236.000 278.457 239.379 L 277.823 242.757 279.273 245.629 L 280.724 248.500 281.499 254.500 L 282.275 260.500 282.386 266.500 L 282.496 272.500 281.785 281.000 L 281.074 289.500 280.405 298.785 L 279.737 308.070 279.118 307.455 L 278.500 306.841 277.260 298.171 L 276.020 289.500 275.673 286.500 L 275.326 283.500 274.518 277.500 L 273.709 271.500 271.370 264.622 L 269.032 257.743 268.157 256.622 L 267.281 255.500 266.695 252.398 L 266.109 249.295 267.075 242.476 L 268.041 235.656 269.143 234.328 L 270.245 233.000 271.015 233.000 M343.222 249.000 L 342.742 249.000 343.420 254.110 L 344.098 259.220 345.447 261.360 L 346.795 263.500 347.401 277.500 L 348.006 291.500 349.141 299.652 L 350.276 307.805 352.584 308.856 L 354.893 309.908 358.939 313.564 L 362.986 317.220 363.981 320.860 L 364.976 324.500 366.027 328.750 L 367.077 333.000 369.039 333.000 L 371.000 333.000 371.000 329.935 L 371.000 326.871 368.867 321.913 L 366.734 316.955 367.335 312.576 L 367.935 308.197 366.446 298.993 L 364.957 289.789 364.015 288.028 L 363.073 286.267 361.455 278.384 L 359.838 270.500 357.263 264.000 L 354.687 257.500 352.284 254.327 L 349.880 251.154 346.791 250.077 L 343.702 249.000 343.222 249.000 M354.835 315.567 L 351.718 314.013 352.347 323.160 L 352.975 332.308 353.487 332.821 L 354.000 333.333 354.000 330.232 L 354.000 327.130 354.975 324.565 L 355.950 322.000 357.892 322.000 L 359.833 322.000 360.234 323.201 L 360.634 324.401 361.303 323.318 L 361.973 322.235 359.962 319.678 L 357.951 317.122 354.835 315.567 M198.741 324.000 L 197.481 324.000 196.167 326.105 L 194.852 328.209 195.926 327.546 L 197.000 326.882 197.000 328.441 L 197.000 330.000 195.500 330.000 L 194.000 330.000 194.000 331.500 L 194.000 333.000 197.250 332.985 L 200.500 332.969 201.522 332.235 L 202.543 331.500 201.980 328.000 L 201.417 324.500 200.624 326.803 L 199.832 329.105 198.427 327.939 L 197.022 326.773 197.580 325.870 L 198.138 324.967 199.069 325.543 L 200.000 326.118 200.000 325.059 L 200.000 324.000 198.741 324.000 " stroke="#000000" fill="none"/></svg>