<?xml version="1.0" standalone="no"?>
<svg xmlns:xlink="http://www.w3.org/1999/xlink" xmlns="http://www.w3.org/2000/svg" id="workspace"><path d="M18.067 0.000 L 0.000 0.000 0.000 166.500 L 0.000 333.000 2.439 333.000 L 4.877 333.000 5.409 328.750 L 5.941 324.500 7.093 314.000 L 8.245 303.500 8.543 297.163 L 8.840 290.826 9.420 290.246 L 10.000 289.667 10.000 287.917 L 10.000 286.167 8.750 285.659 L 7.500 285.152 8.971 284.131 L 10.442 283.109 9.785 282.452 L 9.128 281.794 10.054 279.359 L 10.980 276.923 11.550 268.269 L 12.120 259.615 12.567 258.891 L 13.015 258.167 13.639 252.443 L 14.263 246.719 13.265 247.336 L 12.267 247.953 12.654 242.726 L 13.041 237.500 13.361 231.743 L 13.680 225.986 14.332 225.335 L 14.983 224.684 13.741 223.155 L 12.500 221.626 14.017 222.192 L 15.534 222.758 15.517 218.976 L 15.500 215.194 14.750 215.656 L 14.000 216.118 14.000 215.059 L 14.000 214.000 14.897 214.000 L 15.794 214.000 15.575 210.000 L 15.357 206.000 15.983 206.000 L 16.609 206.000 16.255 200.910 L 15.900 195.820 17.200 196.602 L 18.500 197.384 17.128 195.692 L 15.755 194.000 16.707 192.750 L 17.659 191.500 17.433 186.255 L 17.207 181.010 17.928 181.455 L 18.648 181.901 18.574 179.700 L 18.500 177.500 17.500 176.765 L 16.500 176.031 17.788 176.015 L 19.076 176.000 18.882 173.750 L 18.689 171.500 18.844 166.691 L 19.000 161.882 19.750 162.345 L 20.500 162.808 20.681 155.654 L 20.862 148.500 21.107 143.500 L 21.352 138.500 22.426 137.058 L 23.500 135.616 22.095 136.463 L 20.691 137.309 21.493 136.012 L 22.294 134.715 22.589 130.107 L 22.884 125.500 23.334 121.000 L 23.784 116.500 24.593 109.500 L 25.402 102.500 25.451 99.250 L 25.500 96.000 26.000 96.000 L 26.500 96.000 26.421 91.976 L 26.343 87.951 27.652 77.226 L 28.962 66.500 29.487 61.000 L 30.012 55.500 30.530 49.000 L 31.047 42.500 32.006 33.500 L 32.965 24.500 33.446 19.500 L 33.926 14.500 34.498 9.000 L 35.070 3.500 35.602 1.750 L 36.135 0.000 18.067 0.000 M497.923 -0.000 L 495.847 -0.000 496.105 3.750 L 496.363 7.500 497.217 9.250 L 498.070 11.000 499.035 11.000 L 500.000 11.000 500.000 5.500 L 500.000 0.000 497.923 -0.000 M498.433 14.000 L 496.865 14.000 497.540 19.250 L 498.215 24.500 498.965 33.500 L 499.715 42.500 499.857 28.250 L 500.000 14.000 498.433 14.000 M247.500 74.062 L 242.500 74.080 238.557 76.047 L 234.614 78.014 232.210 80.257 L 229.805 82.500 227.903 86.210 L 226.000 89.920 226.004 95.210 L 226.008 100.500 228.443 105.298 L 230.877 110.095 233.688 114.546 L 236.500 118.996 240.309 118.998 L 244.117 119.000 247.969 122.096 L 251.822 125.191 254.161 124.477 L 256.500 123.763 258.213 122.260 L 259.926 120.757 261.713 121.383 L 263.500 122.009 260.500 119.332 L 257.500 116.656 261.000 117.439 L 264.500 118.221 267.224 118.097 L 269.948 117.972 275.539 123.035 L 281.130 128.098 286.041 131.120 L 290.953 134.142 290.726 135.276 L 290.500 136.409 291.831 136.455 L 293.161 136.500 294.581 138.441 L 296.000 140.382 296.000 141.191 L 296.000 142.000 294.941 142.000 L 293.882 142.000 294.500 141.000 L 295.118 140.000 294.118 140.000 L 293.118 140.000 292.569 140.888 L 292.020 141.776 297.582 144.033 L 303.145 146.291 304.684 148.641 L 306.224 150.991 305.600 154.320 L 304.975 157.650 302.238 160.261 L 299.500 162.873 296.685 163.936 L 293.870 165.000 289.517 165.000 L 285.164 165.000 283.589 165.604 L 282.014 166.209 282.648 168.735 L 283.282 171.261 281.891 170.798 L 280.500 170.334 280.152 168.537 L 279.803 166.740 280.972 166.018 L 282.140 165.295 279.657 161.636 L 277.174 157.978 276.666 159.239 L 276.158 160.500 276.079 158.323 L 276.000 156.147 274.250 155.689 L 272.500 155.232 274.317 155.116 L 276.135 155.000 275.492 152.975 L 274.849 150.950 276.093 151.225 L 277.336 151.500 278.645 149.000 L 279.953 146.500 278.172 146.206 L 276.391 145.912 276.596 142.962 L 276.800 140.012 274.150 140.628 L 271.500 141.244 269.000 142.390 L 266.500 143.535 266.403 146.518 L 266.305 149.500 266.153 150.925 L 266.000 152.350 264.128 150.425 L 262.256 148.500 262.687 147.750 L 263.118 147.000 262.059 147.000 L 261.000 147.000 261.000 148.000 L 261.000 149.000 259.732 149.000 L 258.463 149.000 256.657 151.750 L 254.851 154.500 255.506 152.000 L 256.161 149.500 256.653 147.000 L 257.144 144.500 253.121 149.000 L 249.097 153.500 249.665 151.250 L 250.233 149.000 249.085 149.000 L 247.937 149.000 247.392 150.422 L 246.846 151.844 247.926 153.861 L 249.005 155.879 247.965 156.521 L 246.925 157.164 244.088 154.332 L 241.251 151.500 239.787 148.634 L 238.323 145.768 240.728 143.363 L 243.134 140.957 242.817 138.729 L 242.500 136.500 239.798 136.536 L 237.095 136.571 237.541 136.125 L 237.987 135.679 235.994 134.283 L 234.000 132.887 234.000 131.968 L 234.000 131.050 237.250 131.695 L 240.500 132.340 237.945 129.015 L 235.389 125.689 232.195 125.594 L 229.000 125.500 229.000 129.275 L 229.000 133.050 232.086 133.667 L 235.172 134.284 235.709 135.685 L 236.247 137.086 235.874 137.448 L 235.500 137.811 231.253 136.369 L 227.005 134.927 225.003 135.999 L 223.000 137.070 223.000 137.785 L 223.000 138.500 226.250 138.382 L 229.500 138.264 232.187 139.625 L 234.873 140.986 235.535 142.056 L 236.196 143.126 234.443 145.063 L 232.690 147.000 231.845 147.000 L 231.000 147.000 231.000 145.441 L 231.000 143.882 232.250 144.515 L 233.500 145.148 231.729 143.699 L 229.958 142.249 225.918 141.603 L 221.879 140.957 220.939 141.537 L 220.000 142.118 220.000 145.177 L 220.000 148.236 216.888 151.780 L 213.776 155.324 214.265 159.662 L 214.754 163.999 216.094 165.613 L 217.434 167.228 222.467 170.074 L 227.500 172.921 232.000 176.905 L 236.500 180.890 235.373 182.695 L 234.247 184.500 231.739 184.470 L 229.231 184.439 229.785 185.970 L 230.339 187.500 228.239 185.658 L 226.139 183.816 226.686 185.908 L 227.233 188.000 224.867 188.118 L 222.500 188.237 221.893 188.166 L 221.285 188.095 221.542 190.436 L 221.799 192.776 219.650 192.719 L 217.500 192.663 216.024 193.081 L 214.548 193.500 213.202 194.750 L 211.857 196.000 209.870 196.000 L 207.882 196.000 208.500 197.000 L 209.118 198.000 208.176 198.000 L 207.233 198.000 206.669 200.157 L 206.105 202.314 193.803 201.650 L 181.500 200.986 177.852 200.121 L 174.203 199.256 173.265 199.878 L 172.328 200.500 171.164 203.899 L 170.000 207.298 170.000 208.649 L 170.000 210.000 171.071 210.000 L 172.143 210.000 173.682 208.461 L 175.222 206.921 176.361 208.363 L 177.500 209.804 186.500 210.517 L 195.500 211.229 203.000 211.176 L 210.500 211.122 217.000 210.466 L 223.500 209.809 224.623 208.887 L 225.747 207.965 227.373 208.590 L 229.000 209.214 229.000 207.607 L 229.000 206.000 230.500 206.000 L 232.000 206.000 232.000 205.040 L 232.000 204.081 234.740 201.540 L 237.480 199.000 238.727 199.000 L 239.975 199.000 242.599 203.157 L 245.223 207.313 245.449 208.853 L 245.675 210.392 246.660 210.720 L 247.645 211.048 247.376 204.274 L 247.106 197.500 246.512 192.500 L 245.918 187.500 247.594 189.500 L 249.269 191.500 248.666 189.750 L 248.063 188.000 249.171 188.000 L 250.280 188.000 251.530 186.290 L 252.781 184.579 255.448 185.794 L 258.114 187.009 259.926 186.040 L 261.737 185.070 262.529 185.785 L 263.321 186.500 262.644 185.319 L 261.967 184.138 263.027 183.483 L 264.088 182.828 265.444 183.953 L 266.800 185.079 266.800 181.626 L 266.800 178.173 270.524 171.087 L 274.248 164.000 274.982 164.000 L 275.716 164.000 276.608 168.250 L 277.500 172.500 279.750 173.487 L 282.000 174.474 282.000 175.237 L 282.000 176.000 283.500 176.000 L 285.000 176.000 287.001 178.001 L 289.002 180.002 288.458 197.016 L 287.913 214.029 289.183 213.764 L 290.453 213.500 290.778 215.613 L 291.103 217.725 296.316 220.363 L 301.529 223.000 303.042 223.000 L 304.556 223.000 306.192 224.911 L 307.828 226.822 314.569 227.544 L 321.310 228.266 326.958 230.561 L 332.606 232.856 338.894 233.568 L 345.182 234.279 346.341 235.661 L 347.500 237.042 354.750 244.329 L 362.000 251.615 362.000 247.725 L 362.000 243.834 360.522 229.667 L 359.044 215.500 358.436 208.689 L 357.828 201.878 349.664 202.611 L 341.500 203.344 316.698 203.320 L 291.895 203.295 290.937 202.337 L 289.978 201.378 295.591 193.939 L 301.205 186.500 307.380 181.000 L 313.555 175.500 317.694 172.232 L 321.834 168.964 324.553 160.239 L 327.272 151.514 327.539 144.535 L 327.806 137.556 326.198 133.538 L 324.590 129.519 322.255 125.510 L 319.919 121.500 318.995 120.000 L 318.071 118.500 316.036 114.062 L 314.000 109.624 314.000 107.360 L 314.000 105.096 309.750 102.189 L 305.500 99.281 302.000 97.470 L 298.500 95.659 292.097 93.408 L 285.693 91.157 284.097 93.036 L 282.500 94.915 279.926 95.522 L 277.353 96.128 272.518 90.314 L 267.684 84.500 264.092 81.151 L 260.500 77.802 256.500 75.923 L 252.500 74.044 247.500 74.062 M299.298 147.063 L 298.500 147.127 296.315 148.007 L 294.131 148.887 293.043 150.921 L 291.954 152.954 293.218 154.977 L 294.481 157.000 295.357 157.000 L 296.233 157.000 295.730 155.250 L 295.227 153.500 294.487 151.699 L 293.747 149.898 296.624 150.555 L 299.500 151.211 301.222 153.182 L 302.944 155.153 303.972 154.517 L 305.000 153.882 305.000 153.087 L 305.000 152.292 302.548 149.646 L 300.095 147.000 299.298 147.063 M335.500 206.587 L 343.500 206.721 345.250 206.860 L 347.000 207.000 347.000 209.060 L 347.000 211.120 343.750 210.423 L 340.500 209.725 337.000 209.735 L 333.500 209.744 323.364 210.461 L 313.228 211.178 312.625 210.202 L 312.022 209.227 313.299 208.167 L 314.577 207.106 321.038 206.779 L 327.500 206.452 335.500 206.587 M110.058 272.192 L 107.052 272.421 106.526 273.793 L 106.000 275.164 106.000 277.614 L 106.000 280.064 107.426 283.478 L 108.853 286.892 102.920 298.836 L 96.987 310.780 92.026 321.640 L 87.064 332.500 100.575 332.778 L 114.086 333.057 115.385 331.758 L 116.684 330.459 117.833 328.311 L 118.983 326.164 118.361 323.056 L 117.740 319.948 115.867 320.542 L 113.994 321.137 112.433 319.576 L 110.872 318.015 111.495 317.008 L 112.118 316.000 110.559 316.000 L 109.000 316.000 108.985 314.750 L 108.969 313.500 108.235 314.615 L 107.500 315.730 105.250 316.433 L 103.000 317.135 103.000 316.139 L 103.000 315.143 104.662 313.481 L 106.324 311.818 105.141 311.087 L 103.958 310.356 104.303 308.428 L 104.649 306.500 106.451 300.269 L 108.253 294.038 109.126 294.578 L 110.000 295.118 110.118 293.809 L 110.237 292.500 110.077 291.625 L 109.917 290.750 111.592 288.898 L 113.267 287.047 113.986 287.492 L 114.705 287.936 116.452 286.659 L 118.199 285.381 117.258 281.941 L 116.316 278.500 118.158 276.575 L 120.000 274.650 120.000 275.766 L 120.000 276.882 119.094 277.442 L 118.188 278.002 118.708 279.990 L 119.227 281.978 120.114 281.430 L 121.000 280.882 121.000 278.941 L 121.000 277.000 122.939 275.061 L 124.877 273.123 123.189 272.742 L 121.500 272.362 119.185 273.181 L 116.869 274.000 114.966 272.982 L 113.063 271.963 110.058 272.192 M177.985 281.000 L 164.348 281.000 162.858 287.250 L 161.369 293.500 160.248 293.271 L 159.128 293.043 157.080 298.515 L 155.032 303.988 152.431 308.109 L 149.830 312.230 150.665 312.946 L 151.500 313.662 161.000 315.284 L 170.500 316.905 179.000 317.511 L 187.500 318.117 193.161 318.641 L 198.822 319.166 200.830 318.091 L 202.839 317.016 203.294 318.258 L 203.750 319.500 204.944 318.381 L 206.139 317.261 206.493 315.381 L 206.847 313.500 206.946 313.000 L 207.044 312.500 208.772 314.689 L 210.500 316.879 213.140 317.520 L 215.780 318.162 215.521 314.865 L 215.261 311.567 213.381 310.536 L 211.500 309.505 208.320 307.255 L 205.140 305.005 204.820 302.796 L 204.500 300.588 200.928 298.712 L 197.357 296.836 197.428 293.421 L 197.500 290.006 199.167 290.003 L 200.833 290.000 201.292 291.250 L 201.750 292.500 202.977 291.348 L 204.203 290.197 202.837 287.348 L 201.471 284.500 198.556 284.621 L 195.640 284.743 193.631 282.871 L 191.623 281.000 177.985 281.000 M222.530 287.000 L 221.178 287.000 218.547 290.127 L 215.916 293.254 216.561 297.560 L 217.207 301.867 215.354 301.577 L 213.500 301.287 214.750 301.717 L 216.000 302.147 216.000 304.024 L 216.000 305.901 217.595 306.793 L 219.191 307.686 221.676 307.211 L 224.162 306.736 225.072 304.618 L 225.982 302.500 225.741 304.620 L 225.500 306.740 229.445 311.370 L 233.390 316.000 235.195 316.000 L 237.000 316.000 237.000 314.969 L 237.000 313.937 235.625 313.410 L 234.250 312.882 234.250 310.441 L 234.250 308.000 235.625 308.000 L 237.000 308.000 237.000 300.934 L 237.000 293.869 235.965 291.934 L 234.930 290.000 233.087 290.000 L 231.245 290.000 230.000 291.500 L 228.755 293.000 227.342 293.000 L 225.930 293.000 226.782 294.750 L 227.634 296.500 227.567 298.414 L 227.500 300.328 226.309 300.728 L 225.117 301.128 223.559 298.113 L 222.000 295.099 222.000 293.410 L 222.000 291.720 223.653 290.512 L 225.306 289.303 224.594 288.152 L 223.882 287.000 222.530 287.000 M244.750 291.044 L 242.000 291.000 241.875 291.500 L 241.750 292.000 241.610 292.750 L 241.469 293.500 240.610 294.857 L 239.750 296.214 243.012 295.497 L 246.275 294.781 245.789 297.326 L 245.302 299.871 246.081 301.131 L 246.860 302.392 245.848 304.284 L 244.836 306.176 242.479 305.584 L 240.123 304.993 239.475 306.040 L 238.828 307.088 240.546 309.711 L 242.265 312.333 240.572 313.571 L 238.880 314.808 239.690 315.256 L 240.500 315.703 247.188 315.239 L 253.876 314.775 252.688 312.864 L 251.500 310.954 253.250 307.896 L 255.000 304.838 255.000 302.860 L 255.000 300.882 256.068 301.542 L 257.136 302.202 256.600 303.601 L 256.063 305.000 257.567 305.000 L 259.070 305.000 261.362 306.502 L 263.654 308.003 263.228 305.101 L 262.802 302.198 264.976 301.508 L 267.151 300.817 267.744 301.410 L 268.336 302.003 266.993 304.514 L 265.649 307.024 268.227 309.762 L 270.806 312.500 271.156 314.448 L 271.507 316.396 275.825 316.504 L 280.142 316.612 281.005 318.008 L 281.868 319.405 281.402 320.158 L 280.936 320.912 283.218 322.305 L 285.500 323.698 292.927 328.349 L 300.354 333.000 309.560 333.000 L 318.766 333.000 318.644 330.008 L 318.522 327.017 317.011 327.498 L 315.500 327.979 315.500 323.739 L 315.500 319.500 314.308 319.731 L 313.115 319.962 310.135 316.981 L 307.154 314.000 306.077 314.000 L 305.000 314.000 305.000 315.417 L 305.000 316.833 303.750 317.352 L 302.500 317.871 304.750 319.846 L 307.000 321.821 307.000 322.345 L 307.000 322.870 306.009 325.475 L 305.019 328.080 303.009 327.005 L 301.000 325.930 301.000 324.906 L 301.000 323.882 302.000 324.500 L 303.000 325.118 303.000 324.049 L 303.000 322.980 301.000 321.268 L 299.000 319.556 299.000 317.837 L 299.000 316.118 298.000 315.500 L 297.000 314.882 297.000 312.563 L 297.000 310.245 295.500 309.000 L 294.000 307.755 294.000 306.402 L 294.000 305.050 296.500 306.000 L 299.000 306.950 299.004 306.225 L 299.007 305.500 300.989 308.750 L 302.971 312.000 304.485 312.000 L 306.000 312.000 306.000 310.500 L 306.000 309.000 307.893 309.000 L 309.786 309.000 310.362 310.500 L 310.937 312.000 311.969 312.000 L 313.000 312.000 314.826 310.174 L 316.653 308.347 317.232 306.838 L 317.811 305.328 313.851 306.385 L 309.891 307.442 309.196 306.378 L 308.500 305.314 305.000 304.541 L 301.500 303.767 297.619 303.481 L 293.738 303.195 293.084 302.136 L 292.430 301.078 288.077 300.531 L 283.725 299.984 282.597 300.920 L 281.469 301.855 277.302 302.334 L 273.135 302.813 273.538 301.656 L 273.941 300.500 271.945 298.108 L 269.950 295.717 269.348 296.318 L 268.746 296.920 265.923 295.460 L 263.099 294.000 259.300 293.985 L 255.500 293.970 251.500 292.529 L 247.500 291.088 244.750 291.044 M276.886 304.559 L 278.500 305.227 280.187 305.714 L 281.874 306.200 282.942 309.262 L 284.009 312.324 283.607 312.727 L 283.204 313.129 279.787 312.488 L 276.370 311.847 275.173 311.107 L 273.977 310.367 274.624 307.129 L 275.272 303.890 276.886 304.559 " stroke="#000000" fill="none"/><path d="M77.000 0.012 L 0.000 -0.022 0.000 166.494 L 0.000 333.010 101.218 332.755 L 202.436 332.500 203.707 328.500 L 204.979 324.500 204.713 328.750 L 204.447 333.000 291.224 333.000 L 378.000 333.000 378.000 332.344 L 378.000 331.689 375.442 328.335 L 372.884 324.982 369.148 323.076 L 365.412 321.170 357.099 319.954 L 348.786 318.739 339.643 319.274 L 330.500 319.809 324.755 321.849 L 319.010 323.889 318.397 321.447 L 317.784 319.004 318.375 317.464 L 318.966 315.924 317.546 315.379 L 316.126 314.834 316.726 313.167 L 317.325 311.500 319.040 309.000 L 320.754 306.500 320.840 301.750 L 320.927 297.000 318.464 297.000 L 316.000 297.000 316.000 289.059 L 316.000 281.118 317.216 280.366 L 318.432 279.615 321.966 278.961 L 325.500 278.307 323.675 277.518 L 321.850 276.728 317.925 277.904 L 314.000 279.080 314.000 289.657 L 314.000 300.233 316.553 299.745 L 319.105 299.257 318.803 301.379 L 318.500 303.500 312.000 303.406 L 305.500 303.311 293.000 300.220 L 280.500 297.128 270.000 295.015 L 259.500 292.901 253.500 291.684 L 247.500 290.467 247.182 288.243 L 246.863 286.019 249.682 284.821 L 252.500 283.623 255.000 281.362 L 257.500 279.102 257.156 284.008 L 256.813 288.915 259.156 289.353 L 261.500 289.791 267.856 290.957 L 274.211 292.122 274.513 291.811 L 274.815 291.500 275.957 281.500 L 277.100 271.500 277.661 268.250 L 278.223 265.000 279.571 265.000 L 280.920 265.000 282.087 268.898 L 283.255 272.795 285.675 273.898 L 288.094 275.000 289.936 275.000 L 291.778 275.000 294.073 273.142 L 296.368 271.284 298.664 274.013 L 300.961 276.742 303.730 277.347 L 306.500 277.952 308.750 278.593 L 311.000 279.233 311.000 271.215 L 311.000 263.196 304.974 262.497 L 298.949 261.798 297.486 263.011 L 296.024 264.225 295.391 262.576 L 294.758 260.926 292.094 259.549 L 289.431 258.171 285.802 257.491 L 282.172 256.810 281.005 258.991 L 279.838 261.171 280.395 261.729 L 280.953 262.286 281.583 260.643 L 282.214 259.000 285.203 259.000 L 288.191 259.000 291.137 260.740 L 294.082 262.480 294.668 264.814 L 295.254 267.147 294.161 269.546 L 293.068 271.945 290.527 272.583 L 287.985 273.220 285.493 271.587 L 283.000 269.954 283.000 267.012 L 283.000 264.070 281.131 263.070 L 279.263 262.070 278.674 262.659 L 278.086 263.248 278.670 259.647 L 279.254 256.047 276.877 255.148 L 274.500 254.249 269.250 253.530 L 264.000 252.812 264.000 251.922 L 264.000 251.032 270.335 242.766 L 276.670 234.500 280.694 228.500 L 284.718 222.500 286.974 218.064 L 289.230 213.628 290.365 215.741 L 291.500 217.855 295.294 220.427 L 299.089 223.000 301.509 223.000 L 303.930 223.000 304.921 224.853 L 305.913 226.706 311.623 227.853 L 317.334 229.000 319.678 229.000 L 322.022 229.000 326.375 231.046 L 330.729 233.093 338.056 233.876 L 345.382 234.659 346.441 236.479 L 347.500 238.300 354.191 244.745 L 360.883 251.190 361.518 254.083 L 362.154 256.977 363.062 257.538 L 363.970 258.099 363.505 255.300 L 363.040 252.500 361.431 236.000 L 359.823 219.500 360.458 214.656 L 361.094 209.812 359.377 205.317 L 357.660 200.822 353.580 201.410 L 349.500 201.998 326.767 202.626 L 304.035 203.254 303.657 201.877 L 303.279 200.500 301.634 195.500 L 299.990 190.500 299.995 189.462 L 300.000 188.423 308.750 180.774 L 317.500 173.125 319.764 171.312 L 322.027 169.500 325.087 160.500 L 328.146 151.500 327.823 142.000 L 327.500 132.500 324.000 126.683 L 320.500 120.866 319.376 118.683 L 318.252 116.500 316.709 113.000 L 315.167 109.500 314.555 106.711 L 313.942 103.922 307.221 99.610 L 300.500 95.297 294.056 93.149 L 287.612 91.000 285.747 91.000 L 283.882 91.000 284.410 91.854 L 284.937 92.708 282.339 93.891 L 279.742 95.075 279.295 94.629 L 278.849 94.183 280.925 93.524 L 283.000 92.865 283.000 91.933 L 283.000 91.000 281.559 91.000 L 280.118 91.000 279.500 92.000 L 278.882 93.000 277.346 93.000 L 275.811 93.000 268.753 85.443 L 261.695 77.885 257.598 75.738 L 253.500 73.590 247.500 73.549 L 241.500 73.507 236.708 76.320 L 231.916 79.134 228.981 83.185 L 226.046 87.236 225.411 90.625 L 224.775 94.013 225.419 98.306 L 226.062 102.599 231.031 110.953 L 236.000 119.307 236.000 119.545 L 236.000 119.783 233.570 120.393 L 231.140 121.003 229.505 122.638 L 227.870 124.273 228.522 128.128 L 229.173 131.984 226.672 132.935 L 224.171 133.885 223.445 136.173 L 222.719 138.461 220.724 141.159 L 218.729 143.857 219.272 145.931 L 219.814 148.005 218.621 148.752 L 217.428 149.500 215.214 152.385 L 213.000 155.270 213.000 158.185 L 213.000 161.099 214.469 163.941 L 215.939 166.782 222.219 170.799 L 228.500 174.817 231.810 177.907 L 235.120 180.997 234.501 181.998 L 233.882 183.000 232.791 183.000 L 231.700 183.000 224.807 179.026 L 217.915 175.052 212.914 173.567 L 207.914 172.082 205.507 172.997 L 203.101 173.912 202.020 177.925 L 200.940 181.938 202.277 191.219 L 203.614 200.500 199.057 200.856 L 194.500 201.211 183.648 199.962 L 172.796 198.712 171.889 200.106 L 170.982 201.500 170.337 204.000 L 169.692 206.500 168.846 207.059 L 168.000 207.618 169.392 209.521 L 170.784 211.425 172.391 210.091 L 173.998 208.757 176.749 209.799 L 179.500 210.842 189.339 211.346 L 199.177 211.850 200.839 213.341 L 202.500 214.831 206.145 215.507 L 209.791 216.183 212.229 214.586 L 214.667 212.988 217.806 214.082 L 220.944 215.176 223.972 213.020 L 227.000 210.864 227.051 211.682 L 227.101 212.500 229.818 233.697 L 232.536 254.893 232.184 255.947 L 231.833 257.000 231.042 257.000 L 230.250 257.000 229.694 254.221 L 229.138 251.441 226.764 248.880 L 224.390 246.318 220.263 245.658 L 216.135 244.998 213.568 245.974 L 211.000 246.950 210.963 247.725 L 210.926 248.500 214.703 263.250 L 218.481 278.000 219.237 278.000 L 219.994 278.000 223.788 274.572 L 227.582 271.145 229.332 276.072 L 231.082 281.000 232.573 281.000 L 234.064 281.000 234.932 283.250 L 235.800 285.500 236.500 283.768 L 237.200 282.037 239.235 283.126 L 241.270 284.215 239.992 285.005 L 238.713 285.795 239.297 288.028 L 239.881 290.262 238.381 291.762 L 236.881 293.262 236.378 291.339 L 235.876 289.416 226.188 287.186 L 216.500 284.955 206.911 284.002 L 197.322 283.048 194.411 281.530 L 191.500 280.012 181.309 280.006 L 171.118 280.000 170.500 279.000 L 169.882 278.000 171.492 278.000 L 173.102 278.000 174.451 274.750 L 175.799 271.500 177.925 261.652 L 180.050 251.804 181.525 248.952 L 183.000 246.099 183.000 244.573 L 183.000 243.046 180.480 241.395 L 177.960 239.744 173.480 241.455 L 169.000 243.165 169.000 244.001 L 169.000 244.836 168.424 246.668 L 167.849 248.500 168.974 246.750 L 170.099 245.000 173.000 243.500 L 175.901 242.000 178.391 242.000 L 180.882 242.000 181.479 242.966 L 182.076 243.931 180.086 247.831 L 178.096 251.731 176.979 256.616 L 175.861 261.500 174.271 267.789 L 172.682 274.079 171.925 274.546 L 171.168 275.014 168.534 274.013 L 165.899 273.011 166.421 266.756 L 166.943 260.500 164.924 271.000 L 162.905 281.500 162.648 282.721 L 162.391 283.942 161.696 284.638 L 161.000 285.333 161.000 288.312 L 161.000 291.290 155.750 286.330 L 150.500 281.370 146.000 278.804 L 141.500 276.237 134.396 274.134 L 127.292 272.031 119.396 271.532 L 111.500 271.033 108.808 270.450 L 106.116 269.866 105.459 273.365 L 104.803 276.863 105.399 281.121 L 105.994 285.378 107.247 286.174 L 108.500 286.969 107.448 286.985 L 106.395 287.000 104.619 291.938 L 102.843 296.877 100.527 299.377 L 98.210 301.877 98.629 302.296 L 99.048 302.715 97.584 303.931 L 96.119 305.146 96.666 306.573 L 97.214 308.000 94.357 307.921 L 91.500 307.842 92.761 307.334 L 94.023 306.826 95.111 304.792 L 96.200 302.759 95.100 303.438 L 94.000 304.118 94.000 303.000 L 94.000 301.882 93.105 302.435 L 92.210 302.989 91.636 301.494 L 91.063 300.000 89.415 300.000 L 87.767 300.000 88.253 298.142 L 88.738 296.284 87.808 294.621 L 86.877 292.958 85.939 293.538 L 85.000 294.118 85.000 293.118 L 85.000 292.118 85.906 291.558 L 86.812 290.998 86.265 288.749 L 85.718 286.500 84.204 284.750 L 82.690 283.000 83.645 283.000 L 84.600 283.000 85.800 284.200 L 87.000 285.400 87.063 287.450 L 87.127 289.500 88.031 287.250 L 88.936 285.000 89.535 285.000 L 90.135 285.000 89.577 287.250 L 89.018 289.500 89.593 288.250 L 90.167 287.000 91.583 287.000 L 93.000 287.000 93.000 286.155 L 93.000 285.310 91.250 283.780 L 89.500 282.249 87.673 282.548 L 85.845 282.846 86.366 281.487 L 86.888 280.129 85.694 279.709 L 84.500 279.289 87.357 279.270 L 90.214 279.250 88.857 280.110 L 87.500 280.969 89.250 280.985 L 91.000 281.000 91.000 279.969 L 91.000 278.937 89.474 278.352 L 87.949 277.766 89.116 276.360 L 90.283 274.954 88.770 275.535 L 87.258 276.115 86.606 274.414 L 85.953 272.714 86.613 272.107 L 87.274 271.500 87.720 272.750 L 88.167 274.000 90.333 273.884 L 92.500 273.768 90.750 273.311 L 89.000 272.853 88.882 271.677 L 88.763 270.500 88.906 269.676 L 89.050 268.851 88.184 269.386 L 87.318 269.921 85.022 266.711 L 82.727 263.500 84.535 265.207 L 86.342 266.914 87.633 265.207 L 88.924 263.500 88.530 265.692 L 88.137 267.885 89.505 267.360 L 90.874 266.834 90.340 265.443 L 89.806 264.051 91.460 262.397 L 93.115 260.742 92.695 259.621 L 92.274 258.500 91.585 256.000 L 90.896 253.500 92.317 255.261 L 93.737 257.022 95.118 255.324 L 96.500 253.626 94.712 254.296 L 92.924 254.966 92.372 253.528 L 91.820 252.089 90.515 253.295 L 89.210 254.500 89.594 255.137 L 89.978 255.773 88.466 257.028 L 86.954 258.283 87.632 256.391 L 88.310 254.500 89.405 253.086 L 90.500 251.673 88.273 252.859 L 86.045 254.046 86.692 252.359 L 87.340 250.672 86.170 251.395 L 85.000 252.118 85.000 251.059 L 85.000 250.000 86.441 250.000 L 87.882 250.000 88.430 249.113 L 88.978 248.226 87.239 248.363 L 85.500 248.500 84.750 249.500 L 84.000 250.500 83.015 249.000 L 82.031 247.500 82.015 248.633 L 82.000 249.767 79.442 250.256 L 76.884 250.745 77.419 249.350 L 77.955 247.955 75.977 245.977 L 74.000 244.000 73.531 244.000 L 73.063 244.000 73.600 245.399 L 74.136 246.798 73.137 247.415 L 72.138 248.033 71.500 247.000 L 70.862 245.967 69.776 246.638 L 68.691 247.309 69.378 246.198 L 70.064 245.087 71.782 245.713 L 73.500 246.339 71.595 244.170 L 69.690 242.000 70.595 241.970 L 71.500 241.939 69.698 240.891 L 67.895 239.842 66.448 241.043 L 65.000 242.245 64.985 241.372 L 64.969 240.500 63.890 242.000 L 62.811 243.500 63.349 241.815 L 63.888 240.129 62.694 239.700 L 61.500 239.270 59.750 240.170 L 58.000 241.070 58.000 238.702 L 58.000 236.333 59.484 236.333 L 60.968 236.333 59.948 237.563 L 58.927 238.793 61.463 238.646 L 63.999 238.500 63.999 237.809 L 64.000 237.118 62.984 236.490 L 61.967 235.862 62.638 234.776 L 63.309 233.691 61.985 234.510 L 60.660 235.328 61.299 233.664 L 61.937 232.000 60.913 232.000 L 59.888 232.000 62.608 229.660 L 65.328 227.321 64.139 226.586 L 62.950 225.851 63.225 227.176 L 63.500 228.500 61.750 228.361 L 60.000 228.222 60.000 229.111 L 60.000 230.000 59.000 230.000 L 58.000 230.000 58.000 229.189 L 58.000 228.377 60.000 226.230 L 62.000 224.084 62.000 223.649 L 62.000 223.214 60.460 222.623 L 58.920 222.032 59.210 223.662 L 59.500 225.293 58.173 225.755 L 56.846 226.218 57.350 223.015 L 57.855 219.811 58.428 219.239 L 59.000 218.667 59.000 219.833 L 59.000 221.000 60.567 221.000 L 62.135 221.000 61.502 219.006 L 60.869 217.013 62.333 217.574 L 63.798 218.136 64.473 217.043 L 65.149 215.950 64.324 216.094 L 63.500 216.237 63.000 216.042 L 62.500 215.847 60.750 215.512 L 59.000 215.177 59.000 215.981 L 59.000 216.786 57.306 217.436 L 55.612 218.086 57.556 215.938 L 59.500 213.790 59.000 213.145 L 58.500 212.500 61.000 212.315 L 63.500 212.131 61.750 212.639 L 60.000 213.147 60.000 213.985 L 60.000 214.823 61.399 214.618 L 62.798 214.412 64.241 213.215 L 65.684 212.017 66.200 212.533 L 66.715 213.048 68.000 211.500 L 69.285 209.952 68.588 209.255 L 67.891 208.558 67.057 209.907 L 66.224 211.256 65.112 210.569 L 64.000 209.882 64.015 208.691 L 64.031 207.500 64.936 208.931 L 65.842 210.362 66.485 206.931 L 67.129 203.500 66.814 202.546 L 66.500 201.592 64.750 201.463 L 63.001 201.334 62.250 200.508 L 61.500 199.681 63.218 200.297 L 64.936 200.913 65.621 199.805 L 66.305 198.697 67.631 200.510 L 68.957 202.323 68.472 204.912 L 67.988 207.500 68.644 206.000 L 69.300 204.500 70.400 203.674 L 71.500 202.848 70.209 202.327 L 68.917 201.806 71.597 199.322 L 74.277 196.839 76.140 197.326 L 78.003 197.813 77.514 197.022 L 77.024 196.231 74.065 195.796 L 71.106 195.362 71.612 196.181 L 72.118 197.000 70.559 197.000 L 69.000 197.000 69.000 196.000 L 69.000 195.000 68.031 195.000 L 67.063 195.000 67.638 196.500 L 68.214 198.000 70.357 198.030 L 72.500 198.061 70.654 199.134 L 68.807 200.207 67.714 199.114 L 66.620 198.020 66.407 196.760 L 66.193 195.500 65.511 193.806 L 64.829 192.111 66.845 192.263 L 68.861 192.415 68.372 193.208 L 67.882 194.000 69.941 194.000 L 72.000 194.000 72.015 190.250 L 72.031 186.500 73.000 185.000 L 73.969 183.500 73.985 185.250 L 74.000 187.000 74.571 187.000 L 75.143 187.000 76.538 185.605 L 77.933 184.210 74.216 183.441 L 70.500 182.672 72.113 182.289 L 73.727 181.906 73.377 178.902 L 73.027 175.899 74.014 176.508 L 75.000 177.118 75.000 174.559 L 75.000 172.000 73.833 172.000 L 72.667 172.000 73.190 171.476 L 73.714 170.953 75.437 171.614 L 77.161 172.276 76.694 174.063 L 76.226 175.850 77.613 175.318 L 79.000 174.786 79.000 173.952 L 79.000 173.118 78.089 172.555 L 77.178 171.992 77.367 170.746 L 77.556 169.500 78.433 168.095 L 79.309 166.691 78.155 167.405 L 77.000 168.118 77.000 166.559 L 77.000 165.000 78.000 165.000 L 79.000 165.000 79.000 164.031 L 79.000 163.063 77.500 163.638 L 76.000 164.214 76.000 162.638 L 76.000 161.063 77.750 161.613 L 79.500 162.163 77.750 160.721 L 76.000 159.280 75.985 157.890 L 75.969 156.500 75.000 158.000 L 74.031 159.500 74.015 158.300 L 74.000 157.099 75.750 156.080 L 77.500 155.061 76.191 155.030 L 74.882 155.000 75.500 154.000 L 76.118 153.000 75.228 153.000 L 74.338 153.000 73.018 155.466 L 71.699 157.932 70.839 157.400 L 69.979 156.869 71.414 154.820 L 72.849 152.770 72.318 151.385 L 71.786 150.000 72.893 150.000 L 74.000 150.000 74.000 151.000 L 74.000 152.000 75.941 152.000 L 77.882 152.000 78.442 151.093 L 79.003 150.187 77.117 150.680 L 75.231 151.173 75.368 147.668 L 75.504 144.163 76.228 143.439 L 76.952 142.715 78.476 143.980 L 80.000 145.245 80.000 144.181 L 80.000 143.118 79.000 142.500 L 78.000 141.882 78.000 140.882 L 78.000 139.882 79.250 140.588 L 80.500 141.293 79.250 139.947 L 78.000 138.600 80.750 137.285 L 83.500 135.970 81.609 136.508 L 79.717 137.046 80.914 135.604 L 82.111 134.161 80.305 133.111 L 78.500 132.061 82.219 132.030 L 85.937 132.000 85.411 130.629 L 84.885 129.258 86.443 128.660 L 88.000 128.063 88.000 127.099 L 88.000 126.135 85.868 125.458 L 83.736 124.781 85.118 123.906 L 86.500 123.031 85.250 123.015 L 84.000 123.000 84.000 122.000 L 84.000 121.000 85.417 121.000 L 86.833 121.000 87.253 121.750 L 87.672 122.500 87.302 121.080 L 86.932 119.660 88.216 118.827 L 89.500 117.994 87.110 118.247 L 84.720 118.500 84.284 117.000 L 83.848 115.500 84.909 117.000 L 85.969 118.500 85.985 116.750 L 86.000 115.000 87.000 115.000 L 88.000 115.000 88.000 113.500 L 88.000 112.000 86.713 112.000 L 85.426 112.000 85.276 110.020 L 85.127 108.039 86.064 107.461 L 87.000 106.882 87.000 104.824 L 87.000 102.767 85.000 103.290 L 83.000 103.813 83.079 101.656 L 83.158 99.500 83.662 100.750 L 84.167 102.000 86.333 101.985 L 88.500 101.969 87.246 101.173 L 85.991 100.377 89.450 99.019 L 92.909 97.662 92.403 96.843 L 91.896 96.023 93.319 96.569 L 94.742 97.115 95.333 95.575 L 95.924 94.035 99.212 94.602 L 102.500 95.168 101.404 94.334 L 100.308 93.500 99.606 90.500 L 98.905 87.500 98.345 85.625 L 97.786 83.750 99.000 84.500 L 100.214 85.250 99.470 82.875 L 98.726 80.500 98.256 79.250 L 97.786 78.000 99.432 78.000 L 101.079 78.000 99.789 76.611 L 98.500 75.221 97.794 76.348 L 97.089 77.475 97.251 75.313 L 97.414 73.151 99.151 74.081 L 100.889 75.011 101.503 76.005 L 102.118 77.000 103.309 76.985 L 104.500 76.969 103.197 76.143 L 101.894 75.317 102.197 73.908 L 102.500 72.500 103.269 71.929 L 104.038 71.358 101.519 70.010 L 99.000 68.662 99.000 67.178 L 99.000 65.694 100.750 67.698 L 102.500 69.703 104.482 69.406 L 106.464 69.109 106.817 68.048 L 107.171 66.988 108.335 67.666 L 109.500 68.344 107.652 66.235 L 105.804 64.126 106.519 62.970 L 107.233 61.814 107.179 57.873 L 107.124 53.932 109.029 56.216 L 110.933 58.500 110.967 57.250 L 111.000 56.000 109.833 56.000 L 108.667 56.000 109.309 55.357 L 109.952 54.715 111.532 56.027 L 113.113 57.339 112.806 55.956 L 112.500 54.573 114.750 53.549 L 117.000 52.526 117.000 50.640 L 117.000 48.755 115.308 50.128 L 113.616 51.500 114.314 50.335 L 115.012 49.171 113.756 48.664 L 112.500 48.158 115.167 48.079 L 117.833 48.000 118.253 48.750 L 118.672 49.500 118.396 48.323 L 118.119 47.146 119.505 45.996 L 120.892 44.845 120.089 42.673 L 119.287 40.500 119.727 39.250 L 120.167 38.000 118.383 38.000 L 116.600 38.000 117.713 36.887 L 118.826 35.774 119.913 36.446 L 121.000 37.118 121.000 39.118 L 121.000 41.118 122.004 40.498 L 123.007 39.877 122.395 37.439 L 121.783 35.000 123.892 35.000 L 126.000 35.000 126.000 34.094 L 126.000 33.187 124.000 33.710 L 122.000 34.233 122.000 32.676 L 122.000 31.118 122.989 30.507 L 123.977 29.896 123.382 31.448 L 122.786 33.000 123.279 33.000 L 123.771 33.000 126.636 31.408 L 129.500 29.815 127.250 30.314 L 125.000 30.813 125.000 30.147 L 125.000 29.481 126.907 28.290 L 128.815 27.099 131.657 27.555 L 134.500 28.011 132.500 26.858 L 130.500 25.705 130.107 25.377 L 129.715 25.048 131.107 23.332 L 132.500 21.616 131.363 22.297 L 130.227 22.978 128.972 21.466 L 127.717 19.954 129.268 20.549 L 130.819 21.145 131.482 19.058 L 132.144 16.971 133.140 17.587 L 134.136 18.202 133.600 19.601 L 133.063 21.000 134.031 21.000 L 135.000 21.000 135.000 19.711 L 135.000 18.421 137.750 18.461 L 140.500 18.500 140.307 17.421 L 140.114 16.343 142.307 16.520 L 144.500 16.697 145.235 15.598 L 145.969 14.500 145.985 13.550 L 146.000 12.600 144.800 13.800 L 143.600 15.000 142.967 15.000 L 142.334 15.000 142.584 12.750 L 142.833 10.500 143.042 10.250 L 143.250 10.000 143.375 9.083 L 143.500 8.167 144.387 7.333 L 145.273 6.500 144.775 9.250 L 144.277 12.000 146.389 11.985 L 148.500 11.969 147.000 10.890 L 145.500 9.811 147.324 10.403 L 149.149 10.994 150.646 9.497 L 152.143 8.000 150.371 8.000 L 148.600 8.000 149.758 6.842 L 150.915 5.685 152.458 6.965 L 154.000 8.245 154.000 7.500 L 154.000 6.755 155.692 8.128 L 157.384 9.500 156.595 8.188 L 155.806 6.877 153.343 5.940 L 150.880 5.004 151.509 3.986 L 152.138 2.967 153.069 3.543 L 154.000 4.118 154.000 2.083 L 154.000 0.047 77.000 0.012 M497.500 0.000 L 495.000 0.000 495.069 3.250 L 495.139 6.500 497.452 29.500 L 499.765 52.500 499.883 26.250 L 500.000 0.000 497.500 0.000 M495.773 189.000 L 494.882 189.000 495.345 189.750 L 495.808 190.500 497.606 205.392 L 499.405 220.285 499.835 218.995 L 500.265 217.704 498.464 203.352 L 496.664 189.000 495.773 189.000 M232.345 209.314 L 235.689 211.865 241.595 213.366 L 247.500 214.866 259.203 216.933 L 270.906 219.000 276.019 219.000 L 281.131 219.000 283.151 217.919 L 285.171 216.838 285.661 217.327 L 286.150 217.816 283.379 222.158 L 280.608 226.500 269.600 241.250 L 258.593 256.000 257.796 256.000 L 257.000 256.000 257.000 255.000 L 257.000 254.000 255.674 254.000 L 254.349 254.000 252.194 256.293 L 250.040 258.586 249.005 261.555 L 247.971 264.523 244.485 267.304 L 241.000 270.085 241.000 267.739 L 241.000 265.392 244.611 261.946 L 248.222 258.500 250.111 254.167 L 252.000 249.834 252.000 249.417 L 252.000 249.000 249.167 249.000 L 246.333 249.000 245.624 249.709 L 244.915 250.419 240.906 250.129 L 236.898 249.840 235.461 251.032 L 234.024 252.225 233.562 250.863 L 233.101 249.500 231.046 233.500 L 228.992 217.500 228.996 212.131 L 229.000 206.763 232.345 209.314 M142.628 229.500 L 141.347 226.500 140.630 229.346 L 139.914 232.191 140.841 233.346 L 141.769 234.500 142.438 238.000 L 143.107 241.500 144.441 245.000 L 145.774 248.500 146.806 251.000 L 147.839 253.500 147.332 249.500 L 146.826 245.500 145.413 241.730 L 144.000 237.960 143.955 235.230 L 143.910 232.500 142.628 229.500 M194.692 236.652 L 189.884 236.022 187.079 242.261 L 184.273 248.500 181.637 254.625 L 179.000 260.750 179.000 262.559 L 179.000 264.369 177.342 270.278 L 175.684 276.187 176.854 276.910 L 178.023 277.632 184.731 277.271 L 191.438 276.909 192.204 275.705 L 192.969 274.500 192.985 272.250 L 193.000 270.000 193.750 270.010 L 194.500 270.020 196.096 273.823 L 197.692 277.626 201.247 279.313 L 204.802 281.000 210.401 281.000 L 216.000 281.000 215.971 280.250 L 215.942 279.500 213.965 272.500 L 211.988 265.500 209.788 256.750 L 207.589 248.000 206.592 248.000 L 205.595 248.000 202.298 251.196 L 199.000 254.392 199.003 253.446 L 199.007 252.500 202.003 245.146 L 205.000 237.793 205.000 236.896 L 205.000 236.000 202.750 236.015 L 200.500 236.031 201.784 236.845 L 203.068 237.660 202.380 239.580 L 201.693 241.500 197.951 250.500 L 194.210 259.500 192.371 267.165 L 190.533 274.829 184.700 274.665 L 178.868 274.500 179.436 272.000 L 180.003 269.500 180.937 264.322 L 181.872 259.145 183.377 254.710 L 184.883 250.276 188.087 243.777 L 191.292 237.279 195.896 237.772 L 200.500 238.266 200.000 237.774 L 199.500 237.282 194.692 236.652 M133.232 249.552 L 132.500 243.604 131.250 246.349 L 130.000 249.094 130.000 251.047 L 130.000 253.000 128.917 253.000 L 127.833 253.000 128.260 254.250 L 128.686 255.500 130.835 255.188 L 132.984 254.877 132.411 256.371 L 131.838 257.865 134.919 259.458 L 138.000 261.051 138.000 259.936 L 138.000 258.821 135.982 257.160 L 133.964 255.500 133.232 249.552 M215.937 247.000 L 217.756 247.000 221.311 248.485 L 224.866 249.971 226.433 252.208 L 228.000 254.445 228.000 258.356 L 228.000 262.268 226.857 266.084 L 225.713 269.901 222.933 272.564 L 220.153 275.228 218.139 268.364 L 216.125 261.500 214.526 255.214 L 212.927 248.928 213.522 247.964 L 214.118 247.000 215.937 247.000 M205.844 250.511 L 206.334 251.001 209.652 264.251 L 212.970 277.500 212.985 278.155 L 213.000 278.810 208.986 278.423 L 204.972 278.037 202.015 276.508 L 199.059 274.979 198.030 273.055 L 197.000 271.131 197.000 265.788 L 197.000 260.445 198.653 257.973 L 200.307 255.500 202.830 252.760 L 205.354 250.021 205.844 250.511 M243.386 251.619 L 248.500 252.271 248.778 252.497 L 249.056 252.723 248.109 255.213 L 247.162 257.703 243.074 260.941 L 238.986 264.179 238.364 261.069 L 237.742 257.958 236.725 257.330 L 235.708 256.702 236.306 259.101 L 236.904 261.500 237.425 266.000 L 237.946 270.500 236.487 265.000 L 235.027 259.500 235.629 256.500 L 236.231 253.500 237.252 252.234 L 238.272 250.967 243.386 251.619 M498.435 252.333 L 497.032 252.333 498.102 253.623 L 499.172 254.912 498.669 255.727 L 498.165 256.541 498.945 264.021 L 499.724 271.500 499.781 261.917 L 499.838 252.333 498.435 252.333 M267.847 254.441 L 271.500 255.068 274.343 255.634 L 277.185 256.200 276.614 259.350 L 276.043 262.500 274.465 275.500 L 272.886 288.500 272.193 289.120 L 271.500 289.740 265.362 288.242 L 259.225 286.743 259.673 282.621 L 260.120 278.500 261.618 268.000 L 263.116 257.500 263.655 255.657 L 264.194 253.814 267.847 254.441 M255.327 256.276 L 256.375 256.625 256.703 257.608 L 257.030 258.590 255.224 260.545 L 253.417 262.500 250.229 267.000 L 247.041 271.500 244.525 274.500 L 242.010 277.500 242.005 276.184 L 242.000 274.869 243.144 272.684 L 244.289 270.500 247.644 266.747 L 251.000 262.994 251.000 261.962 L 251.000 260.930 252.639 258.428 L 254.278 255.926 255.327 256.276 M232.959 259.000 L 233.841 259.000 234.533 265.459 L 235.224 271.919 233.684 273.459 L 232.143 275.000 231.659 275.000 L 231.176 275.000 230.519 271.113 L 229.862 267.225 230.970 263.113 L 232.077 259.000 232.959 259.000 M258.076 261.088 L 258.969 262.500 258.985 266.101 L 259.000 269.702 256.422 274.601 L 253.844 279.500 252.672 280.677 L 251.500 281.854 247.890 282.512 L 244.279 283.170 243.647 281.522 L 243.014 279.873 244.405 277.184 L 245.795 274.495 248.017 272.498 L 250.240 270.500 253.711 265.088 L 257.182 259.677 258.076 261.088 M319.000 262.036 L 317.500 262.064 315.750 263.392 L 314.000 264.720 314.000 270.467 L 314.000 276.214 315.750 275.463 L 317.500 274.712 322.000 273.501 L 326.500 272.291 326.812 269.168 L 327.123 266.046 323.812 264.027 L 320.500 262.007 319.000 262.036 M303.189 263.414 L 307.309 264.073 308.155 264.596 L 309.000 265.118 309.000 271.059 L 309.000 277.000 307.750 276.952 L 306.500 276.904 303.035 275.202 L 299.570 273.500 298.082 270.843 L 296.594 268.186 297.831 265.471 L 299.069 262.755 303.189 263.414 M319.277 263.000 L 320.154 263.000 323.077 265.923 L 326.000 268.846 326.000 269.812 L 326.000 270.777 322.429 271.447 L 318.858 272.117 317.429 272.666 L 316.000 273.214 316.000 269.307 L 316.000 265.400 317.200 264.200 L 318.400 263.000 319.277 263.000 M300.250 281.687 L 295.000 280.108 295.000 284.104 L 295.000 288.099 296.411 290.800 L 297.821 293.500 300.755 296.288 L 303.688 299.075 307.388 299.676 L 311.089 300.276 310.795 292.457 L 310.500 284.638 308.000 283.952 L 305.500 283.267 300.250 281.687 M299.250 283.575 L 301.500 284.286 305.000 285.489 L 308.500 286.692 308.802 291.846 L 309.105 297.000 306.987 297.000 L 304.869 297.000 303.024 296.013 L 301.179 295.025 299.089 291.645 L 297.000 288.264 297.000 285.565 L 297.000 282.865 299.250 283.575 " stroke="#000000" fill="none"/><path d="M20.507 -0.000 L 0.000 0.000 0.000 166.500 L 0.000 333.000 2.928 333.000 L 5.856 333.000 6.425 327.750 L 6.995 322.500 9.476 299.500 L 11.958 276.500 13.937 260.000 L 15.917 243.500 18.466 221.000 L 21.014 198.500 23.450 176.500 L 25.886 154.500 26.517 147.500 L 27.148 140.500 28.025 134.500 L 28.901 128.500 29.510 120.000 L 30.120 111.500 30.522 108.455 L 30.924 105.409 31.966 93.955 L 33.007 82.500 34.472 67.500 L 35.937 52.500 36.489 45.000 L 37.040 37.500 37.481 35.000 L 37.921 32.500 38.505 24.583 L 39.088 16.666 39.463 16.059 L 39.838 15.453 40.426 7.726 L 41.014 -0.000 20.507 -0.000 M497.488 -0.000 L 494.976 -0.000 495.571 3.750 L 496.167 7.500 497.960 28.000 L 499.754 48.500 499.877 24.250 L 500.000 0.000 497.488 -0.000 M251.710 74.167 L 247.500 73.409 244.000 74.026 L 240.500 74.642 237.425 76.256 L 234.350 77.871 230.729 81.879 L 227.108 85.887 225.972 90.103 L 224.837 94.318 225.502 97.863 L 226.167 101.407 228.223 105.453 L 230.278 109.500 233.692 114.851 L 237.105 120.203 240.349 119.594 L 243.594 118.986 246.872 122.367 L 250.149 125.749 245.414 128.042 L 240.678 130.334 238.576 127.698 L 236.474 125.061 233.129 123.895 L 229.785 122.729 229.005 123.992 L 228.224 125.255 228.724 128.981 L 229.224 132.708 227.136 133.254 L 225.048 133.800 223.795 136.650 L 222.542 139.500 221.271 140.300 L 220.000 141.099 220.000 144.375 L 220.000 147.651 217.498 150.001 L 214.997 152.351 214.049 155.783 L 213.102 159.214 214.583 162.915 L 216.063 166.616 221.404 169.852 L 226.744 173.089 230.872 176.622 L 235.000 180.156 235.000 181.609 L 235.000 183.063 233.680 183.569 L 232.359 184.076 222.671 179.038 L 212.982 174.000 209.113 174.000 L 205.245 174.000 203.976 175.528 L 202.708 177.057 203.359 184.778 L 204.010 192.500 204.634 196.732 L 205.258 200.964 203.451 201.657 L 201.644 202.350 190.072 201.091 L 178.500 199.831 175.751 199.291 L 173.002 198.750 171.501 202.343 L 170.000 205.936 170.000 208.468 L 170.000 211.000 170.671 211.000 L 171.343 211.000 173.153 209.362 L 174.962 207.724 176.461 208.967 L 177.959 210.211 187.730 211.016 L 197.500 211.821 202.000 212.547 L 206.500 213.273 207.680 214.201 L 208.861 215.129 209.899 213.189 L 210.937 211.250 212.934 210.728 L 214.931 210.205 217.118 212.103 L 219.306 214.000 220.839 214.000 L 222.371 214.000 224.619 211.888 L 226.867 209.776 227.414 213.138 L 227.961 216.500 228.348 219.000 L 228.735 221.500 228.689 214.762 L 228.643 208.024 229.256 207.411 L 229.869 206.798 233.279 209.399 L 236.689 212.000 237.728 212.000 L 238.767 212.000 239.354 209.753 L 239.942 207.506 242.721 210.766 L 245.500 214.026 251.302 215.161 L 257.103 216.297 257.925 215.398 L 258.746 214.500 262.801 206.844 L 266.855 199.189 266.261 198.594 L 265.667 198.000 266.723 198.000 L 267.779 198.000 269.108 193.500 L 270.437 189.000 271.777 189.000 L 273.118 189.000 272.620 188.195 L 272.122 187.389 271.604 183.090 L 271.086 178.790 272.958 178.301 L 274.831 177.811 275.434 175.406 L 276.038 173.000 276.930 173.000 L 277.822 173.000 280.361 176.017 L 282.899 179.034 283.700 178.898 L 284.500 178.763 285.270 178.882 L 286.041 179.000 284.000 183.000 L 281.959 187.000 280.980 187.000 L 280.000 187.000 280.000 188.500 L 280.000 190.000 279.094 190.000 L 278.187 190.000 278.710 192.000 L 279.233 194.000 277.073 194.000 L 274.912 194.000 275.206 195.750 L 275.500 197.500 273.500 197.208 L 271.500 196.917 272.883 197.849 L 274.266 198.782 272.793 200.885 L 271.321 202.987 270.660 202.327 L 270.000 201.667 269.882 203.083 L 269.763 204.500 269.882 205.250 L 270.000 206.000 269.094 206.000 L 268.187 206.000 268.712 208.005 L 269.236 210.011 268.262 211.255 L 267.289 212.500 266.738 214.750 L 266.187 217.000 267.012 217.000 L 267.836 217.000 269.418 216.393 L 271.000 215.786 271.000 214.393 L 271.000 213.000 273.750 213.015 L 276.500 213.031 277.573 213.765 L 278.646 214.500 279.318 216.319 L 279.990 218.138 282.245 217.419 L 284.500 216.700 286.000 216.600 L 287.500 216.500 288.734 215.000 L 289.967 213.500 290.592 215.719 L 291.217 217.937 295.536 220.469 L 299.856 223.000 301.773 223.000 L 303.690 223.000 305.357 224.842 L 307.024 226.684 314.262 227.925 L 321.500 229.166 328.668 231.583 L 335.836 234.000 340.010 234.000 L 344.184 234.000 352.222 242.250 L 360.260 250.500 361.625 253.500 L 362.991 256.500 362.375 248.500 L 361.759 240.500 360.487 228.532 L 359.216 216.563 360.147 214.115 L 361.078 211.666 359.911 210.945 L 358.744 210.224 359.340 209.258 L 359.937 208.293 358.810 205.308 L 357.683 202.323 330.097 202.411 L 302.511 202.500 302.506 201.333 L 302.500 200.167 301.750 199.417 L 301.000 198.667 301.000 196.274 L 301.000 193.882 300.250 194.344 L 299.500 194.805 299.294 191.946 L 299.087 189.087 301.794 186.639 L 304.500 184.190 313.500 176.182 L 322.500 168.175 325.000 160.337 L 327.500 152.500 327.500 143.000 L 327.500 133.500 323.729 127.000 L 319.957 120.500 319.080 119.000 L 318.204 117.500 316.696 113.500 L 315.189 109.500 314.033 106.500 L 312.876 103.500 307.102 99.737 L 301.328 95.973 293.605 93.376 L 285.882 90.780 284.691 92.345 L 283.500 93.910 280.611 94.983 L 277.723 96.056 277.583 95.778 L 277.443 95.500 270.541 87.648 L 263.638 79.797 259.779 77.361 L 255.921 74.925 251.710 74.167 M270.146 120.000 L 270.803 120.000 276.832 125.099 L 282.861 130.198 282.324 131.599 L 281.786 133.000 280.334 133.000 L 278.882 133.000 279.500 134.000 L 280.118 135.000 279.059 135.000 L 278.000 135.000 278.000 136.361 L 278.000 137.721 272.856 138.331 L 267.712 138.940 266.611 138.260 L 265.511 137.580 261.755 137.486 L 258.000 137.391 258.000 138.196 L 258.000 139.000 256.941 139.000 L 255.882 139.000 256.595 137.845 L 257.309 136.691 256.098 137.440 L 254.886 138.188 252.443 137.575 L 250.000 136.962 250.000 135.410 L 250.000 133.857 248.500 132.357 L 247.000 130.857 247.000 129.370 L 247.000 127.882 248.000 128.500 L 249.000 129.118 249.000 128.059 L 249.000 127.000 251.789 127.000 L 254.577 127.000 258.452 125.025 L 262.326 123.049 264.816 123.255 L 267.306 123.462 268.398 121.731 L 269.490 120.000 270.146 120.000 M293.411 143.684 L 298.500 144.992 301.178 146.087 L 303.856 147.183 304.471 148.785 L 305.086 150.388 303.076 148.569 L 301.066 146.750 298.783 146.875 L 296.500 146.999 294.361 147.250 L 292.222 147.500 290.361 149.641 L 288.500 151.781 285.355 152.345 L 282.209 152.908 281.662 150.816 L 281.115 148.724 282.808 146.426 L 284.500 144.129 286.411 143.253 L 288.323 142.377 293.411 143.684 M296.582 151.393 L 298.164 152.000 299.514 152.000 L 300.865 152.000 301.523 154.072 L 302.181 156.145 303.839 155.508 L 305.497 154.872 302.634 157.861 L 299.770 160.849 298.221 160.255 L 296.672 159.660 297.252 160.598 L 297.832 161.537 293.910 161.163 L 289.987 160.789 289.435 159.894 L 288.882 159.000 287.691 159.036 L 286.500 159.072 289.500 161.531 L 292.500 163.990 288.338 163.995 L 284.177 164.000 284.367 162.750 L 284.556 161.500 285.378 160.183 L 286.200 158.867 285.536 158.202 L 284.871 157.538 281.867 159.262 L 278.863 160.986 279.182 158.743 L 279.501 156.500 281.250 156.639 L 283.000 156.778 283.000 155.910 L 283.000 155.043 285.374 156.124 L 287.747 157.206 290.057 155.970 L 292.366 154.734 294.093 156.867 L 295.821 159.000 296.410 159.000 L 297.000 159.000 297.000 156.559 L 297.000 154.118 296.000 153.500 L 295.000 152.882 295.000 151.834 L 295.000 150.786 296.582 151.393 M259.250 198.063 L 260.000 198.000 259.985 198.750 L 259.970 199.500 258.640 203.948 L 257.310 208.397 256.349 208.717 L 255.388 209.037 253.713 205.525 L 252.038 202.013 252.769 202.125 L 253.500 202.237 255.000 202.103 L 256.500 201.969 255.024 201.036 L 253.548 200.103 256.024 199.115 L 258.500 198.127 259.250 198.063 M268.609 244.000 L 268.117 244.000 263.500 250.000 L 258.883 256.000 258.001 256.000 L 257.118 256.000 256.454 254.925 L 255.789 253.850 253.307 256.175 L 250.825 258.500 249.400 261.904 L 247.974 265.307 248.362 265.695 L 248.750 266.083 250.268 262.291 L 251.786 258.500 253.872 256.614 L 255.958 254.728 256.568 256.316 L 257.177 257.904 256.530 258.952 L 255.882 260.000 256.915 260.000 L 257.949 260.000 259.636 256.750 L 261.322 253.500 261.759 254.793 L 262.195 256.086 261.568 258.584 L 260.941 261.082 259.971 260.482 L 259.000 259.882 258.996 265.691 L 258.992 271.500 255.685 276.998 L 252.377 282.496 250.439 282.824 L 248.500 283.152 244.750 284.114 L 241.000 285.077 241.000 286.039 L 241.000 287.000 242.376 287.000 L 243.751 287.000 249.126 284.601 L 254.500 282.201 256.316 279.351 L 258.133 276.500 257.669 282.658 L 257.206 288.815 261.557 289.161 L 265.907 289.507 265.204 288.838 L 264.500 288.169 262.000 287.835 L 259.500 287.500 259.733 280.500 L 259.967 273.500 260.428 271.000 L 260.889 268.500 262.080 262.000 L 263.271 255.500 263.385 253.422 L 263.500 251.343 266.301 247.672 L 269.102 244.000 268.609 244.000 M181.737 246.404 L 181.313 245.980 179.664 249.740 L 178.016 253.500 176.028 262.000 L 174.040 270.500 173.403 272.750 L 172.767 275.000 170.633 274.985 L 168.500 274.969 167.026 274.037 L 165.553 273.106 164.792 274.303 L 164.031 275.500 164.015 278.265 L 164.000 281.030 162.324 287.060 L 160.647 293.090 158.251 290.295 L 155.855 287.500 156.444 288.681 L 157.033 289.862 154.564 293.681 L 152.095 297.500 150.047 299.908 L 148.000 302.317 148.000 303.281 L 148.000 304.245 146.308 302.872 L 144.616 301.500 145.315 302.666 L 146.014 303.832 143.007 302.697 L 140.000 301.562 139.985 300.031 L 139.969 298.500 139.142 299.805 L 138.314 301.110 135.907 300.780 L 133.500 300.449 132.066 299.552 L 130.633 298.655 132.566 297.812 L 134.500 296.969 131.856 297.477 L 129.213 297.985 129.356 295.493 L 129.500 293.001 130.750 293.001 L 132.000 293.000 132.000 291.933 L 132.000 290.865 129.875 291.540 L 127.750 292.214 128.391 291.176 L 129.033 290.138 128.105 289.565 L 127.178 288.992 127.513 287.246 L 127.847 285.500 127.923 284.750 L 128.000 284.000 129.500 284.000 L 131.000 284.000 131.000 283.565 L 131.000 283.130 130.038 280.601 L 129.076 278.071 130.055 277.466 L 131.033 276.862 130.457 275.931 L 129.882 275.000 131.191 274.930 L 132.500 274.859 128.814 273.504 L 125.128 272.149 118.814 272.035 L 112.500 271.921 109.500 271.710 L 106.500 271.500 106.171 275.500 L 105.842 279.500 106.953 283.225 L 108.065 286.950 103.940 295.225 L 99.814 303.500 92.985 318.250 L 86.157 333.000 135.578 333.000 L 185.000 333.000 185.068 330.750 L 185.135 328.500 186.238 330.789 L 187.340 333.078 194.920 332.789 L 202.500 332.500 203.115 327.461 L 203.730 322.423 205.439 319.118 L 207.147 315.814 207.776 316.442 L 208.404 317.071 208.205 320.785 L 208.006 324.500 209.503 322.559 L 211.000 320.618 211.000 321.670 L 211.000 322.721 214.750 322.285 L 218.500 321.848 220.250 321.710 L 222.000 321.571 222.000 320.786 L 222.000 320.000 223.559 320.000 L 225.118 320.000 224.454 321.074 L 223.791 322.147 227.922 320.040 L 232.054 317.932 235.777 319.550 L 239.500 321.168 241.179 322.048 L 242.857 322.928 243.179 322.059 L 243.500 321.189 246.500 320.886 L 249.500 320.583 251.911 318.541 L 254.323 316.500 253.469 318.000 L 252.616 319.500 254.308 318.128 L 256.000 316.755 256.000 315.485 L 256.000 314.214 254.501 313.639 L 253.003 313.064 253.427 310.782 L 253.851 308.500 253.926 307.817 L 254.000 307.135 256.072 306.477 L 258.143 305.820 259.826 307.343 L 261.509 308.866 264.144 309.219 L 266.779 309.572 268.389 310.908 L 270.000 312.245 270.000 313.622 L 270.000 315.000 268.750 315.035 L 267.500 315.071 270.000 316.458 L 272.500 317.845 275.151 317.317 L 277.802 316.790 279.651 317.864 L 281.500 318.939 279.750 318.970 L 278.000 319.000 278.000 319.787 L 278.000 320.574 284.687 324.420 L 291.375 328.266 293.927 330.633 L 296.480 333.000 311.848 333.000 L 327.217 333.000 326.529 330.260 L 325.841 327.520 324.793 326.872 L 323.744 326.224 324.388 325.181 L 325.033 324.138 324.195 323.620 L 323.357 323.102 320.530 324.569 L 317.702 326.036 317.499 325.768 L 317.295 325.500 316.162 320.865 L 315.029 316.229 317.014 310.458 L 319.000 304.687 319.000 304.417 L 319.000 304.147 310.750 303.707 L 302.500 303.268 292.500 300.569 L 282.500 297.870 280.000 297.378 L 277.500 296.887 267.500 294.893 L 257.500 292.899 252.674 291.949 L 247.847 291.000 244.483 291.000 L 241.118 291.000 240.501 291.998 L 239.884 292.997 239.295 300.018 L 238.707 307.040 238.129 306.462 L 237.551 305.884 237.776 299.692 L 238.001 293.500 236.624 291.727 L 235.246 289.955 229.373 288.390 L 223.500 286.826 218.000 285.854 L 212.500 284.883 205.000 284.362 L 197.500 283.840 195.318 282.442 L 193.137 281.043 179.068 280.940 L 165.000 280.837 165.000 277.718 L 165.000 274.600 166.200 275.800 L 167.400 277.000 170.617 277.000 L 173.834 277.000 176.959 263.856 L 180.084 250.711 181.123 248.770 L 182.162 246.829 181.737 246.404 M200.649 246.316 L 200.272 245.939 198.008 251.204 L 195.743 256.469 193.832 263.365 L 191.921 270.262 192.381 271.381 L 192.842 272.500 192.921 270.750 L 193.000 269.000 193.921 269.000 L 194.841 269.000 195.472 271.874 L 196.104 274.749 198.302 276.713 L 200.500 278.676 203.500 279.824 L 206.500 280.972 210.500 280.588 L 214.500 280.203 215.187 280.101 L 215.873 280.000 213.926 273.250 L 211.978 266.500 209.527 257.621 L 207.075 248.742 206.413 248.121 L 205.752 247.500 206.316 249.500 L 206.881 251.500 209.940 263.744 L 213.000 275.987 213.000 277.494 L 213.000 279.000 208.728 279.000 L 204.456 279.000 200.805 275.991 L 197.155 272.982 196.493 269.969 L 195.832 266.957 196.528 262.834 L 197.224 258.712 201.333 254.106 L 205.441 249.500 202.231 252.427 L 199.021 255.354 198.452 254.785 L 197.883 254.216 199.455 250.455 L 201.026 246.693 200.649 246.316 M211.768 247.000 L 210.962 247.000 211.593 249.750 L 212.225 252.500 215.220 264.000 L 218.216 275.500 218.901 276.756 L 219.586 278.011 223.793 273.968 L 228.000 269.926 228.022 271.213 L 228.044 272.500 230.046 276.913 L 232.048 281.326 234.063 279.163 L 236.078 277.000 237.039 277.000 L 238.000 277.000 238.000 278.277 L 238.000 279.555 236.443 281.777 L 234.887 284.000 235.943 284.000 L 237.000 284.000 237.000 282.933 L 237.000 281.865 238.994 282.498 L 240.987 283.131 240.436 281.694 L 239.885 280.258 241.318 279.708 L 242.751 279.158 245.053 275.829 L 247.355 272.500 244.678 274.924 L 242.000 277.349 242.004 275.424 L 242.007 273.500 244.119 270.000 L 246.230 266.500 243.596 268.942 L 240.962 271.384 240.335 275.307 L 239.708 279.229 238.735 277.491 L 237.762 275.752 239.059 271.626 L 240.355 267.500 241.815 264.500 L 243.274 261.500 241.252 263.301 L 239.230 265.102 238.521 268.301 L 237.813 271.500 237.046 269.000 L 236.279 266.500 235.133 261.712 L 233.988 256.925 235.648 253.712 L 237.309 250.500 235.831 251.726 L 234.352 252.952 233.426 252.027 L 232.500 251.101 232.594 254.300 L 232.688 257.500 233.301 259.000 L 233.915 260.500 234.857 265.946 L 235.798 271.391 234.149 273.664 L 232.500 275.937 231.795 275.969 L 231.091 276.000 230.422 272.437 L 229.754 268.873 230.278 265.187 L 230.803 261.500 231.571 259.586 L 232.340 257.672 231.280 258.327 L 230.219 258.982 229.583 255.593 L 228.947 252.203 226.901 249.601 L 224.855 247.000 222.677 247.004 L 220.500 247.007 223.699 248.958 L 226.898 250.909 227.940 254.778 L 228.982 258.648 227.439 264.574 L 225.895 270.500 223.254 273.257 L 220.613 276.013 219.904 275.257 L 219.194 274.500 216.017 262.500 L 212.839 250.500 212.707 248.750 L 212.574 247.000 211.768 247.000 M183.760 252.427 L 183.358 252.025 181.743 255.412 L 180.128 258.799 179.466 262.649 L 178.803 266.500 177.402 271.432 L 176.000 276.363 176.000 276.682 L 176.000 277.000 180.250 276.989 L 184.500 276.978 188.250 276.358 L 192.000 275.738 191.921 274.119 L 191.842 272.500 191.338 273.750 L 190.833 275.000 184.917 275.000 L 179.000 275.000 179.000 273.750 L 179.000 272.500 180.494 264.697 L 181.987 256.893 183.074 254.861 L 184.162 252.829 183.760 252.427 M278.358 257.000 L 278.118 257.000 277.689 257.750 L 277.260 258.500 275.587 272.000 L 273.913 285.500 273.045 288.246 L 272.177 290.991 273.155 291.596 L 274.133 292.200 274.402 291.850 L 274.671 291.500 275.903 279.000 L 277.134 266.500 278.603 265.000 L 280.072 263.500 281.112 265.000 L 282.152 266.500 281.719 265.000 L 281.285 263.500 279.544 263.655 L 277.803 263.811 278.201 260.405 L 278.598 257.000 278.358 257.000 M316.809 279.079 L 316.500 279.158 315.250 279.662 L 314.000 280.167 314.000 289.583 L 314.000 299.000 316.750 298.968 L 319.500 298.936 317.847 297.679 L 316.194 296.421 315.883 288.961 L 315.572 281.500 316.345 280.250 L 317.118 279.000 316.809 279.079 M295.618 281.015 L 294.737 281.000 295.295 285.166 L 295.854 289.332 298.698 293.378 L 301.542 297.424 305.771 298.649 L 310.000 299.873 310.000 292.437 L 310.000 285.000 309.250 284.998 L 308.500 284.996 308.835 291.498 L 309.171 298.000 307.632 298.000 L 306.094 298.000 303.522 296.828 L 300.951 295.657 299.097 292.578 L 297.243 289.500 296.579 285.765 L 295.915 282.030 297.708 282.609 L 299.500 283.189 298.000 282.110 L 296.500 281.031 295.618 281.015 M214.515 288.644 L 216.000 289.214 215.900 290.857 L 215.801 292.500 215.125 294.917 L 214.449 297.334 212.695 294.657 L 210.941 291.980 211.986 290.027 L 213.031 288.074 214.515 288.644 M222.941 311.000 L 223.882 311.000 224.387 311.818 L 224.893 312.636 222.386 315.340 L 219.879 318.043 218.939 317.463 L 218.000 316.882 218.000 314.941 L 218.000 313.000 220.000 313.000 L 222.000 313.000 222.000 312.000 L 222.000 311.000 222.941 311.000 M363.000 321.523 L 359.500 320.860 362.750 323.502 L 366.000 326.145 366.000 328.072 L 366.000 330.000 367.000 330.000 L 368.000 330.000 368.000 331.500 L 368.000 333.000 372.500 333.000 L 377.000 333.000 377.000 332.077 L 377.000 331.153 374.411 328.077 L 371.822 325.000 370.271 325.000 L 368.720 325.000 367.610 323.594 L 366.500 322.187 363.000 321.523 M252.474 327.331 L 250.736 325.593 251.463 327.882 L 252.189 330.172 250.345 329.221 L 248.500 328.270 247.111 328.765 L 245.722 329.259 246.292 328.337 L 246.861 327.415 244.909 327.268 L 242.957 327.121 243.537 328.061 L 244.118 329.000 242.309 329.118 L 240.500 329.237 239.676 329.094 L 238.851 328.950 239.444 329.909 L 240.036 330.867 237.162 330.786 L 234.288 330.704 232.974 331.516 L 231.660 332.328 232.333 330.414 L 233.005 328.500 231.743 330.112 L 230.481 331.724 227.241 331.249 L 224.000 330.773 224.000 331.887 L 224.000 333.000 247.750 332.985 L 271.500 332.969 270.000 332.000 L 268.500 331.031 263.785 331.015 L 259.070 331.000 257.965 328.935 L 256.861 326.871 255.536 327.970 L 254.212 329.069 252.474 327.331 " stroke="#000000" fill="none"/><path d="M17.545 -0.000 L 0.000 0.000 0.000 161.500 L 0.000 323.000 0.750 323.000 L 1.500 323.000 1.434 316.750 L 1.368 310.500 2.114 308.946 L 2.860 307.392 1.996 305.994 L 1.132 304.595 1.788 303.548 L 2.444 302.500 2.794 301.000 L 3.144 299.500 3.010 297.500 L 2.876 295.500 2.849 294.500 L 2.822 293.500 3.456 284.582 L 4.090 275.664 4.794 274.582 L 5.498 273.500 5.564 269.500 L 5.630 265.500 6.286 260.000 L 6.942 254.500 8.071 244.000 L 9.201 233.500 9.560 230.500 L 9.920 227.500 12.949 201.000 L 15.978 174.500 16.532 171.000 L 17.086 167.500 18.988 149.500 L 20.890 131.500 22.455 117.000 L 24.019 102.500 24.484 98.500 L 24.948 94.500 26.494 79.500 L 28.041 64.500 31.018 35.500 L 33.995 6.500 34.543 3.250 L 35.091 -0.000 17.545 -0.000 M498.210 0.000 L 496.420 0.000 496.604 3.250 L 496.788 6.500 496.894 8.250 L 497.000 10.000 498.500 10.000 L 500.000 10.000 500.000 5.000 L 500.000 0.000 498.210 0.000 M246.250 74.039 L 244.500 74.078 241.000 75.700 L 237.500 77.323 236.848 77.411 L 236.196 77.500 232.499 80.864 L 228.803 84.228 227.401 87.582 L 226.000 90.936 226.000 94.903 L 226.000 98.870 227.052 101.685 L 228.103 104.500 232.231 111.751 L 236.358 119.003 240.704 118.838 L 245.050 118.674 248.043 121.542 L 251.037 124.409 253.923 122.705 L 256.809 121.000 259.654 120.996 L 262.500 120.993 259.000 118.843 L 255.500 116.693 256.771 116.256 L 258.043 115.819 261.140 116.899 L 264.237 117.979 266.496 117.412 L 268.754 116.845 275.627 121.540 L 282.500 126.235 283.218 128.118 L 283.936 130.000 285.354 130.000 L 286.773 130.000 291.636 134.750 L 296.500 139.500 299.059 142.500 L 301.618 145.500 303.809 147.240 L 306.000 148.980 306.000 152.791 L 306.000 156.601 304.750 159.249 L 303.501 161.897 301.855 162.328 L 300.209 162.758 298.511 166.629 L 296.813 170.500 294.968 174.229 L 293.123 177.958 294.213 178.632 L 295.303 179.305 293.901 180.403 L 292.500 181.500 292.299 186.000 L 292.098 190.500 291.183 194.750 L 290.269 199.000 290.570 199.000 L 290.872 199.000 296.813 191.750 L 302.754 184.500 310.877 177.585 L 319.000 170.670 319.000 169.385 L 319.000 168.099 320.250 167.300 L 321.500 166.500 321.847 164.500 L 322.195 162.500 322.468 159.500 L 322.740 156.500 321.835 154.750 L 320.930 153.000 321.725 153.000 L 322.521 153.000 322.653 149.786 L 322.784 146.572 323.756 146.248 L 324.729 145.924 324.372 142.712 L 324.015 139.500 322.181 137.980 L 320.347 136.460 320.757 135.230 L 321.167 134.000 320.655 134.000 L 320.143 134.000 318.571 135.571 L 317.000 137.143 317.000 135.724 L 317.000 134.306 319.250 133.220 L 321.500 132.135 318.950 132.068 L 316.400 132.000 315.272 130.872 L 314.143 129.743 315.220 128.019 L 316.298 126.294 314.937 123.219 L 313.576 120.144 312.932 120.542 L 312.289 120.939 312.761 118.470 L 313.233 116.000 312.117 116.000 L 311.000 116.000 311.000 114.200 L 311.000 112.400 310.112 111.450 L 309.225 110.500 308.505 108.125 L 307.786 105.750 309.143 106.535 L 310.500 107.321 310.000 106.744 L 309.500 106.167 308.500 105.985 L 307.500 105.803 305.811 104.899 L 304.121 103.995 303.502 104.997 L 302.882 106.000 300.691 105.884 L 298.500 105.768 300.250 105.311 L 302.000 104.853 302.000 103.415 L 302.000 101.976 297.981 102.619 L 293.962 103.262 294.549 101.732 L 295.136 100.202 294.149 99.592 L 293.161 98.982 291.688 100.455 L 290.215 101.928 289.760 100.188 L 289.305 98.449 287.172 98.288 L 285.039 98.127 284.461 99.064 L 283.882 100.000 282.882 100.000 L 281.882 100.000 282.500 99.000 L 283.118 98.000 280.626 98.000 L 278.134 98.000 274.372 93.250 L 270.611 88.500 264.783 82.711 L 258.956 76.922 257.728 77.080 L 256.500 77.237 255.191 77.118 L 253.882 77.000 254.595 75.845 L 255.309 74.691 254.043 75.474 L 252.776 76.256 251.964 74.942 L 251.152 73.629 249.576 74.937 L 248.000 76.245 248.000 75.122 L 248.000 74.000 246.250 74.039 M233.795 126.000 L 232.310 126.000 230.655 127.829 L 229.000 129.657 229.000 131.329 L 229.000 133.000 230.441 133.000 L 231.882 133.000 232.550 131.919 L 233.218 130.838 235.609 131.438 L 238.000 132.038 237.968 130.769 L 237.936 129.500 236.608 127.750 L 235.280 126.000 233.795 126.000 M227.750 136.464 L 226.000 135.786 226.000 136.893 L 226.000 138.000 228.894 138.000 L 231.788 138.000 235.000 141.000 L 238.212 144.000 238.983 144.000 L 239.755 144.000 240.861 142.668 L 241.966 141.336 240.733 139.788 L 239.500 138.240 234.500 137.691 L 229.500 137.142 227.750 136.464 M223.590 142.185 L 219.836 141.869 220.143 144.797 L 220.450 147.724 217.225 151.397 L 214.000 155.070 214.000 157.988 L 214.000 160.906 215.176 163.488 L 216.353 166.069 221.926 169.464 L 227.500 172.858 231.616 176.393 L 235.733 179.927 236.548 185.214 L 237.364 190.500 237.227 194.318 L 237.089 198.137 238.295 197.735 L 239.500 197.333 239.500 196.250 L 239.500 195.167 240.250 194.417 L 241.000 193.667 241.125 195.333 L 241.250 197.000 241.457 197.750 L 241.663 198.500 242.440 201.250 L 243.217 204.000 244.202 204.000 L 245.186 204.000 244.643 200.250 L 244.099 196.500 243.436 192.387 L 242.773 188.275 246.231 185.637 L 249.689 183.000 252.273 183.000 L 254.857 183.000 256.421 184.564 L 257.985 186.128 258.862 185.585 L 259.740 185.043 260.991 182.021 L 262.243 179.000 263.180 179.000 L 264.118 179.000 263.500 180.000 L 262.882 181.000 263.340 181.000 L 263.798 181.000 265.883 177.000 L 267.968 173.000 267.234 172.985 L 266.500 172.969 267.528 172.235 L 268.555 171.500 270.345 167.437 L 272.135 163.374 272.430 160.690 L 272.724 158.005 271.394 156.253 L 270.064 154.500 270.032 152.963 L 270.000 151.426 268.000 151.275 L 266.000 151.124 266.000 152.062 L 266.000 153.000 267.500 153.000 L 269.000 153.000 269.000 154.040 L 269.000 155.080 266.980 159.040 L 264.959 163.000 263.840 163.000 L 262.720 163.000 261.499 161.329 L 260.277 159.658 258.457 159.391 L 256.637 159.124 254.819 160.097 L 253.000 161.070 252.999 159.785 L 252.999 158.500 250.557 158.359 L 248.116 158.219 244.964 156.859 L 241.813 155.500 239.452 150.872 L 237.090 146.244 237.795 145.448 L 238.500 144.653 234.882 146.826 L 231.264 149.000 229.191 149.000 L 227.118 149.000 226.463 150.060 L 225.808 151.120 224.478 149.310 L 223.148 147.500 225.636 146.186 L 228.124 144.871 227.735 143.686 L 227.345 142.500 223.590 142.185 M179.851 200.681 L 173.203 199.863 172.470 201.049 L 171.736 202.236 170.972 205.623 L 170.208 209.011 171.103 209.564 L 171.998 210.117 174.098 206.559 L 176.198 203.000 177.166 203.000 L 178.135 203.000 177.452 205.250 L 176.770 207.500 176.635 208.500 L 176.500 209.500 186.500 210.140 L 196.500 210.780 202.086 211.513 L 207.672 212.246 209.904 211.052 L 212.135 209.857 217.553 209.857 L 222.970 209.857 223.544 208.929 L 224.118 208.000 226.048 208.000 L 227.977 208.000 229.989 206.278 L 232.000 204.556 232.000 202.681 L 232.000 200.806 209.250 201.153 L 186.500 201.500 179.851 200.681 M297.322 203.351 L 289.144 202.715 288.494 206.178 L 287.845 209.641 289.994 213.764 L 292.143 217.887 295.821 220.057 L 299.499 222.227 303.999 222.363 L 308.500 222.500 308.250 223.750 L 308.000 225.000 308.917 225.000 L 309.833 225.000 310.341 223.750 L 310.848 222.500 311.762 223.797 L 312.677 225.095 314.088 223.355 L 315.500 221.616 314.000 222.500 L 312.500 223.384 313.741 221.850 L 314.983 220.316 314.241 219.498 L 313.500 218.679 314.548 219.274 L 315.595 219.868 317.048 218.949 L 318.500 218.031 316.807 218.015 L 315.115 218.000 315.519 215.750 L 315.924 213.500 314.594 215.261 L 313.263 217.022 312.018 215.522 L 310.773 214.022 311.430 210.523 L 312.086 207.024 313.793 206.152 L 315.500 205.280 318.798 205.466 L 322.097 205.653 322.607 204.826 L 323.118 204.000 314.309 203.994 L 305.500 203.988 297.322 203.351 M352.032 203.015 L 351.500 203.031 350.295 203.796 L 349.090 204.562 349.465 207.531 L 349.839 210.500 350.474 218.000 L 351.109 225.500 351.551 230.000 L 351.994 234.500 352.420 236.500 L 352.847 238.500 352.923 240.194 L 353.000 241.888 355.377 244.652 L 357.754 247.415 357.450 242.958 L 357.147 238.500 356.540 231.000 L 355.934 223.500 354.249 213.250 L 352.564 203.000 352.032 203.015 M165.579 282.000 L 164.159 282.000 163.579 285.000 L 163.000 288.000 162.422 290.994 L 161.844 293.988 160.583 294.744 L 159.322 295.500 158.234 298.691 L 157.145 301.881 158.722 301.276 L 160.299 300.671 159.697 303.086 L 159.096 305.500 158.431 309.680 L 157.767 313.860 161.633 314.833 L 165.500 315.807 173.500 316.457 L 181.500 317.108 187.000 317.566 L 192.500 318.024 190.250 317.044 L 188.000 316.064 188.000 314.616 L 188.000 313.167 189.250 312.659 L 190.500 312.152 189.000 311.069 L 187.500 309.985 190.000 308.023 L 192.500 306.061 193.784 307.769 L 195.069 309.476 193.343 310.738 L 191.618 312.000 193.434 312.000 L 195.250 312.000 194.624 315.130 L 193.998 318.260 198.515 317.751 L 203.032 317.242 203.641 318.228 L 204.250 319.214 205.102 317.857 L 205.954 316.500 205.435 314.831 L 204.916 313.161 206.958 312.513 L 209.000 311.865 209.000 310.433 L 209.000 309.000 206.383 309.000 L 203.767 309.000 204.278 310.954 L 204.789 312.908 202.308 314.534 L 199.826 316.160 199.594 315.830 L 199.361 315.500 198.180 311.384 L 197.000 307.268 197.000 306.634 L 197.000 306.000 199.000 306.000 L 201.000 306.000 201.000 307.000 L 201.000 308.000 202.441 308.000 L 203.882 308.000 204.535 306.943 L 205.188 305.886 204.557 303.370 L 203.925 300.855 199.402 298.853 L 194.878 296.852 195.968 295.538 L 197.059 294.224 194.946 288.862 L 192.833 283.500 192.434 283.101 L 192.036 282.703 187.600 282.260 L 183.163 281.817 182.832 284.080 L 182.500 286.343 181.264 286.750 L 180.029 287.157 178.967 284.829 L 177.905 282.500 173.293 282.199 L 168.681 281.898 167.856 283.199 L 167.031 284.500 167.015 283.250 L 167.000 282.000 165.579 282.000 M246.031 292.000 L 243.000 292.000 243.000 292.759 L 243.000 293.519 245.103 294.832 L 247.205 296.145 246.719 298.689 L 246.233 301.233 248.153 303.153 L 250.073 305.073 249.447 306.085 L 248.822 307.097 247.411 305.926 L 245.999 304.754 245.375 307.877 L 244.750 311.000 244.075 311.000 L 243.400 311.000 242.200 310.000 L 241.000 309.000 241.953 310.153 L 242.906 311.306 241.909 313.170 L 240.911 315.035 246.378 314.806 L 251.844 314.577 250.977 312.956 L 250.109 311.336 248.507 310.006 L 246.905 308.677 248.169 307.895 L 249.433 307.114 250.700 308.166 L 251.967 309.217 253.039 306.398 L 254.111 303.578 253.538 301.295 L 252.965 299.012 251.773 299.256 L 250.581 299.500 250.431 297.338 L 250.282 295.176 249.672 293.588 L 249.063 292.000 246.031 292.000 M190.019 301.000 L 191.038 301.000 190.364 303.750 L 189.689 306.500 187.293 308.750 L 184.897 311.000 184.448 311.000 L 184.000 311.000 184.000 309.680 L 184.000 308.361 186.500 306.187 L 189.000 304.013 189.000 302.507 L 189.000 301.000 190.019 301.000 M155.816 309.350 L 155.500 305.500 153.312 309.202 L 151.124 312.905 153.137 313.544 L 155.151 314.183 155.642 313.692 L 156.133 313.201 155.816 309.350 M269.111 307.305 L 268.061 305.500 268.030 307.250 L 268.000 309.000 268.813 309.000 L 269.627 309.000 270.949 312.371 L 272.272 315.742 274.136 315.254 L 276.000 314.767 276.000 313.776 L 276.000 312.786 274.667 313.298 L 273.333 313.809 273.229 312.655 L 273.124 311.500 272.853 309.301 L 272.582 307.102 271.372 308.106 L 270.161 309.111 269.111 307.305 M99.709 307.000 L 99.469 307.000 95.277 315.750 L 91.084 324.500 90.792 325.976 L 90.500 327.452 89.250 328.798 L 88.000 330.143 88.000 331.571 L 88.000 333.000 89.433 333.000 L 90.865 333.000 91.633 330.750 L 92.402 328.500 92.576 327.750 L 92.750 327.000 93.027 326.250 L 93.305 325.500 93.473 324.500 L 93.642 323.500 95.321 319.628 L 97.000 315.756 97.000 314.961 L 97.000 314.167 97.841 313.833 L 98.683 313.500 99.316 310.250 L 99.950 307.000 99.709 307.000 M288.741 316.000 L 287.882 316.000 288.500 317.000 L 289.118 318.000 287.559 318.000 L 286.000 318.000 286.000 319.500 L 286.000 321.000 285.360 321.000 L 284.720 321.000 283.320 319.250 L 281.920 317.500 282.210 319.397 L 282.500 321.293 288.500 325.094 L 294.500 328.895 298.210 330.948 L 301.920 333.000 309.460 333.000 L 317.000 333.000 316.985 330.750 L 316.969 328.500 315.984 330.000 L 314.999 331.500 315.158 326.242 L 315.318 320.984 314.680 320.347 L 314.043 319.710 313.085 322.105 L 312.127 324.500 312.063 322.750 L 312.000 321.000 311.250 321.015 L 310.500 321.031 309.329 321.775 L 308.159 322.520 307.451 325.341 L 306.743 328.162 305.320 328.707 L 303.898 329.253 301.625 327.117 L 299.352 324.982 298.790 325.544 L 298.228 326.105 296.247 323.587 L 294.266 321.068 293.657 321.676 L 293.048 322.285 291.524 321.020 L 290.000 319.755 290.015 318.628 L 290.031 317.500 291.000 319.000 L 291.969 320.500 291.985 319.450 L 292.000 318.400 290.800 317.200 L 289.600 316.000 288.741 316.000 " stroke="#000000" fill="none"/></svg>