<?xml version="1.0" standalone="no"?>
<svg xmlns:xlink="http://www.w3.org/1999/xlink" xmlns="http://www.w3.org/2000/svg" id="workspace"><path d="M56.000 0.017 L 0.000 -0.029 0.000 166.485 L 0.000 333.000 22.417 333.000 L 44.833 333.000 46.885 330.250 L 48.937 327.500 48.968 328.905 L 49.000 330.310 51.000 328.500 L 53.000 326.690 53.000 328.845 L 53.000 331.000 54.640 331.000 L 56.280 331.000 57.608 329.250 L 58.936 327.500 58.968 324.684 L 59.000 321.869 57.985 319.972 L 56.970 318.076 58.647 312.047 L 60.323 306.019 62.661 304.486 L 65.000 302.954 65.000 303.860 L 65.000 304.767 67.029 305.297 L 69.057 305.828 68.779 307.118 L 68.500 308.409 70.000 308.518 L 71.500 308.627 73.151 307.248 L 74.801 305.870 75.389 306.820 L 75.976 307.770 74.893 310.878 L 73.810 313.985 76.343 316.996 L 78.877 320.008 79.318 319.254 L 79.759 318.500 78.504 313.631 L 77.249 308.763 77.166 304.616 L 77.082 300.470 74.059 294.985 L 71.036 289.500 71.018 284.905 L 71.000 280.310 72.975 278.523 L 74.949 276.736 76.003 279.507 L 77.056 282.277 77.603 281.730 L 78.150 281.183 78.420 279.342 L 78.689 277.500 80.344 277.177 L 82.000 276.853 82.000 277.879 L 82.000 278.904 88.925 285.788 L 95.850 292.671 98.443 294.371 L 101.036 296.070 101.628 294.527 L 102.220 292.985 100.360 290.360 L 98.500 287.735 97.466 285.985 L 96.432 284.234 89.765 277.792 L 83.098 271.351 83.262 269.176 L 83.426 267.000 84.511 267.000 L 85.597 267.000 89.979 271.210 L 94.360 275.420 94.738 274.285 L 95.117 273.150 91.211 265.777 L 87.304 258.405 87.569 255.952 L 87.833 253.500 87.917 250.250 L 88.000 247.000 90.031 247.000 L 92.063 247.000 92.691 245.250 L 93.320 243.500 95.212 241.663 L 97.103 239.826 98.431 240.335 L 99.758 240.844 101.795 247.672 L 103.833 254.500 106.057 263.500 L 108.282 272.500 109.699 275.000 L 111.115 277.500 110.548 275.000 L 109.982 272.500 108.048 264.000 L 106.115 255.500 103.500 247.000 L 100.886 238.500 100.693 237.005 L 100.500 235.510 108.500 232.661 L 116.500 229.813 121.000 228.508 L 125.500 227.204 130.000 225.616 L 134.500 224.029 139.000 223.999 L 143.500 223.969 144.878 223.096 L 146.256 222.224 145.568 221.110 L 144.880 219.996 147.190 219.096 L 149.500 218.195 150.932 216.151 L 152.364 214.107 153.178 214.610 L 153.991 215.113 155.156 212.556 L 156.321 210.000 157.135 210.000 L 157.949 210.000 159.591 213.250 L 161.234 216.500 163.288 218.746 L 165.341 220.992 164.921 221.288 L 164.500 221.583 157.278 223.840 L 150.057 226.097 145.214 229.356 L 140.372 232.614 136.186 236.928 L 132.000 241.241 132.000 241.672 L 132.000 242.103 137.250 242.106 L 142.500 242.109 146.164 242.304 L 149.829 242.500 150.581 243.250 L 151.333 244.000 152.115 244.000 L 152.896 244.000 151.832 240.949 L 150.769 237.898 151.405 237.261 L 152.042 236.625 156.309 240.812 L 160.576 245.000 161.975 245.000 L 163.374 245.000 160.510 242.010 L 157.646 239.021 158.433 238.260 L 159.219 237.500 166.477 245.268 L 173.735 253.036 178.868 251.935 L 184.000 250.834 184.000 249.984 L 184.000 249.134 179.589 245.519 L 175.177 241.904 174.556 240.285 L 173.934 238.666 174.830 237.770 L 175.725 236.875 176.337 239.937 L 176.950 243.000 178.146 243.000 L 179.343 243.000 181.195 244.676 L 183.047 246.353 184.224 245.176 L 185.400 244.000 186.200 244.000 L 187.000 244.000 187.000 246.616 L 187.000 249.231 191.000 252.887 L 195.000 256.544 195.000 258.026 L 195.000 259.509 192.553 266.254 L 190.106 273.000 190.495 273.000 L 190.883 273.000 195.220 267.250 L 199.557 261.500 201.513 257.737 L 203.469 253.974 205.775 251.487 L 208.081 249.000 211.080 249.000 L 214.080 249.000 217.946 247.028 L 221.812 245.055 224.395 241.778 L 226.978 238.500 226.989 239.785 L 227.000 241.070 229.250 239.871 L 231.500 238.673 230.018 240.468 L 228.536 242.264 225.066 245.882 L 221.595 249.500 208.123 260.500 L 194.651 271.500 190.645 276.270 L 186.639 281.039 187.735 282.135 L 188.831 283.231 191.138 281.616 L 193.445 280.000 194.800 280.000 L 196.156 280.000 203.328 273.472 L 210.500 266.945 218.000 262.722 L 225.500 258.500 225.820 256.250 L 226.139 254.000 227.947 254.000 L 229.755 254.000 231.000 252.500 L 232.245 251.000 233.568 251.000 L 234.890 251.000 235.195 246.250 L 235.500 241.500 238.315 241.177 L 241.129 240.855 243.651 242.507 L 246.174 244.160 246.729 243.604 L 247.285 243.048 246.020 241.524 L 244.755 240.000 245.420 240.000 L 246.086 240.000 250.911 244.514 L 255.736 249.027 254.831 244.764 L 253.926 240.500 252.942 231.500 L 251.959 222.500 252.134 214.500 L 252.308 206.500 251.533 203.272 L 250.759 200.045 249.552 199.043 L 248.344 198.041 245.054 198.984 L 241.764 199.928 242.442 196.714 L 243.119 193.500 244.610 185.152 L 246.102 176.805 245.737 175.712 L 245.373 174.620 241.186 174.405 L 236.999 174.190 237.559 175.095 L 238.118 176.000 237.495 177.008 L 236.872 178.015 235.686 176.719 L 234.500 175.423 233.250 173.225 L 232.000 171.027 232.000 169.978 L 232.000 168.930 233.934 169.965 L 235.869 171.000 238.434 171.000 L 241.000 171.000 241.000 170.067 L 241.000 169.135 243.250 168.433 L 245.500 167.730 246.235 166.615 L 246.969 165.500 246.985 168.219 L 247.000 170.937 248.480 170.369 L 249.960 169.802 252.044 166.429 L 254.129 163.055 253.609 160.278 L 253.090 157.500 251.004 146.500 L 248.918 135.500 248.095 132.882 L 247.273 130.263 248.193 128.619 L 249.113 126.975 246.307 121.737 L 243.500 116.500 241.759 116.489 L 240.017 116.479 240.106 115.646 L 240.195 114.813 237.410 111.907 L 234.626 109.000 233.690 109.000 L 232.755 109.000 234.128 110.711 L 235.500 112.422 232.500 110.329 L 229.500 108.237 224.715 106.618 L 219.930 105.000 212.293 105.000 L 204.657 105.000 193.318 110.125 L 181.979 115.250 178.074 118.875 L 174.169 122.500 171.069 127.820 L 167.969 133.141 168.472 133.955 L 168.975 134.769 167.738 138.166 L 166.500 141.564 164.646 144.032 L 162.793 146.500 162.311 145.244 L 161.829 143.988 160.803 144.622 L 159.776 145.256 158.904 143.878 L 158.031 142.500 158.015 145.115 L 158.000 147.730 160.216 150.615 L 162.431 153.500 163.239 154.074 L 164.047 154.647 164.992 160.449 L 165.936 166.251 164.968 168.060 L 164.000 169.869 164.000 171.812 L 164.000 173.755 165.500 175.000 L 167.000 176.245 167.000 179.261 L 167.000 182.276 171.058 186.679 L 175.116 191.081 174.808 194.791 L 174.500 198.500 163.000 198.202 L 151.500 197.904 125.075 196.403 L 98.650 194.902 97.719 194.326 L 96.787 193.751 92.439 193.838 L 88.091 193.925 88.653 192.463 L 89.214 191.000 88.572 191.000 L 87.930 191.000 85.253 192.750 L 82.577 194.500 83.298 193.331 L 84.018 192.161 82.480 190.623 L 80.942 189.085 79.572 189.611 L 78.202 190.136 77.542 189.068 L 76.882 188.000 75.882 188.000 L 74.882 188.000 75.442 188.907 L 76.003 189.813 73.996 189.289 L 71.989 188.764 70.331 190.132 L 68.673 191.500 69.883 189.229 L 71.092 186.959 70.487 185.979 L 69.882 185.000 70.941 185.000 L 72.000 185.000 72.000 186.059 L 72.000 187.118 73.127 186.421 L 74.254 185.725 71.627 184.131 L 69.000 182.537 69.000 181.768 L 69.000 181.000 70.750 180.930 L 72.500 180.859 70.500 180.055 L 68.500 179.250 67.811 179.646 L 67.123 180.042 67.538 182.198 L 67.953 184.353 66.777 183.177 L 65.600 182.000 64.831 182.000 L 64.063 182.000 64.638 183.500 L 65.214 185.000 64.357 184.992 L 63.500 184.984 62.359 182.524 L 61.218 180.064 62.482 179.015 L 63.747 177.965 65.373 178.590 L 67.000 179.214 67.000 178.274 L 67.000 177.333 65.750 177.286 L 64.500 177.238 62.500 176.525 L 60.500 175.811 61.659 176.659 L 62.819 177.506 61.072 179.663 L 59.326 181.819 58.413 181.160 L 57.500 180.500 56.250 178.264 L 55.000 176.027 55.000 175.455 L 55.000 174.882 55.931 175.457 L 56.862 176.033 57.463 175.060 L 58.064 174.087 59.782 174.638 L 61.500 175.189 60.185 174.245 L 58.871 173.302 56.435 173.768 L 54.000 174.233 54.000 173.148 L 54.000 172.063 55.500 172.638 L 57.000 173.214 57.000 172.048 L 57.000 170.882 57.931 171.457 L 58.862 172.033 59.505 170.992 L 60.149 169.950 58.824 170.225 L 57.500 170.500 57.758 168.140 L 58.015 165.780 56.508 166.359 L 55.000 166.937 55.000 166.052 L 55.000 165.167 56.250 164.662 L 57.500 164.158 55.750 164.079 L 54.000 164.000 54.000 164.994 L 54.000 165.987 52.026 165.686 L 50.052 165.385 49.276 164.532 L 48.500 163.679 49.750 164.399 L 51.000 165.118 51.000 163.500 L 51.000 161.882 52.000 162.500 L 53.000 163.118 53.000 162.059 L 53.000 161.000 51.941 161.000 L 50.882 161.000 51.537 159.940 L 52.192 158.880 53.670 160.690 L 55.148 162.500 54.568 161.335 L 53.988 160.171 55.244 159.664 L 56.500 159.158 55.281 159.079 L 54.063 159.000 54.679 157.250 L 55.294 155.500 53.947 156.750 L 52.600 158.000 51.050 157.985 L 49.500 157.969 51.000 157.000 L 52.500 156.031 51.628 156.015 L 50.755 156.000 51.926 154.589 L 53.097 153.178 52.049 152.530 L 51.000 151.882 51.000 153.000 L 51.000 154.118 50.000 153.500 L 49.000 152.882 49.000 153.774 L 49.000 154.667 47.544 154.667 L 46.088 154.667 46.672 153.722 L 47.256 152.776 45.878 151.810 L 44.500 150.843 47.185 151.271 L 49.871 151.698 51.185 150.864 L 52.500 150.031 51.250 150.015 L 50.000 150.000 50.000 149.000 L 50.000 148.000 52.750 147.960 L 55.500 147.920 52.621 146.360 L 49.741 144.801 48.886 146.150 L 48.031 147.500 48.015 146.300 L 48.000 145.099 49.750 144.080 L 51.500 143.061 50.463 143.030 L 49.425 143.000 49.197 140.000 L 48.968 137.000 49.925 137.000 L 50.882 137.000 51.447 137.915 L 52.012 138.829 50.981 139.340 L 49.950 139.850 51.140 139.620 L 52.330 139.390 52.445 136.772 L 52.559 134.154 51.982 134.511 L 51.405 134.868 50.128 134.079 L 48.852 133.291 50.498 131.645 L 52.143 130.000 50.982 130.000 L 49.821 130.000 47.976 132.250 L 46.131 134.500 46.489 132.500 L 46.847 130.500 47.042 130.000 L 47.237 129.500 47.168 128.898 L 47.099 128.296 49.799 128.753 L 52.500 129.210 50.000 127.363 L 47.500 125.516 46.581 125.814 L 45.661 126.113 46.843 124.689 L 48.025 123.265 51.262 123.570 L 54.500 123.874 52.318 122.815 L 50.136 121.755 51.318 119.847 L 52.500 117.939 51.166 117.109 L 49.832 116.278 51.506 115.636 L 53.180 114.994 54.263 115.663 L 55.346 116.332 53.673 113.943 L 52.000 111.555 52.000 110.277 L 52.000 109.000 53.833 109.000 L 55.666 109.000 55.520 107.020 L 55.374 105.041 54.687 104.354 L 54.000 103.667 54.000 102.333 L 54.000 101.000 55.469 101.000 L 56.937 101.000 56.362 102.500 L 55.786 104.000 56.786 104.000 L 57.786 104.000 58.362 102.500 L 58.937 101.000 57.969 101.000 L 57.000 101.000 57.000 99.000 L 57.000 97.000 55.441 97.000 L 53.882 97.000 54.469 97.950 L 55.056 98.900 53.028 99.985 L 51.000 101.070 51.000 100.035 L 51.000 99.000 52.122 99.000 L 53.245 99.000 52.110 97.633 L 50.975 96.265 52.390 95.091 L 53.806 93.917 54.178 95.034 L 54.550 96.151 57.335 95.452 L 60.119 94.753 59.577 93.339 L 59.034 91.924 60.454 91.379 L 61.874 90.834 61.601 89.667 L 61.328 88.500 61.747 89.250 L 62.167 90.000 63.200 90.000 L 64.233 90.000 63.710 88.000 L 63.187 86.000 65.153 86.000 L 67.118 86.000 66.543 86.931 L 65.967 87.862 66.902 88.440 L 67.837 89.017 68.485 86.067 L 69.133 83.117 68.075 81.139 L 67.016 79.161 68.062 78.813 L 69.109 78.464 69.333 76.982 L 69.556 75.500 70.378 74.000 L 71.201 72.500 68.086 75.902 L 64.971 79.304 64.244 78.577 L 63.517 77.850 65.265 76.872 L 67.013 75.893 65.983 73.969 L 64.954 72.045 66.641 72.692 L 68.328 73.340 67.605 72.170 L 66.882 71.000 68.000 71.000 L 69.118 71.000 68.610 70.178 L 68.102 69.357 69.967 67.761 L 71.831 66.164 72.206 66.539 L 72.581 66.914 72.795 63.707 L 73.010 60.500 72.255 61.500 L 71.500 62.500 69.500 62.775 L 67.500 63.050 69.271 61.963 L 71.042 60.877 70.447 59.914 L 69.851 58.950 71.176 59.225 L 72.500 59.500 72.225 58.000 L 71.950 56.500 73.935 59.000 L 75.920 61.500 75.361 59.318 L 74.802 57.136 77.057 57.725 L 79.313 58.315 78.587 57.141 L 77.862 55.967 77.078 56.452 L 76.295 56.936 74.397 55.394 L 72.500 53.852 73.681 54.442 L 74.862 55.033 75.490 54.016 L 76.118 53.000 74.976 53.000 L 73.833 53.000 74.258 51.750 L 74.683 50.500 77.574 50.500 L 80.464 50.500 80.780 48.884 L 81.095 47.269 77.981 46.646 L 74.867 46.023 75.559 44.905 L 76.250 43.786 77.024 45.039 L 77.798 46.291 79.221 45.745 L 80.644 45.200 81.830 47.100 L 83.017 49.000 84.115 49.000 L 85.214 49.000 84.618 47.448 L 84.023 45.896 85.011 46.507 L 86.000 47.118 86.000 46.059 L 86.000 45.000 84.662 45.000 L 83.324 45.000 83.192 41.500 L 83.061 38.000 83.947 38.000 L 84.833 38.000 85.417 39.250 L 86.000 40.500 86.585 39.244 L 87.171 37.988 88.085 38.553 L 89.000 39.118 89.000 38.142 L 89.000 37.167 87.750 36.646 L 86.500 36.126 88.350 34.629 L 90.200 33.133 89.541 32.067 L 88.882 31.000 87.500 31.000 L 86.118 31.000 85.405 29.845 L 84.691 28.691 85.851 29.408 L 87.012 30.125 90.506 28.862 L 94.000 27.598 94.000 26.177 L 94.000 24.755 92.703 25.628 L 91.406 26.500 93.453 24.584 L 95.500 22.668 93.750 23.303 L 92.000 23.937 92.000 22.500 L 92.000 21.063 93.340 21.577 L 94.680 22.091 95.926 20.589 L 97.172 19.088 96.527 18.044 L 95.882 17.000 96.941 17.000 L 98.000 17.000 98.000 18.441 L 98.000 19.882 98.800 20.376 L 99.600 20.871 100.961 18.685 L 102.321 16.500 100.899 17.675 L 99.477 18.849 98.332 16.423 L 97.187 13.998 98.094 14.558 L 99.000 15.118 99.015 13.809 L 99.031 12.500 99.765 13.614 L 100.500 14.727 102.324 14.074 L 104.148 13.422 104.074 12.711 L 104.000 12.000 104.000 10.883 L 104.000 9.767 106.061 10.306 L 108.122 10.845 108.930 8.672 L 109.737 6.500 109.264 5.256 L 108.790 4.011 107.645 4.652 L 106.500 5.293 107.746 3.950 L 108.993 2.607 110.464 4.554 L 111.936 6.500 111.968 5.684 L 112.000 4.869 110.836 2.684 L 109.673 0.500 111.086 1.657 L 112.500 2.815 115.500 1.512 L 118.500 0.209 116.000 0.307 L 113.500 0.404 112.765 1.452 L 112.031 2.500 112.015 1.281 L 112.000 0.063 56.000 0.017 M444.590 1.500 L 444.146 -0.500 444.674 12.000 L 445.201 24.500 445.870 25.220 L 446.539 25.939 445.787 14.720 L 445.034 3.500 444.590 1.500 M481.362 0.000 L 462.725 0.000 463.316 5.250 L 463.908 10.500 466.476 46.500 L 469.044 82.500 469.578 85.805 L 470.111 89.110 476.713 85.418 L 483.315 81.726 486.847 79.329 L 490.380 76.932 491.639 77.415 L 492.898 77.898 493.487 76.041 L 494.076 74.185 495.788 73.528 L 497.500 72.871 497.888 73.021 L 498.276 73.171 499.123 71.835 L 499.969 70.500 499.985 35.250 L 500.000 0.000 481.362 0.000 M216.599 126.000 L 217.080 126.000 221.000 128.000 L 224.920 130.000 228.335 130.000 L 231.750 130.000 234.875 130.625 L 238.000 131.250 238.000 132.196 L 238.000 133.143 236.595 134.548 L 235.189 135.954 232.194 136.182 L 229.199 136.410 225.158 133.610 L 221.117 130.809 220.095 131.441 L 219.073 132.073 217.000 130.000 L 214.927 127.927 215.523 126.964 L 216.118 126.000 216.599 126.000 M228.941 137.000 L 229.882 137.000 230.452 137.923 L 231.023 138.846 234.136 139.530 L 237.249 140.214 240.181 143.554 L 243.114 146.894 244.550 146.343 L 245.986 145.791 245.470 143.146 L 244.954 140.500 246.023 142.962 L 247.092 145.424 246.796 149.660 L 246.500 153.897 241.670 151.442 L 236.840 148.987 232.170 148.402 L 227.500 147.817 225.447 147.568 L 223.393 147.318 219.237 145.484 L 215.080 143.650 214.516 142.182 L 213.953 140.714 214.311 140.356 L 214.669 139.998 220.442 139.865 L 226.216 139.732 227.108 141.116 L 228.000 142.500 228.968 141.000 L 229.936 139.500 228.968 139.167 L 228.000 138.833 228.000 137.917 L 228.000 137.000 228.941 137.000 M475.351 150.000 L 473.931 150.000 474.457 154.750 L 474.984 159.500 476.504 181.000 L 478.025 202.500 478.681 206.000 L 479.337 209.500 479.227 210.074 L 479.118 210.647 480.097 220.574 L 481.077 230.500 481.527 236.000 L 481.978 241.500 482.437 243.500 L 482.897 245.500 483.095 253.266 L 483.293 261.032 484.896 262.766 L 486.500 264.500 493.250 264.204 L 500.000 263.909 499.964 221.704 L 499.929 179.500 498.483 173.500 L 497.037 167.500 498.519 166.390 L 500.000 165.280 499.930 162.390 L 499.859 159.500 499.000 161.500 L 498.141 163.500 498.040 160.000 L 497.939 156.500 496.920 158.250 L 495.901 160.000 494.450 160.000 L 493.000 160.000 492.937 163.250 L 492.873 166.500 492.055 164.482 L 491.236 162.464 488.844 161.184 L 486.452 159.904 484.636 157.202 L 482.820 154.500 482.768 153.500 L 482.716 152.500 479.743 151.250 L 476.770 150.000 475.351 150.000 M226.040 158.000 L 226.865 158.000 227.406 159.750 L 227.946 161.500 228.406 165.317 L 228.866 169.133 229.788 170.317 L 230.711 171.500 231.274 173.796 L 231.837 176.092 228.668 175.727 L 225.500 175.361 225.778 172.931 L 226.055 170.500 225.125 165.579 L 224.194 160.657 224.704 159.329 L 225.214 158.000 226.040 158.000 M234.205 183.235 L 235.409 183.636 236.727 186.865 L 238.044 190.094 236.001 189.001 L 233.959 187.908 233.144 188.411 L 232.329 188.915 229.414 188.043 L 226.500 187.172 229.750 187.086 L 233.000 187.000 233.000 184.917 L 233.000 182.833 234.205 183.235 M170.045 222.000 L 171.091 222.000 173.545 224.455 L 176.000 226.909 175.985 231.705 L 175.969 236.500 175.051 235.048 L 174.132 233.595 174.555 232.911 L 174.978 232.227 173.510 231.008 L 172.042 229.790 173.114 227.788 L 174.185 225.785 173.033 224.643 L 171.882 223.500 172.611 225.414 L 173.340 227.328 172.170 226.605 L 171.000 225.882 171.000 227.972 L 171.000 230.063 169.433 230.664 L 167.866 231.266 166.840 230.240 L 165.815 229.215 167.122 226.857 L 168.429 224.500 168.590 223.750 L 168.750 223.000 168.875 222.500 L 169.000 222.000 170.045 222.000 M235.282 222.000 L 236.293 222.000 241.473 225.438 L 246.652 228.876 248.076 230.678 L 249.500 232.479 246.173 229.739 L 242.847 227.000 241.920 227.000 L 240.994 227.000 236.247 229.960 L 231.500 232.920 231.167 231.961 L 230.834 231.002 232.553 226.501 L 234.272 222.000 235.282 222.000 M467.577 246.000 L 464.221 222.500 464.130 225.000 L 464.040 227.500 465.001 234.000 L 465.961 240.500 467.941 256.500 L 469.920 272.500 470.580 278.472 L 471.239 284.443 469.620 283.099 L 468.000 281.755 468.000 282.678 L 468.000 283.600 469.250 284.947 L 470.500 286.293 469.250 285.588 L 468.000 284.882 467.923 286.191 L 467.846 287.500 466.533 283.500 L 465.221 279.500 465.616 284.000 L 466.011 288.500 466.453 295.000 L 466.895 301.500 468.947 316.385 L 471.000 331.269 471.000 332.135 L 471.000 333.000 475.579 333.000 L 480.159 333.000 479.573 330.250 L 478.986 327.500 477.512 317.000 L 476.037 306.500 476.018 304.750 L 476.000 303.000 488.055 303.000 L 500.110 303.000 499.805 298.407 L 499.500 293.813 487.006 293.657 L 474.513 293.500 472.723 281.500 L 470.934 269.500 467.577 246.000 M133.278 254.166 L 132.500 249.833 131.891 250.442 L 131.282 251.051 132.252 256.276 L 133.221 261.500 132.011 273.000 L 130.800 284.500 130.421 290.500 L 130.042 296.500 129.122 302.000 L 128.202 307.500 128.477 307.793 L 128.752 308.085 130.693 304.793 L 132.633 301.500 133.715 298.392 L 134.797 295.285 134.319 286.892 L 133.842 278.500 133.949 268.500 L 134.057 258.500 133.278 254.166 M119.532 257.199 L 117.738 255.500 118.392 258.000 L 119.047 260.500 119.981 265.165 L 120.916 269.831 119.912 276.068 L 118.907 282.305 117.819 284.338 L 116.731 286.372 116.090 293.936 L 115.449 301.500 113.600 289.643 L 111.751 277.786 110.992 279.013 L 110.233 280.240 111.652 286.320 L 113.070 292.399 112.734 293.949 L 112.399 295.500 111.089 291.652 L 109.780 287.803 105.179 278.152 L 100.577 268.500 100.202 270.316 L 99.828 272.133 105.881 284.086 L 111.933 296.039 112.866 299.769 L 113.799 303.500 114.562 306.500 L 115.324 309.500 116.066 306.500 L 116.808 303.500 116.813 311.500 L 116.819 319.500 115.410 325.812 L 114.000 332.124 114.000 332.562 L 114.000 333.000 121.786 333.000 L 129.571 333.000 129.739 331.250 L 129.907 329.500 130.583 324.229 L 131.258 318.958 132.109 318.433 L 132.959 317.907 131.730 315.704 L 130.500 313.500 130.196 313.029 L 129.891 312.558 128.961 314.029 L 128.031 315.500 128.015 314.250 L 128.000 313.000 127.117 313.000 L 126.233 313.000 125.600 315.250 L 124.967 317.500 123.556 315.658 L 122.145 313.816 121.447 309.658 L 120.750 305.500 119.817 303.034 L 118.885 300.568 117.958 302.034 L 117.031 303.500 117.040 301.500 L 117.049 299.500 117.966 295.500 L 118.884 291.500 119.422 288.500 L 119.961 285.500 121.101 277.712 L 122.241 269.923 121.784 264.411 L 121.327 258.898 119.532 257.199 M176.219 293.003 L 175.937 293.000 175.402 294.395 L 174.867 295.790 171.044 309.102 L 167.222 322.414 167.716 323.701 L 168.210 324.989 168.930 324.543 L 169.651 324.098 171.517 317.573 L 173.383 311.049 173.742 311.409 L 174.102 311.768 172.521 320.881 L 170.940 329.994 170.323 331.747 L 169.706 333.500 170.708 332.500 L 171.711 331.500 173.898 319.626 L 176.085 307.751 175.542 307.209 L 175.000 306.667 175.000 308.500 L 175.000 310.333 174.493 309.826 L 173.986 309.319 174.634 306.079 L 175.282 302.839 175.891 303.826 L 176.500 304.813 176.500 298.909 L 176.500 293.006 176.219 293.003 M239.095 304.044 L 237.500 304.088 233.655 305.459 L 229.810 306.830 227.386 309.107 L 224.962 311.385 221.879 316.188 L 218.796 320.992 217.898 320.437 L 217.000 319.882 217.000 321.500 L 217.000 323.118 216.000 322.500 L 215.000 321.882 215.000 322.889 L 215.000 323.897 212.750 326.305 L 210.500 328.713 207.250 330.382 L 204.000 332.051 204.000 332.526 L 204.000 333.000 208.338 333.000 L 212.676 333.000 218.694 325.250 L 224.711 317.500 228.973 313.250 L 233.235 309.000 236.118 309.000 L 239.000 309.000 239.000 310.878 L 239.000 312.755 240.512 314.010 L 242.023 315.264 244.027 319.795 L 246.031 324.325 245.450 326.413 L 244.869 328.500 245.919 327.000 L 246.969 325.500 246.985 326.950 L 247.000 328.400 248.018 327.382 L 249.037 326.363 246.644 317.149 L 244.250 307.934 242.470 305.967 L 240.690 304.000 239.095 304.044 M275.691 317.125 L 273.500 317.250 269.500 317.930 L 265.500 318.610 263.269 319.830 L 261.038 321.050 258.528 324.744 L 256.017 328.439 258.259 329.684 L 260.500 330.929 261.010 330.965 L 261.520 331.000 264.179 328.535 L 266.838 326.069 268.309 323.970 L 269.779 321.870 272.455 324.545 L 275.130 327.221 273.315 328.529 L 271.500 329.837 269.500 331.387 L 267.500 332.936 271.500 332.953 L 275.500 332.969 276.735 332.185 L 277.970 331.400 286.655 332.234 L 295.340 333.068 296.086 331.861 L 296.831 330.655 294.504 328.825 L 292.177 326.994 284.134 326.824 L 276.090 326.655 277.697 325.479 L 279.304 324.304 276.902 321.902 L 274.500 319.500 276.765 319.179 L 279.030 318.857 278.456 317.929 L 277.882 317.000 275.691 317.125 " stroke="#000000" fill="none"/><path d="M1.000 0.000 L 0.000 0.000 0.125 7.750 L 0.250 15.500 1.051 11.000 L 1.852 6.500 1.926 3.250 L 2.000 0.000 1.000 0.000 M488.022 2.514 L 487.227 2.022 486.707 4.011 L 486.187 6.000 487.000 6.000 L 487.813 6.000 487.290 8.000 L 486.767 10.000 488.383 10.000 L 490.000 10.000 490.000 11.469 L 490.000 12.937 488.500 12.362 L 487.000 11.786 487.001 12.643 L 487.002 13.500 491.480 13.620 L 495.957 13.740 495.420 12.870 L 494.882 12.000 492.941 12.000 L 491.000 12.000 491.000 10.500 L 491.000 9.000 491.826 9.000 L 492.651 9.000 495.012 11.513 L 497.374 14.026 498.352 13.048 L 499.331 12.069 499.681 8.285 L 500.031 4.500 499.031 6.000 L 498.031 7.500 498.015 6.450 L 498.000 5.400 499.067 4.333 L 500.134 3.266 494.476 3.136 L 488.818 3.005 488.022 2.514 M484.750 6.032 L 483.500 6.064 481.701 7.428 L 479.903 8.792 482.451 11.542 L 485.000 14.292 485.125 13.646 L 485.250 13.000 485.436 11.750 L 485.623 10.500 484.689 9.250 L 483.755 8.000 484.878 8.000 L 486.000 8.000 486.000 7.000 L 486.000 6.000 484.750 6.032 M477.058 18.536 L 476.227 18.022 474.863 19.698 L 473.500 21.374 475.218 20.731 L 476.936 20.087 477.556 21.090 L 478.175 22.092 481.026 21.643 L 483.877 21.194 485.189 20.405 L 486.500 19.616 485.318 21.079 L 484.136 22.541 487.068 24.224 L 490.000 25.907 490.000 24.394 L 490.000 22.882 488.750 23.588 L 487.500 24.293 488.605 23.091 L 489.711 21.889 492.355 22.553 L 495.000 23.217 495.000 24.180 L 495.000 25.143 496.571 23.571 L 498.143 22.000 499.071 22.000 L 500.000 22.000 500.000 20.555 L 500.000 19.110 488.945 19.080 L 477.889 19.049 477.058 18.536 M200.500 112.166 L 197.500 112.244 191.273 114.372 L 185.047 116.500 179.211 121.878 L 173.375 127.256 172.066 130.214 L 170.756 133.171 168.899 140.336 L 167.042 147.500 168.712 148.750 L 170.382 150.000 168.441 150.079 L 166.500 150.158 167.803 150.680 L 169.106 151.202 167.303 152.675 L 165.500 154.148 166.681 153.558 L 167.862 152.967 168.447 153.915 L 169.033 154.862 168.060 155.463 L 167.087 156.064 167.250 160.911 L 167.413 165.759 169.263 164.629 L 171.113 163.500 170.733 161.447 L 170.353 159.394 171.867 157.980 L 173.381 156.566 172.791 158.101 L 172.202 159.637 174.269 159.569 L 176.336 159.500 176.723 162.750 L 177.111 166.000 176.056 166.000 L 175.000 166.000 174.999 164.250 L 174.998 162.500 172.499 165.406 L 170.000 168.311 170.000 169.115 L 170.000 169.919 172.702 172.424 L 175.404 174.930 175.783 174.550 L 176.162 174.171 175.166 172.310 L 174.170 170.448 175.215 168.581 L 176.260 166.713 179.537 170.607 L 182.814 174.500 183.586 173.737 L 184.358 172.975 182.675 169.445 L 180.992 165.916 182.150 161.208 L 183.308 156.500 185.741 151.784 L 188.174 147.068 187.512 143.784 L 186.851 140.500 186.458 139.000 L 186.065 137.500 190.530 134.500 L 194.996 131.500 194.998 130.798 L 195.000 130.096 199.430 127.048 L 203.860 124.000 205.430 124.000 L 207.000 124.000 207.000 123.031 L 207.000 122.063 208.335 122.575 L 209.670 123.087 212.085 121.130 L 214.500 119.172 213.960 118.629 L 213.420 118.087 204.960 117.459 L 196.500 116.831 196.156 116.488 L 195.811 116.145 199.656 114.116 L 203.500 112.088 200.500 112.166 M206.750 155.136 L 206.500 155.272 204.465 155.678 L 202.429 156.083 201.054 158.291 L 199.679 160.500 201.339 159.128 L 203.000 157.755 203.000 158.878 L 203.000 160.000 205.000 160.000 L 207.000 160.000 207.000 157.500 L 207.000 155.000 206.750 155.136 M64.080 192.535 L 61.112 192.160 60.211 193.330 L 59.310 194.500 58.531 196.500 L 57.751 198.500 57.391 207.402 L 57.031 216.304 55.313 218.902 L 53.596 221.500 53.866 224.181 L 54.136 226.862 52.514 229.339 L 50.891 231.815 51.994 232.496 L 53.097 233.178 51.937 234.576 L 50.777 235.974 51.370 238.339 L 51.964 240.703 51.286 241.380 L 50.609 242.058 50.359 243.761 L 50.109 245.464 49.054 245.815 L 48.000 246.167 48.000 248.142 L 48.000 250.118 47.148 249.591 L 46.296 249.065 46.511 252.782 L 46.727 256.500 46.141 257.500 L 45.556 258.500 45.367 259.746 L 45.178 260.992 46.196 261.621 L 47.214 262.250 45.952 263.030 L 44.690 263.810 44.413 266.405 L 44.136 269.000 45.127 269.000 L 46.118 269.000 45.490 270.016 L 44.862 271.033 44.098 270.560 L 43.333 270.088 43.333 271.500 L 43.333 272.912 44.098 272.440 L 44.862 271.967 45.517 273.027 L 46.172 274.088 45.263 275.294 L 44.354 276.500 44.221 278.985 L 44.089 281.470 43.044 281.819 L 42.000 282.167 42.000 283.642 L 42.000 285.118 43.000 284.500 L 44.000 283.882 44.000 284.941 L 44.000 286.000 42.917 286.000 L 41.833 286.000 42.286 287.250 L 42.739 288.500 41.459 290.000 L 40.179 291.500 39.668 294.802 L 39.158 298.105 37.937 299.576 L 36.716 301.047 36.440 304.774 L 36.164 308.500 35.132 311.183 L 34.100 313.867 35.183 314.228 L 36.265 314.588 35.561 316.809 L 34.856 319.029 33.935 318.460 L 33.013 317.890 33.017 320.195 L 33.022 322.500 32.557 325.500 L 32.093 328.500 31.465 330.617 L 30.836 332.735 36.687 332.867 L 42.538 332.999 46.645 323.750 L 50.752 314.500 53.525 307.500 L 56.297 300.500 62.271 288.097 L 68.245 275.693 65.979 273.984 L 63.712 272.274 64.374 271.205 L 65.035 270.135 68.146 270.223 L 71.256 270.312 73.104 267.906 L 74.953 265.500 74.673 264.589 L 74.393 263.679 76.647 261.247 L 78.901 258.815 80.509 253.974 L 82.117 249.132 88.907 242.816 L 95.697 236.500 101.098 234.354 L 106.500 232.207 112.000 230.197 L 117.500 228.187 126.146 225.594 L 134.793 223.000 137.968 223.000 L 141.143 223.000 149.021 215.100 L 156.900 207.200 160.700 208.508 L 164.500 209.817 168.147 210.500 L 171.795 211.184 172.897 206.043 L 174.000 200.902 174.000 200.541 L 174.000 200.180 165.750 199.600 L 157.500 199.020 140.501 198.415 L 123.502 197.810 123.001 197.511 L 122.500 197.212 105.000 196.498 L 87.500 195.785 85.895 195.478 L 84.289 195.171 76.395 194.471 L 68.500 193.771 67.773 193.341 L 67.047 192.911 64.080 192.535 M123.764 201.573 L 146.500 202.001 149.250 202.580 L 152.000 203.159 152.000 204.544 L 152.000 205.930 150.125 206.933 L 148.250 207.937 141.124 208.374 L 133.998 208.812 134.646 207.656 L 135.293 206.500 134.046 207.651 L 132.798 208.802 129.649 207.854 L 126.500 206.905 117.022 205.893 L 107.545 204.881 106.911 203.855 L 106.276 202.829 105.638 202.915 L 105.000 203.000 102.441 203.000 L 99.882 203.000 100.455 202.073 L 101.028 201.145 123.764 201.573 M245.575 205.585 L 244.322 200.670 243.703 201.671 L 243.085 202.672 243.006 206.086 L 242.928 209.500 243.593 217.000 L 244.257 224.500 245.236 226.385 L 246.215 228.270 247.139 226.885 L 248.064 225.500 247.446 218.000 L 246.827 210.500 245.575 205.585 M496.156 208.751 L 494.284 208.262 492.642 209.180 L 491.000 210.099 491.000 211.121 L 491.000 212.143 489.491 213.652 L 487.982 215.161 488.543 216.069 L 489.104 216.977 487.552 216.382 L 486.000 215.786 486.000 216.811 L 486.000 217.836 485.457 219.252 L 484.914 220.667 486.624 220.667 L 488.333 220.667 490.167 218.833 L 492.000 217.000 492.000 216.000 L 492.000 215.000 493.000 215.000 L 494.000 215.000 494.000 213.867 L 494.000 212.735 496.014 210.988 L 498.028 209.241 496.156 208.751 M499.766 211.038 L 499.500 211.076 498.199 212.551 L 496.898 214.025 497.509 215.014 L 498.120 216.004 495.560 216.977 L 493.000 217.950 493.000 218.853 L 493.000 219.755 494.576 221.063 L 496.152 222.371 497.061 220.936 L 497.969 219.500 497.985 218.250 L 498.000 217.000 498.787 217.000 L 499.575 217.000 499.803 214.000 L 500.032 211.000 499.766 211.038 M498.690 220.356 L 498.000 219.667 498.000 221.178 L 498.000 222.690 496.000 224.500 L 494.000 226.310 494.000 227.155 L 494.000 228.000 496.975 228.000 L 499.950 228.000 499.665 224.523 L 499.379 221.046 498.690 220.356 M492.793 221.201 L 491.252 220.902 490.657 222.451 L 490.063 224.000 488.365 224.000 L 486.667 224.000 487.325 224.658 L 487.983 225.316 486.774 226.908 L 485.566 228.500 486.441 227.759 L 487.316 227.017 488.566 228.055 L 489.816 229.093 492.459 226.450 L 495.102 223.807 494.718 222.653 L 494.334 221.500 492.793 221.201 M226.760 224.000 L 226.284 224.000 222.482 230.160 L 218.680 236.320 216.840 238.410 L 215.000 240.500 213.500 242.250 L 212.000 244.000 213.615 244.000 L 215.230 244.000 218.436 240.500 L 221.642 237.000 223.262 237.000 L 224.882 237.000 225.544 235.929 L 226.206 234.858 226.721 229.429 L 227.236 224.000 226.760 224.000 M492.861 233.562 L 491.221 233.245 490.037 233.977 L 488.852 234.709 490.426 236.283 L 492.000 237.857 492.000 239.429 L 492.000 241.000 489.559 241.000 L 487.118 241.000 486.459 239.933 L 485.800 238.867 486.454 238.212 L 487.109 237.558 487.929 238.886 L 488.750 240.214 489.496 239.006 L 490.243 237.798 487.930 235.649 L 485.617 233.500 486.834 235.133 L 488.051 236.766 486.526 237.352 L 485.000 237.937 485.000 238.897 L 485.000 239.857 486.298 241.179 L 487.595 242.500 487.583 244.750 L 487.571 247.000 486.786 247.000 L 486.000 247.000 486.000 248.500 L 486.000 250.000 487.000 250.000 L 488.000 250.000 488.000 249.000 L 488.000 248.000 489.917 248.000 L 491.833 248.000 492.377 246.750 L 492.921 245.500 492.385 248.119 L 491.849 250.738 494.174 251.161 L 496.500 251.584 498.021 250.021 L 499.542 248.458 499.842 244.304 L 500.142 240.150 497.821 240.720 L 495.500 241.290 497.750 239.278 L 500.000 237.265 500.000 236.152 L 500.000 235.038 497.250 234.459 L 494.500 233.880 492.861 233.562 M496.750 255.250 L 493.500 255.440 490.250 256.427 L 487.000 257.414 487.000 258.207 L 487.000 259.000 488.750 259.122 L 490.500 259.243 493.500 259.228 L 496.500 259.212 498.250 259.106 L 500.000 259.000 500.000 257.030 L 500.000 255.061 496.750 255.250 " stroke="#000000" fill="none"/><path d="M3.016 0.000 L 0.000 0.000 0.000 28.167 L 0.000 56.333 0.458 55.875 L 0.916 55.417 1.518 43.959 L 2.120 32.500 2.588 29.000 L 3.055 25.500 3.442 19.793 L 3.829 14.085 4.229 13.293 L 4.630 12.500 4.565 9.250 L 4.500 6.000 5.037 6.000 L 5.575 6.000 5.803 3.000 L 6.032 0.000 3.016 0.000 M484.250 0.226 L 468.500 0.500 466.136 0.835 L 463.771 1.169 464.413 7.779 L 465.055 14.389 465.388 14.722 L 465.722 15.055 482.861 15.374 L 500.000 15.692 500.000 7.822 L 500.000 -0.049 484.250 0.226 M478.347 17.127 L 466.193 16.878 465.700 17.689 L 465.206 18.500 467.545 48.500 L 469.884 78.500 470.192 81.681 L 470.500 84.862 480.476 78.874 L 490.453 72.886 490.982 72.193 L 491.512 71.500 495.506 69.354 L 499.500 67.208 499.767 42.706 L 500.034 18.204 495.267 17.790 L 490.500 17.375 478.347 17.127 M213.250 106.379 L 206.000 106.423 206.000 107.212 L 206.000 108.000 203.200 108.000 L 200.400 108.000 199.346 109.054 L 198.291 110.109 195.157 110.505 L 192.023 110.902 187.262 113.653 L 182.500 116.404 178.707 119.404 L 174.913 122.405 173.102 125.452 L 171.291 128.500 169.538 135.000 L 167.785 141.500 166.642 142.904 L 165.500 144.307 165.940 144.404 L 166.379 144.500 165.316 146.400 L 164.253 148.299 162.126 147.743 L 160.000 147.187 160.000 148.021 L 160.000 148.855 162.739 151.009 L 165.478 153.164 165.614 159.914 L 165.749 166.663 166.875 168.766 L 168.000 170.869 168.000 176.747 L 168.000 182.626 171.086 185.563 L 174.172 188.500 175.129 190.264 L 176.085 192.028 175.431 195.514 L 174.777 199.000 166.139 198.979 L 157.500 198.957 131.500 197.528 L 105.500 196.099 94.500 195.449 L 83.500 194.799 74.500 193.404 L 65.500 192.008 62.725 192.004 L 59.950 192.000 58.801 194.750 L 57.652 197.500 56.978 207.341 L 56.304 217.182 53.765 219.341 L 51.225 221.500 50.697 223.500 L 50.169 225.500 48.290 230.500 L 46.411 235.500 46.145 240.000 L 45.878 244.500 43.854 258.000 L 41.830 271.500 36.539 298.500 L 31.247 325.500 30.687 329.250 L 30.126 333.000 36.813 332.972 L 43.500 332.944 46.838 325.222 L 50.176 317.500 52.580 311.000 L 54.983 304.500 62.674 289.000 L 70.364 273.500 74.925 265.789 L 79.486 258.077 81.493 260.444 L 83.500 262.812 85.727 263.929 L 87.955 265.046 87.371 263.523 L 86.786 262.000 85.975 262.000 L 85.163 262.000 83.044 258.572 L 80.926 255.144 81.554 252.641 L 82.182 250.138 88.341 243.974 L 94.500 237.811 98.500 235.846 L 102.500 233.880 117.500 228.908 L 132.500 223.935 136.872 223.572 L 141.244 223.210 149.092 215.408 L 156.940 207.607 157.347 208.053 L 157.754 208.500 159.780 212.500 L 161.805 216.500 164.153 218.619 L 166.500 220.738 169.500 221.447 L 172.500 222.156 174.250 223.733 L 176.000 225.310 176.000 229.180 L 176.000 233.050 178.991 233.648 L 181.981 234.246 185.622 237.680 L 189.262 241.113 190.721 240.553 L 192.180 239.994 193.107 240.566 L 194.033 241.138 193.293 242.319 L 192.553 243.500 192.429 244.500 L 192.305 245.500 192.152 247.309 L 192.000 249.118 191.000 248.500 L 190.000 247.882 190.015 248.691 L 190.031 249.500 190.785 250.687 L 191.540 251.874 196.249 253.893 L 200.958 255.911 206.518 250.352 L 212.078 244.792 215.615 245.456 L 219.152 246.119 222.389 242.687 L 225.626 239.254 228.794 232.622 L 231.962 225.989 230.296 222.494 L 228.630 219.000 226.815 219.000 L 225.000 219.000 225.118 218.250 L 225.237 217.500 225.118 215.633 L 225.000 213.767 222.465 214.252 L 219.929 214.736 218.929 212.868 L 217.930 211.000 215.524 211.000 L 213.118 211.000 212.473 209.956 L 211.828 208.912 213.503 206.356 L 215.177 203.800 219.361 204.427 L 223.544 205.054 225.456 203.656 L 227.368 202.258 227.584 199.129 L 227.801 196.000 226.150 195.882 L 224.500 195.763 223.261 195.923 L 222.023 196.082 219.983 194.991 L 217.944 193.900 218.566 192.892 L 219.189 191.885 224.597 192.322 L 230.005 192.759 231.527 194.022 L 233.048 195.285 233.719 194.615 L 234.389 193.944 232.256 191.812 L 230.123 189.679 222.812 189.639 L 215.500 189.599 213.167 190.879 L 210.834 192.159 209.088 190.580 L 207.343 189.000 206.312 189.000 L 205.282 189.000 201.891 185.017 L 198.500 181.034 198.500 180.058 L 198.500 179.081 197.265 177.291 L 196.031 175.500 193.559 172.000 L 191.087 168.500 189.521 165.073 L 187.954 161.646 189.227 160.838 L 190.500 160.031 191.128 160.015 L 191.755 160.000 192.865 161.337 L 193.975 162.675 199.568 164.016 L 205.161 165.358 206.014 163.977 L 206.868 162.595 206.375 161.798 L 205.882 161.000 206.691 161.076 L 207.500 161.152 210.978 162.408 L 214.456 163.664 217.754 161.718 L 221.052 159.772 222.026 157.952 L 223.000 156.131 223.000 154.173 L 223.000 152.214 221.250 151.433 L 219.500 150.652 208.704 150.480 L 197.908 150.308 197.061 149.404 L 196.214 148.500 195.125 143.285 L 194.036 138.070 194.610 136.573 L 195.185 135.076 197.041 134.487 L 198.898 133.898 202.134 130.875 L 205.370 127.852 209.145 125.926 L 212.920 124.000 216.260 124.000 L 219.600 124.000 220.800 122.800 L 222.000 121.600 222.000 122.371 L 222.000 123.143 223.571 121.571 L 225.143 120.000 228.621 120.000 L 232.099 120.000 235.240 121.624 L 238.381 123.248 236.499 124.624 L 234.618 126.000 237.786 126.000 L 240.954 126.000 242.634 128.565 L 244.315 131.130 246.426 140.315 L 248.536 149.500 247.852 156.500 L 247.168 163.500 247.669 165.305 L 248.170 167.110 249.335 166.726 L 250.500 166.342 251.616 164.123 L 252.733 161.903 250.484 151.702 L 248.236 141.500 247.140 135.603 L 246.044 129.706 244.494 127.993 L 242.943 126.280 243.979 123.556 L 245.014 120.832 244.438 119.900 L 243.862 118.967 242.985 119.509 L 242.109 120.051 237.516 115.801 L 232.923 111.550 228.764 110.322 L 224.606 109.095 217.303 108.901 L 210.000 108.708 210.000 107.904 L 210.000 107.100 215.250 106.717 L 220.500 106.335 213.250 106.379 M222.000 114.155 L 222.500 114.152 225.945 115.397 L 229.390 116.641 228.158 117.402 L 226.927 118.163 222.963 117.494 L 219.000 116.824 219.000 115.995 L 219.000 115.167 220.250 114.662 L 221.500 114.158 222.000 114.155 M234.609 153.000 L 232.349 153.000 230.077 155.418 L 227.805 157.836 228.484 160.926 L 229.163 164.017 231.081 165.044 L 233.000 166.070 233.000 165.174 L 233.000 164.277 235.560 164.767 L 238.120 165.256 238.662 163.183 L 239.204 161.111 241.057 162.267 L 242.909 163.424 243.590 162.743 L 244.271 162.062 242.594 159.503 L 240.917 156.944 241.519 155.970 L 242.120 154.996 239.495 153.998 L 236.870 153.000 234.609 153.000 M480.439 161.699 L 476.000 156.899 476.000 162.515 L 476.000 168.131 477.543 187.212 L 479.086 206.294 481.043 208.782 L 483.000 211.270 483.000 220.078 L 483.000 228.887 485.250 230.566 L 487.500 232.246 485.750 231.654 L 484.000 231.063 484.000 235.492 L 484.000 239.922 485.096 250.211 L 486.192 260.500 486.846 261.185 L 487.500 261.871 493.750 261.296 L 500.000 260.722 500.000 245.977 L 500.000 231.232 495.490 231.537 L 490.981 231.841 491.549 230.920 L 492.118 230.000 496.138 230.000 L 500.159 230.000 499.810 211.750 L 499.460 193.500 493.714 181.568 L 487.967 169.637 486.422 168.068 L 484.878 166.500 480.439 161.699 M219.429 176.116 L 217.500 176.232 215.750 176.689 L 214.000 177.147 214.000 179.073 L 214.000 181.000 215.250 181.028 L 216.500 181.056 220.428 184.028 L 224.356 187.000 225.428 186.968 L 226.500 186.937 229.250 184.516 L 232.000 182.096 232.000 180.548 L 232.000 179.000 231.200 179.000 L 230.400 179.000 229.200 180.200 L 228.000 181.400 228.000 179.901 L 228.000 178.402 224.679 177.201 L 221.358 176.000 219.429 176.116 M213.750 194.184 L 216.500 194.500 216.500 196.986 L 216.500 199.473 214.928 199.775 L 213.357 200.078 212.178 197.492 L 211.000 194.906 211.000 194.387 L 211.000 193.867 213.750 194.184 M247.127 199.000 L 244.377 199.000 242.189 201.039 L 240.000 203.078 239.985 204.289 L 239.970 205.500 234.482 211.414 L 228.994 217.327 229.247 217.527 L 229.500 217.727 234.402 220.428 L 239.304 223.130 242.902 225.758 L 246.500 228.386 249.349 230.943 L 252.198 233.500 251.569 220.500 L 250.939 207.500 250.408 203.250 L 249.877 199.000 247.127 199.000 M163.143 223.099 L 161.500 223.198 157.416 224.487 L 153.332 225.777 149.916 227.527 L 146.500 229.277 143.000 232.293 L 139.500 235.308 138.754 236.558 L 138.008 237.807 141.561 239.904 L 145.114 242.000 146.057 242.000 L 147.000 242.000 147.015 239.750 L 147.031 237.500 147.890 236.143 L 148.750 234.786 149.444 235.910 L 150.138 237.033 151.143 236.412 L 152.148 235.790 154.574 238.070 L 157.000 240.349 157.000 238.674 L 157.000 237.000 158.000 237.000 L 159.000 237.000 159.000 235.646 L 159.000 234.292 161.250 231.834 L 163.500 229.376 164.767 227.815 L 166.035 226.253 165.410 224.627 L 164.786 223.000 163.143 223.099 M241.277 228.671 L 240.359 228.104 237.429 229.890 L 234.500 231.676 233.164 233.294 L 231.828 234.912 232.460 235.936 L 233.092 236.959 231.964 239.068 L 230.835 241.177 227.277 245.115 L 223.720 249.053 224.376 249.710 L 225.033 250.367 226.217 249.183 L 227.400 248.000 228.759 248.000 L 230.118 248.000 229.507 248.989 L 228.896 249.977 230.199 249.477 L 231.502 248.977 233.726 243.967 L 235.950 238.956 237.512 238.357 L 239.074 237.757 240.866 239.379 L 242.657 241.000 243.388 241.000 L 244.118 241.000 243.500 240.000 L 242.882 239.000 244.241 239.000 L 245.600 239.000 246.800 240.200 L 248.000 241.400 248.000 239.896 L 248.000 238.392 245.098 233.815 L 242.196 229.239 241.277 228.671 M69.634 288.661 L 68.500 283.823 67.750 284.578 L 67.000 285.333 67.036 288.417 L 67.072 291.500 69.650 294.500 L 72.228 297.500 71.498 295.500 L 70.768 293.500 69.634 288.661 M493.750 295.415 L 487.500 295.500 483.281 296.063 L 479.061 296.626 477.691 296.425 L 476.320 296.224 476.769 298.574 L 477.218 300.923 488.609 300.923 L 500.000 300.923 500.000 298.126 L 500.000 295.330 493.750 295.415 " stroke="#000000" fill="none"/><path d="M6.750 0.027 L 0.000 0.000 0.160 46.250 L 0.320 92.500 0.648 89.000 L 0.975 85.500 1.976 77.000 L 2.977 68.500 3.562 61.036 L 4.147 53.572 4.577 52.875 L 5.007 52.179 5.168 48.090 L 5.328 44.000 5.964 44.000 L 6.600 44.000 6.652 38.250 L 6.704 32.500 7.431 25.750 L 8.159 19.000 9.496 19.000 L 10.833 19.000 11.353 20.250 L 11.873 21.500 11.550 19.000 L 11.226 16.500 10.113 16.750 L 9.000 17.000 9.000 11.559 L 9.000 6.118 9.824 5.609 L 10.647 5.100 10.883 10.276 L 11.120 15.453 11.512 15.845 L 11.905 16.238 13.450 14.693 L 14.994 13.149 14.392 11.580 L 13.790 10.011 12.645 10.698 L 11.500 11.384 12.741 9.850 L 13.983 8.316 13.258 7.408 L 12.533 6.500 13.967 7.750 L 15.400 9.000 16.700 9.000 L 18.000 9.000 18.000 8.071 L 18.000 7.143 16.429 5.571 L 14.857 4.000 15.879 4.000 L 16.901 4.000 17.875 5.742 L 18.850 7.483 19.669 6.665 L 20.487 5.846 16.994 2.950 L 13.500 0.054 6.750 0.027 M19.750 0.022 L 14.500 0.044 16.984 1.953 L 19.468 3.861 20.219 2.681 L 20.969 1.500 21.100 3.000 L 21.230 4.500 21.093 6.500 L 20.955 8.500 22.397 6.000 L 23.838 3.500 24.440 3.788 L 25.042 4.076 26.771 3.068 L 28.500 2.061 26.750 2.030 L 25.000 2.000 25.000 1.000 L 25.000 0.000 19.750 0.022 M482.167 0.000 L 464.333 0.000 463.888 0.446 L 463.442 0.891 464.599 15.696 L 465.756 30.500 466.393 40.500 L 467.031 50.500 468.030 64.500 L 469.030 78.500 469.576 82.750 L 470.123 87.000 471.070 87.000 L 472.018 87.000 480.314 81.648 L 488.610 76.297 489.555 75.898 L 490.500 75.500 495.250 72.057 L 500.000 68.615 500.000 34.307 L 500.000 0.000 482.167 0.000 M212.000 105.046 L 205.500 105.070 197.459 108.446 L 189.417 111.821 185.459 114.134 L 181.500 116.446 177.647 119.973 L 173.793 123.500 171.805 127.390 L 169.817 131.279 169.344 133.890 L 168.871 136.500 167.008 140.500 L 165.145 144.500 164.149 145.936 L 163.152 147.371 161.576 146.063 L 160.000 144.755 159.985 145.628 L 159.969 146.500 159.000 145.000 L 158.031 143.500 158.015 144.882 L 158.000 146.264 160.078 149.626 L 162.155 152.988 163.666 153.833 L 165.176 154.678 165.264 161.589 L 165.352 168.500 164.607 170.500 L 163.862 172.500 165.395 170.000 L 166.929 167.500 167.075 172.500 L 167.221 177.500 167.053 179.644 L 166.885 181.788 170.930 186.144 L 174.975 190.500 174.988 194.750 L 175.000 199.000 171.750 198.986 L 168.500 198.972 148.500 198.017 L 128.500 197.062 109.000 195.963 L 89.500 194.864 78.500 193.444 L 67.500 192.024 63.878 191.402 L 60.256 190.780 58.566 194.140 L 56.875 197.500 56.469 206.831 L 56.063 216.163 53.637 218.071 L 51.210 219.980 48.629 227.240 L 46.047 234.500 44.529 246.626 L 43.011 258.752 40.578 272.626 L 38.144 286.500 34.668 303.500 L 31.192 320.500 30.494 324.500 L 29.796 328.500 29.379 330.750 L 28.961 333.000 36.513 333.000 L 44.065 333.000 47.161 326.250 L 50.258 319.500 50.711 319.002 L 51.164 318.503 52.486 320.311 L 53.808 322.120 54.429 321.115 L 55.049 320.111 55.117 312.927 L 55.184 305.744 58.480 299.122 L 61.775 292.500 63.957 287.653 L 66.139 282.805 66.438 283.153 L 66.736 283.500 65.674 289.771 L 64.612 296.041 66.070 297.498 L 67.527 298.955 70.763 299.603 L 74.000 300.250 74.000 298.734 L 74.000 297.218 72.022 292.859 L 70.044 288.500 70.022 283.482 L 70.000 278.464 72.359 274.982 L 74.718 271.500 75.481 269.000 L 76.245 266.500 76.985 265.500 L 77.724 264.500 78.485 261.500 L 79.247 258.500 79.754 259.891 L 80.260 261.281 81.852 263.141 L 83.444 265.000 84.567 265.000 L 85.690 265.000 87.584 267.093 L 89.478 269.185 91.147 270.078 L 92.816 270.972 91.658 267.819 L 90.500 264.666 86.250 260.208 L 82.000 255.750 82.000 253.276 L 82.000 250.802 85.106 247.901 L 88.212 245.000 89.106 245.000 L 90.000 245.000 90.000 243.655 L 90.000 242.310 91.750 240.746 L 93.500 239.182 98.036 236.784 L 102.572 234.386 112.536 231.058 L 122.500 227.730 127.839 225.865 L 133.178 224.000 137.082 224.000 L 140.985 224.000 149.148 216.484 L 157.311 208.967 160.061 213.783 L 162.811 218.598 164.156 219.661 L 165.500 220.724 168.500 221.436 L 171.500 222.148 173.750 224.248 L 176.000 226.349 176.014 230.424 L 176.027 234.500 176.590 236.597 L 177.153 238.693 179.370 238.270 L 181.588 237.846 184.002 239.801 L 186.417 241.756 187.958 246.535 L 189.500 251.315 191.000 252.078 L 192.500 252.841 196.945 254.892 L 201.391 256.942 201.524 256.721 L 201.657 256.500 204.447 252.750 L 207.237 249.000 210.159 249.000 L 213.080 249.000 216.803 247.101 L 220.526 245.201 223.263 242.464 L 226.000 239.727 226.015 238.614 L 226.031 237.500 227.034 239.000 L 228.038 240.500 229.548 238.519 L 231.058 236.539 230.473 233.877 L 229.888 231.216 232.060 226.595 L 234.232 221.975 234.965 221.521 L 235.699 221.068 240.099 224.202 L 244.500 227.336 248.813 231.418 L 253.125 235.500 252.359 226.500 L 251.592 217.500 251.743 215.000 L 251.895 212.500 252.018 209.868 L 252.140 207.235 251.032 203.118 L 249.923 199.000 247.711 199.014 L 245.500 199.027 243.372 199.598 L 241.244 200.170 240.143 202.585 L 239.043 205.000 238.183 205.000 L 237.324 205.000 237.178 201.750 L 237.031 198.500 236.534 196.046 L 236.036 193.592 234.126 191.681 L 232.215 189.771 227.858 188.944 L 223.500 188.116 219.724 188.690 L 215.949 189.264 213.974 187.477 L 212.000 185.690 212.000 186.368 L 212.000 187.046 209.506 185.412 L 207.012 183.778 207.611 180.032 L 208.210 176.286 205.201 174.143 L 202.191 172.000 200.685 172.000 L 199.178 172.000 196.589 168.923 L 194.000 165.847 194.000 164.810 L 194.000 163.773 197.250 164.394 L 200.500 165.016 204.670 165.629 L 208.841 166.242 213.590 164.624 L 218.339 163.006 218.806 163.473 L 219.274 163.940 216.137 166.693 L 213.000 169.445 212.985 171.473 L 212.969 173.500 212.112 174.852 L 211.255 176.205 212.733 179.167 L 214.211 182.130 216.356 183.119 L 218.500 184.109 222.000 185.952 L 225.500 187.794 227.479 186.739 L 229.459 185.684 230.597 184.545 L 231.736 183.407 232.437 181.198 L 233.138 178.990 231.319 178.431 L 229.500 177.873 226.500 176.505 L 223.500 175.137 221.250 174.501 L 219.000 173.865 219.000 172.933 L 219.000 172.000 221.645 172.000 L 224.289 172.000 223.721 165.750 L 223.152 159.500 224.983 156.000 L 226.813 152.500 227.474 156.500 L 228.135 160.500 228.634 163.192 L 229.133 165.884 233.962 167.487 L 238.790 169.091 241.421 168.430 L 244.053 167.770 244.975 166.047 L 245.897 164.323 245.362 162.275 L 244.826 160.226 245.913 159.554 L 247.000 158.882 247.000 163.847 L 247.000 168.812 249.483 167.656 L 251.965 166.500 252.807 164.000 L 253.649 161.500 252.838 158.000 L 252.027 154.500 249.550 142.146 L 247.073 129.793 245.958 128.449 L 244.842 127.105 245.833 125.333 L 246.825 123.562 245.515 121.029 L 244.205 118.495 241.870 116.498 L 239.534 114.500 241.017 116.442 L 242.500 118.384 241.000 117.503 L 239.500 116.622 238.255 114.900 L 237.010 113.177 232.255 110.490 L 227.500 107.803 223.000 106.412 L 218.500 105.022 212.000 105.046 M222.050 124.096 L 222.600 124.000 223.684 125.084 L 224.769 126.169 230.885 126.723 L 237.002 127.278 235.251 128.581 L 233.500 129.884 235.500 129.808 L 237.500 129.733 239.261 130.478 L 241.023 131.223 240.372 129.361 L 239.722 127.500 241.823 129.500 L 243.924 131.500 245.378 137.500 L 246.832 143.500 247.305 150.305 L 247.778 157.110 246.090 155.581 L 244.401 154.053 239.950 152.474 L 235.500 150.895 231.500 151.101 L 227.500 151.306 220.500 149.100 L 213.500 146.893 210.000 147.086 L 206.500 147.280 204.500 147.124 L 202.500 146.969 201.064 146.061 L 199.629 145.152 200.937 143.576 L 202.245 142.000 204.122 142.000 L 206.000 142.000 206.000 141.237 L 206.000 140.474 208.250 139.487 L 210.500 138.500 210.825 135.665 L 211.149 132.830 209.325 131.388 L 207.500 129.946 209.892 128.223 L 212.285 126.500 216.892 125.346 L 221.500 124.192 222.050 124.096 M476.508 151.000 L 475.000 151.000 475.040 156.250 L 475.080 161.500 476.898 184.265 L 478.717 207.030 480.225 208.765 L 481.734 210.500 482.369 221.000 L 483.005 231.500 483.981 245.613 L 484.957 259.725 485.564 261.306 L 486.170 262.886 487.714 263.193 L 489.257 263.500 494.670 263.155 L 500.083 262.810 499.949 220.977 L 499.816 179.143 495.523 171.809 L 491.229 164.475 484.623 157.738 L 478.017 151.000 476.508 151.000 M219.500 205.000 L 222.000 205.000 222.000 206.035 L 222.000 207.070 224.093 205.950 L 226.186 204.830 228.564 205.427 L 230.942 206.024 231.974 207.951 L 233.005 209.879 232.023 210.486 L 231.041 211.092 228.900 209.946 L 226.759 208.800 227.420 209.870 L 228.080 210.939 223.809 210.514 L 219.538 210.089 218.269 208.354 L 217.000 206.618 217.000 205.809 L 217.000 205.000 219.500 205.000 M164.281 222.052 L 162.500 222.104 156.227 224.435 L 149.953 226.765 145.727 229.562 L 141.500 232.358 137.578 236.429 L 133.657 240.500 138.078 240.813 L 142.500 241.126 143.360 241.973 L 144.219 242.819 147.110 241.812 L 150.000 240.804 150.000 239.371 L 150.000 237.937 151.560 237.339 L 153.119 236.740 156.178 239.620 L 159.238 242.500 158.551 240.250 L 157.865 238.000 158.758 238.000 L 159.651 238.000 162.000 240.500 L 164.349 243.000 165.081 243.000 L 165.813 243.000 165.319 241.113 L 164.826 239.226 165.844 238.597 L 166.862 237.967 167.490 238.984 L 168.118 240.000 169.904 240.000 L 171.690 240.000 173.345 238.171 L 175.000 236.343 175.000 235.612 L 175.000 234.882 173.846 235.595 L 172.691 236.309 170.346 236.566 L 168.000 236.824 168.000 235.915 L 168.000 235.006 171.250 233.513 L 174.500 232.021 172.250 232.578 L 170.000 233.135 170.000 232.067 L 170.000 231.000 168.083 231.000 L 166.167 231.000 165.718 229.750 L 165.270 228.500 166.212 226.672 L 167.154 224.844 166.608 223.422 L 166.063 222.000 164.281 222.052 M241.100 227.033 L 240.500 227.066 236.500 229.824 L 232.500 232.581 232.183 235.843 L 231.865 239.105 225.251 246.116 L 218.637 253.128 208.397 261.033 L 198.156 268.939 197.412 270.142 L 196.668 271.346 195.968 275.173 L 195.269 279.000 195.765 279.000 L 196.261 279.000 203.713 272.475 L 211.165 265.950 216.009 263.496 L 220.853 261.041 223.303 258.770 L 225.753 256.500 226.126 255.501 L 226.500 254.501 229.500 253.001 L 232.500 251.500 234.151 246.500 L 235.802 241.500 238.855 241.190 L 241.908 240.880 244.105 242.056 L 246.303 243.233 245.683 241.616 L 245.063 240.000 245.844 240.000 L 246.626 240.000 249.500 243.000 L 252.374 246.000 253.162 246.000 L 253.950 246.000 253.119 243.750 L 252.287 241.500 252.704 240.318 L 253.121 239.136 251.525 236.048 L 249.928 232.961 245.814 229.980 L 241.700 227.000 241.100 227.033 M100.322 239.283 L 98.874 237.500 99.377 239.000 L 99.881 240.500 101.381 245.500 L 102.881 250.500 105.062 258.795 L 107.243 267.090 107.660 266.673 L 108.077 266.256 104.923 253.661 L 101.769 241.066 100.322 239.283 M168.707 246.004 L 167.915 246.000 170.678 249.464 L 173.442 252.927 175.971 252.334 L 178.500 251.742 179.450 250.871 L 180.400 250.000 178.224 250.000 L 176.048 250.000 172.774 248.004 L 169.500 246.007 168.707 246.004 M81.720 271.019 L 79.087 267.537 79.376 270.245 L 79.664 272.952 82.082 276.143 L 84.500 279.333 88.289 282.864 L 92.079 286.394 93.539 286.609 L 95.000 286.823 95.000 285.932 L 95.000 285.041 89.676 279.771 L 84.352 274.500 81.720 271.019 M492.750 294.197 L 485.500 294.500 479.750 294.800 L 474.000 295.100 474.000 299.750 L 474.000 304.400 475.200 303.200 L 476.400 302.000 488.200 302.000 L 500.000 302.000 500.000 297.947 L 500.000 293.895 492.750 294.197 M241.670 307.325 L 239.374 305.151 238.140 305.914 L 236.905 306.677 238.453 307.961 L 240.000 309.245 240.000 310.515 L 240.000 311.786 241.582 312.393 L 243.164 313.000 243.582 313.000 L 244.000 313.000 243.983 311.250 L 243.965 309.500 241.670 307.325 M118.883 308.000 L 118.000 308.000 118.000 312.469 L 118.000 316.937 119.500 316.362 L 121.000 315.786 120.986 314.143 L 120.973 312.500 120.370 310.250 L 119.767 308.000 118.883 308.000 M477.533 320.500 L 476.217 312.500 476.586 320.848 L 476.956 329.197 475.561 328.662 L 474.166 328.126 473.708 329.318 L 473.251 330.511 474.375 331.505 L 475.500 332.500 477.250 332.794 L 479.000 333.088 478.925 330.794 L 478.850 328.500 477.533 320.500 M268.190 319.000 L 266.380 319.000 263.190 322.119 L 260.000 325.237 260.000 327.119 L 260.000 329.000 260.792 329.000 L 261.584 329.000 265.792 324.712 L 270.000 320.424 270.000 319.712 L 270.000 319.000 268.190 319.000 M284.500 328.529 L 277.500 327.887 274.000 330.097 L 270.500 332.307 271.849 332.770 L 273.197 333.232 275.471 332.015 L 277.745 330.798 284.860 331.716 L 291.974 332.634 293.034 331.979 L 294.095 331.323 292.797 330.247 L 291.500 329.170 284.500 328.529 " stroke="#000000" fill="none"/><path d="M92.441 0.000 L 0.000 0.000 0.000 166.500 L 0.000 333.000 33.000 333.000 L 66.000 333.000 66.051 332.750 L 66.102 332.500 66.643 328.000 L 67.183 323.500 68.615 321.250 L 70.046 319.000 70.956 319.000 L 71.865 319.000 72.421 320.751 L 72.977 322.501 75.990 323.835 L 79.004 325.170 79.710 327.835 L 80.415 330.500 80.164 331.750 L 79.912 333.000 83.366 333.000 L 86.820 333.000 85.352 327.250 L 83.885 321.500 83.306 319.149 L 82.728 316.799 81.042 313.331 L 79.355 309.863 79.545 305.182 L 79.734 300.500 76.279 295.092 L 72.823 289.685 72.281 286.342 L 71.738 283.000 72.998 283.000 L 74.259 283.000 78.449 287.500 L 82.640 292.000 84.320 292.000 L 86.000 292.000 86.000 289.932 L 86.000 287.864 89.017 290.012 L 92.035 292.161 96.267 298.138 L 100.500 304.114 104.468 309.807 L 108.436 315.500 108.807 313.672 L 109.177 311.843 107.038 303.916 L 104.899 295.989 103.699 293.227 L 102.500 290.464 100.500 287.649 L 98.500 284.835 95.750 281.535 L 93.000 278.236 93.000 277.501 L 93.000 276.767 95.000 277.290 L 97.000 277.813 97.000 276.310 L 97.000 274.808 92.409 266.385 L 87.818 257.962 88.503 252.981 L 89.188 248.000 91.394 248.000 L 93.600 248.000 94.713 249.113 L 95.826 250.226 96.913 249.554 L 98.000 248.882 98.000 247.548 L 98.000 246.214 99.720 245.554 L 101.439 244.894 100.728 245.605 L 100.017 246.316 101.043 247.551 L 102.068 248.787 102.448 251.643 L 102.829 254.500 103.584 256.414 L 104.340 258.328 103.309 257.691 L 102.277 257.053 104.142 260.823 L 106.007 264.592 107.560 270.046 L 109.113 275.500 109.994 280.000 L 110.875 284.500 111.509 288.000 L 112.143 291.500 109.946 287.000 L 107.749 282.500 105.457 276.500 L 103.165 270.500 100.032 262.000 L 96.900 253.500 94.950 251.528 L 93.000 249.556 93.000 250.894 L 93.000 252.232 94.440 256.866 L 95.880 261.500 97.557 267.500 L 99.235 273.500 102.994 280.000 L 106.753 286.500 109.434 291.831 L 112.115 297.161 112.479 299.831 L 112.842 302.500 114.421 308.460 L 116.000 314.420 116.000 317.588 L 116.000 320.755 114.500 322.000 L 113.000 323.245 113.000 328.122 L 113.000 333.000 129.250 332.978 L 145.500 332.956 143.395 331.228 L 141.290 329.500 140.676 327.750 L 140.063 326.000 137.906 326.000 L 135.750 326.000 136.366 322.919 L 136.983 319.837 139.241 317.008 L 141.500 314.178 143.750 312.920 L 146.000 311.662 146.000 310.381 L 146.000 309.099 147.348 308.300 L 148.696 307.500 151.481 303.250 L 154.266 299.000 155.192 299.000 L 156.118 299.000 155.434 297.893 L 154.750 296.786 154.125 297.643 L 153.500 298.500 151.500 299.770 L 149.500 301.040 146.420 302.462 L 143.341 303.884 142.048 305.442 L 140.755 307.000 139.878 307.000 L 139.000 307.000 139.000 305.441 L 139.000 303.882 138.035 304.479 L 137.069 305.075 137.617 295.235 L 138.165 285.395 135.982 281.694 L 133.799 277.994 134.474 271.380 L 135.149 264.766 134.437 257.169 L 133.725 249.571 130.818 246.664 L 127.910 243.756 127.484 244.183 L 127.058 244.609 129.265 249.055 L 131.473 253.500 131.838 260.590 L 132.202 267.679 130.531 282.590 L 128.861 297.500 128.370 299.559 L 127.879 301.618 127.516 303.559 L 127.153 305.500 127.077 308.139 L 127.000 310.778 124.969 313.139 L 122.938 315.500 123.084 313.500 L 123.230 311.500 123.041 311.000 L 122.851 310.500 122.456 308.500 L 122.061 306.500 121.105 301.500 L 120.148 296.500 120.561 291.000 L 120.973 285.500 121.891 275.962 L 122.809 266.424 122.030 262.462 L 121.251 258.500 120.548 256.827 L 119.845 255.155 118.423 254.609 L 117.000 254.063 117.000 256.064 L 117.000 258.064 118.500 261.654 L 120.000 265.244 120.000 271.263 L 120.000 277.281 118.068 281.390 L 116.137 285.500 115.425 288.500 L 114.713 291.500 112.828 282.500 L 110.943 273.500 111.356 269.405 L 111.769 265.311 109.344 260.405 L 106.918 255.500 103.959 246.541 L 101.000 237.581 101.000 237.291 L 101.000 237.000 102.301 237.000 L 103.601 237.000 106.293 235.750 L 108.984 234.500 108.992 233.750 L 109.000 233.000 110.607 233.000 L 112.214 233.000 111.478 234.750 L 110.743 236.500 110.256 238.746 L 109.768 240.991 110.503 246.746 L 111.237 252.500 112.254 250.000 L 113.270 247.500 113.568 241.239 L 113.867 234.977 116.183 232.102 L 118.500 229.226 120.000 229.236 L 121.500 229.246 125.750 227.667 L 130.000 226.089 130.000 227.784 L 130.000 229.480 132.540 226.740 L 135.081 224.000 137.124 224.000 L 139.167 224.000 138.708 225.250 L 138.250 226.500 137.125 226.250 L 136.000 226.000 136.000 228.346 L 136.000 230.693 134.433 233.834 L 132.866 236.975 133.427 237.882 L 133.989 238.790 132.431 239.388 L 130.873 239.986 131.402 240.842 L 131.932 241.698 140.009 242.321 L 148.087 242.944 149.615 244.472 L 151.143 246.000 150.961 248.250 L 150.779 250.500 150.963 252.500 L 151.148 254.500 153.000 250.500 L 154.852 246.500 154.926 244.079 L 155.000 241.657 153.345 239.829 L 151.690 238.000 152.658 238.000 L 153.626 238.000 156.563 241.089 L 159.500 244.179 162.250 245.615 L 165.000 247.051 165.000 246.323 L 165.000 245.595 161.750 242.115 L 158.500 238.636 162.617 241.796 L 166.733 244.957 170.117 249.452 L 173.500 253.947 175.000 253.265 L 176.500 252.584 180.801 252.542 L 185.103 252.500 184.601 250.500 L 184.099 248.500 185.593 250.500 L 187.087 252.500 187.652 254.750 L 188.217 257.000 191.049 257.000 L 193.882 257.000 194.539 258.063 L 195.196 259.126 193.443 261.063 L 191.690 263.000 188.314 263.000 L 184.937 263.000 184.361 264.502 L 183.784 266.004 184.364 268.252 L 184.944 270.500 187.910 272.168 L 190.877 273.836 197.137 265.744 L 203.397 257.652 203.530 255.841 L 203.664 254.029 205.487 252.015 L 207.310 250.000 209.905 249.994 L 212.500 249.988 215.206 248.576 L 217.912 247.164 219.956 247.699 L 222.000 248.233 222.000 246.772 L 222.000 245.310 223.924 243.569 L 225.848 241.827 225.611 243.444 L 225.374 245.061 220.415 249.780 L 215.455 254.500 206.478 261.472 L 197.500 268.445 193.819 271.819 L 190.138 275.194 187.420 279.115 L 184.703 283.036 185.354 283.688 L 186.006 284.339 191.253 281.932 L 196.500 279.524 204.151 273.012 L 211.802 266.500 218.151 262.902 L 224.500 259.305 225.448 257.243 L 226.396 255.182 229.698 253.607 L 233.000 252.032 233.140 254.766 L 233.280 257.500 233.200 261.500 L 233.120 265.500 234.196 261.500 L 235.272 257.500 235.543 250.143 L 235.814 242.786 236.808 241.792 L 237.802 240.798 240.832 241.463 L 243.862 242.129 245.053 243.564 L 246.245 245.000 247.158 245.000 L 248.070 245.000 246.959 242.924 L 245.849 240.849 247.674 241.838 L 249.500 242.828 252.359 245.833 L 255.218 248.837 254.550 249.919 L 253.882 251.000 254.941 251.000 L 256.000 251.000 256.000 248.682 L 256.000 246.363 254.387 240.932 L 252.774 235.500 252.486 220.500 L 252.198 205.500 251.457 202.164 L 250.716 198.828 249.370 198.312 L 248.025 197.796 244.899 198.885 L 241.773 199.975 242.439 197.737 L 243.104 195.500 244.647 187.006 L 246.191 178.512 247.095 176.822 L 248.000 175.131 248.000 173.448 L 248.000 171.764 251.000 168.347 L 254.000 164.930 254.024 163.215 L 254.047 161.500 251.951 150.000 L 249.856 138.500 249.006 134.522 L 248.156 130.544 248.932 129.157 L 249.708 127.770 247.398 122.980 L 245.087 118.191 239.441 113.345 L 233.794 108.500 232.897 108.750 L 232.000 109.000 232.000 108.114 L 232.000 107.228 228.596 105.612 L 225.191 103.997 214.371 104.543 L 203.550 105.090 197.525 107.663 L 191.500 110.236 186.750 112.681 L 182.000 115.125 182.000 114.393 L 182.000 113.661 177.957 118.080 L 173.914 122.500 171.288 127.000 L 168.662 131.500 167.176 133.250 L 165.690 135.000 166.864 135.000 L 168.038 135.000 167.350 137.740 L 166.663 140.480 165.581 141.559 L 164.500 142.638 162.250 143.226 L 160.000 143.813 159.985 142.156 L 159.969 140.500 159.000 142.000 L 158.031 143.500 158.015 145.790 L 158.000 148.081 160.250 151.290 L 162.500 154.500 163.500 155.217 L 164.500 155.934 164.353 165.467 L 164.206 175.000 165.103 175.000 L 166.000 175.000 166.000 178.438 L 166.000 181.877 169.090 185.188 L 172.180 188.500 173.678 190.709 L 175.177 192.919 174.565 195.709 L 173.953 198.500 161.209 197.925 L 148.465 197.351 145.732 195.560 L 143.000 193.770 142.882 194.635 L 142.763 195.500 142.906 196.324 L 143.050 197.149 142.008 196.505 L 140.967 195.862 141.492 195.012 L 142.017 194.163 139.000 193.500 L 135.983 192.837 134.992 190.984 L 134.000 189.131 134.000 188.597 L 134.000 188.063 135.500 188.638 L 137.000 189.214 137.000 188.575 L 137.000 187.936 134.750 187.031 L 132.500 186.127 134.719 186.063 L 136.937 186.000 136.285 184.301 L 135.633 182.601 135.233 183.801 L 134.833 185.000 134.024 185.000 L 133.214 185.000 132.618 183.448 L 132.023 181.896 133.181 182.612 L 134.340 183.328 133.701 181.664 L 133.063 180.000 133.648 178.474 L 134.234 176.949 135.617 178.097 L 137.000 179.245 137.000 178.181 L 137.000 177.118 136.005 176.503 L 135.011 175.889 134.003 174.005 L 132.995 172.121 134.152 171.406 L 135.309 170.691 134.500 172.000 L 133.691 173.309 134.845 172.595 L 136.000 171.882 136.000 171.416 L 136.000 170.950 133.284 169.918 L 130.568 168.885 131.728 168.168 L 132.889 167.450 132.666 165.975 L 132.444 164.500 131.706 163.319 L 130.967 162.138 131.898 161.563 L 132.829 160.988 133.336 162.244 L 133.842 163.500 133.921 162.285 L 134.000 161.070 131.879 159.935 L 129.759 158.800 130.396 159.831 L 131.033 160.862 130.016 161.490 L 129.000 162.118 129.015 160.309 L 129.031 158.500 129.765 157.400 L 130.500 156.300 132.000 155.639 L 133.500 154.978 131.250 155.395 L 129.000 155.813 129.000 154.906 L 129.000 154.000 128.052 154.000 L 127.103 154.000 124.552 151.635 L 122.000 149.271 122.000 148.576 L 122.000 147.882 123.100 148.562 L 124.200 149.241 123.135 147.252 L 122.070 145.263 122.785 144.471 L 123.500 143.679 122.250 144.399 L 121.000 145.118 121.000 143.616 L 121.000 142.113 118.777 140.557 L 116.555 139.000 118.900 139.000 L 121.245 139.000 119.909 137.390 L 118.573 135.781 118.203 136.890 L 117.833 138.000 116.917 138.000 L 116.000 138.000 116.000 136.441 L 116.000 134.882 115.113 135.430 L 114.227 135.978 112.915 134.398 L 111.604 132.817 114.802 133.321 L 118.000 133.826 118.000 133.113 L 118.000 132.400 116.750 131.053 L 115.500 129.706 117.218 130.309 L 118.936 130.913 119.527 129.956 L 120.118 129.000 119.141 129.000 L 118.164 129.000 116.434 128.336 L 114.704 127.673 115.196 130.248 L 115.689 132.823 113.834 131.665 L 111.980 130.507 113.043 130.152 L 114.106 129.798 112.303 128.325 L 110.500 126.852 111.862 127.554 L 113.224 128.256 114.089 126.878 L 114.954 125.500 114.426 123.801 L 113.898 122.102 115.912 120.088 L 117.927 118.073 116.964 117.477 L 116.000 116.882 116.000 114.972 L 116.000 113.063 117.399 113.600 L 118.798 114.136 119.485 113.024 L 120.172 111.912 119.275 110.706 L 118.377 109.500 118.439 108.214 L 118.500 106.927 119.971 106.018 L 121.442 105.109 120.727 104.394 L 120.013 103.679 122.115 102.207 L 124.218 100.734 125.203 102.117 L 126.189 103.500 125.594 101.668 L 125.000 99.836 125.000 99.263 L 125.000 98.690 122.830 100.595 L 120.661 102.500 121.271 100.823 L 121.881 99.146 120.428 97.940 L 118.975 96.735 120.110 95.367 L 121.245 94.000 123.063 94.000 L 124.882 94.000 125.493 93.011 L 126.104 92.023 124.552 92.618 L 123.000 93.214 123.000 92.107 L 123.000 91.000 123.969 91.000 L 124.937 91.000 124.362 89.500 L 123.786 88.000 125.643 87.882 L 127.500 87.763 128.042 87.812 L 128.585 87.862 128.748 85.693 L 128.911 83.525 128.057 84.908 L 127.202 86.291 125.550 85.658 L 123.899 85.024 125.199 83.617 L 126.500 82.210 127.048 82.539 L 127.595 82.868 129.048 81.965 L 130.500 81.061 129.242 79.031 L 127.983 77.000 128.908 77.000 L 129.833 77.000 130.338 78.250 L 130.842 79.500 130.921 76.809 L 131.000 74.118 131.893 73.566 L 132.786 73.014 131.997 76.512 L 131.208 80.011 132.259 80.660 L 133.309 81.309 132.638 80.224 L 131.967 79.138 133.052 78.468 L 134.136 77.798 133.557 76.288 L 132.977 74.777 134.416 75.329 L 135.854 75.881 137.177 74.253 L 138.500 72.626 136.833 73.250 L 135.166 73.874 134.583 72.355 L 134.000 70.836 134.015 70.168 L 134.031 69.500 134.904 70.878 L 135.776 72.256 137.034 71.479 L 138.291 70.702 134.896 68.893 L 131.500 67.084 133.250 67.042 L 135.000 67.000 135.000 65.393 L 135.000 63.786 136.500 64.362 L 138.000 64.937 139.357 64.417 L 140.714 63.896 140.442 61.424 L 140.171 58.952 141.335 59.094 L 142.500 59.237 143.750 59.118 L 145.000 59.000 145.000 58.063 L 145.000 57.126 141.250 57.646 L 137.500 58.166 138.835 57.221 L 140.171 56.276 140.010 55.413 L 139.850 54.550 141.175 54.199 L 142.500 53.848 141.143 54.799 L 139.786 55.750 140.893 56.434 L 142.000 57.118 143.016 56.490 L 144.033 55.862 143.457 54.931 L 142.882 54.000 143.859 54.000 L 144.836 54.000 146.582 53.330 L 148.328 52.660 147.517 54.080 L 146.707 55.500 147.957 54.346 L 149.207 53.193 148.253 51.487 L 147.298 49.781 146.687 51.374 L 146.076 52.966 144.538 52.376 L 143.000 51.786 143.032 50.143 L 143.064 48.500 144.532 50.441 L 146.000 52.382 146.000 49.814 L 146.000 47.245 147.692 45.872 L 149.384 44.500 148.633 45.750 L 147.882 47.000 148.941 47.000 L 150.000 47.000 150.000 48.559 L 150.000 50.118 151.016 49.490 L 152.033 48.862 151.510 48.016 L 150.988 47.171 151.744 46.749 L 152.500 46.328 151.109 46.687 L 149.717 47.046 150.981 45.523 L 152.245 44.000 150.872 43.983 L 149.500 43.966 152.705 41.914 L 155.909 39.861 156.489 38.034 L 157.069 36.207 156.785 34.979 L 156.500 33.750 157.855 33.257 L 159.210 32.763 158.529 35.132 L 157.848 37.500 159.749 34.742 L 161.651 31.984 162.325 32.659 L 163.000 33.333 163.000 31.226 L 163.000 29.118 162.000 28.500 L 161.000 27.882 161.030 26.691 L 161.061 25.500 162.080 27.250 L 163.099 29.000 164.157 29.000 L 165.214 29.000 164.670 27.583 L 164.126 26.166 165.674 25.571 L 167.223 24.977 166.552 26.739 L 165.882 28.500 167.054 27.337 L 168.226 26.174 167.544 25.071 L 166.862 23.967 165.931 24.543 L 165.000 25.118 165.000 24.141 L 165.000 23.164 164.406 21.332 L 163.811 19.500 164.890 21.000 L 165.969 22.500 165.985 20.781 L 166.000 19.063 167.587 19.672 L 169.173 20.280 168.971 18.390 L 168.770 16.500 168.885 15.295 L 169.000 14.091 172.511 13.432 L 176.022 12.773 176.570 11.887 L 177.118 11.000 175.309 10.921 L 173.500 10.842 175.000 10.271 L 176.500 9.700 177.123 8.747 L 177.746 7.794 179.994 8.997 L 182.241 10.200 181.561 9.098 L 180.880 7.996 183.231 7.102 L 185.582 6.208 186.636 4.854 L 187.690 3.500 188.368 1.609 L 189.046 -0.283 187.612 0.907 L 186.178 2.097 185.530 1.049 L 184.882 0.000 92.441 0.000 M443.921 0.000 L 443.000 0.000 443.000 0.296 L 443.000 0.592 444.456 17.546 L 445.911 34.500 446.537 42.500 L 447.163 50.500 448.008 59.500 L 448.854 68.500 448.316 52.500 L 447.777 36.500 447.499 35.000 L 447.222 33.500 446.554 19.500 L 445.887 5.500 445.364 2.750 L 444.841 0.000 443.921 0.000 M481.353 0.000 L 462.707 0.000 463.363 7.750 L 464.019 15.500 466.525 50.500 L 469.031 85.500 469.510 88.000 L 469.990 90.500 470.594 94.500 L 471.198 98.500 471.737 99.378 L 472.277 100.257 473.181 98.641 L 474.086 97.025 476.164 95.912 L 478.241 94.800 477.590 95.854 L 476.939 96.908 477.573 99.434 L 478.207 101.960 480.081 100.957 L 481.955 99.954 481.371 101.477 L 480.786 103.000 482.452 103.000 L 484.118 103.000 483.570 102.113 L 483.022 101.227 484.384 100.096 L 485.747 98.965 487.296 99.560 L 488.846 100.155 488.552 98.327 L 488.259 96.500 488.773 95.614 L 489.286 94.728 491.206 97.114 L 493.125 99.500 492.495 97.250 L 491.865 95.000 493.040 95.000 L 494.214 95.000 493.594 93.250 L 492.974 91.500 494.873 93.925 L 496.772 96.349 498.386 96.586 L 500.000 96.823 500.000 48.412 L 500.000 0.000 481.353 0.000 M491.917 111.052 L 491.500 111.105 489.250 112.674 L 487.000 114.244 487.000 116.622 L 487.000 119.000 485.744 119.000 L 484.488 119.000 482.244 123.892 L 480.000 128.784 480.000 130.269 L 480.000 131.755 478.500 133.000 L 477.000 134.245 477.000 137.563 L 477.000 140.882 478.000 141.500 L 479.000 142.118 479.000 143.181 L 479.000 144.245 477.500 143.000 L 476.000 141.755 476.000 140.378 L 476.000 139.000 475.000 139.000 L 474.000 139.000 474.000 139.860 L 474.000 140.721 476.563 144.498 L 479.126 148.274 477.916 149.387 L 476.707 150.500 477.412 149.250 L 478.118 148.000 475.940 148.000 L 473.762 148.000 474.410 157.250 L 475.059 166.500 475.538 173.500 L 476.017 180.500 477.066 191.977 L 478.115 203.454 477.651 205.226 L 477.188 206.998 477.976 207.485 L 478.765 207.973 478.765 213.891 L 478.765 219.810 479.537 221.060 L 480.309 222.309 479.000 221.500 L 477.691 220.691 478.525 222.041 L 479.360 223.391 479.644 226.946 L 479.929 230.500 480.444 237.500 L 480.960 244.500 481.556 252.500 L 482.152 260.500 482.135 262.500 L 482.118 264.500 481.445 267.750 L 480.773 271.000 481.887 271.000 L 483.000 271.000 483.000 268.635 L 483.000 266.270 488.250 266.544 L 493.500 266.818 496.718 267.357 L 499.936 267.897 499.983 211.948 L 500.031 156.000 499.124 156.000 L 498.217 156.000 497.536 153.289 L 496.856 150.578 498.428 149.429 L 500.000 148.280 500.000 142.840 L 500.000 137.400 499.169 136.450 L 498.337 135.500 497.155 131.500 L 495.974 127.500 494.483 125.554 L 492.993 123.607 491.912 124.688 L 490.831 125.769 488.962 125.280 L 487.092 124.791 487.687 121.645 L 488.282 118.500 489.220 116.667 L 490.159 114.834 492.080 116.572 L 494.000 118.310 494.000 117.377 L 494.000 116.445 492.535 114.354 L 491.071 112.263 491.702 111.631 L 492.333 111.000 491.917 111.052 M454.956 134.500 L 453.089 116.500 453.593 126.000 L 454.097 135.500 456.550 160.500 L 459.003 185.500 460.040 194.500 L 461.078 203.500 461.504 212.289 L 461.931 221.079 462.566 222.106 L 463.200 223.133 462.600 223.733 L 462.000 224.333 462.000 222.976 L 462.000 221.618 460.426 223.559 L 458.852 225.500 459.469 223.000 L 460.086 220.500 460.564 218.000 L 461.043 215.500 460.088 216.952 L 459.132 218.405 459.625 219.202 L 460.118 220.000 458.309 220.015 L 456.500 220.031 457.502 220.765 L 458.504 221.500 458.604 229.000 L 458.704 236.500 459.315 243.000 L 459.925 249.500 463.077 274.000 L 466.228 298.500 468.415 315.500 L 470.601 332.500 478.242 332.667 L 485.883 332.835 486.292 330.167 L 486.700 327.500 486.850 330.250 L 487.000 333.000 493.500 333.000 L 500.000 333.000 500.000 312.469 L 500.000 291.937 498.399 291.323 L 496.798 290.709 496.149 291.732 L 495.500 292.755 485.292 293.207 L 475.084 293.659 474.431 290.688 L 473.779 287.717 473.331 281.109 L 472.884 274.500 472.854 272.000 L 472.823 269.500 471.996 268.499 L 471.168 267.498 470.672 261.999 L 470.175 256.500 469.630 255.000 L 469.084 253.500 467.076 239.500 L 465.068 225.500 462.114 200.000 L 459.160 174.500 457.992 163.500 L 456.823 152.500 454.956 134.500 M479.382 121.294 L 478.389 120.963 476.320 124.732 L 474.251 128.500 474.690 129.695 L 475.130 130.889 474.135 132.748 L 473.140 134.608 473.991 135.985 L 474.842 137.362 475.520 133.746 L 476.198 130.130 475.540 129.065 L 474.882 128.000 475.704 128.000 L 476.526 128.000 477.549 125.750 L 478.573 123.500 479.880 123.781 L 481.188 124.063 480.781 122.844 L 480.375 121.625 479.382 121.294 M495.700 132.000 L 496.000 132.000 496.000 134.389 L 496.000 136.778 494.086 139.139 L 492.172 141.500 491.336 140.613 L 490.500 139.726 491.750 139.280 L 493.000 138.833 493.000 136.617 L 493.000 134.400 494.200 133.200 L 495.400 132.000 495.700 132.000 M494.622 151.000 L 496.000 151.000 495.985 154.250 L 495.969 157.500 495.000 156.000 L 494.031 154.500 494.015 155.750 L 494.000 157.000 492.969 157.000 L 491.937 157.000 491.357 155.487 L 490.776 153.975 492.011 152.487 L 493.245 151.000 494.622 151.000 M161.103 216.343 L 164.246 221.087 163.873 221.400 L 163.500 221.712 156.500 223.799 L 149.500 225.886 151.099 224.693 L 152.698 223.500 152.733 222.523 L 152.768 221.545 155.797 220.023 L 158.825 218.500 158.393 215.049 L 157.961 211.598 161.103 216.343 M235.557 222.000 L 236.043 222.000 240.021 224.633 L 244.000 227.266 244.000 227.539 L 244.000 227.813 242.117 227.320 L 240.233 226.828 236.022 229.486 L 231.811 232.144 231.416 231.749 L 231.021 231.354 233.218 228.996 L 235.415 226.638 234.215 226.238 L 233.016 225.839 234.043 223.919 L 235.070 222.000 235.557 222.000 M160.320 251.729 L 158.093 248.957 157.002 250.996 L 155.911 253.035 157.455 255.240 L 159.000 257.445 159.000 259.223 L 159.000 261.000 161.393 261.000 L 163.786 261.000 164.410 259.373 L 165.035 257.747 163.791 256.123 L 162.547 254.500 160.320 251.729 M180.651 266.769 L 179.500 266.400 173.854 271.950 L 168.209 277.500 167.547 278.748 L 166.885 279.996 172.692 276.854 L 178.500 273.712 179.623 272.839 L 180.747 271.965 182.510 272.642 L 184.273 273.319 183.637 271.909 L 183.001 270.500 182.402 268.819 L 181.803 267.138 180.651 266.769 M180.253 286.664 L 179.500 286.206 177.678 288.636 L 175.856 291.067 171.842 302.283 L 167.828 313.500 166.634 320.000 L 165.440 326.500 165.778 328.665 L 166.117 330.831 167.548 331.380 L 168.980 331.929 169.577 329.215 L 170.175 326.500 171.076 324.000 L 171.976 321.500 171.399 325.000 L 170.821 328.500 170.302 330.750 L 169.783 333.000 170.663 333.000 L 171.542 333.000 174.784 315.250 L 178.026 297.500 178.404 294.388 L 178.782 291.276 179.894 289.199 L 181.005 287.121 180.253 286.664 M268.500 294.151 L 267.500 294.239 264.419 295.369 L 261.338 296.500 257.669 299.301 L 254.000 302.102 254.000 303.106 L 254.000 304.110 259.482 300.184 L 264.965 296.258 269.232 296.720 L 273.500 297.181 271.500 295.622 L 269.500 294.064 268.500 294.151 M240.095 303.067 L 239.500 303.134 235.416 304.412 L 231.331 305.691 228.416 307.467 L 225.500 309.244 219.000 316.770 L 212.500 324.296 206.640 328.648 L 200.780 333.000 207.383 333.000 L 213.986 333.000 219.441 325.623 L 224.897 318.246 226.477 316.666 L 228.058 315.085 229.529 315.649 L 231.000 316.214 231.000 313.729 L 231.000 311.245 232.445 310.046 L 233.890 308.846 236.185 309.173 L 238.480 309.500 238.856 311.475 L 239.233 313.450 240.511 314.475 L 241.789 315.500 243.838 320.250 L 245.888 325.000 244.837 325.000 L 243.786 325.000 244.387 326.565 L 244.987 328.131 243.000 327.500 L 241.013 326.869 241.573 328.331 L 242.134 329.792 239.833 331.404 L 237.532 333.016 267.766 332.969 L 298.000 332.923 298.000 331.996 L 298.000 331.070 294.750 327.285 L 291.500 323.501 290.250 322.179 L 289.000 320.857 288.882 322.179 L 288.763 323.500 288.902 324.312 L 289.041 325.123 285.379 324.812 L 281.717 324.500 280.849 322.137 L 279.981 319.774 283.490 320.432 L 287.000 321.091 286.969 319.795 L 286.937 318.500 284.536 316.754 L 282.134 315.008 280.317 314.725 L 278.500 314.442 277.311 313.700 L 276.123 312.958 275.311 314.385 L 274.500 315.813 269.285 316.469 L 264.070 317.126 263.426 314.563 L 262.783 312.000 261.738 312.000 L 260.693 312.000 256.744 316.250 L 252.796 320.500 250.911 322.867 L 249.027 325.235 248.597 323.867 L 248.167 322.500 247.642 318.500 L 247.116 314.500 247.919 310.277 L 248.722 306.054 247.861 306.586 L 247.000 307.118 246.994 309.809 L 246.988 312.500 245.425 309.502 L 243.862 306.504 242.276 304.752 L 240.690 303.000 240.095 303.067 M483.298 304.290 L 490.500 304.296 488.754 304.721 L 487.007 305.145 488.039 307.073 L 489.070 309.000 487.976 309.000 L 486.882 309.000 487.494 309.990 L 488.106 310.980 489.442 309.740 L 490.779 308.500 489.639 307.765 L 488.500 307.031 489.583 307.015 L 490.667 307.000 491.266 307.600 L 491.866 308.200 490.844 310.444 L 489.821 312.688 487.160 312.339 L 484.500 311.989 488.500 313.390 L 492.500 314.790 490.750 314.895 L 489.000 315.000 489.000 316.059 L 489.000 317.118 488.105 316.565 L 487.210 316.011 486.624 317.538 L 486.038 319.064 488.603 320.039 L 491.168 321.014 492.334 320.433 L 493.500 319.852 491.653 321.357 L 489.806 322.863 488.504 322.363 L 487.202 321.864 486.501 322.999 L 485.799 324.134 487.150 323.948 L 488.500 323.763 490.309 323.882 L 492.118 324.000 491.470 325.049 L 490.822 326.097 489.411 324.926 L 488.000 323.755 488.000 324.878 L 488.000 326.000 487.250 325.882 L 486.500 325.763 484.888 325.882 L 483.275 326.000 483.550 328.505 L 483.825 331.010 482.956 330.473 L 482.087 329.936 482.651 328.468 L 483.214 327.000 481.774 327.000 L 480.333 327.000 480.230 325.750 L 480.126 324.500 479.632 321.500 L 479.138 318.500 478.992 318.500 L 478.847 318.500 478.484 316.559 L 478.121 314.618 477.541 312.309 L 476.962 310.000 478.007 310.000 L 479.051 310.000 477.573 307.142 L 476.095 304.283 483.298 304.290 M493.492 310.000 L 494.866 310.000 494.784 312.908 L 494.701 315.815 492.294 316.912 L 489.887 318.009 490.445 318.911 L 491.003 319.813 488.751 319.197 L 486.500 318.581 488.250 318.217 L 490.000 317.853 490.000 316.927 L 490.000 316.000 491.500 316.000 L 493.000 316.000 493.000 315.200 L 493.000 314.400 491.887 313.287 L 490.774 312.174 491.446 311.087 L 492.118 310.000 493.492 310.000 M65.815 315.223 L 66.130 319.302 64.815 320.136 L 63.500 320.969 64.809 320.985 L 66.118 321.000 65.527 321.956 L 64.936 322.913 63.218 322.269 L 61.500 321.626 62.872 323.313 L 64.245 325.000 63.163 325.000 L 62.080 325.000 60.880 320.994 L 59.680 316.987 62.590 314.066 L 65.500 311.144 65.815 315.223 " stroke="#000000" fill="none"/></svg>