<?xml version="1.0" standalone="no"?>
<svg xmlns:xlink="http://www.w3.org/1999/xlink" xmlns="http://www.w3.org/2000/svg" id="workspace"><path d="M6.299 6.250 L 5.213 3.500 5.106 6.183 L 5.000 8.865 3.092 9.471 L 1.185 10.076 0.569 11.681 L -0.047 13.286 0.476 13.810 L 1.000 14.333 1.000 13.167 L 1.000 12.000 3.059 12.000 L 5.118 12.000 4.412 10.750 L 3.707 9.500 5.053 10.750 L 6.400 12.000 7.165 12.000 L 7.930 12.000 8.968 10.061 L 10.005 8.121 8.848 7.406 L 7.691 6.691 8.405 7.845 L 9.118 9.000 8.252 9.000 L 7.386 9.000 6.299 6.250 M1.092 16.271 L 0.061 14.500 0.030 16.250 L 0.000 18.000 1.107 18.000 L 2.214 18.000 1.707 19.322 L 1.200 20.644 2.996 21.765 L 4.792 22.887 6.551 20.944 L 8.310 19.000 7.186 19.000 L 6.063 19.000 6.701 17.336 L 7.340 15.672 6.083 16.449 L 4.826 17.226 5.319 19.113 L 5.813 21.000 4.290 21.000 L 2.767 21.000 3.290 18.999 L 3.813 16.997 2.968 17.520 L 2.123 18.042 1.092 16.271 M1.525 22.000 L 0.000 22.000 0.000 24.107 L 0.000 26.214 1.401 25.676 L 2.803 25.138 3.239 26.819 L 3.674 28.500 3.254 29.750 L 2.833 31.000 1.990 31.000 L 1.147 31.000 0.689 29.250 L 0.232 27.500 0.116 30.750 L 0.000 34.000 1.000 34.000 L 2.000 34.000 2.750 34.000 L 3.500 34.000 3.545 32.750 L 3.591 31.500 4.965 31.806 L 6.339 32.113 5.116 30.640 L 3.894 29.167 5.697 28.700 L 7.500 28.232 5.875 28.116 L 4.250 28.000 3.650 25.000 L 3.050 22.000 1.525 22.000 M6.065 34.429 L 4.240 34.429 2.120 35.836 L -0.000 37.244 -0.000 38.936 L 0.000 40.628 3.167 40.564 L 6.334 40.500 6.797 39.111 L 7.259 37.722 6.332 38.295 L 5.405 38.868 3.952 37.949 L 2.500 37.031 4.128 37.015 L 5.755 37.000 6.822 35.714 L 7.889 34.429 6.065 34.429 M0.711 43.250 L 0.276 41.500 0.120 78.434 L -0.036 115.369 0.351 114.934 L 0.738 114.500 1.324 106.949 L 1.910 99.397 2.381 97.949 L 2.853 96.500 3.559 88.500 L 4.265 80.500 4.534 73.314 L 4.802 66.129 5.242 65.314 L 5.683 64.500 5.915 59.250 L 6.148 54.000 5.085 54.000 L 4.022 54.000 4.231 51.477 L 4.440 48.955 5.914 49.520 L 7.388 50.086 5.525 48.027 L 3.661 45.968 5.482 44.637 L 7.303 43.305 5.997 42.498 L 4.691 41.691 5.405 42.845 L 6.118 44.000 5.059 44.000 L 4.000 44.000 4.000 43.000 L 4.000 42.000 2.893 42.000 L 1.786 42.000 2.362 43.500 L 2.937 45.000 2.042 45.000 L 1.147 45.000 0.711 43.250 M170.479 173.079 L 169.483 172.083 168.152 172.906 L 166.821 173.728 167.021 176.114 L 167.221 178.500 167.111 182.750 L 167.000 187.000 166.129 186.750 L 165.259 186.500 159.752 191.433 L 154.245 196.366 155.106 199.368 L 155.967 202.370 159.233 205.749 L 162.500 209.128 167.750 212.138 L 173.000 215.147 173.000 216.030 L 173.000 216.914 179.937 222.519 L 186.874 228.124 190.951 228.180 L 195.028 228.236 195.484 228.974 L 195.939 229.711 200.720 228.934 L 205.500 228.156 209.500 226.381 L 213.500 224.606 216.500 224.341 L 219.500 224.075 224.725 223.469 L 229.950 222.862 228.840 221.681 L 227.729 220.500 224.226 220.311 L 220.723 220.123 219.661 219.061 L 218.600 218.000 220.550 217.882 L 222.500 217.763 223.491 217.962 L 224.482 218.161 226.491 218.098 L 228.500 218.034 230.805 218.011 L 233.110 217.987 232.481 216.743 L 231.852 215.500 233.426 217.441 L 235.000 219.382 235.000 218.773 L 235.000 218.164 234.393 216.582 L 233.786 215.000 232.393 215.000 L 231.000 215.000 231.000 213.883 L 231.000 212.767 228.500 213.245 L 226.000 213.723 226.000 212.794 L 226.000 211.865 224.000 212.500 L 222.000 213.135 222.000 212.139 L 222.000 211.143 223.436 209.707 L 224.871 208.271 224.186 207.386 L 223.500 206.500 224.450 207.250 L 225.400 208.000 227.127 208.000 L 228.854 208.000 230.411 204.879 L 231.968 201.757 231.425 200.879 L 230.882 200.000 229.882 200.000 L 228.882 200.000 229.500 201.000 L 230.118 202.000 229.000 202.000 L 227.882 202.000 228.595 203.155 L 229.309 204.309 228.138 203.585 L 226.967 202.862 227.500 202.000 L 228.033 201.138 227.165 200.602 L 226.298 200.066 216.779 199.607 L 207.261 199.147 202.910 197.976 L 198.559 196.804 191.104 193.843 L 183.648 190.881 177.824 186.796 L 172.000 182.710 171.862 181.605 L 171.724 180.500 171.600 177.288 L 171.476 174.076 170.479 173.079 M235.759 192.395 L 235.315 190.500 234.157 193.315 L 233.000 196.130 233.000 197.065 L 233.000 198.000 234.066 198.000 L 235.131 198.000 236.948 197.028 L 238.765 196.056 239.371 194.476 L 239.977 192.896 238.989 193.507 L 238.000 194.118 237.985 192.809 L 237.969 191.500 237.086 192.895 L 236.203 194.290 235.759 192.395 M36.278 205.290 L 33.211 205.041 32.158 206.310 L 31.105 207.579 30.154 211.812 L 29.202 216.045 29.101 216.523 L 29.000 217.000 28.950 217.250 L 28.900 217.500 28.538 226.500 L 28.177 235.500 27.258 240.500 L 26.339 245.500 23.174 248.852 L 20.008 252.203 20.658 253.256 L 21.309 254.309 20.235 253.645 L 19.160 252.981 17.091 255.740 L 15.022 258.500 14.211 259.500 L 13.400 260.500 11.450 263.947 L 9.500 267.393 7.500 269.907 L 5.500 272.421 2.750 274.933 L 0.000 277.445 0.000 305.254 L 0.000 333.063 72.000 332.962 L 144.000 332.861 144.000 330.990 L 144.000 329.118 143.000 328.500 L 142.000 327.882 142.000 326.972 L 142.000 326.063 143.399 326.600 L 144.798 327.136 145.458 326.068 L 146.118 325.000 141.809 324.868 L 137.500 324.737 140.915 324.118 L 144.329 323.500 145.484 320.058 L 146.639 316.617 147.292 318.318 L 147.944 320.019 148.722 319.759 L 149.500 319.500 149.750 320.250 L 150.000 321.000 150.000 322.035 L 150.000 323.070 148.000 322.000 L 146.000 320.930 146.000 321.965 L 146.000 323.000 147.615 323.000 L 149.230 323.000 147.592 325.500 L 145.954 328.000 147.536 328.000 L 149.118 328.000 148.565 327.105 L 148.011 326.210 149.515 325.633 L 151.019 325.056 150.759 323.778 L 150.500 322.500 153.250 322.184 L 156.000 321.867 156.000 320.965 L 156.000 320.063 157.481 320.631 L 158.961 321.199 158.767 323.545 L 158.573 325.890 157.297 324.832 L 156.022 323.773 156.512 322.980 L 157.003 322.187 154.986 322.714 L 152.969 323.241 152.384 324.187 L 151.800 325.133 152.454 325.788 L 153.109 326.442 153.943 325.093 L 154.776 323.744 155.969 324.481 L 157.162 325.218 156.543 327.684 L 155.925 330.149 158.212 329.824 L 160.500 329.499 160.361 327.750 L 160.222 326.000 161.504 326.000 L 162.786 326.000 163.337 327.435 L 163.888 328.871 163.194 329.271 L 162.500 329.672 163.718 329.380 L 164.936 329.087 165.527 330.044 L 166.118 331.000 164.892 331.000 L 163.667 331.000 164.309 331.643 L 164.952 332.285 166.487 331.011 L 168.022 329.737 166.261 328.317 L 164.500 326.896 166.667 327.489 L 168.834 328.082 168.307 326.065 L 167.779 324.048 165.890 325.059 L 164.000 326.070 162.000 325.000 L 160.000 323.930 160.000 322.965 L 160.000 322.000 161.417 322.000 L 162.833 322.000 163.253 322.750 L 163.672 323.500 163.404 322.344 L 163.135 321.188 164.896 319.594 L 166.657 318.000 167.888 318.000 L 169.118 318.000 168.544 318.928 L 167.971 319.856 169.893 320.466 L 171.815 321.076 172.401 322.601 L 172.986 324.127 174.105 323.435 L 175.224 322.744 176.096 324.122 L 176.969 325.500 176.985 323.750 L 177.000 322.000 174.941 322.000 L 172.882 322.000 173.663 320.750 L 174.444 319.500 174.634 318.245 L 174.824 316.990 173.896 317.564 L 172.967 318.138 173.543 319.069 L 174.118 320.000 172.559 320.000 L 171.000 320.000 171.118 319.250 L 171.237 318.500 171.118 317.498 L 171.000 316.496 168.070 316.457 L 165.140 316.418 165.725 317.363 L 166.309 318.309 165.106 317.565 L 163.903 316.822 165.038 315.455 L 166.172 314.088 165.432 312.889 L 164.691 311.691 165.847 312.406 L 167.004 313.120 168.002 310.495 L 169.000 307.870 168.985 307.185 L 168.969 306.500 168.000 308.000 L 167.031 309.500 167.015 308.417 L 167.000 307.333 165.467 307.333 L 163.933 307.333 164.928 308.328 L 165.923 309.323 164.282 312.100 L 162.641 314.878 160.792 313.889 L 158.944 312.900 159.531 311.950 L 160.118 311.000 159.673 311.000 L 159.229 311.000 156.490 312.421 L 153.751 313.842 152.439 313.338 L 151.126 312.834 151.670 311.417 L 152.214 310.000 155.298 310.000 L 158.382 310.000 156.447 308.585 L 154.513 307.170 153.994 308.009 L 153.476 308.848 152.371 306.506 L 151.266 304.165 152.883 304.770 L 154.500 305.374 153.128 303.687 L 151.755 302.000 150.255 302.000 L 148.755 302.000 150.019 300.477 L 151.283 298.954 149.641 299.584 L 148.000 300.214 148.000 301.407 L 148.000 302.600 149.250 303.871 L 150.500 305.143 149.000 304.821 L 147.500 304.500 146.773 303.500 L 146.046 302.500 146.590 300.750 L 147.135 299.000 146.151 299.000 L 145.167 299.000 144.662 300.250 L 144.158 301.500 144.079 299.750 L 144.000 298.000 142.906 298.000 L 141.813 298.000 141.284 300.023 L 140.755 302.047 139.466 300.284 L 138.177 298.522 138.648 297.761 L 139.118 297.000 138.059 297.000 L 137.000 297.000 137.000 298.500 L 137.000 300.000 136.031 300.000 L 135.063 300.000 135.701 298.336 L 136.340 296.672 134.920 297.423 L 133.500 298.174 135.506 296.337 L 137.512 294.500 137.098 294.741 L 136.684 294.983 135.155 293.741 L 133.626 292.500 134.324 294.361 L 135.023 296.223 133.562 295.662 L 132.102 295.102 132.615 296.801 L 133.127 298.500 131.519 295.726 L 129.911 292.953 130.610 291.822 L 131.309 290.691 130.155 291.405 L 129.000 292.118 129.000 291.059 L 129.000 290.000 128.062 290.000 L 127.124 290.000 127.273 291.974 L 127.422 293.948 128.711 294.443 L 130.000 294.937 130.000 295.862 L 130.000 296.786 128.551 297.342 L 127.102 297.898 127.658 296.449 L 128.214 295.000 127.214 295.000 L 126.214 295.000 125.604 296.590 L 124.994 298.180 125.566 299.107 L 126.138 300.033 127.069 299.457 L 128.000 298.882 128.000 300.000 L 128.000 301.118 129.016 300.490 L 130.033 299.862 129.515 299.024 L 128.997 298.187 130.966 298.701 L 132.934 299.216 134.217 300.858 L 135.500 302.500 133.750 301.128 L 132.000 299.755 132.000 300.846 L 132.000 301.937 130.500 301.362 L 129.000 300.786 129.000 303.452 L 129.000 306.118 130.170 305.395 L 131.340 304.672 130.701 306.336 L 130.063 308.000 131.781 308.118 L 133.500 308.237 134.373 308.078 L 135.245 307.918 134.686 309.376 L 134.126 310.834 135.499 311.361 L 136.871 311.888 137.316 310.694 L 137.762 309.500 138.856 312.250 L 139.950 315.000 140.444 315.000 L 140.937 315.000 140.362 313.500 L 139.786 312.000 140.643 312.015 L 141.500 312.031 142.784 312.845 L 144.068 313.660 143.469 315.219 L 142.871 316.779 140.685 316.361 L 138.500 315.944 140.648 316.902 L 142.795 317.860 143.455 318.927 L 144.114 319.994 141.328 318.934 L 138.541 317.875 137.786 316.687 L 137.031 315.500 137.015 317.250 L 137.000 319.000 138.059 319.000 L 139.118 319.000 138.561 319.901 L 138.005 320.801 135.065 320.598 L 132.126 320.394 132.569 321.112 L 133.012 321.829 131.756 322.252 L 130.500 322.676 129.317 321.088 L 128.135 319.500 126.867 320.750 L 125.600 322.000 127.269 322.000 L 128.937 322.000 128.354 323.519 L 127.772 325.037 130.386 324.043 L 133.000 323.050 133.000 323.941 L 133.000 324.833 131.750 325.286 L 130.500 325.739 131.758 327.869 L 133.017 330.000 132.258 329.930 L 131.500 329.859 129.500 329.000 L 127.500 328.141 128.750 328.070 L 130.000 328.000 130.000 326.378 L 130.000 324.755 128.476 326.020 L 126.952 327.285 126.309 326.643 L 125.667 326.000 126.802 326.000 L 127.937 326.000 127.362 324.500 L 126.786 323.000 125.963 323.000 L 125.139 323.000 124.707 324.750 L 124.275 326.500 124.499 324.250 L 124.723 322.000 123.978 322.000 L 123.233 322.000 122.684 319.901 L 122.136 317.802 124.067 318.307 L 125.998 318.812 126.558 317.906 L 127.118 317.000 126.470 315.951 L 125.822 314.903 124.411 316.074 L 123.000 317.245 123.015 316.372 L 123.031 315.500 123.904 314.122 L 124.776 312.744 125.897 313.436 L 127.017 314.128 127.873 311.814 L 128.729 309.500 126.806 307.832 L 124.884 306.164 126.192 305.332 L 127.500 304.500 127.650 302.681 L 127.801 300.863 126.319 301.431 L 124.836 302.000 124.450 302.000 L 124.063 302.000 124.638 303.500 L 125.214 305.000 124.107 305.000 L 123.000 305.000 123.000 303.531 L 123.000 302.063 121.250 302.624 L 119.500 303.186 121.906 301.221 L 124.312 299.256 123.668 297.576 L 123.023 295.896 123.907 296.442 L 124.790 296.989 125.364 295.494 L 125.937 294.000 125.160 294.000 L 124.382 294.000 122.441 295.481 L 120.500 296.962 121.857 297.856 L 123.214 298.750 122.107 299.434 L 121.000 300.118 120.872 299.309 L 120.745 298.500 120.509 296.250 L 120.273 294.000 121.196 294.000 L 122.118 294.000 121.648 293.239 L 121.177 292.478 122.628 290.494 L 124.079 288.510 125.024 290.005 L 125.969 291.500 125.985 290.219 L 126.000 288.937 124.500 288.362 L 123.000 287.786 123.000 286.452 L 123.000 285.118 121.923 284.453 L 120.847 283.787 118.923 285.852 L 117.000 287.916 117.000 288.613 L 117.000 289.310 119.000 287.500 L 121.000 285.690 121.077 286.095 L 121.153 286.500 121.487 288.246 L 121.822 289.992 120.957 290.527 L 120.092 291.061 117.660 290.451 L 115.229 289.841 115.627 288.170 L 116.026 286.500 115.013 285.000 L 114.000 283.500 113.125 284.857 L 112.250 286.214 111.566 285.107 L 110.882 284.000 112.048 284.000 L 113.214 284.000 112.638 282.500 L 112.063 281.000 113.281 280.985 L 114.500 280.969 113.216 280.155 L 111.932 279.340 112.571 277.676 L 113.210 276.011 114.259 276.660 L 115.309 277.309 114.429 275.905 L 113.550 274.500 113.838 272.750 L 114.126 271.000 113.313 271.006 L 112.500 271.012 109.750 272.447 L 107.000 273.881 107.000 272.960 L 107.000 272.038 109.493 271.412 L 111.986 270.787 111.591 270.143 L 111.197 269.500 114.010 269.398 L 116.824 269.296 116.238 270.822 L 115.653 272.347 117.260 271.730 L 118.867 271.114 118.800 272.807 L 118.733 274.500 119.561 276.500 L 120.388 278.500 118.623 276.750 L 116.857 275.000 116.320 275.000 L 115.783 275.000 116.422 277.750 L 117.061 280.500 116.046 279.000 L 115.031 277.500 114.939 278.000 L 114.847 278.500 114.512 280.250 L 114.177 282.000 114.684 282.000 L 115.191 282.000 118.096 280.284 L 121.000 278.569 121.000 277.343 L 121.000 276.118 121.907 275.558 L 122.813 274.997 122.233 277.249 L 121.653 279.500 123.169 278.259 L 124.684 277.017 125.218 277.552 L 125.753 278.086 126.326 276.594 L 126.898 275.102 125.275 275.725 L 123.653 276.347 124.285 274.700 L 124.917 273.053 123.208 272.057 L 121.500 271.061 122.821 271.030 L 124.143 271.000 122.643 269.500 L 121.143 268.000 120.512 268.000 L 119.882 268.000 120.500 269.000 L 121.118 270.000 120.118 270.000 L 119.118 270.000 118.648 269.239 L 118.177 268.478 119.589 266.548 L 121.000 264.618 121.000 265.868 L 121.000 267.118 122.000 266.500 L 123.000 265.882 123.000 266.728 L 123.000 267.574 124.902 267.718 L 126.803 267.861 127.323 265.873 L 127.843 263.886 126.171 265.160 L 124.500 266.434 125.215 265.586 L 125.930 264.737 124.930 262.869 L 123.930 261.000 122.965 261.000 L 122.000 261.000 122.000 262.059 L 122.000 263.118 123.000 262.500 L 124.000 261.882 124.000 262.941 L 124.000 264.000 122.750 264.118 L 121.500 264.237 120.250 264.075 L 119.000 263.912 119.000 265.456 L 119.000 267.000 118.059 267.000 L 117.118 267.000 116.498 265.997 L 115.878 264.993 112.939 265.511 L 110.000 266.029 109.985 262.764 L 109.969 259.500 108.964 258.000 L 107.959 256.500 105.980 258.861 L 104.000 261.222 104.000 259.086 L 104.000 256.950 107.021 256.346 L 110.042 255.742 110.685 254.701 L 111.328 253.660 109.553 254.341 L 107.777 255.023 108.389 253.430 L 109.000 251.836 109.015 250.668 L 109.031 249.500 110.000 251.000 L 110.969 252.500 110.985 250.750 L 111.000 249.000 108.941 249.000 L 106.882 249.000 107.457 249.931 L 108.033 250.862 107.016 251.490 L 106.000 252.118 105.875 251.059 L 105.750 250.000 105.625 249.083 L 105.500 248.167 104.819 247.486 L 104.138 246.804 104.759 245.185 L 105.381 243.566 103.789 245.033 L 102.197 246.500 103.105 246.835 L 104.012 247.171 103.465 248.057 L 102.917 248.944 104.500 251.359 L 106.082 253.775 104.461 255.397 L 102.839 257.018 101.861 256.414 L 100.883 255.810 101.521 252.905 L 102.159 250.000 101.301 250.000 L 100.443 250.000 100.670 245.934 L 100.898 241.867 99.699 242.267 L 98.500 242.667 98.457 246.083 L 98.414 249.500 99.347 251.089 L 100.280 252.678 99.289 254.448 L 98.298 256.219 97.660 254.558 L 97.023 252.896 98.141 253.587 L 99.259 254.278 98.755 252.889 L 98.250 251.500 97.050 251.775 L 95.849 252.050 96.492 250.025 L 97.135 248.000 96.067 248.000 L 95.000 248.000 95.000 246.583 L 95.000 245.167 96.250 244.662 L 97.500 244.158 96.250 244.079 L 95.000 244.000 95.000 242.000 L 95.000 240.000 95.787 240.000 L 96.574 240.000 96.727 237.978 L 96.879 235.957 95.939 236.537 L 95.000 237.118 93.893 236.434 L 92.786 235.750 94.143 234.890 L 95.500 234.031 93.215 234.015 L 90.930 234.000 91.947 232.100 L 92.963 230.200 91.418 229.607 L 89.873 229.014 90.511 227.982 L 91.149 226.950 89.824 227.225 L 88.500 227.500 88.813 225.250 L 89.126 223.000 87.504 223.000 L 85.882 223.000 86.510 221.984 L 87.138 220.967 88.069 221.543 L 89.000 222.118 89.000 221.194 L 89.000 220.270 87.170 217.885 L 85.340 215.500 84.748 213.872 L 84.156 212.244 85.142 211.258 L 86.129 210.271 84.493 208.636 L 82.857 207.000 79.897 207.000 L 76.937 207.000 76.362 208.500 L 75.786 210.000 74.143 209.985 L 72.500 209.969 73.872 209.100 L 75.244 208.231 74.857 207.072 L 74.471 205.913 72.342 207.896 L 70.213 209.880 69.554 209.220 L 68.894 208.561 69.602 210.530 L 70.310 212.500 71.278 213.750 L 72.245 215.000 71.179 215.000 L 70.113 215.000 68.598 212.837 L 67.083 210.674 67.511 209.981 L 67.939 209.289 65.470 209.761 L 63.000 210.233 63.000 211.617 L 63.000 213.000 62.000 213.000 L 61.000 213.000 61.000 211.744 L 61.000 210.488 58.250 209.345 L 55.500 208.201 52.500 207.547 L 49.500 206.893 46.655 206.970 L 43.811 207.046 42.521 208.336 L 41.232 209.625 39.135 213.735 L 37.038 217.845 36.622 221.173 L 36.205 224.500 35.476 229.500 L 34.748 234.500 33.751 235.750 L 32.755 237.000 31.858 237.000 L 30.961 237.000 31.375 234.718 L 31.789 232.436 32.476 224.468 L 33.163 216.500 33.519 213.148 L 33.874 209.796 35.589 207.902 L 37.304 206.007 38.814 207.254 L 40.325 208.500 39.836 207.019 L 39.346 205.539 36.278 205.290 M79.250 208.015 L 81.500 208.031 82.992 208.974 L 84.483 209.917 83.274 211.126 L 82.066 212.334 81.408 210.622 L 80.751 208.910 79.318 210.957 L 77.884 213.004 78.597 214.156 L 79.309 215.309 78.155 214.595 L 77.000 213.882 76.921 215.191 L 76.842 216.500 76.318 215.192 L 75.795 213.884 77.552 211.942 L 79.310 210.000 78.155 210.000 L 77.000 210.000 77.000 209.000 L 77.000 208.000 79.250 208.015 M49.389 210.746 L 50.500 211.438 52.750 211.148 L 55.000 210.857 55.000 212.000 L 55.000 213.143 53.522 214.621 L 52.045 216.098 50.602 218.158 L 49.160 220.217 48.124 219.576 L 47.087 218.936 47.656 217.455 L 48.224 215.975 46.970 214.464 L 45.717 212.954 47.609 213.664 L 49.500 214.374 48.259 212.845 L 47.017 211.316 47.648 210.685 L 48.279 210.054 49.389 210.746 M96.766 233.000 L 95.650 233.000 97.575 234.856 L 99.500 236.711 100.849 236.211 L 102.198 235.710 100.887 237.810 L 99.576 239.909 100.305 240.638 L 101.033 241.367 102.217 240.183 L 103.400 239.000 102.141 239.000 L 100.882 239.000 101.510 237.984 L 102.138 236.967 102.855 237.410 L 103.571 237.853 103.571 235.872 L 103.571 233.891 101.347 234.449 L 99.123 235.007 98.502 234.004 L 97.882 233.000 96.766 233.000 M110.944 237.000 L 109.937 237.000 109.386 238.437 L 108.834 239.874 107.417 239.330 L 106.000 238.786 106.000 239.893 L 106.000 241.000 107.080 240.750 L 108.161 240.500 109.702 242.750 L 111.244 245.000 110.122 245.000 L 109.000 245.000 109.000 243.333 L 109.000 241.667 108.409 242.258 L 107.817 242.849 108.460 244.873 L 109.102 246.898 111.066 247.521 L 113.029 248.144 112.456 249.072 L 111.882 250.000 112.879 250.000 L 113.876 250.000 113.724 247.750 L 113.572 245.500 112.194 244.086 L 110.815 242.673 111.383 239.836 L 111.950 237.000 110.944 237.000 M144.593 239.750 L 144.018 238.500 144.653 240.992 L 145.288 243.484 143.690 242.157 L 142.091 240.831 142.947 243.814 L 143.802 246.798 142.651 247.982 L 141.500 249.167 143.000 248.921 L 144.500 248.674 147.132 249.416 L 149.765 250.158 150.815 252.329 L 151.865 254.500 151.948 253.000 L 152.031 251.500 153.000 253.000 L 153.969 254.500 153.985 253.250 L 154.000 252.000 154.861 252.000 L 155.723 252.000 155.233 254.560 L 154.744 257.121 157.810 260.118 L 160.876 263.116 162.688 262.808 L 164.500 262.500 164.361 264.250 L 164.222 266.000 165.361 266.015 L 166.500 266.031 165.000 267.034 L 163.500 268.038 165.350 269.452 L 167.200 270.867 166.631 271.787 L 166.063 272.708 168.531 273.832 L 171.000 274.957 171.115 276.229 L 171.231 277.500 171.463 278.500 L 171.695 279.500 171.848 280.639 L 172.000 281.778 173.712 281.639 L 175.423 281.500 175.807 283.500 L 176.191 285.500 178.751 287.750 L 181.311 290.000 179.906 290.030 L 178.500 290.061 180.260 291.085 L 182.019 292.110 181.590 294.479 L 181.160 296.847 182.467 297.349 L 183.774 297.850 183.318 295.675 L 182.862 293.500 183.969 295.228 L 185.075 296.956 183.287 299.689 L 181.500 302.423 182.759 301.647 L 184.018 300.871 186.078 301.525 L 188.138 302.179 186.413 303.440 L 184.687 304.702 187.750 306.512 L 190.814 308.321 190.261 309.762 L 189.709 311.202 191.104 312.086 L 192.500 312.969 191.179 312.985 L 189.857 313.000 191.414 314.557 L 192.971 316.114 191.238 318.759 L 189.505 321.404 191.305 320.713 L 193.104 320.023 192.388 321.181 L 191.672 322.340 193.253 321.733 L 194.834 321.126 195.417 322.645 L 196.000 324.164 196.000 324.605 L 196.000 325.046 193.500 323.408 L 191.000 321.770 191.000 322.491 L 191.000 323.212 193.468 325.154 L 195.937 327.095 197.229 329.798 L 198.522 332.500 207.761 332.788 L 217.000 333.075 217.000 332.518 L 217.000 331.960 214.677 328.230 L 212.354 324.500 211.518 322.500 L 210.682 320.500 210.841 319.750 L 211.000 319.000 210.143 319.000 L 209.286 319.000 209.286 314.500 L 209.286 310.000 209.893 310.015 L 210.500 310.031 211.520 310.765 L 212.541 311.500 213.976 314.500 L 215.412 317.500 215.456 318.500 L 215.500 319.500 217.267 320.818 L 219.033 322.137 218.458 323.068 L 217.882 324.000 218.772 324.000 L 219.662 324.000 221.081 326.736 L 222.500 329.472 223.972 331.236 L 225.444 333.000 232.722 333.000 L 240.000 333.000 240.000 332.140 L 240.000 331.280 236.500 327.569 L 233.000 323.858 233.000 323.321 L 233.000 322.784 227.500 317.457 L 222.000 312.130 222.000 310.898 L 222.000 309.667 221.338 310.329 L 220.676 310.990 217.405 308.495 L 214.133 306.000 213.008 306.000 L 211.882 306.000 212.440 306.903 L 212.998 307.805 209.837 308.907 L 206.676 310.009 206.171 309.505 L 205.667 309.000 206.956 309.000 L 208.245 309.000 207.009 307.511 L 205.773 306.022 204.902 306.561 L 204.030 307.099 204.640 304.050 L 205.250 301.000 204.305 301.000 L 203.360 301.000 199.930 297.936 L 196.500 294.873 198.250 295.543 L 200.000 296.214 200.000 295.298 L 200.000 294.382 198.532 292.441 L 197.064 290.500 197.032 291.250 L 197.000 292.000 195.000 290.000 L 193.000 288.000 193.000 286.441 L 193.000 284.882 192.000 285.500 L 191.000 286.118 191.000 284.626 L 191.000 283.135 189.000 282.500 L 187.000 281.865 186.882 280.183 L 186.763 278.500 186.847 277.853 L 186.932 277.205 184.797 277.763 L 182.663 278.321 183.300 276.661 L 183.937 275.000 182.719 274.997 L 181.500 274.995 179.500 271.271 L 177.500 267.548 175.161 266.387 L 172.821 265.226 174.161 264.692 L 175.500 264.158 173.500 264.017 L 171.500 263.876 168.264 259.438 L 165.028 255.000 166.264 254.914 L 167.500 254.828 164.631 253.969 L 161.763 253.109 159.245 254.759 L 156.727 256.409 157.863 256.788 L 159.000 257.167 159.000 258.052 L 159.000 258.937 157.500 258.362 L 156.000 257.786 156.000 255.827 L 156.000 253.869 157.035 251.934 L 158.070 250.000 156.535 250.000 L 155.000 250.000 154.985 248.750 L 154.969 247.500 154.000 249.000 L 153.031 250.500 153.015 249.261 L 153.000 248.023 151.278 246.011 L 149.556 244.000 148.431 244.000 L 147.306 244.000 146.331 246.185 L 145.356 248.370 144.709 246.685 L 144.063 245.000 145.031 245.000 L 146.000 245.000 146.000 243.583 L 146.000 242.167 147.250 241.662 L 148.500 241.158 146.833 241.079 L 145.167 241.000 144.593 239.750 M125.426 279.939 L 124.168 278.895 123.465 281.110 L 122.762 283.326 121.831 281.663 L 120.901 280.000 119.911 280.000 L 118.922 280.000 121.006 282.237 L 123.090 284.473 123.907 283.151 L 124.724 281.829 125.612 282.013 L 126.500 282.197 128.250 283.134 L 130.000 284.070 130.000 283.035 L 130.000 282.000 131.750 281.985 L 133.500 281.969 135.000 280.919 L 136.500 279.869 134.125 280.542 L 131.750 281.214 130.890 279.857 L 130.031 278.500 130.015 280.250 L 130.000 282.000 129.000 282.000 L 128.000 282.000 128.000 280.833 L 128.000 279.667 127.342 280.325 L 126.684 280.983 125.426 279.939 M127.904 284.350 L 126.500 283.201 125.250 284.558 L 124.000 285.916 124.000 286.517 L 124.000 287.118 125.000 286.500 L 126.000 285.882 126.000 287.063 L 126.000 288.245 127.687 286.872 L 129.374 285.500 128.731 287.218 L 128.087 288.936 128.841 289.402 L 129.595 289.868 131.048 288.949 L 132.500 288.031 131.250 288.015 L 130.000 288.000 130.000 286.941 L 130.000 285.882 130.931 286.457 L 131.862 287.033 132.540 285.935 L 133.219 284.837 131.263 285.169 L 129.307 285.500 127.904 284.350 M240.765 288.615 L 240.031 287.500 239.939 288.000 L 239.847 288.500 239.478 290.482 L 239.109 292.464 238.063 292.812 L 237.018 293.161 238.438 294.580 L 239.857 296.000 240.536 296.000 L 241.214 296.000 240.658 294.551 L 240.102 293.102 241.330 293.573 L 242.557 294.044 244.466 292.649 L 246.374 291.253 243.937 290.492 L 241.500 289.730 240.765 288.615 M266.009 293.654 L 263.018 292.162 262.332 293.272 L 261.646 294.382 262.823 294.774 L 264.000 295.167 264.000 297.083 L 264.000 299.000 266.167 299.000 L 268.333 299.000 267.720 299.613 L 267.106 300.227 271.134 305.561 L 275.162 310.896 275.379 312.198 L 275.596 313.500 276.898 315.871 L 278.200 318.241 277.050 317.531 L 275.900 316.820 278.421 321.660 L 280.942 326.500 282.215 329.750 L 283.488 333.000 291.399 333.000 L 299.310 333.000 297.561 331.067 L 295.812 329.135 294.406 329.674 L 293.000 330.214 293.000 328.866 L 293.000 327.517 296.473 322.474 L 299.947 317.431 300.306 315.074 L 300.666 312.717 302.583 311.244 L 304.500 309.770 303.000 310.255 L 301.500 310.739 299.707 309.176 L 297.914 307.612 298.564 309.306 L 299.214 311.000 298.107 311.000 L 297.000 311.000 297.250 312.250 L 297.500 313.500 295.750 313.206 L 294.000 312.912 294.000 314.563 L 294.000 316.214 292.583 315.670 L 291.166 315.126 290.583 316.645 L 290.000 318.164 290.000 323.523 L 290.000 328.882 289.250 329.347 L 288.500 329.812 288.683 324.406 L 288.866 319.000 287.816 319.000 L 286.767 319.000 287.290 317.000 L 287.813 315.000 286.406 315.000 L 285.000 315.000 285.000 314.000 L 285.000 313.000 286.039 313.000 L 287.078 313.000 285.289 311.160 L 283.500 309.320 281.727 308.683 L 279.955 308.045 279.357 306.489 L 278.760 304.932 276.157 301.966 L 273.555 299.000 272.170 299.000 L 270.786 299.000 271.342 297.551 L 271.898 296.102 270.449 296.658 L 269.000 297.214 269.000 296.180 L 269.000 295.146 266.009 293.654 M245.963 293.629 L 245.483 293.150 243.742 294.125 L 242.000 295.099 242.000 297.443 L 242.000 299.786 243.582 300.393 L 245.164 301.000 246.141 301.000 L 247.118 301.000 246.405 299.845 L 245.691 298.691 246.776 299.362 L 247.862 300.033 248.490 299.016 L 249.118 298.000 247.809 297.985 L 246.500 297.969 245.000 296.985 L 243.500 296.000 244.971 295.054 L 246.442 294.109 245.963 293.629 " stroke="#000000" fill="none"/><path d="M10.603 -0.000 L 0.000 0.000 -0.000 110.667 L -0.000 221.333 0.465 220.868 L 0.930 220.404 1.401 209.952 L 1.873 199.500 2.962 189.000 L 4.052 178.500 4.546 174.500 L 5.040 170.500 5.521 167.000 L 6.001 163.500 6.970 153.000 L 7.940 142.500 9.510 127.031 L 11.081 111.561 11.483 108.531 L 11.886 105.500 13.024 91.500 L 14.162 77.500 14.631 75.000 L 15.099 72.500 15.499 65.500 L 15.900 58.500 16.423 54.500 L 16.945 50.500 17.459 45.000 L 17.973 39.500 19.075 27.500 L 20.177 15.500 21.211 14.250 L 22.245 13.000 21.332 13.000 L 20.419 13.000 20.813 6.500 L 21.207 -0.000 10.603 -0.000 M232.500 53.665 L 223.500 53.144 216.500 54.086 L 209.500 55.029 206.000 56.165 L 202.500 57.302 196.015 60.389 L 189.531 63.477 183.405 69.488 L 177.280 75.500 174.756 80.500 L 172.233 85.500 170.309 92.000 L 168.384 98.500 168.608 103.655 L 168.832 108.811 166.928 109.309 L 165.024 109.806 163.905 112.653 L 162.787 115.500 163.371 126.500 L 163.956 137.500 166.396 139.500 L 168.837 141.500 168.329 148.000 L 167.822 154.500 170.411 159.303 L 173.000 164.106 173.000 167.084 L 173.000 170.063 171.750 170.448 L 170.500 170.833 167.750 171.436 L 165.000 172.038 165.000 173.684 L 165.000 175.329 161.625 182.414 L 158.251 189.500 156.375 191.122 L 154.500 192.744 148.000 193.937 L 141.500 195.129 113.000 195.481 L 84.500 195.833 80.000 197.337 L 75.500 198.841 70.255 201.420 L 65.010 204.000 63.564 204.000 L 62.118 204.000 61.421 205.128 L 60.724 206.256 54.612 205.521 L 48.500 204.787 45.500 204.455 L 42.500 204.123 38.500 203.261 L 34.500 202.399 33.000 202.762 L 31.500 203.125 29.229 206.663 L 26.959 210.200 27.051 221.850 L 27.143 233.500 26.648 235.500 L 26.153 237.500 25.978 238.000 L 25.803 238.500 25.651 240.648 L 25.500 242.796 21.195 247.398 L 16.890 252.000 15.976 252.000 L 15.063 252.000 15.600 253.399 L 16.136 254.798 15.209 255.371 L 14.281 255.944 14.553 253.472 L 14.824 251.000 13.551 251.000 L 12.277 251.000 12.752 253.483 L 13.227 255.967 12.636 257.506 L 12.045 259.045 9.905 256.905 L 7.764 254.764 9.132 253.897 L 10.500 253.031 9.250 253.015 L 8.000 253.000 8.000 251.500 L 8.000 250.000 6.441 250.000 L 4.882 250.000 5.510 248.984 L 6.138 247.967 7.069 248.543 L 8.000 249.118 8.000 248.142 L 8.000 247.167 6.830 246.777 L 5.661 246.387 7.216 243.269 L 8.772 240.150 7.386 240.682 L 6.000 241.214 5.968 242.857 L 5.936 244.500 4.520 246.370 L 3.104 248.240 1.704 244.870 L 0.305 241.500 0.189 246.250 L 0.073 251.000 1.036 251.000 L 2.000 251.000 2.000 252.059 L 2.000 253.118 1.000 252.500 L 0.000 251.882 0.000 253.406 L 0.000 254.930 1.939 255.968 L 3.879 257.005 4.552 255.916 L 5.226 254.826 4.113 253.713 L 3.000 252.600 3.081 250.550 L 3.162 248.500 4.331 251.089 L 5.500 253.679 7.000 253.263 L 8.500 252.848 7.104 253.823 L 5.709 254.798 6.266 256.252 L 6.824 257.706 4.469 257.447 L 2.114 257.189 1.093 256.558 L 0.072 255.927 0.024 294.463 L -0.024 333.000 176.397 333.000 L 352.819 333.000 350.791 328.750 L 348.764 324.500 345.427 319.810 L 342.089 315.119 338.933 308.810 L 335.777 302.500 332.513 297.000 L 329.248 291.500 328.009 287.500 L 326.770 283.500 321.933 273.369 L 317.097 263.239 312.798 259.542 L 308.500 255.845 302.000 252.260 L 295.500 248.674 289.345 244.355 L 283.191 240.035 274.345 235.250 L 265.500 230.465 264.902 222.451 L 264.304 214.436 263.064 212.119 L 261.824 209.802 258.162 210.343 L 254.500 210.883 247.750 211.441 L 241.000 211.999 241.000 209.947 L 241.000 207.895 242.567 201.006 L 244.133 194.118 243.105 192.196 L 242.076 190.274 238.945 188.977 L 235.814 187.680 236.382 184.840 L 236.950 181.999 242.765 176.249 L 248.581 170.500 249.971 166.189 L 251.361 161.877 253.090 160.952 L 254.820 160.026 254.279 157.959 L 253.739 155.892 255.992 153.793 L 258.246 151.693 260.710 146.121 L 263.174 140.549 263.475 134.442 L 263.775 128.335 265.548 124.917 L 267.321 121.500 267.630 119.500 L 267.939 117.500 269.134 110.334 L 270.329 103.169 268.701 96.834 L 267.074 90.500 266.376 88.081 L 265.679 85.663 267.339 86.300 L 269.000 86.937 269.000 86.363 L 269.000 85.789 266.459 82.769 L 263.918 79.749 264.435 79.232 L 264.952 78.715 266.384 79.903 L 267.816 81.092 269.493 84.627 L 271.171 88.162 271.659 87.674 L 272.147 87.186 270.610 84.212 L 269.072 81.238 265.786 78.656 L 262.500 76.073 260.714 74.500 L 258.927 72.927 259.618 71.809 L 260.309 70.691 259.259 71.340 L 258.210 71.989 257.636 70.494 L 257.063 69.000 258.031 69.000 L 259.000 69.000 259.000 67.000 L 259.000 65.000 258.232 65.000 L 257.463 65.000 252.482 60.860 L 247.500 56.721 244.500 55.453 L 241.500 54.186 232.500 53.665 M219.971 84.750 L 220.442 85.109 219.086 85.947 L 217.730 86.785 219.615 87.767 L 221.500 88.750 231.587 89.215 L 241.673 89.680 243.069 90.543 L 244.465 91.405 246.232 91.536 L 247.999 91.666 248.477 92.144 L 248.955 92.621 249.310 94.952 L 249.666 97.283 251.333 98.502 L 253.000 99.721 252.397 104.110 L 251.794 108.500 248.897 108.710 L 246.000 108.919 246.000 108.060 L 246.000 107.201 241.750 106.682 L 237.500 106.162 234.000 105.581 L 230.500 105.000 229.315 104.556 L 228.129 104.112 227.728 105.306 L 227.327 106.500 224.414 105.173 L 221.500 103.845 216.749 101.423 L 211.999 99.000 208.904 99.000 L 205.809 99.000 202.976 97.326 L 200.143 95.653 199.585 93.576 L 199.027 91.500 199.014 90.250 L 199.000 89.000 200.250 89.250 L 201.500 89.500 201.186 87.662 L 200.872 85.825 203.186 86.547 L 205.500 87.270 206.174 88.320 L 206.848 89.371 208.347 88.127 L 209.846 86.883 214.673 85.637 L 219.500 84.392 219.971 84.750 M222.199 111.000 L 222.954 111.000 224.501 113.361 L 226.048 115.722 225.594 120.361 L 225.139 125.000 227.873 125.000 L 230.606 125.000 234.766 128.059 L 238.926 131.118 241.949 131.985 L 244.973 132.853 245.574 131.881 L 246.174 130.909 250.920 131.126 L 255.667 131.342 255.667 132.671 L 255.667 134.000 255.034 134.000 L 254.402 134.000 254.810 137.500 L 255.219 141.000 252.332 141.000 L 249.445 141.000 247.057 142.673 L 244.668 144.346 245.393 143.173 L 246.118 142.000 245.059 142.000 L 244.000 142.000 244.000 143.437 L 244.000 144.874 240.250 144.284 L 236.500 143.694 234.115 141.847 L 231.730 140.000 232.400 140.000 L 233.070 140.000 231.881 137.779 L 230.693 135.557 230.816 132.279 L 230.939 129.000 228.911 129.000 L 226.882 129.000 227.595 127.845 L 228.309 126.691 227.248 127.346 L 226.188 128.002 226.532 129.751 L 226.875 131.500 227.366 135.198 L 227.857 138.896 225.350 137.943 L 222.842 136.990 220.462 137.421 L 218.082 137.853 215.514 135.832 L 212.945 133.811 213.617 130.156 L 214.288 126.500 214.945 126.000 L 215.602 125.500 216.773 120.294 L 217.945 115.088 219.695 113.044 L 221.444 111.000 222.199 111.000 M185.207 116.000 L 186.081 116.000 189.123 118.250 L 192.165 120.500 197.832 120.500 L 203.500 120.500 207.142 119.874 L 210.785 119.249 211.931 119.957 L 213.078 120.666 212.041 123.393 L 211.004 126.120 209.958 125.474 L 208.913 124.828 206.207 127.791 L 203.500 130.753 200.148 132.351 L 196.795 133.949 193.799 130.953 L 190.803 127.957 191.370 126.478 L 191.937 125.000 190.492 125.000 L 189.046 125.000 187.408 122.500 L 185.770 120.000 184.385 120.000 L 183.000 120.000 183.000 118.667 L 183.000 117.333 183.667 116.667 L 184.333 116.000 185.207 116.000 M201.101 167.000 L 202.869 167.000 209.708 168.439 L 216.547 169.877 219.333 170.937 L 222.120 171.996 221.575 172.879 L 221.030 173.761 218.283 174.286 L 215.536 174.811 212.718 173.354 L 209.900 171.897 207.831 172.554 L 205.762 173.210 203.131 171.855 L 200.500 170.500 199.298 169.369 L 198.095 168.238 198.714 167.619 L 199.333 167.000 201.101 167.000 " stroke="#000000" fill="none"/><path d="M76.166 0.019 L 0.000 -0.035 0.000 166.482 L 0.000 333.000 176.567 333.000 L 353.134 333.000 349.751 326.750 L 346.367 320.500 343.324 315.500 L 340.280 310.500 334.812 300.500 L 329.344 290.500 326.540 283.000 L 323.736 275.500 320.701 269.697 L 317.665 263.895 312.474 259.197 L 307.282 254.500 302.391 252.000 L 297.500 249.500 288.078 243.177 L 278.655 236.855 272.901 233.950 L 267.146 231.045 266.332 229.772 L 265.518 228.500 265.465 222.500 L 265.411 216.500 263.926 213.500 L 262.441 210.500 252.087 210.862 L 241.734 211.224 242.440 205.362 L 243.147 199.500 243.323 195.532 L 243.500 191.564 240.233 189.532 L 236.965 187.500 237.491 184.500 L 238.018 181.500 242.453 177.500 L 246.889 173.500 248.941 170.000 L 250.993 166.500 250.996 164.773 L 251.000 163.046 253.500 161.408 L 256.000 159.770 256.012 158.135 L 256.024 156.500 258.364 152.408 L 260.704 148.317 262.352 143.480 L 264.000 138.644 264.000 133.772 L 264.000 128.901 265.386 126.200 L 266.773 123.500 268.386 117.169 L 270.000 110.838 269.984 104.669 L 269.969 98.500 268.624 92.788 L 267.280 87.075 269.793 89.052 L 272.305 91.028 272.814 90.519 L 273.323 90.010 271.984 85.953 L 270.646 81.896 267.288 78.948 L 263.930 76.000 263.082 76.000 L 262.233 76.000 261.516 73.750 L 260.799 71.500 260.949 69.414 L 261.100 67.328 255.800 62.828 L 250.500 58.328 247.772 56.563 L 245.044 54.799 236.175 53.474 L 227.305 52.149 220.153 53.047 L 213.001 53.945 207.244 55.437 L 201.487 56.929 195.494 60.120 L 189.500 63.311 185.321 66.664 L 181.142 70.018 176.734 76.759 L 172.325 83.500 170.061 90.370 L 167.797 97.241 167.553 99.466 L 167.309 101.691 166.500 103.000 L 165.691 104.309 166.845 103.595 L 168.000 102.882 168.000 104.382 L 168.000 105.882 166.893 106.566 L 165.786 107.250 167.143 108.110 L 168.500 108.969 166.725 108.985 L 164.950 109.000 163.930 111.684 L 162.910 114.368 163.076 124.790 L 163.242 135.211 163.705 136.982 L 164.168 138.752 166.334 139.911 L 168.500 141.070 168.500 149.285 L 168.500 157.500 170.745 160.648 L 172.991 163.796 172.360 166.950 L 171.729 170.104 168.731 170.704 L 165.733 171.303 165.225 173.248 L 164.717 175.192 161.014 182.846 L 157.312 190.500 155.906 191.619 L 154.500 192.738 149.768 193.244 L 145.036 193.750 145.665 192.625 L 146.293 191.500 144.947 192.750 L 143.600 194.000 142.229 194.000 L 140.857 194.000 139.476 192.619 L 138.095 191.238 138.706 190.628 L 139.316 190.017 140.908 191.241 L 142.500 192.466 140.616 190.256 L 138.733 188.047 137.616 188.695 L 136.500 189.344 138.315 187.271 L 140.130 185.199 139.146 184.590 L 138.161 183.982 136.533 185.610 L 134.905 187.238 134.204 186.537 L 133.503 185.836 135.281 184.537 L 137.059 183.237 135.529 182.650 L 134.000 182.063 134.000 180.531 L 134.000 179.000 132.929 179.000 L 131.857 179.000 133.429 177.429 L 135.000 175.857 135.000 174.429 L 135.000 173.000 133.875 173.250 L 132.750 173.500 132.335 172.381 L 131.921 171.262 134.475 171.750 L 137.029 172.239 136.375 170.535 L 135.722 168.832 134.937 170.102 L 134.152 171.371 132.587 170.072 L 131.022 168.773 131.527 167.956 L 132.033 167.138 130.865 166.416 L 129.697 165.695 131.099 164.577 L 132.500 163.460 133.819 161.133 L 135.139 158.805 134.569 158.236 L 134.000 157.667 134.000 159.033 L 134.000 160.400 133.073 159.450 L 132.145 158.500 131.664 155.000 L 131.183 151.500 131.092 151.059 L 131.000 150.618 129.445 152.559 L 127.890 154.500 128.948 152.311 L 130.005 150.121 129.091 149.556 L 128.177 148.991 128.457 146.439 L 128.737 143.887 127.369 144.412 L 126.000 144.937 126.000 143.969 L 126.000 143.000 127.000 143.000 L 128.000 143.000 128.000 142.094 L 128.000 141.187 125.880 141.742 L 123.760 142.296 125.495 139.648 L 127.230 137.000 126.115 137.000 L 125.000 137.000 125.000 133.617 L 125.000 130.233 123.065 129.727 L 121.129 129.221 121.652 127.223 L 122.174 125.226 121.131 124.581 L 120.087 123.936 120.651 122.468 L 121.214 121.000 122.174 121.000 L 123.135 121.000 122.500 123.000 L 121.865 125.000 122.992 125.000 L 124.118 125.000 123.500 126.000 L 122.882 127.000 123.916 127.000 L 124.950 127.000 124.371 124.104 L 123.792 121.208 125.896 119.104 L 128.000 117.000 128.000 116.300 L 128.000 115.600 126.800 116.800 L 125.600 118.000 124.050 117.985 L 122.500 117.969 124.000 116.980 L 125.500 115.990 122.471 116.191 L 119.443 116.392 118.265 115.664 L 117.087 114.936 117.641 113.494 L 118.194 112.051 119.654 113.511 L 121.114 114.971 123.557 113.371 L 126.000 111.770 126.000 111.552 L 126.000 111.333 124.500 111.333 L 123.000 111.333 123.000 112.226 L 123.000 113.118 122.064 112.539 L 121.127 111.961 121.276 109.980 L 121.426 108.000 122.463 107.882 L 123.500 107.763 124.250 107.882 L 125.000 108.000 125.000 107.000 L 125.000 106.000 123.559 106.000 L 122.118 106.000 121.500 107.000 L 120.882 108.000 119.972 108.000 L 119.063 108.000 119.638 106.500 L 120.214 105.000 121.440 105.000 L 122.667 105.000 122.667 102.085 L 122.667 99.169 120.083 98.068 L 117.500 96.967 119.319 98.394 L 121.138 99.821 119.054 100.483 L 116.971 101.144 117.544 102.072 L 118.118 103.000 116.559 103.000 L 115.000 103.000 115.000 102.107 L 115.000 101.214 116.422 100.668 L 117.845 100.122 117.290 98.002 L 116.736 95.882 118.868 95.324 L 121.000 94.767 121.000 93.767 L 121.000 92.767 119.000 93.290 L 117.000 93.813 117.000 92.406 L 117.000 91.000 115.500 91.000 L 114.000 91.000 114.000 90.031 L 114.000 89.063 115.750 89.607 L 117.500 90.151 115.675 88.984 L 113.850 87.817 113.213 88.454 L 112.576 89.091 113.796 91.045 L 115.017 93.000 114.067 93.000 L 113.118 93.000 112.382 91.810 L 111.647 90.620 111.431 87.388 L 111.215 84.157 110.443 82.909 L 109.672 81.660 111.420 82.331 L 113.167 83.001 112.730 81.751 L 112.293 80.500 110.396 80.792 L 108.500 81.083 110.000 80.057 L 111.500 79.031 110.711 79.015 L 109.921 79.000 111.182 77.650 L 112.443 76.300 113.857 77.714 L 115.271 79.129 116.039 78.314 L 116.806 77.500 117.167 75.500 L 117.527 73.500 118.680 73.500 L 119.833 73.500 120.524 72.809 L 121.215 72.118 117.933 72.534 L 114.651 72.949 113.625 73.975 L 112.600 75.000 111.633 75.000 L 110.667 75.000 111.336 74.331 L 112.004 73.662 110.308 71.788 L 108.612 69.914 110.306 70.564 L 112.000 71.214 112.000 71.968 L 112.000 72.723 114.488 72.247 L 116.977 71.771 116.513 71.021 L 116.050 70.271 118.775 70.244 L 121.500 70.216 122.372 70.108 L 123.245 70.000 122.008 68.510 L 120.772 67.020 123.136 66.073 L 125.500 65.127 123.867 65.063 L 122.233 65.000 121.676 62.870 L 121.119 60.740 119.657 61.301 L 118.194 61.863 116.347 60.357 L 114.500 58.852 115.665 59.432 L 116.829 60.012 117.338 58.756 L 117.848 57.500 118.754 58.784 L 119.660 60.068 121.494 59.364 L 123.328 58.660 122.670 59.725 L 122.011 60.790 123.474 61.352 L 124.936 61.913 125.622 60.802 L 126.309 59.691 126.567 57.341 L 126.825 54.990 125.956 55.527 L 125.087 56.064 125.651 57.532 L 126.214 59.000 124.718 59.000 L 123.223 59.000 122.487 55.250 L 121.751 51.500 121.508 47.750 L 121.265 44.000 122.127 44.000 L 122.990 44.000 125.123 48.538 L 127.256 53.077 127.702 52.631 L 128.147 52.186 126.548 49.093 L 124.949 46.000 125.912 46.000 L 126.876 46.000 126.727 44.026 L 126.578 42.052 125.199 41.523 L 123.820 40.994 122.910 41.556 L 122.000 42.118 122.000 41.059 L 122.000 40.000 123.566 40.000 L 125.131 40.000 127.066 41.035 L 129.000 42.070 129.000 41.035 L 129.000 40.000 128.000 40.000 L 127.000 40.000 127.150 36.250 L 127.300 32.500 127.693 35.006 L 128.086 37.513 131.043 39.210 L 134.000 40.907 134.000 39.523 L 134.000 38.139 131.828 37.820 L 129.657 37.500 129.222 36.182 L 128.788 34.864 130.644 35.182 L 132.500 35.500 132.846 33.048 L 133.192 30.596 131.596 31.920 L 130.000 33.245 129.923 32.872 L 129.847 32.500 129.513 30.754 L 129.178 29.008 130.244 28.349 L 131.309 27.691 130.666 28.731 L 130.023 29.771 132.512 30.247 L 135.000 30.723 135.000 30.102 L 135.000 29.481 133.000 28.232 L 131.000 26.983 131.000 25.933 L 131.000 24.882 132.250 25.663 L 133.500 26.444 134.847 26.648 L 136.194 26.852 135.670 24.847 L 135.146 22.842 136.522 23.370 L 137.898 23.898 137.344 22.455 L 136.790 21.011 135.645 21.666 L 134.500 22.321 135.207 21.536 L 135.915 20.752 133.707 18.909 L 131.500 17.067 132.321 17.033 L 133.143 17.000 134.537 18.250 L 135.931 19.500 137.428 20.754 L 138.925 22.009 140.048 19.910 L 141.172 17.811 139.169 18.446 L 137.166 19.082 137.647 17.242 L 138.128 15.401 140.169 14.127 L 142.209 12.852 141.710 13.676 L 141.210 14.500 142.557 15.745 L 143.905 16.990 143.811 14.745 L 143.717 12.500 143.859 11.388 L 144.000 10.275 146.500 10.549 L 149.000 10.824 149.000 9.985 L 149.000 9.147 150.534 8.823 L 152.067 8.500 150.071 7.265 L 148.074 6.029 148.644 7.515 L 149.214 9.000 147.068 9.000 L 144.922 9.000 147.087 6.750 L 149.252 4.500 149.707 5.742 L 150.161 6.984 152.000 6.000 L 153.839 5.016 154.340 6.258 L 154.842 7.500 154.889 5.500 L 154.936 3.500 153.635 1.786 L 152.333 0.073 76.166 0.019 M158.786 0.190 L 154.000 -0.101 154.000 1.009 L 154.000 2.118 155.000 1.500 L 156.000 0.882 156.000 3.556 L 156.000 6.230 158.465 4.615 L 160.930 3.000 161.524 3.000 L 162.118 3.000 161.507 3.989 L 160.896 4.977 162.234 4.464 L 163.571 3.950 163.571 2.215 L 163.571 0.480 158.786 0.190 M489.690 -0.000 L 488.770 -0.000 489.366 5.250 L 489.963 10.500 490.499 16.000 L 491.035 21.500 493.544 49.500 L 496.054 77.500 496.569 84.000 L 497.085 90.500 497.511 93.500 L 497.938 96.500 498.595 105.500 L 499.253 114.500 499.627 114.917 L 500.000 115.333 500.000 109.865 L 500.000 104.396 498.011 82.448 L 496.022 60.500 495.583 56.000 L 495.144 51.500 492.878 25.750 L 490.611 0.000 489.690 -0.000 M219.066 90.500 L 222.441 93.500 223.777 95.250 L 225.113 97.000 226.057 97.000 L 227.000 97.000 226.882 96.250 L 226.763 95.500 226.897 94.500 L 227.031 93.500 228.000 95.000 L 228.969 96.500 228.985 94.357 L 229.000 92.214 230.552 91.618 L 232.104 91.023 231.360 92.261 L 230.616 93.500 232.296 92.137 L 233.976 90.775 234.607 92.417 L 235.237 94.060 237.038 93.488 L 238.839 92.916 239.442 94.817 L 240.045 96.718 239.416 98.359 L 238.786 100.000 236.393 100.125 L 234.000 100.250 232.750 100.402 L 231.500 100.554 229.000 99.283 L 226.500 98.012 225.250 98.006 L 224.000 98.000 224.000 96.878 L 224.000 95.755 222.750 96.689 L 221.500 97.623 220.479 97.561 L 219.457 97.500 216.479 95.168 L 213.500 92.837 215.500 93.421 L 217.500 94.005 215.597 92.530 L 213.693 91.055 215.341 90.423 L 216.989 89.790 216.340 88.645 L 215.691 87.500 219.066 90.500 M221.801 116.000 L 222.666 116.000 222.416 118.250 L 222.167 120.500 222.083 122.750 L 222.000 125.000 220.525 125.000 L 219.050 125.000 219.612 121.750 L 220.173 118.500 220.555 117.250 L 220.937 116.000 221.801 116.000 M220.613 127.094 L 222.095 128.323 220.989 129.007 L 219.884 129.690 220.550 132.345 L 221.217 135.000 219.667 135.000 L 218.118 135.000 217.597 134.156 L 217.075 133.312 218.103 129.588 L 219.131 125.864 220.613 127.094 M498.941 158.000 L 497.882 158.000 498.500 159.000 L 499.118 160.000 497.809 160.015 L 496.500 160.031 497.561 160.765 L 498.623 161.500 498.597 163.677 L 498.571 165.853 498.036 165.522 L 497.500 165.191 497.652 170.845 L 497.804 176.500 498.529 185.500 L 499.253 194.500 499.627 194.917 L 500.000 195.333 500.000 176.667 L 500.000 158.000 498.941 158.000 " stroke="#000000" fill="none"/><path d="M8.906 -0.000 L 0.000 0.000 0.000 85.667 L 0.000 171.333 0.522 170.812 L 1.044 170.290 1.546 162.895 L 2.049 155.500 2.612 151.500 L 3.175 147.500 3.588 141.153 L 4.002 134.806 4.419 134.130 L 4.837 133.455 5.531 124.477 L 6.226 115.500 6.668 113.500 L 7.111 111.500 7.745 105.000 L 8.379 98.500 8.360 94.797 L 8.342 91.093 8.984 91.490 L 9.627 91.887 9.779 84.694 L 9.930 77.500 11.012 69.595 L 12.095 61.689 11.559 60.293 L 11.023 58.896 12.119 59.573 L 13.214 60.250 12.612 58.352 L 12.009 56.454 12.935 53.227 L 13.860 50.000 12.680 49.985 L 11.500 49.969 12.732 49.187 L 13.963 48.405 13.543 46.223 L 13.123 44.042 13.938 43.539 L 14.752 43.035 14.487 38.768 L 14.223 34.500 15.234 33.250 L 16.245 32.000 15.014 32.000 L 13.783 32.000 14.539 29.250 L 15.295 26.500 15.668 23.500 L 16.040 20.500 16.402 13.132 L 16.763 5.764 18.132 4.897 L 19.500 4.031 18.133 4.015 L 16.767 4.000 17.290 2.000 L 17.813 -0.000 8.906 -0.000 M232.995 53.716 L 225.500 53.151 216.500 54.421 L 207.500 55.691 199.593 59.004 L 191.685 62.318 186.682 66.409 L 181.679 70.500 177.846 76.000 L 174.013 81.500 171.506 89.302 L 169.000 97.103 169.000 102.984 L 169.000 108.865 167.002 109.499 L 165.005 110.133 164.252 112.817 L 163.500 115.500 163.560 124.169 L 163.620 132.838 164.933 134.419 L 166.245 136.000 164.935 136.000 L 163.626 136.000 166.317 138.809 L 169.009 141.619 168.422 147.559 L 167.835 153.500 170.413 158.500 L 172.992 163.500 172.996 167.187 L 173.000 170.873 169.851 171.187 L 166.702 171.500 165.948 173.000 L 165.194 174.500 162.347 181.226 L 159.500 187.953 157.441 190.606 L 155.382 193.259 150.441 194.102 L 145.500 194.945 117.000 195.542 L 88.500 196.138 83.500 197.104 L 78.500 198.071 74.000 200.393 L 69.500 202.716 65.500 204.003 L 61.500 205.290 60.870 206.261 L 60.239 207.231 49.188 205.616 L 38.136 204.000 35.150 204.000 L 32.163 204.000 29.832 207.750 L 27.500 211.500 27.729 220.000 L 27.959 228.500 26.886 236.000 L 25.813 243.500 20.077 250.500 L 14.341 257.500 9.160 265.220 L 3.979 272.941 1.989 274.006 L 0.000 275.070 0.000 304.035 L 0.000 333.000 176.000 333.000 L 352.000 333.000 352.000 332.331 L 352.000 331.662 348.939 326.238 L 345.878 320.815 342.939 316.757 L 340.000 312.700 340.000 311.664 L 340.000 310.627 334.599 301.064 L 329.198 291.500 325.544 282.000 L 321.890 272.500 319.272 268.000 L 316.654 263.500 313.077 260.176 L 309.500 256.852 303.000 253.226 L 296.500 249.600 291.130 246.050 L 285.760 242.500 279.130 238.278 L 272.500 234.055 271.385 234.028 L 270.270 234.000 267.776 232.039 L 265.283 230.077 264.584 222.366 L 263.885 214.654 262.880 212.776 L 261.875 210.897 251.437 211.571 L 241.000 212.244 241.012 208.872 L 241.024 205.500 242.480 200.026 L 243.937 194.553 242.487 192.340 L 241.037 190.127 238.343 188.813 L 235.648 187.500 235.474 185.014 L 235.299 182.528 241.044 177.219 L 246.789 171.910 246.221 169.705 L 245.653 167.500 244.076 166.248 L 242.500 164.995 244.250 165.605 L 246.000 166.214 246.000 164.666 L 246.000 163.118 245.069 162.543 L 244.138 161.967 243.500 163.000 L 242.862 164.033 241.776 163.362 L 240.691 162.691 241.474 163.957 L 242.256 165.224 240.878 166.096 L 239.500 166.969 237.500 167.002 L 235.500 167.035 233.136 169.527 L 230.772 172.019 231.308 174.071 L 231.845 176.122 230.172 176.713 L 228.500 177.304 226.878 178.692 L 225.255 180.079 218.378 178.995 L 211.500 177.911 208.801 177.450 L 206.103 176.990 203.649 176.056 L 201.194 175.123 200.528 174.045 L 199.862 172.967 198.924 173.547 L 197.986 174.127 197.388 172.569 L 196.790 171.011 196.134 171.417 L 195.478 171.823 193.610 170.457 L 191.743 169.091 192.263 167.103 L 192.783 165.114 190.924 163.431 L 189.064 161.748 190.041 159.923 L 191.018 158.098 188.269 155.549 L 185.520 153.000 186.542 153.000 L 187.564 153.000 187.785 150.331 L 188.006 147.663 189.456 146.081 L 190.907 144.500 192.833 142.370 L 194.759 140.241 190.932 138.978 L 187.104 137.714 186.549 136.267 L 185.994 134.820 186.556 133.910 L 187.118 133.000 186.078 133.000 L 185.038 133.000 184.411 130.500 L 183.783 128.000 182.275 128.000 L 180.767 128.000 181.218 125.638 L 181.670 123.275 179.995 122.229 L 178.320 121.183 178.775 118.079 L 179.231 114.976 180.115 114.429 L 181.000 113.882 181.000 111.941 L 181.000 110.000 181.686 110.000 L 182.371 110.000 184.436 111.882 L 186.500 113.764 191.492 116.382 L 196.484 119.000 199.492 118.930 L 202.500 118.859 200.500 118.031 L 198.500 117.202 206.110 117.735 L 213.720 118.267 217.020 113.471 L 220.320 108.675 217.280 105.959 L 214.241 103.243 207.370 100.992 L 200.500 98.741 198.849 97.306 L 197.199 95.870 196.540 96.935 L 195.882 98.000 193.641 98.000 L 191.400 98.000 190.200 99.200 L 189.000 100.400 189.000 99.141 L 189.000 97.882 187.913 98.554 L 186.826 99.226 187.915 100.315 L 189.004 101.404 185.940 104.202 L 182.877 107.000 181.816 107.000 L 180.755 107.000 182.128 105.308 L 183.500 103.616 182.000 104.480 L 180.500 105.344 182.250 103.343 L 184.000 101.343 184.000 100.171 L 184.000 99.000 184.998 99.000 L 185.996 99.000 188.979 94.250 L 191.962 89.500 191.981 87.437 L 192.000 85.374 194.805 82.687 L 197.609 80.000 198.721 80.000 L 199.833 80.000 200.286 81.250 L 200.739 82.500 202.869 81.242 L 205.000 79.983 205.000 81.869 L 205.000 83.755 206.566 85.054 L 208.131 86.354 211.135 84.579 L 214.138 82.805 214.696 83.363 L 215.254 83.921 218.762 82.455 L 222.271 80.989 224.885 81.004 L 227.500 81.019 231.734 81.002 L 235.968 80.984 240.734 82.052 L 245.499 83.120 247.845 85.310 L 250.190 87.500 251.638 90.283 L 253.085 93.065 253.936 92.540 L 254.787 92.014 255.269 94.257 L 255.752 96.500 255.918 101.169 L 256.084 105.839 256.565 108.169 L 257.047 110.500 257.672 123.630 L 258.298 136.761 257.104 141.630 L 255.910 146.500 255.312 148.500 L 254.715 150.500 257.967 147.027 L 261.219 143.554 262.110 141.212 L 263.000 138.870 263.044 134.685 L 263.088 130.500 264.622 126.500 L 266.156 122.500 266.912 118.923 L 267.668 115.346 268.390 114.179 L 269.111 113.011 269.111 105.428 L 269.111 97.844 266.982 91.446 L 264.853 85.047 265.581 83.869 L 266.309 82.691 265.155 83.405 L 264.000 84.118 263.875 83.059 L 263.750 82.000 263.539 81.250 L 263.327 80.500 262.479 78.500 L 261.632 76.500 259.919 75.266 L 258.207 74.031 257.194 71.125 L 256.181 68.219 257.226 67.174 L 258.271 66.129 256.707 64.564 L 255.143 63.000 254.321 62.983 L 253.500 62.965 251.013 60.346 L 248.526 57.726 244.508 56.003 L 240.489 54.281 232.995 53.716 M237.000 108.593 L 231.500 108.165 229.500 109.121 L 227.500 110.078 227.841 116.075 L 228.181 122.073 230.686 123.714 L 233.192 125.356 235.346 125.554 L 237.500 125.752 242.000 126.801 L 246.500 127.849 248.674 128.521 L 250.849 129.194 252.424 126.146 L 254.000 123.099 254.000 119.185 L 254.000 115.270 251.996 112.722 L 249.992 110.174 246.246 109.598 L 242.500 109.022 237.000 108.593 M207.766 135.182 L 204.190 135.317 204.150 140.403 L 204.111 145.489 206.226 147.741 L 208.341 149.992 207.717 150.616 L 207.093 151.240 204.547 150.601 L 202.000 149.962 202.000 148.481 L 202.000 147.000 199.000 147.000 L 196.000 147.000 196.000 148.067 L 196.000 149.135 193.899 148.468 L 191.797 147.801 192.478 150.900 L 193.159 154.000 192.020 154.000 L 190.882 154.000 191.420 154.871 L 191.958 155.742 194.953 156.341 L 197.948 156.940 199.338 160.265 L 200.727 163.591 203.420 165.355 L 206.112 167.120 211.972 168.152 L 217.832 169.184 220.923 166.899 L 224.014 164.614 223.257 163.919 L 222.500 163.224 213.851 161.218 L 205.202 159.212 203.351 158.059 L 201.500 156.905 205.500 157.506 L 209.500 158.107 214.500 158.665 L 219.500 159.224 222.297 161.213 L 225.094 163.203 228.942 163.719 L 232.791 164.235 233.528 161.910 L 234.266 159.586 230.953 156.820 L 227.640 154.054 226.392 155.090 L 225.144 156.126 222.039 154.520 L 218.935 152.915 219.446 152.087 L 219.958 151.258 222.761 150.698 L 225.564 150.137 227.325 146.445 L 229.086 142.752 228.793 142.545 L 228.500 142.337 226.027 140.668 L 223.555 139.000 220.646 139.000 L 217.736 139.000 214.539 137.024 L 211.342 135.048 207.766 135.182 M238.878 152.000 L 237.000 152.000 237.015 152.750 L 237.030 153.500 238.304 157.158 L 239.579 160.815 241.289 159.858 L 243.000 158.901 243.000 159.573 L 243.000 160.245 244.500 159.000 L 246.000 157.755 246.000 156.378 L 246.000 155.000 244.622 155.000 L 243.245 155.000 242.000 153.500 L 240.755 152.000 238.878 152.000 " stroke="#000000" fill="none"/><path d="M6.629 0.000 L 0.000 0.000 0.115 68.250 L 0.230 136.500 1.546 123.500 L 2.863 110.500 5.442 83.000 L 8.022 55.500 9.520 39.000 L 11.017 22.500 11.463 18.500 L 11.909 14.500 12.584 7.250 L 13.258 0.000 6.629 0.000 M230.018 54.506 L 219.500 54.398 214.231 55.193 L 208.962 55.989 205.231 57.670 L 201.500 59.351 199.827 59.535 L 198.154 59.720 193.390 62.511 L 188.626 65.303 184.368 69.228 L 180.110 73.153 177.084 77.869 L 174.058 82.585 172.453 87.043 L 170.848 91.500 170.311 93.500 L 169.774 95.500 169.503 102.500 L 169.232 109.500 169.116 110.633 L 169.000 111.767 167.000 112.290 L 165.000 112.813 165.000 113.965 L 165.000 115.118 165.910 114.556 L 166.820 113.994 168.521 114.646 L 170.222 115.299 171.572 118.400 L 172.922 121.500 172.961 119.850 L 173.000 118.199 177.008 109.483 L 181.016 100.767 183.793 96.633 L 186.570 92.500 187.881 89.310 L 189.193 86.121 188.598 85.158 L 188.003 84.196 191.251 82.130 L 194.500 80.063 196.832 78.355 L 199.164 76.647 199.938 77.900 L 200.713 79.154 202.106 78.958 L 203.500 78.763 204.671 78.882 L 205.841 79.000 206.500 82.000 L 207.159 85.000 207.686 85.000 L 208.212 85.000 210.163 82.520 L 212.114 80.040 215.307 78.541 L 218.500 77.043 221.500 76.928 L 224.500 76.813 227.000 77.410 L 229.500 78.007 232.251 76.882 L 235.002 75.757 236.501 77.001 L 238.000 78.245 238.000 77.507 L 238.000 76.770 240.465 78.385 L 242.930 80.000 244.817 80.000 L 246.703 80.000 249.899 83.054 L 253.095 86.108 254.904 89.329 L 256.713 92.551 257.364 98.025 L 258.015 103.500 258.125 120.722 L 258.236 137.944 260.118 136.937 L 262.000 135.930 262.000 134.406 L 262.000 132.882 260.750 133.633 L 259.500 134.384 260.946 132.604 L 262.392 130.823 264.238 125.662 L 266.085 120.500 267.381 113.791 L 268.676 107.082 267.831 107.605 L 266.986 108.127 266.369 106.520 L 265.753 104.914 266.431 104.236 L 267.109 103.558 268.077 105.029 L 269.045 106.500 268.598 101.488 L 268.150 96.477 265.960 90.623 L 263.770 84.770 261.985 82.985 L 260.200 81.200 261.238 80.162 L 262.277 79.123 259.388 76.228 L 256.500 73.333 255.117 70.734 L 253.734 68.135 254.390 66.426 L 255.046 64.717 253.539 65.967 L 252.033 67.217 251.017 64.359 L 250.001 61.500 249.182 60.000 L 248.362 58.500 244.449 56.557 L 240.536 54.614 230.018 54.506 M198.250 99.357 L 197.000 98.833 197.000 99.885 L 197.000 100.937 195.526 100.371 L 194.051 99.806 192.554 101.304 L 191.056 102.801 192.341 103.868 L 193.626 104.935 197.209 104.354 L 200.791 103.772 206.900 105.886 L 213.008 108.000 214.254 107.968 L 215.500 107.937 212.790 105.551 L 210.081 103.165 204.790 101.523 L 199.500 99.881 198.250 99.357 M197.740 109.378 L 193.201 108.756 192.020 110.964 L 190.838 113.171 191.169 113.479 L 191.500 113.787 197.500 115.345 L 203.500 116.903 205.160 114.951 L 206.821 113.000 207.410 113.000 L 208.000 113.000 208.000 115.000 L 208.000 117.000 209.500 117.000 L 211.000 117.000 211.000 115.539 L 211.000 114.078 208.811 112.039 L 206.623 110.000 204.451 110.000 L 202.279 110.000 197.740 109.378 M238.460 110.000 L 235.118 110.000 234.459 111.067 L 233.800 112.133 234.347 112.681 L 234.895 113.228 242.197 114.477 L 249.500 115.726 250.786 115.242 L 252.072 114.758 246.937 112.379 L 241.801 110.000 238.460 110.000 M237.286 118.955 L 234.072 118.227 232.288 119.532 L 230.503 120.836 231.268 121.602 L 232.033 122.367 233.217 121.183 L 234.400 120.000 235.200 120.000 L 236.000 120.000 236.000 122.021 L 236.000 124.043 238.470 125.168 L 240.941 126.294 242.381 125.098 L 243.822 123.903 244.470 124.951 L 245.118 126.000 246.528 126.000 L 247.937 126.000 247.347 124.463 L 246.758 122.926 243.629 121.304 L 240.500 119.683 237.286 118.955 M210.056 137.032 L 209.500 137.064 207.711 138.421 L 205.921 139.778 207.532 141.389 L 209.143 143.000 209.540 143.000 L 209.937 143.000 209.285 141.301 L 208.634 139.603 211.601 141.716 L 214.568 143.828 218.534 144.501 L 222.500 145.175 224.168 145.629 L 225.835 146.082 225.494 144.291 L 225.153 142.500 225.077 141.662 L 225.000 140.824 221.250 141.456 L 217.500 142.088 214.056 139.544 L 210.611 137.000 210.056 137.032 M171.694 149.161 L 170.389 148.078 170.444 152.789 L 170.500 157.500 172.073 160.548 L 173.645 163.597 173.213 167.298 L 172.781 171.000 170.825 171.000 L 168.869 171.000 166.934 172.035 L 165.000 173.070 165.000 174.980 L 165.000 176.890 161.568 183.728 L 158.136 190.567 156.318 192.162 L 154.500 193.756 151.000 194.378 L 147.500 194.999 120.000 195.551 L 92.500 196.104 86.145 197.002 L 79.790 197.900 75.145 200.308 L 70.500 202.716 66.500 203.985 L 62.500 205.253 60.895 206.651 L 59.289 208.048 57.895 207.552 L 56.500 207.056 48.500 206.027 L 40.500 204.998 36.409 204.389 L 32.317 203.779 30.168 207.901 L 28.020 212.023 27.403 215.878 L 26.787 219.733 27.844 221.708 L 28.900 223.682 27.474 233.847 L 26.047 244.012 19.709 251.756 L 13.370 259.500 8.602 266.759 L 3.834 274.018 1.917 275.044 L 0.000 276.070 0.000 304.535 L 0.000 333.000 176.017 333.000 L 352.034 333.000 349.386 327.750 L 346.739 322.500 344.026 319.000 L 341.313 315.500 338.634 310.000 L 335.955 304.500 334.638 302.256 L 333.321 300.012 332.868 300.465 L 332.415 300.919 329.098 291.709 L 325.782 282.500 321.296 273.250 L 316.811 263.999 315.905 264.559 L 315.000 265.118 315.000 263.724 L 315.000 262.331 312.164 259.803 L 309.327 257.276 304.759 254.599 L 300.191 251.922 297.995 251.499 L 295.799 251.076 291.649 247.694 L 287.500 244.311 285.328 243.162 L 283.156 242.013 281.636 240.493 L 280.117 238.974 273.308 235.379 L 266.500 231.784 265.250 230.770 L 264.000 229.755 263.900 223.128 L 263.801 216.500 263.085 214.000 L 262.370 211.500 254.935 211.752 L 247.500 212.004 244.125 212.571 L 240.750 213.138 241.319 207.319 L 241.889 201.500 242.568 196.810 L 243.247 192.121 239.873 190.064 L 236.500 188.007 235.817 188.004 L 235.135 188.000 234.500 190.000 L 233.865 192.000 231.418 192.000 L 228.971 192.000 229.453 189.250 L 229.935 186.500 229.160 185.253 L 228.386 184.006 225.422 183.661 L 222.458 183.316 219.979 181.989 L 217.500 180.662 217.000 180.915 L 216.500 181.168 211.500 180.543 L 206.500 179.919 205.500 179.799 L 204.500 179.680 197.725 176.887 L 190.950 174.093 189.475 172.618 L 188.000 171.143 188.000 170.226 L 188.000 169.310 186.056 167.551 L 184.113 165.792 185.281 163.921 L 186.450 162.050 185.078 160.775 L 183.706 159.500 184.290 161.167 L 184.874 162.834 183.310 163.434 L 181.747 164.035 180.384 162.904 L 179.022 161.773 179.524 160.962 L 180.025 160.150 178.866 157.606 L 177.708 155.063 176.926 155.546 L 176.144 156.029 175.500 154.000 L 174.856 151.971 173.928 152.544 L 173.000 153.118 173.000 151.681 L 173.000 150.245 171.694 149.161 M203.370 152.000 L 196.118 152.000 195.459 153.067 L 194.800 154.133 195.200 154.533 L 195.600 154.933 204.050 155.941 L 212.500 156.949 218.000 158.544 L 223.500 160.139 226.805 160.977 L 230.111 161.814 229.746 160.157 L 229.381 158.500 228.150 158.764 L 226.919 159.027 224.709 157.768 L 222.500 156.509 221.500 156.408 L 220.500 156.307 218.783 155.559 L 217.066 154.811 215.805 155.232 L 214.543 155.652 212.583 153.826 L 210.623 152.000 203.370 152.000 " stroke="#000000" fill="none"/><path d="M6.123 0.000 L 0.000 0.000 -0.000 62.667 L -0.000 125.333 0.374 124.917 L 0.747 124.500 1.441 116.500 L 2.136 108.500 2.443 104.500 L 2.749 100.500 4.873 78.000 L 6.997 55.500 8.030 44.500 L 9.063 33.500 9.565 28.500 L 10.067 23.500 10.458 18.500 L 10.849 13.500 11.547 6.750 L 12.245 0.000 6.123 0.000 M222.292 59.000 L 220.882 59.000 221.500 60.000 L 222.118 61.000 224.309 61.032 L 226.500 61.064 224.766 62.381 L 223.031 63.698 223.766 64.508 L 224.500 65.319 222.500 64.600 L 220.500 63.882 221.726 65.117 L 222.953 66.353 232.333 66.480 L 241.713 66.608 240.106 64.991 L 238.500 63.374 234.000 62.071 L 229.500 60.767 226.601 59.883 L 223.702 59.000 222.292 59.000 M205.992 62.219 L 203.030 62.304 202.495 62.839 L 201.959 63.374 200.230 63.651 L 198.500 63.928 194.832 64.714 L 191.164 65.500 188.261 68.000 L 185.358 70.500 183.429 71.638 L 181.500 72.777 181.639 74.388 L 181.778 76.000 179.782 76.000 L 177.786 76.000 178.417 77.645 L 179.048 79.289 177.274 81.278 L 175.500 83.266 177.875 82.526 L 180.250 81.786 179.566 82.893 L 178.882 84.000 177.441 84.000 L 176.000 84.000 176.000 85.559 L 176.000 87.118 175.105 86.565 L 174.210 86.011 173.446 87.756 L 172.682 89.500 172.894 90.408 L 173.106 91.317 172.013 91.992 L 170.919 92.668 170.435 99.385 L 169.950 106.102 171.002 110.009 L 172.054 113.916 172.970 114.481 L 173.886 115.047 175.803 110.713 L 177.720 106.380 178.999 102.440 L 180.278 98.500 182.070 95.942 L 183.862 93.385 183.681 88.622 L 183.500 83.860 185.363 82.817 L 187.226 81.774 189.119 79.881 L 191.013 77.987 196.257 75.994 L 201.500 74.001 202.809 74.001 L 204.118 74.000 203.361 75.250 L 202.603 76.500 205.805 73.500 L 209.007 70.500 210.003 70.375 L 211.000 70.250 212.250 70.110 L 213.500 69.969 212.268 69.187 L 211.037 68.405 211.437 66.327 L 211.837 64.249 210.169 64.375 L 208.500 64.500 208.727 63.318 L 208.955 62.135 205.992 62.219 M212.122 73.000 L 208.245 73.000 207.000 74.500 L 205.755 76.000 206.921 76.000 L 208.088 76.000 207.794 77.646 L 207.500 79.293 208.551 79.663 L 209.602 80.034 212.801 77.178 L 216.000 74.322 216.000 73.661 L 216.000 73.000 212.122 73.000 M178.232 170.000 L 176.770 170.000 178.515 172.750 L 180.261 175.500 184.380 179.730 L 188.500 183.960 189.750 183.980 L 191.000 184.000 191.000 185.532 L 191.000 187.064 193.250 187.969 L 195.500 188.873 194.500 188.952 L 193.500 189.031 195.000 190.000 L 196.500 190.969 197.285 190.985 L 198.070 191.000 197.032 189.061 L 195.995 187.121 196.928 186.544 L 197.862 185.967 198.406 186.847 L 198.949 187.727 202.958 187.727 L 206.966 187.727 208.394 188.912 L 209.822 190.097 210.472 189.045 L 211.123 187.993 213.504 188.590 L 215.886 189.188 216.992 188.505 L 218.097 187.822 217.017 186.520 L 215.937 185.219 208.218 183.528 L 200.500 181.837 198.307 181.413 L 196.114 180.990 187.904 175.495 L 179.694 170.000 178.232 170.000 M171.250 171.015 L 170.500 171.029 168.000 172.288 L 165.500 173.546 165.190 177.273 L 164.879 181.000 163.992 181.000 L 163.105 181.000 160.600 185.987 L 158.096 190.974 155.251 193.754 L 152.407 196.535 142.953 196.463 L 133.500 196.392 131.629 197.296 L 129.759 198.200 130.534 196.945 L 131.309 195.691 130.076 196.453 L 128.844 197.215 107.672 197.170 L 86.500 197.126 81.134 198.536 L 75.769 199.947 74.526 200.979 L 73.282 202.011 67.441 204.020 L 61.599 206.030 60.907 207.151 L 60.214 208.271 48.857 206.566 L 37.500 204.861 35.232 204.493 L 32.964 204.126 31.594 206.313 L 30.225 208.500 29.003 213.789 L 27.782 219.078 28.294 221.758 L 28.807 224.439 27.744 233.969 L 26.681 243.500 21.011 250.500 L 15.341 257.500 10.210 265.146 L 5.079 272.793 2.539 274.790 L 0.000 276.788 0.000 304.899 L 0.000 333.011 167.667 332.756 L 335.333 332.500 335.592 331.225 L 335.850 329.950 335.342 330.975 L 334.833 332.000 333.858 332.000 L 332.882 332.000 333.500 331.000 L 334.118 330.000 333.309 329.998 L 332.500 329.996 332.247 326.748 L 331.995 323.500 331.580 319.500 L 331.164 315.500 329.832 315.821 L 328.500 316.143 329.703 314.918 L 330.906 313.694 329.857 311.732 L 328.807 309.770 329.215 306.989 L 329.623 304.207 328.312 304.711 L 327.000 305.214 327.000 303.666 L 327.000 302.118 328.016 301.490 L 329.033 300.862 328.391 299.824 L 327.750 298.786 326.788 300.143 L 325.827 301.500 326.320 299.250 L 326.813 297.000 325.847 297.000 L 324.882 297.000 325.500 296.000 L 326.118 295.000 324.992 295.000 L 323.865 295.000 324.423 292.750 L 324.982 290.500 324.405 291.756 L 323.829 293.012 323.008 292.505 L 322.187 291.997 322.710 293.999 L 323.233 296.000 322.688 296.000 L 322.143 296.000 320.679 294.536 L 319.215 293.072 318.680 295.115 L 318.146 297.158 319.351 296.696 L 320.556 296.233 320.444 298.783 L 320.333 301.333 318.091 302.162 L 315.849 302.992 314.353 301.496 L 312.857 300.000 311.237 300.000 L 309.618 300.000 311.559 298.532 L 313.500 297.064 312.250 297.032 L 311.000 297.000 310.250 296.806 L 309.500 296.612 308.353 295.556 L 307.206 294.500 308.673 293.661 L 310.140 292.823 308.320 291.443 L 306.500 290.064 305.321 290.032 L 304.143 290.000 302.585 291.558 L 301.027 293.116 301.657 289.808 L 302.287 286.500 302.628 286.099 L 302.969 285.698 301.234 284.381 L 299.500 283.064 300.872 283.032 L 302.245 283.000 300.872 281.308 L 299.500 279.616 300.750 280.367 L 302.000 281.118 302.000 277.618 L 302.000 274.118 301.094 273.558 L 300.188 272.998 300.711 270.999 L 301.233 269.000 300.117 269.000 L 299.000 269.000 299.000 266.559 L 299.000 264.118 298.072 263.544 L 297.144 262.971 296.625 264.735 L 296.107 266.500 295.415 270.395 L 294.723 274.289 295.792 273.628 L 296.862 272.967 297.490 273.984 L 298.118 275.000 297.090 275.000 L 296.063 275.000 296.701 276.750 L 297.339 278.500 295.269 276.685 L 293.199 274.870 292.510 275.983 L 291.822 277.097 290.569 276.057 L 289.316 275.017 288.712 275.622 L 288.107 276.226 288.237 274.363 L 288.366 272.500 287.664 269.750 L 286.962 267.000 285.411 267.000 L 283.861 267.000 284.204 269.250 L 284.547 271.500 285.848 271.225 L 287.149 270.950 286.485 272.024 L 285.822 273.097 284.411 271.926 L 283.000 270.755 282.985 268.628 L 282.969 266.500 282.110 267.857 L 281.250 269.214 280.584 268.136 L 279.918 267.059 282.709 266.322 L 285.500 265.585 286.675 265.819 L 287.849 266.053 288.430 265.114 L 289.010 264.175 286.553 264.445 L 284.095 264.715 284.298 263.607 L 284.500 262.500 285.500 261.765 L 286.500 261.031 285.250 261.015 L 284.000 261.000 284.000 260.031 L 284.000 259.063 285.750 259.691 L 287.500 260.319 287.000 259.795 L 286.500 259.271 284.098 258.019 L 281.697 256.767 282.312 258.372 L 282.928 259.976 281.839 259.738 L 280.750 259.500 280.292 260.750 L 279.833 262.000 280.917 262.000 L 282.000 262.000 282.000 263.500 L 282.000 265.000 280.500 265.000 L 279.000 265.000 279.000 263.833 L 279.000 262.667 278.393 263.273 L 277.787 263.880 276.519 262.695 L 275.251 261.511 275.795 260.091 L 276.340 258.672 275.000 259.500 L 273.660 260.328 274.294 258.676 L 274.928 257.024 274.214 257.171 L 273.500 257.318 271.666 256.520 L 269.832 255.722 271.166 254.876 L 272.500 254.031 270.691 254.015 L 268.882 254.000 269.542 252.932 L 270.202 251.864 271.851 252.434 L 273.500 253.005 272.000 251.752 L 270.500 250.500 269.081 247.750 L 267.662 245.000 266.831 245.000 L 266.000 245.000 266.000 242.833 L 266.000 240.667 265.313 241.354 L 264.626 242.041 264.483 243.974 L 264.341 245.907 265.171 245.395 L 266.000 244.882 266.000 245.507 L 266.000 246.131 264.900 248.186 L 263.800 250.241 264.650 249.726 L 265.500 249.210 266.852 250.672 L 268.205 252.135 266.852 251.949 L 265.500 251.763 264.250 251.882 L 263.000 252.000 263.000 253.059 L 263.000 254.118 264.000 253.500 L 265.000 252.882 265.000 253.859 L 265.000 254.836 265.670 256.582 L 266.340 258.328 265.015 257.510 L 263.691 256.691 264.415 257.862 L 265.138 259.033 266.000 258.500 L 266.862 257.967 267.625 259.202 L 268.388 260.437 268.518 263.218 L 268.648 266.000 267.535 266.000 L 266.422 266.000 266.329 269.486 L 266.236 272.972 267.118 272.427 L 268.000 271.882 268.000 273.374 L 268.000 274.865 270.250 275.581 L 272.500 276.296 270.716 276.923 L 268.932 277.550 271.104 279.881 L 273.275 282.212 272.279 282.856 L 271.283 283.500 271.543 285.181 L 271.803 286.862 270.439 286.338 L 269.076 285.815 268.466 283.893 L 267.856 281.971 266.928 282.544 L 266.000 283.118 265.882 281.809 L 265.763 280.500 265.882 279.750 L 266.000 279.000 264.750 279.250 L 263.500 279.500 263.775 278.176 L 264.050 276.851 263.158 277.402 L 262.267 277.953 260.560 276.066 L 258.853 274.180 256.386 273.561 L 253.918 272.941 254.623 271.801 L 255.328 270.660 253.907 271.206 L 252.486 271.751 252.286 267.625 L 252.087 263.500 251.623 258.500 L 251.160 253.500 250.955 253.250 L 250.750 253.000 250.587 252.250 L 250.424 251.500 249.667 248.648 L 248.911 245.797 246.955 248.051 L 245.000 250.306 245.000 251.153 L 245.000 252.000 246.000 252.000 L 247.000 252.000 247.000 250.461 L 247.000 248.921 248.393 250.211 L 249.785 251.500 247.981 252.185 L 246.176 252.870 245.521 254.935 L 244.865 257.000 244.049 257.000 L 243.233 257.000 242.710 259.000 L 242.187 261.000 241.035 261.000 L 239.882 261.000 240.588 259.750 L 241.293 258.500 240.114 259.583 L 238.934 260.666 239.574 262.333 L 240.214 264.000 241.166 264.000 L 242.118 264.000 241.405 262.845 L 240.691 261.691 241.741 262.340 L 242.790 262.989 243.364 261.494 L 243.937 260.000 245.219 260.079 L 246.500 260.158 245.197 260.680 L 243.894 261.202 245.697 262.603 L 247.500 264.005 245.737 263.391 L 243.975 262.776 242.614 263.905 L 241.253 265.035 239.627 264.410 L 238.000 263.786 238.000 265.060 L 238.000 266.333 237.357 265.691 L 236.715 265.048 237.980 263.524 L 239.245 262.000 238.000 262.000 L 236.755 262.000 237.947 260.564 L 239.139 259.128 238.034 257.064 L 236.930 255.000 236.165 255.000 L 235.400 255.000 234.313 256.087 L 233.226 257.174 232.554 256.087 L 231.882 255.000 230.972 255.000 L 230.063 255.000 230.626 256.750 L 231.189 258.500 230.196 257.105 L 229.203 255.710 228.747 257.105 L 228.292 258.500 228.665 256.250 L 229.038 254.000 227.960 254.000 L 226.882 254.000 227.566 252.893 L 228.250 251.786 228.875 252.647 L 229.500 253.507 232.500 253.764 L 235.500 254.020 232.500 252.495 L 229.500 250.970 231.250 251.454 L 233.000 251.937 232.985 249.719 L 232.969 247.500 232.000 249.000 L 231.031 250.500 231.015 249.635 L 231.000 248.770 228.500 250.408 L 226.000 252.046 225.985 251.273 L 225.969 250.500 225.000 252.000 L 224.031 253.500 224.015 252.282 L 224.000 251.064 226.692 249.654 L 229.384 248.243 226.192 247.542 L 223.000 246.841 223.000 245.862 L 223.000 244.882 222.000 245.500 L 221.000 246.118 221.000 245.594 L 221.000 245.070 222.977 244.012 L 224.955 242.954 224.414 244.727 L 223.873 246.500 225.512 243.667 L 227.151 240.835 226.701 239.662 L 226.251 238.489 227.519 237.305 L 228.787 236.120 229.219 236.552 L 229.651 236.985 229.210 233.980 L 228.769 230.976 227.885 230.429 L 227.000 229.882 226.921 231.691 L 226.842 233.500 226.338 232.250 L 225.833 231.000 224.131 231.000 L 222.429 231.000 222.429 229.014 L 222.429 227.029 223.414 228.014 L 224.400 229.000 225.669 229.000 L 226.937 229.000 226.281 227.250 L 225.626 225.500 227.313 226.872 L 229.000 228.245 229.000 227.063 L 229.000 225.882 229.976 226.485 L 230.953 227.089 233.423 225.794 L 235.893 224.500 235.947 223.750 L 236.000 223.000 236.015 222.250 L 236.031 221.500 237.000 223.000 L 237.969 224.500 238.100 218.500 L 238.230 212.500 238.087 210.955 L 237.944 209.411 239.406 205.267 L 240.868 201.123 239.684 200.561 L 238.500 200.000 239.694 199.435 L 240.888 198.871 240.376 197.537 L 239.864 196.202 240.932 195.542 L 242.000 194.882 242.000 193.062 L 242.000 191.243 238.968 189.987 L 235.936 188.731 235.598 189.115 L 235.259 189.500 233.186 194.250 L 231.112 199.000 220.286 199.000 L 209.460 199.000 202.047 196.946 L 194.635 194.892 187.567 191.578 L 180.500 188.265 176.250 185.126 L 172.000 181.987 172.000 176.494 L 172.000 171.000 171.250 171.015 M38.200 210.000 L 39.000 210.000 38.958 211.250 L 38.916 212.500 37.000 216.000 L 35.084 219.500 35.042 215.950 L 35.000 212.400 36.200 211.200 L 37.400 210.000 38.200 210.000 M255.762 213.000 L 254.937 213.000 254.519 214.250 L 254.101 215.500 254.318 218.731 L 254.534 221.962 256.243 223.672 L 257.952 225.381 258.461 224.872 L 258.971 224.363 257.779 218.681 L 256.587 213.000 255.762 213.000 M274.008 284.000 L 274.783 284.000 275.556 286.750 L 276.328 289.500 276.146 290.304 L 275.964 291.107 277.363 292.506 L 278.762 293.905 279.434 293.233 L 280.106 292.561 279.510 294.114 L 278.914 295.667 277.500 295.667 L 276.086 295.667 275.570 294.323 L 275.055 292.979 274.833 292.240 L 274.612 291.500 273.556 290.355 L 272.500 289.210 271.620 289.744 L 270.741 290.278 271.370 288.889 L 271.999 287.500 272.616 285.750 L 273.233 284.000 274.008 284.000 M249.800 287.000 L 251.000 287.000 251.000 288.000 L 251.000 289.000 252.250 289.008 L 253.500 289.016 254.614 291.419 L 255.728 293.822 254.921 295.127 L 254.115 296.432 253.082 293.716 L 252.050 291.000 251.466 291.000 L 250.882 291.000 251.595 292.155 L 252.309 293.309 251.086 292.553 L 249.864 291.798 250.354 290.521 L 250.844 289.244 249.722 288.122 L 248.600 287.000 249.800 287.000 " stroke="#000000" fill="none"/></svg>