<?xml version="1.0" standalone="no"?>
<svg xmlns:xlink="http://www.w3.org/1999/xlink" xmlns="http://www.w3.org/2000/svg" id="workspace"><path d="M191.472 208.000 L 189.882 208.000 190.510 209.016 L 191.138 210.033 192.224 209.362 L 193.309 208.691 192.585 209.862 L 191.862 211.033 190.761 210.352 L 189.660 209.672 190.454 211.586 L 191.248 213.500 191.449 216.000 L 191.650 218.500 193.075 221.133 L 194.500 223.767 198.715 229.294 L 202.931 234.821 202.988 239.160 L 203.045 243.500 203.189 245.206 L 203.333 246.912 204.100 246.438 L 204.866 245.965 207.516 250.232 L 210.166 254.500 209.526 249.077 L 208.885 243.654 207.907 241.827 L 206.930 240.000 207.842 240.000 L 208.755 240.000 213.293 245.512 L 217.831 251.024 223.140 255.433 L 228.448 259.841 229.224 259.362 L 230.000 258.882 230.000 260.322 L 230.000 261.763 233.750 264.590 L 237.500 267.417 237.833 268.209 L 238.167 269.000 239.224 269.000 L 240.281 269.000 237.171 265.750 L 234.061 262.500 230.991 259.218 L 227.921 255.936 228.513 254.979 L 229.104 254.023 227.519 254.631 L 225.934 255.239 227.119 252.637 L 228.305 250.035 229.482 251.644 L 230.658 253.253 232.829 252.091 L 235.000 250.930 235.000 252.342 L 235.000 253.755 238.016 253.499 L 241.032 253.242 241.539 254.063 L 242.047 254.884 246.773 255.568 L 251.500 256.252 252.617 257.138 L 253.735 258.025 254.990 256.512 L 256.245 255.000 258.122 255.000 L 260.000 255.000 260.000 254.107 L 260.000 253.214 261.611 252.596 L 263.223 251.977 262.623 253.541 L 262.023 255.104 263.008 254.495 L 263.992 253.887 265.746 253.529 L 267.500 253.172 269.250 252.479 L 271.000 251.786 271.063 253.143 L 271.127 254.500 272.065 252.158 L 273.004 249.815 272.451 248.921 L 271.899 248.027 274.734 248.357 L 277.568 248.687 278.824 247.344 L 280.079 246.000 279.514 246.000 L 278.949 246.000 280.680 242.750 L 282.411 239.500 282.178 238.667 L 281.945 237.834 286.472 233.370 L 291.000 228.907 291.000 228.434 L 291.000 227.960 293.572 223.886 L 296.144 219.811 295.572 219.239 L 295.000 218.667 295.000 219.892 L 295.000 221.118 294.000 220.500 L 293.000 219.882 292.985 221.691 L 292.969 223.500 291.954 225.000 L 290.939 226.500 291.565 223.803 L 292.190 221.105 289.345 221.368 L 286.500 221.630 286.736 222.772 L 286.972 223.915 283.486 224.569 L 280.000 225.223 280.000 226.218 L 280.000 227.214 278.512 226.643 L 277.024 226.072 277.262 227.286 L 277.500 228.500 276.357 228.286 L 275.215 228.072 272.556 230.536 L 269.897 233.000 266.948 233.000 L 264.000 233.000 264.000 235.107 L 264.000 237.214 262.330 236.573 L 260.660 235.932 259.961 237.064 L 259.261 238.195 254.881 238.563 L 250.500 238.930 246.603 239.078 L 242.706 239.226 241.840 237.679 L 240.974 236.132 238.373 237.481 L 235.772 238.831 232.136 237.508 L 228.500 236.185 225.000 234.448 L 221.500 232.711 218.823 229.874 L 216.147 227.037 215.522 225.070 L 214.898 223.102 213.657 223.578 L 212.416 224.054 210.178 221.027 L 207.940 218.000 206.411 218.000 L 204.882 218.000 205.515 216.750 L 206.148 215.500 204.584 217.427 L 203.021 219.354 202.344 218.677 L 201.667 218.000 202.405 218.000 L 203.143 218.000 201.461 216.318 L 199.778 214.635 201.580 213.318 L 203.382 212.000 201.191 212.000 L 199.000 212.000 199.000 211.138 L 199.000 210.275 196.570 210.542 L 194.140 210.808 193.602 209.404 L 193.063 208.000 191.472 208.000 M150.090 220.876 L 149.381 217.500 148.673 220.244 L 147.965 222.988 147.082 222.744 L 146.200 222.500 146.269 223.000 L 146.338 223.500 145.060 225.888 L 143.782 228.276 143.242 231.388 L 142.702 234.500 142.601 236.209 L 142.500 237.918 143.250 237.959 L 144.000 238.000 146.379 238.000 L 148.758 238.000 149.779 231.126 L 150.799 224.252 150.090 220.876 M285.620 238.287 L 285.000 237.667 284.923 238.083 L 284.847 238.500 284.524 240.000 L 284.202 241.500 279.842 248.000 L 275.482 254.500 271.108 259.227 L 266.734 263.954 265.617 263.317 L 264.500 262.679 265.220 263.477 L 265.941 264.274 263.902 267.137 L 261.864 270.000 260.515 270.000 L 259.167 270.000 258.833 270.921 L 258.500 271.842 252.250 272.333 L 246.000 272.824 246.000 272.026 L 246.000 271.227 242.994 270.786 L 239.988 270.345 243.244 273.132 L 246.500 275.919 252.056 275.959 L 257.611 276.000 260.795 273.652 L 263.978 271.303 267.073 267.402 L 270.169 263.500 271.520 262.736 L 272.872 261.972 278.891 253.984 L 284.910 245.996 285.575 242.451 L 286.240 238.907 285.620 238.287 M234.845 284.405 L 233.691 283.691 234.405 284.845 L 235.118 286.000 233.681 286.000 L 232.245 286.000 231.065 287.421 L 229.886 288.843 231.881 288.321 L 233.875 287.799 235.872 289.198 L 237.868 290.596 237.085 291.863 L 236.302 293.129 236.779 295.623 L 237.255 298.116 238.584 297.606 L 239.912 297.097 239.831 299.798 L 239.749 302.500 240.351 304.927 L 240.953 307.353 241.842 307.927 L 242.730 308.500 243.557 311.000 L 244.383 313.500 244.144 315.161 L 243.904 316.823 244.880 317.426 L 245.856 318.029 246.500 316.000 L 247.144 313.971 247.979 314.487 L 248.813 315.003 248.262 312.751 L 247.711 310.500 246.853 309.394 L 245.995 308.288 245.628 305.144 L 245.262 302.000 246.381 301.985 L 247.500 301.969 246.000 301.000 L 244.500 300.031 246.000 300.000 L 247.500 299.969 246.426 299.235 L 245.353 298.500 245.557 296.000 L 245.761 293.500 246.475 291.500 L 247.189 289.500 246.344 290.500 L 245.500 291.500 243.088 291.500 L 240.677 291.500 240.262 290.000 L 239.848 288.500 240.909 290.000 L 241.969 291.500 241.985 290.285 L 242.000 289.070 240.250 288.170 L 238.500 287.270 237.250 287.718 L 236.000 288.167 236.000 286.642 L 236.000 285.118 234.845 284.405 M53.563 312.079 L 51.500 312.158 52.750 312.662 L 54.000 313.167 54.000 314.583 L 54.000 316.000 54.750 315.841 L 55.500 315.682 57.244 316.446 L 58.989 317.210 58.478 318.036 L 57.967 318.862 59.000 319.500 L 60.033 320.138 59.464 321.058 L 58.896 321.977 60.312 321.434 L 61.728 320.890 62.302 323.695 L 62.876 326.500 64.277 328.390 L 65.678 330.281 66.328 328.588 L 66.977 326.896 66.018 327.489 L 65.059 328.082 64.435 325.598 L 63.812 323.114 64.480 322.032 L 65.149 320.950 64.324 321.134 L 63.500 321.318 61.756 320.554 L 60.011 319.790 60.615 318.814 L 61.218 317.837 58.422 314.919 L 55.626 312.000 53.563 312.079 M78.440 320.158 L 77.729 319.500 78.401 324.762 L 79.072 330.024 79.643 331.512 L 80.214 333.000 83.166 333.000 L 86.118 333.000 85.458 331.932 L 84.798 330.864 83.347 331.420 L 81.896 331.977 82.444 331.091 L 82.991 330.205 82.330 326.900 L 81.669 323.594 80.905 325.547 L 80.141 327.500 79.994 326.000 L 79.847 324.500 79.499 322.658 L 79.150 320.817 78.440 320.158 " stroke="#000000" fill="none"/><path d="M18.607 0.000 L 0.000 0.000 0.000 166.500 L 0.000 333.000 111.500 333.000 L 223.000 333.000 223.000 329.201 L 223.000 325.402 226.371 324.183 L 229.742 322.964 231.371 323.589 L 233.000 324.214 233.000 323.107 L 233.000 322.000 234.341 322.000 L 235.682 322.000 236.913 327.500 L 238.143 333.000 255.072 333.000 L 272.000 333.000 272.000 331.500 L 272.000 330.000 270.750 330.250 L 269.500 330.500 269.195 325.750 L 268.890 321.000 269.945 321.000 L 271.000 321.000 271.000 319.393 L 271.000 317.786 269.500 318.362 L 268.000 318.937 268.000 315.969 L 268.000 313.000 268.906 313.000 L 269.813 313.000 269.316 311.102 L 268.820 309.204 269.892 307.203 L 270.963 305.201 276.935 304.508 L 282.907 303.814 286.704 305.100 L 290.500 306.386 292.739 306.123 L 294.978 305.860 298.838 308.029 L 302.698 310.198 304.849 314.626 L 307.000 319.054 307.014 323.777 L 307.027 328.500 307.630 330.750 L 308.233 333.000 382.177 333.000 L 456.120 333.000 455.681 330.250 L 455.242 327.500 453.202 324.000 L 451.161 320.500 449.979 316.017 L 448.797 311.533 446.299 306.517 L 443.800 301.500 439.326 294.818 L 434.853 288.136 430.013 283.609 L 425.173 279.081 422.336 278.447 L 419.500 277.813 414.312 275.748 L 409.123 273.683 408.094 269.092 L 407.064 264.500 406.512 260.500 L 405.960 256.500 404.902 253.250 L 403.845 250.000 402.815 250.000 L 401.786 250.000 402.348 248.537 L 402.909 247.074 400.704 245.263 L 398.500 243.451 398.073 241.976 L 397.647 240.500 396.960 232.500 L 396.273 224.500 394.631 220.768 L 392.988 217.035 390.566 216.427 L 388.144 215.819 386.089 216.472 L 384.035 217.124 377.267 217.619 L 370.500 218.115 336.449 217.438 L 302.399 216.762 302.437 212.469 L 302.476 208.176 303.149 208.592 L 303.823 209.008 304.391 205.254 L 304.960 201.500 305.557 197.000 L 306.155 192.500 307.064 192.171 L 307.973 191.842 310.207 190.033 L 312.442 188.224 312.590 177.791 L 312.738 167.358 313.675 165.429 L 314.612 163.500 314.556 155.582 L 314.500 147.664 311.500 146.005 L 308.500 144.347 308.202 138.723 L 307.903 133.100 308.796 126.434 L 309.689 119.769 308.951 116.134 L 308.213 112.500 306.208 104.781 L 304.204 97.063 301.852 93.938 L 299.500 90.813 294.000 84.762 L 288.500 78.711 283.000 75.226 L 277.500 71.740 274.500 69.031 L 271.500 66.321 266.315 64.161 L 261.129 62.000 257.630 62.000 L 254.130 62.000 251.315 60.891 L 248.500 59.782 242.500 59.448 L 236.500 59.114 230.500 60.131 L 224.500 61.148 220.000 63.227 L 215.500 65.305 208.500 70.557 L 201.500 75.809 197.870 79.654 L 194.239 83.500 190.122 89.618 L 186.004 95.736 184.455 100.118 L 182.906 104.500 182.024 113.799 L 181.142 123.098 181.532 126.299 L 181.923 129.500 182.389 135.250 L 182.855 141.000 180.550 141.000 L 178.245 141.000 177.249 142.250 L 176.253 143.500 175.725 149.000 L 175.197 154.500 176.721 161.988 L 178.245 169.476 177.650 175.842 L 177.056 182.207 178.546 185.089 L 180.036 187.971 182.394 188.563 L 184.752 189.155 184.642 190.327 L 184.531 191.500 185.334 199.750 L 186.137 208.000 187.128 208.000 L 188.118 208.000 187.334 209.250 L 186.550 210.500 186.850 212.322 L 187.150 214.144 176.325 213.463 L 165.500 212.782 153.627 211.017 L 141.753 209.252 139.978 209.716 L 138.203 210.180 136.396 214.840 L 134.589 219.500 134.301 227.000 L 134.012 234.500 133.477 236.791 L 132.941 239.082 131.971 238.482 L 131.000 237.882 131.000 238.766 L 131.000 239.651 126.089 239.565 L 121.178 239.480 121.625 240.202 L 122.071 240.924 117.785 240.478 L 113.500 240.033 112.317 238.416 L 111.133 236.800 109.817 237.474 L 108.500 238.148 110.441 236.574 L 112.382 235.000 110.773 235.000 L 109.164 235.000 107.332 234.313 L 105.500 233.626 106.891 235.336 L 108.283 237.046 106.641 236.416 L 105.000 235.786 105.000 234.893 L 105.000 234.000 103.570 234.000 L 102.139 234.000 101.820 231.750 L 101.500 229.500 97.810 229.570 L 94.120 229.640 94.310 228.570 L 94.500 227.500 92.750 227.639 L 91.000 227.778 91.000 226.389 L 91.000 225.000 92.378 225.000 L 93.756 225.000 95.424 227.250 L 97.093 229.500 96.530 228.319 L 95.967 227.138 96.984 226.510 L 98.000 225.882 98.015 227.191 L 98.031 228.500 98.904 227.122 L 99.776 225.744 101.043 226.526 L 102.309 227.309 101.656 226.253 L 101.004 225.197 97.968 224.139 L 94.932 223.080 95.605 224.170 L 96.278 225.259 94.889 224.771 L 93.500 224.282 93.763 221.074 L 94.026 217.866 93.098 218.439 L 92.171 219.012 91.653 217.756 L 91.135 216.500 91.720 220.000 L 92.305 223.500 90.139 221.582 L 87.972 219.664 88.593 217.707 L 89.214 215.750 88.107 216.434 L 87.000 217.118 87.000 215.559 L 87.000 214.000 85.639 214.000 L 84.277 214.000 84.716 211.706 L 85.154 209.412 83.001 206.956 L 80.848 204.500 81.563 205.880 L 82.278 207.259 80.889 206.772 L 79.500 206.285 79.665 204.486 L 79.830 202.687 78.453 201.310 L 77.075 199.932 77.999 197.502 L 78.924 195.071 77.962 194.476 L 77.000 193.882 76.848 196.191 L 76.695 198.500 76.593 199.918 L 76.492 201.336 75.445 201.685 L 74.398 202.034 74.824 198.381 L 75.251 194.727 73.875 195.524 L 72.500 196.321 73.215 195.529 L 73.930 194.737 72.801 192.619 L 71.673 190.500 73.247 191.799 L 74.822 193.097 75.474 192.041 L 76.127 190.986 74.543 190.378 L 72.959 189.770 74.979 188.018 L 77.000 186.265 77.000 185.526 L 77.000 184.786 75.472 185.372 L 73.945 185.958 72.325 184.067 L 70.706 182.176 69.189 182.758 L 67.672 183.340 68.464 182.058 L 69.256 180.776 67.878 179.904 L 66.500 179.031 67.500 179.000 L 68.500 178.969 69.947 178.054 L 71.393 177.139 68.947 174.993 L 66.500 172.848 67.905 173.578 L 69.309 174.309 68.545 173.073 L 67.782 171.838 65.141 172.378 L 62.500 172.918 65.500 171.548 L 68.500 170.179 65.780 169.488 L 63.059 168.798 64.530 167.328 L 66.000 165.857 65.985 165.179 L 65.969 164.500 65.096 163.122 L 64.224 161.744 63.217 162.366 L 62.210 162.989 61.636 161.494 L 61.063 160.000 62.281 159.970 L 63.500 159.939 61.750 158.920 L 60.000 157.901 60.000 156.450 L 60.000 155.000 58.500 155.000 L 57.000 155.000 57.000 152.550 L 57.000 150.099 55.297 149.146 L 53.594 148.194 54.846 146.686 L 56.097 145.178 55.092 144.557 L 54.087 143.936 54.651 142.468 L 55.214 141.000 53.500 141.000 L 51.786 141.000 52.393 139.418 L 53.000 137.836 53.000 136.512 L 53.000 135.187 55.250 135.719 L 57.500 136.250 55.500 134.551 L 53.500 132.852 54.750 133.485 L 56.000 134.118 56.000 132.559 L 56.000 131.000 54.250 130.999 L 52.500 130.997 52.393 125.421 L 52.286 119.845 53.050 121.082 L 53.815 122.319 53.217 123.877 L 52.619 125.434 54.203 123.967 L 55.787 122.500 54.897 120.822 L 54.007 119.145 54.340 117.822 L 54.672 116.500 54.253 117.250 L 53.833 118.000 52.358 118.000 L 50.882 118.000 51.515 116.750 L 52.148 115.500 50.696 117.275 L 49.243 119.050 48.764 116.544 L 48.285 114.039 49.704 112.012 L 51.124 109.985 49.312 109.315 L 47.500 108.646 46.843 107.664 L 46.185 106.681 46.697 105.346 L 47.210 104.011 48.355 104.698 L 49.500 105.384 48.109 103.669 L 46.717 101.954 48.359 102.584 L 50.000 103.214 50.000 102.536 L 50.000 101.857 48.491 100.348 L 46.982 98.839 46.369 101.903 L 45.756 104.968 44.922 104.452 L 44.087 103.936 44.651 102.468 L 45.214 101.000 43.774 101.000 L 42.333 101.000 42.333 99.500 L 42.333 98.000 43.117 98.000 L 43.901 98.000 44.761 99.538 L 45.622 101.075 47.002 98.496 L 48.382 95.917 46.635 92.959 L 44.887 90.000 45.943 90.000 L 47.000 90.000 47.000 88.404 L 47.000 86.809 45.250 83.762 L 43.500 80.715 44.694 80.293 L 45.888 79.871 45.379 78.546 L 44.871 77.221 43.185 77.467 L 41.500 77.713 42.792 77.275 L 44.083 76.837 43.397 74.677 L 42.712 72.516 44.379 73.899 L 46.046 75.283 45.416 73.641 L 44.786 72.000 45.447 70.278 L 46.108 68.556 47.038 70.028 L 47.969 71.500 47.969 70.500 L 47.969 69.500 47.000 68.000 L 46.031 66.500 45.984 67.500 L 45.936 68.500 44.665 66.828 L 43.394 65.157 41.485 65.328 L 39.577 65.500 39.192 63.632 L 38.808 61.763 39.920 62.451 L 41.033 63.138 40.362 64.224 L 39.691 65.309 40.894 64.565 L 42.097 63.822 41.072 62.587 L 40.048 61.352 41.024 60.176 L 42.000 59.000 40.800 60.000 L 39.600 61.000 38.678 61.000 L 37.755 61.000 39.000 59.500 L 40.245 58.000 39.065 56.579 L 37.886 55.157 40.099 55.736 L 42.313 56.315 41.635 55.219 L 40.958 54.123 42.729 53.092 L 44.500 52.061 43.309 52.030 L 42.118 52.000 41.500 53.000 L 40.882 54.000 38.191 53.919 L 35.500 53.838 38.500 52.464 L 41.500 51.090 39.750 51.045 L 38.000 51.000 38.000 50.000 L 38.000 49.000 38.100 48.250 L 38.200 47.500 39.148 47.766 L 40.097 48.032 39.474 44.266 L 38.850 40.500 39.910 42.000 L 40.969 43.500 40.985 42.684 L 41.000 41.869 40.002 40.004 L 39.004 38.139 40.621 36.522 L 42.238 34.905 41.662 34.329 L 41.086 33.753 39.560 34.339 L 38.034 34.924 38.624 36.462 L 39.214 38.000 38.107 38.000 L 37.000 38.000 37.000 35.941 L 37.000 33.882 36.000 34.500 L 35.000 35.118 35.000 34.059 L 35.000 33.000 36.250 32.985 L 37.500 32.969 36.148 32.113 L 34.796 31.256 37.071 29.663 L 39.345 28.070 37.609 27.403 L 35.872 26.737 34.380 28.869 L 32.887 31.000 31.693 30.970 L 30.500 30.939 32.250 29.920 L 34.000 28.901 34.070 25.700 L 34.141 22.500 34.867 24.347 L 35.594 26.194 36.957 24.551 L 38.320 22.909 39.494 23.359 L 40.667 23.809 40.667 22.449 L 40.667 21.088 39.833 21.603 L 39.000 22.118 39.000 20.442 L 39.000 18.767 36.987 19.293 L 34.974 19.820 33.932 17.660 L 32.890 15.500 34.317 17.266 L 35.744 19.032 37.021 15.949 L 38.299 12.865 39.134 14.183 L 39.969 15.500 39.985 11.250 L 40.000 7.000 40.934 7.000 L 41.867 7.000 42.296 4.750 L 42.725 2.500 42.536 5.250 L 42.346 8.000 43.673 8.000 L 45.000 8.000 45.000 7.031 L 45.000 6.063 46.250 6.367 L 47.500 6.672 46.739 6.249 L 45.977 5.826 44.953 3.913 L 43.930 2.000 44.965 2.000 L 46.000 2.000 46.063 3.750 L 46.127 5.500 47.085 3.105 L 48.043 0.710 47.521 0.188 L 47.000 -0.333 47.000 0.869 L 47.000 2.070 45.066 1.035 L 43.131 0.000 40.972 0.000 L 38.813 0.000 38.293 1.989 L 37.773 3.978 36.930 3.457 L 36.087 2.936 36.651 1.468 L 37.214 0.000 18.607 0.000 M293.785 273.014 L 294.500 273.027 299.165 289.764 L 303.830 306.500 303.501 306.831 L 303.171 307.162 301.132 306.070 L 299.092 304.979 292.296 299.788 L 285.500 294.598 281.500 290.941 L 277.500 287.284 274.000 284.171 L 270.500 281.059 272.527 281.029 L 274.555 281.000 277.027 279.266 L 279.500 277.532 282.795 277.516 L 286.091 277.500 285.526 279.750 L 284.962 282.000 285.455 282.000 L 285.949 282.000 287.517 278.967 L 289.085 275.935 289.992 276.495 L 290.900 277.056 291.985 275.028 L 293.070 273.000 293.785 273.014 " stroke="#000000" fill="none"/><path d="M5.500 0.000 L 0.000 0.000 0.000 44.167 L 0.000 88.333 0.396 87.917 L 0.792 87.500 1.401 79.500 L 2.011 71.500 3.053 65.500 L 4.096 59.500 4.409 55.500 L 4.722 51.500 6.424 39.018 L 8.127 26.535 9.635 23.357 L 11.143 20.178 10.166 16.638 L 9.188 13.098 10.070 9.299 L 10.952 5.500 10.976 2.750 L 11.000 0.000 5.500 0.000 M239.466 60.095 L 231.121 60.212 230.752 60.581 L 230.383 60.950 226.448 61.575 L 222.512 62.201 219.506 63.743 L 216.500 65.285 210.500 69.579 L 204.500 73.872 199.500 78.708 L 194.500 83.544 190.236 89.949 L 185.972 96.354 184.393 101.427 L 182.813 106.500 182.419 120.500 L 182.026 134.500 182.927 138.337 L 183.829 142.174 181.487 141.586 L 179.145 140.998 177.822 142.322 L 176.500 143.647 176.651 151.573 L 176.802 159.500 177.516 172.000 L 178.229 184.500 179.324 185.854 L 180.418 187.208 182.584 188.032 L 184.750 188.856 185.510 192.678 L 186.269 196.500 186.466 199.000 L 186.664 201.500 187.764 205.000 L 188.864 208.500 188.807 211.250 L 188.750 214.000 178.207 214.000 L 167.664 214.000 161.082 212.993 L 154.500 211.986 148.330 210.900 L 142.159 209.815 140.145 210.454 L 138.130 211.094 136.654 215.797 L 135.178 220.500 134.589 229.167 L 134.001 237.833 133.449 239.273 L 132.896 240.713 124.698 241.352 L 116.500 241.991 107.000 244.622 L 97.500 247.253 94.000 248.110 L 90.500 248.968 87.754 249.502 L 85.007 250.036 79.611 255.432 L 74.216 260.828 70.903 269.664 L 67.590 278.500 62.499 284.000 L 57.408 289.500 51.376 298.000 L 45.344 306.500 42.327 311.000 L 39.309 315.500 36.155 323.373 L 33.000 331.246 33.000 332.123 L 33.000 333.000 128.034 333.000 L 223.069 333.000 222.406 328.000 L 221.742 323.000 224.016 323.000 L 226.289 323.000 225.721 315.500 L 225.154 308.000 226.827 307.970 L 228.500 307.939 226.695 306.889 L 224.889 305.839 226.058 304.430 L 227.227 303.022 228.044 303.527 L 228.862 304.033 229.490 303.016 L 230.118 302.000 232.559 302.000 L 235.000 302.000 235.000 302.883 L 235.000 303.767 236.845 304.249 L 238.689 304.732 240.345 311.321 L 242.000 317.911 241.976 321.706 L 241.952 325.500 241.114 329.108 L 240.275 332.715 247.626 332.910 L 254.977 333.104 254.407 331.302 L 253.837 329.500 255.279 331.250 L 256.720 333.000 263.280 333.000 L 269.839 333.000 268.961 329.750 L 268.083 326.500 267.861 320.000 L 267.640 313.500 268.424 309.786 L 269.209 306.071 270.759 304.786 L 272.308 303.500 283.100 303.582 L 293.891 303.665 295.251 304.582 L 296.611 305.500 293.574 303.000 L 290.537 300.500 281.061 291.634 L 271.585 282.768 269.292 281.723 L 267.000 280.679 267.000 279.994 L 267.000 279.310 268.960 277.536 L 270.919 275.763 273.395 276.384 L 275.870 277.006 279.158 274.003 L 282.446 271.000 283.641 271.000 L 284.837 271.000 287.101 267.336 L 289.366 263.672 289.669 253.750 L 289.971 243.827 289.129 240.078 L 288.286 236.329 289.476 234.702 L 290.665 233.076 292.299 242.788 L 293.933 252.500 294.472 262.000 L 295.012 271.500 296.143 277.289 L 297.275 283.077 299.138 284.074 L 301.000 285.070 301.118 288.285 L 301.237 291.500 301.927 288.500 L 302.617 285.500 304.808 294.624 L 307.000 303.748 307.000 306.674 L 307.000 309.600 307.848 310.550 L 308.696 311.500 309.971 319.000 L 311.247 326.500 311.676 328.930 L 312.104 331.360 312.611 332.180 L 313.118 333.000 384.059 333.000 L 455.000 333.000 455.000 331.970 L 455.000 330.940 452.627 325.220 L 450.255 319.500 448.990 315.500 L 447.725 311.500 444.745 305.500 L 441.764 299.500 437.474 293.449 L 433.183 287.398 429.117 283.724 L 425.050 280.051 422.275 279.443 L 419.500 278.835 414.500 276.992 L 409.500 275.150 405.764 274.002 L 402.028 272.854 401.515 272.025 L 401.003 271.196 398.570 253.348 L 396.137 235.500 396.672 232.819 L 397.207 230.138 395.471 224.819 L 393.735 219.500 392.674 218.165 L 391.613 216.829 387.057 217.446 L 382.500 218.062 342.938 217.970 L 303.377 217.878 301.438 217.590 L 299.500 217.303 299.830 214.401 L 300.161 211.500 301.915 208.474 L 303.668 205.448 304.328 199.139 L 304.987 192.830 305.553 191.915 L 306.118 191.000 308.024 191.000 L 309.930 191.000 311.046 188.914 L 312.162 186.829 311.581 186.248 L 311.000 185.667 311.000 187.048 L 311.000 188.429 309.358 186.787 L 307.716 185.144 307.473 182.054 L 307.230 178.964 309.622 177.083 L 312.014 175.201 311.390 173.575 L 310.766 171.949 309.383 173.097 L 308.000 174.245 308.000 176.322 L 308.000 178.400 306.891 177.291 L 305.782 176.182 308.603 171.163 L 311.425 166.144 312.066 166.541 L 312.708 166.937 313.636 164.719 L 314.564 162.500 314.194 155.690 L 313.824 148.880 311.162 149.190 L 308.500 149.500 307.942 143.500 L 307.384 137.500 308.287 127.758 L 309.190 118.016 306.490 107.777 L 303.789 97.538 301.395 94.692 L 299.000 91.847 299.000 91.059 L 299.000 90.272 293.739 84.708 L 288.478 79.145 280.612 73.822 L 272.746 68.500 268.090 65.802 L 263.433 63.105 258.144 62.500 L 252.855 61.895 250.333 60.936 L 247.811 59.978 239.466 60.095 M229.250 91.050 L 230.000 91.000 230.000 91.838 L 230.000 92.676 234.528 92.847 L 239.056 93.018 240.988 94.225 L 242.920 95.431 246.210 94.297 L 249.500 93.164 254.000 93.114 L 258.500 93.063 263.829 92.043 L 269.158 91.022 273.829 93.185 L 278.500 95.349 280.140 95.499 L 281.781 95.650 285.328 99.521 L 288.875 103.393 288.378 104.197 L 287.882 105.000 286.882 105.000 L 285.882 105.000 286.515 103.750 L 287.148 102.500 285.535 104.495 L 283.921 106.490 282.884 104.995 L 281.848 103.500 281.341 104.750 L 280.833 106.000 278.858 106.000 L 276.882 106.000 277.345 105.250 L 277.809 104.500 275.655 104.451 L 273.500 104.402 271.250 103.633 L 269.000 102.865 269.000 104.933 L 269.000 107.000 271.250 107.118 L 273.500 107.237 274.272 107.111 L 275.044 106.985 276.188 109.743 L 277.332 112.500 277.416 114.500 L 277.500 116.500 282.294 119.704 L 287.089 122.908 291.475 128.190 L 295.861 133.472 295.376 133.957 L 294.891 134.442 294.193 133.471 L 293.494 132.500 289.225 130.207 L 284.956 127.915 277.728 128.448 L 270.500 128.982 263.000 130.044 L 255.500 131.106 254.250 131.220 L 253.000 131.333 253.000 132.048 L 253.000 132.763 248.750 133.811 L 244.500 134.860 241.794 134.322 L 239.088 133.784 237.561 131.453 L 236.034 129.122 234.267 129.046 L 232.500 128.971 227.500 128.433 L 222.500 127.896 220.500 126.950 L 218.500 126.004 216.000 125.576 L 213.500 125.149 211.750 125.074 L 210.000 125.000 210.000 123.985 L 210.000 122.971 212.996 121.148 L 215.993 119.326 215.427 118.760 L 214.861 118.195 216.171 116.097 L 217.481 114.000 218.595 114.000 L 219.708 114.000 222.363 111.539 L 225.018 109.078 223.031 105.810 L 221.043 102.541 219.405 101.967 L 217.768 101.393 221.854 97.446 L 225.939 93.500 227.220 92.300 L 228.500 91.100 229.250 91.050 M297.025 136.000 L 297.757 136.000 298.836 138.750 L 299.915 141.500 301.957 150.329 L 304.000 159.158 304.000 165.201 L 304.000 171.245 302.511 170.009 L 301.022 168.773 301.703 167.637 L 302.384 166.500 300.538 168.000 L 298.693 169.500 298.096 169.151 L 297.500 168.803 295.773 167.878 L 294.046 166.954 292.044 168.956 L 290.042 170.958 290.646 173.979 L 291.250 177.000 289.594 177.000 L 287.937 177.000 287.392 178.421 L 286.847 179.842 280.173 179.831 L 273.500 179.820 269.911 178.330 L 266.321 176.841 264.174 172.421 L 262.026 168.000 266.763 167.855 L 271.500 167.710 277.750 167.659 L 284.000 167.607 284.000 166.912 L 284.000 166.217 286.433 165.606 L 288.867 164.995 289.505 162.983 L 290.144 160.971 290.987 161.492 L 291.829 162.012 293.996 158.506 L 296.163 155.000 296.641 155.000 L 297.118 155.000 296.507 155.989 L 295.896 156.977 297.391 156.403 L 298.886 155.830 299.245 154.165 L 299.603 152.500 298.425 149.500 L 297.247 146.500 296.770 141.250 L 296.294 136.000 297.025 136.000 M247.058 145.000 L 248.972 145.000 251.452 148.750 L 253.932 152.500 254.170 155.640 L 254.409 158.780 255.868 158.220 L 257.328 157.660 256.605 158.830 L 255.882 160.000 256.666 161.250 L 257.449 162.500 257.762 164.774 L 258.075 167.048 261.219 171.509 L 264.364 175.970 263.779 176.554 L 263.195 177.139 259.095 175.910 L 254.994 174.682 251.008 175.997 L 247.021 177.313 243.010 175.505 L 239.000 173.696 239.000 172.015 L 239.000 170.333 238.418 169.752 L 237.837 169.170 234.316 170.641 L 230.796 172.112 231.273 170.806 L 231.750 169.500 232.875 169.750 L 234.000 170.000 234.000 168.829 L 234.000 167.657 235.497 166.004 L 236.993 164.350 237.220 161.612 L 237.447 158.874 238.736 157.804 L 240.025 156.735 238.890 155.367 L 237.755 154.000 238.810 154.000 L 239.865 154.000 240.474 152.082 L 241.082 150.165 243.114 147.582 L 245.145 145.000 247.058 145.000 M211.500 169.567 L 213.500 170.128 217.773 170.696 L 222.046 171.265 222.683 172.383 L 223.321 173.500 222.502 172.759 L 221.684 172.017 220.290 173.174 L 218.896 174.331 213.948 174.428 L 209.000 174.525 209.000 173.762 L 209.000 173.000 207.500 173.000 L 206.000 173.000 206.000 172.050 L 206.000 171.099 207.750 170.053 L 209.500 169.007 211.500 169.567 M267.925 180.185 L 269.886 181.410 270.498 183.850 L 271.111 186.289 270.213 187.187 L 269.315 188.085 268.209 186.751 L 267.102 185.418 266.533 182.190 L 265.965 178.961 267.925 180.185 M216.758 264.299 L 218.500 264.266 220.213 265.754 L 221.926 267.243 223.369 266.689 L 224.812 266.135 226.538 268.042 L 228.264 269.949 230.363 270.615 L 232.461 271.281 235.136 273.258 L 237.810 275.236 238.792 274.629 L 239.773 274.022 240.842 275.309 L 241.910 276.596 238.821 279.048 L 235.732 281.500 231.116 285.792 L 226.500 290.084 223.657 291.616 L 220.814 293.147 220.346 292.679 L 219.878 292.211 219.818 287.865 L 219.758 283.518 217.550 276.745 L 215.341 269.972 217.671 272.160 L 220.000 274.349 220.000 273.800 L 220.000 273.252 217.508 268.793 L 215.015 264.333 216.758 264.299 " stroke="#000000" fill="none"/><path d="M2.495 -0.000 L 0.000 0.000 -0.000 4.938 L -0.000 9.876 1.833 9.738 L 3.667 9.600 3.699 8.550 L 3.731 7.500 4.360 3.750 L 4.989 -0.000 2.495 -0.000 M3.809 15.116 L 3.500 15.232 1.750 15.689 L 0.000 16.147 0.000 21.182 L -0.000 26.217 2.750 25.541 L 5.500 24.865 7.750 23.409 L 10.000 21.954 10.000 20.677 L 10.000 19.400 8.800 18.200 L 7.600 17.000 5.241 17.000 L 2.882 17.000 3.500 16.000 L 4.118 15.000 3.809 15.116 M242.176 60.126 L 240.500 60.253 232.000 61.501 L 223.500 62.749 219.642 64.369 L 215.784 65.988 210.642 69.663 L 205.500 73.337 201.654 76.918 L 197.807 80.500 193.543 86.000 L 189.279 91.500 186.614 96.766 L 183.950 102.033 183.021 111.778 L 182.093 121.522 183.008 133.579 L 183.923 145.636 184.569 147.318 L 185.214 149.000 183.421 149.000 L 181.629 149.000 179.314 146.826 L 177.000 144.651 177.000 146.626 L 177.000 148.601 178.250 151.293 L 179.500 153.984 180.715 153.992 L 181.930 154.000 182.961 155.928 L 183.993 157.855 183.385 159.440 L 182.776 161.025 183.880 162.356 L 184.984 163.686 184.920 174.150 L 184.856 184.614 184.040 185.935 L 183.224 187.256 182.112 186.569 L 181.000 185.882 181.000 186.466 L 181.000 187.050 183.507 188.003 L 186.015 188.956 185.836 189.728 L 185.658 190.500 186.423 195.500 L 187.188 200.500 188.500 205.753 L 189.811 211.005 189.269 213.078 L 188.727 215.151 177.614 214.504 L 166.500 213.858 156.000 212.379 L 145.500 210.901 143.237 210.339 L 140.974 209.777 139.542 210.965 L 138.110 212.154 136.644 216.827 L 135.178 221.500 134.590 230.894 L 134.001 240.287 140.842 239.651 L 147.682 239.016 148.301 239.635 L 148.921 240.254 147.420 243.846 L 145.919 247.438 145.815 253.516 L 145.712 259.593 146.726 261.547 L 147.740 263.500 147.445 265.342 L 147.150 267.183 146.591 267.743 L 146.031 268.302 147.560 269.420 L 149.090 270.539 149.252 272.700 L 149.415 274.861 150.319 274.303 L 151.224 273.744 152.096 275.122 L 152.969 276.500 152.985 277.857 L 153.000 279.214 151.681 278.708 L 150.362 278.202 149.286 281.053 L 148.210 283.905 149.573 285.702 L 150.936 287.500 150.953 288.500 L 150.969 289.500 150.021 288.000 L 149.072 286.500 147.286 288.391 L 145.500 290.282 146.500 289.736 L 147.501 289.190 150.500 291.590 L 153.500 293.990 151.833 293.995 L 150.167 294.000 149.742 295.250 L 149.316 296.500 150.158 298.000 L 150.999 299.500 151.998 302.310 L 152.996 305.120 153.998 304.501 L 155.000 303.882 155.000 305.441 L 155.000 307.000 153.878 307.000 L 152.755 307.000 153.992 308.490 L 155.229 309.981 157.649 309.373 L 160.070 308.766 159.490 312.055 L 158.911 315.345 157.207 316.591 L 155.503 317.836 156.252 318.585 L 157.000 319.333 157.000 318.167 L 157.000 317.000 158.042 317.000 L 159.084 317.000 160.902 318.750 L 162.721 320.500 163.308 325.000 L 163.894 329.500 163.364 328.250 L 162.833 327.000 161.762 327.000 L 160.690 327.000 162.345 328.829 L 164.000 330.657 164.000 331.829 L 164.000 333.000 188.941 333.000 L 213.882 333.000 214.457 332.069 L 215.033 331.138 214.105 330.565 L 213.177 329.991 213.454 327.471 L 213.730 324.951 212.919 324.450 L 212.107 323.948 213.515 319.958 L 214.922 315.968 212.961 314.744 L 211.000 313.519 211.000 311.700 L 211.000 309.882 211.931 310.457 L 212.862 311.033 213.500 310.000 L 214.138 308.967 214.936 309.461 L 215.735 309.954 215.437 303.993 L 215.140 298.032 216.077 297.452 L 217.014 296.873 217.437 298.187 L 217.860 299.500 218.499 305.500 L 219.139 311.500 219.358 318.500 L 219.577 325.500 220.396 327.875 L 221.214 330.250 220.011 329.507 L 218.808 328.763 219.165 330.620 L 219.523 332.477 221.011 332.766 L 222.500 333.055 222.163 326.498 L 221.827 319.942 223.163 320.221 L 224.500 320.500 224.334 316.500 L 224.168 312.500 224.001 308.027 L 223.833 303.553 226.167 301.777 L 228.500 300.001 229.808 298.907 L 231.116 297.812 233.366 298.377 L 235.616 298.942 237.750 303.221 L 239.884 307.500 240.917 312.000 L 241.951 316.500 241.976 320.167 L 242.000 323.833 243.250 324.341 L 244.500 324.848 243.329 325.684 L 242.159 326.520 241.482 329.216 L 240.805 331.913 243.153 332.337 L 245.500 332.761 249.616 332.853 L 253.731 332.946 253.440 329.723 L 253.149 326.500 253.639 327.694 L 254.129 328.888 255.433 328.387 L 256.737 327.887 256.481 330.221 L 256.225 332.556 262.612 332.843 L 269.000 333.130 269.000 332.124 L 269.000 331.118 268.209 330.629 L 267.419 330.141 267.555 318.609 L 267.692 307.076 268.968 305.538 L 270.245 304.000 272.644 304.000 L 275.043 304.000 276.111 301.656 L 277.179 299.312 279.577 299.770 L 281.976 300.228 280.890 297.115 L 279.805 294.002 278.914 294.553 L 278.023 295.104 278.616 293.558 L 279.210 292.011 280.179 292.610 L 281.148 293.209 279.972 291.355 L 278.796 289.500 274.394 286.000 L 269.992 282.500 265.650 280.225 L 261.309 277.949 267.154 272.086 L 273.000 266.222 273.000 265.257 L 273.000 264.292 275.625 261.460 L 278.249 258.628 281.969 252.551 L 285.689 246.473 286.824 242.987 L 287.959 239.500 288.198 236.174 L 288.437 232.848 289.149 232.408 L 289.862 231.967 290.439 232.901 L 291.016 233.835 292.549 242.167 L 294.082 250.500 294.952 263.468 L 295.823 276.436 299.395 279.302 L 302.968 282.169 304.089 286.330 L 305.210 290.492 305.644 292.496 L 306.078 294.500 308.603 308.695 L 311.128 322.890 312.314 327.695 L 313.500 332.500 315.698 332.813 L 317.896 333.126 316.847 329.813 L 315.797 326.500 315.836 324.750 L 315.876 323.000 315.105 323.000 L 314.333 323.000 314.280 321.750 L 314.227 320.500 313.514 312.000 L 312.802 303.500 311.380 302.689 L 309.958 301.877 310.538 300.939 L 311.118 300.000 310.090 300.000 L 309.063 300.000 309.612 298.570 L 310.160 297.140 308.687 293.820 L 307.214 290.500 306.448 288.500 L 305.682 286.500 305.819 285.818 L 305.955 285.136 304.517 281.695 L 303.079 278.254 303.788 277.545 L 304.497 276.836 302.623 275.466 L 300.749 274.096 301.234 271.554 L 301.720 269.013 300.370 267.892 L 299.019 266.771 299.618 264.386 L 300.217 262.000 298.992 262.000 L 297.767 262.000 298.245 259.500 L 298.723 257.000 298.020 257.000 L 297.317 257.000 296.120 253.006 L 294.923 249.012 295.950 247.093 L 296.977 245.174 298.239 244.743 L 299.500 244.313 303.167 248.072 L 306.834 251.831 314.667 251.665 L 322.500 251.500 332.500 254.228 L 342.500 256.957 352.000 259.055 L 361.500 261.154 365.877 263.077 L 370.254 265.000 373.377 265.006 L 376.500 265.012 387.000 267.898 L 397.500 270.785 399.246 271.498 L 400.992 272.211 400.494 269.355 L 399.996 266.500 398.050 252.000 L 396.103 237.500 395.566 231.662 L 395.030 225.824 393.976 221.912 L 392.923 218.000 391.211 217.842 L 389.500 217.685 388.000 217.833 L 386.500 217.982 378.000 218.582 L 369.500 219.183 334.227 218.475 L 298.953 217.766 299.561 214.133 L 300.168 210.500 301.165 207.241 L 302.161 203.982 303.005 204.503 L 303.848 205.024 303.917 200.262 L 303.985 195.500 304.098 193.250 L 304.212 191.000 305.713 191.000 L 307.214 191.000 306.464 189.250 L 305.714 187.500 305.904 180.610 L 306.093 173.721 307.756 170.610 L 309.419 167.500 309.319 161.054 L 309.220 154.609 310.592 157.054 L 311.964 159.500 311.824 157.500 L 311.683 155.500 311.842 153.691 L 312.000 151.882 313.155 152.595 L 314.309 153.309 313.562 152.100 L 312.815 150.891 310.469 152.428 L 308.124 153.965 307.539 152.123 L 306.954 150.281 307.503 135.503 L 308.052 120.725 308.540 119.936 L 309.027 119.147 306.677 110.077 L 304.328 101.006 303.732 101.602 L 303.136 102.198 303.606 100.349 L 304.077 98.500 299.958 93.000 L 295.839 87.500 292.169 83.686 L 288.500 79.873 281.827 75.466 L 275.155 71.059 274.507 70.011 L 273.858 68.962 268.937 66.468 L 264.015 63.974 253.934 61.987 L 243.853 60.000 242.176 60.126 M226.994 86.429 L 228.853 86.429 228.372 87.208 L 227.890 87.987 233.945 87.541 L 240.000 87.095 240.000 88.047 L 240.000 89.000 242.000 89.000 L 244.000 89.000 244.000 89.850 L 244.000 90.700 248.250 90.276 L 252.500 89.853 254.194 88.322 L 255.887 86.792 262.011 86.600 L 268.134 86.408 268.588 87.143 L 269.042 87.877 271.000 87.500 L 272.958 87.123 273.511 88.018 L 274.064 88.913 275.520 88.354 L 276.975 87.795 281.512 90.454 L 286.048 93.113 285.461 94.063 L 284.873 95.014 286.431 95.612 L 287.989 96.210 287.462 97.061 L 286.936 97.912 289.460 99.565 L 291.983 101.219 291.337 102.264 L 290.691 103.309 291.795 102.627 L 292.900 101.944 293.849 103.722 L 294.798 105.500 293.634 112.500 L 292.471 119.500 294.380 124.500 L 296.289 129.500 298.093 134.064 L 299.896 138.629 301.487 146.064 L 303.079 153.500 304.151 159.000 L 305.223 164.500 304.594 171.500 L 303.964 178.500 302.232 184.521 L 300.500 190.543 298.667 190.182 L 296.834 189.821 297.952 191.911 L 299.070 194.000 298.272 194.000 L 297.474 194.000 296.487 191.806 L 295.500 189.611 292.750 188.892 L 290.000 188.173 290.000 189.062 L 290.000 189.950 287.435 188.975 L 284.870 188.000 280.810 188.000 L 276.750 188.000 277.341 190.956 L 277.932 193.911 276.716 193.485 L 275.500 193.058 272.500 192.434 L 269.500 191.810 267.000 191.534 L 264.500 191.258 263.610 191.129 L 262.720 191.000 263.286 185.519 L 263.852 180.037 259.937 178.983 L 256.021 177.929 253.761 178.240 L 251.500 178.551 250.029 179.471 L 248.557 180.392 245.681 180.173 L 242.805 179.953 239.653 177.657 L 236.500 175.360 235.000 175.451 L 233.500 175.541 231.202 176.353 L 228.904 177.165 227.610 176.091 L 226.316 175.017 225.726 175.608 L 225.135 176.198 227.194 180.147 L 229.252 184.095 227.376 185.542 L 225.500 186.988 219.849 186.744 L 214.198 186.500 214.585 185.868 L 214.972 185.237 219.940 181.448 L 224.908 177.659 224.345 176.749 L 223.782 175.838 221.298 176.461 L 218.815 177.085 214.157 179.320 L 209.500 181.555 206.218 181.796 L 202.937 182.037 200.968 180.983 L 199.000 179.930 199.000 178.965 L 199.000 178.000 197.000 176.000 L 195.000 174.000 195.000 171.500 L 195.000 169.000 194.511 169.000 L 194.023 169.000 192.063 170.678 L 190.102 172.357 190.706 173.333 L 191.309 174.309 190.240 173.648 L 189.171 172.988 188.742 174.244 L 188.312 175.500 187.580 169.717 L 186.848 163.934 187.487 157.217 L 188.127 150.500 189.089 145.000 L 190.052 139.500 191.772 134.000 L 193.491 128.500 194.962 127.579 L 196.432 126.659 198.738 124.353 L 201.044 122.047 203.022 120.988 L 205.000 119.930 205.000 118.842 L 205.000 117.755 203.616 118.904 L 202.231 120.053 202.384 117.276 L 202.537 114.500 203.423 113.095 L 204.309 111.691 203.157 112.403 L 202.004 113.115 202.345 108.600 L 202.685 104.084 203.956 102.553 L 205.227 101.022 206.113 101.570 L 207.000 102.118 207.000 100.385 L 207.000 98.651 204.376 101.076 L 201.752 103.500 202.494 101.000 L 203.237 98.500 204.630 96.908 L 206.023 95.317 211.262 93.687 L 216.500 92.056 219.250 91.509 L 222.000 90.962 222.000 89.841 L 222.000 88.720 223.567 87.575 L 225.134 86.429 226.994 86.429 M212.000 128.542 L 204.500 128.086 199.750 131.128 L 195.000 134.169 194.888 135.835 L 194.776 137.500 194.384 140.954 L 193.991 144.409 192.996 145.404 L 192.000 146.400 192.015 149.950 L 192.031 153.500 192.845 152.216 L 193.660 150.932 195.330 151.573 L 197.000 152.214 197.000 153.107 L 197.000 154.000 195.750 154.063 L 194.500 154.127 197.000 155.220 L 199.500 156.312 200.315 156.135 L 201.130 155.957 204.064 158.046 L 206.999 160.135 208.989 159.504 L 210.979 158.872 213.212 160.436 L 215.445 162.000 219.069 162.000 L 222.693 162.000 226.096 160.329 L 229.500 158.658 231.702 156.329 L 233.905 154.000 235.011 154.000 L 236.118 154.000 235.395 152.830 L 234.672 151.660 236.238 152.261 L 237.805 152.862 239.821 148.204 L 241.837 143.546 238.333 138.773 L 234.830 134.000 235.665 133.983 L 236.500 133.966 233.500 132.064 L 230.500 130.162 225.000 129.580 L 219.500 128.998 212.000 128.542 M281.413 130.356 L 276.302 130.031 275.901 130.388 L 275.500 130.744 268.708 131.318 L 261.916 131.893 259.084 134.196 L 256.251 136.500 253.656 138.367 L 251.060 140.235 250.525 141.920 L 249.990 143.606 252.587 149.053 L 255.184 154.500 258.194 159.246 L 261.204 163.992 262.058 163.464 L 262.913 162.936 262.349 161.468 L 261.786 160.000 263.393 160.000 L 265.000 160.000 265.000 160.839 L 265.000 161.679 267.564 162.847 L 270.127 164.015 269.553 163.085 L 268.978 162.155 272.624 163.162 L 276.270 164.169 280.775 162.448 L 285.280 160.728 289.750 156.194 L 294.219 151.660 293.776 146.314 L 293.333 140.969 294.610 139.908 L 295.888 138.848 294.805 136.472 L 293.723 134.096 290.123 132.388 L 286.524 130.680 281.413 130.356 M236.250 202.448 L 237.500 202.833 240.250 203.436 L 243.000 204.038 243.000 205.352 L 243.000 206.667 241.500 206.667 L 240.000 206.667 240.000 205.774 L 240.000 204.882 239.090 205.444 L 238.180 206.006 236.590 205.396 L 235.000 204.786 235.000 203.424 L 235.000 202.063 236.250 202.448 M220.911 207.700 L 222.564 209.500 224.886 213.286 L 227.208 217.072 228.515 215.988 L 229.822 214.903 230.423 215.875 L 231.024 216.847 236.012 218.504 L 241.000 220.161 241.000 221.139 L 241.000 222.118 239.750 221.367 L 238.500 220.616 240.000 222.471 L 241.500 224.325 240.000 223.805 L 238.500 223.285 236.000 224.988 L 233.500 226.691 230.373 225.848 L 227.245 225.006 225.899 221.756 L 224.553 218.506 224.835 216.354 L 225.117 214.203 223.308 214.351 L 221.500 214.500 221.794 212.750 L 222.088 211.000 221.160 211.000 L 220.233 211.000 219.746 208.450 L 219.258 205.900 220.911 207.700 M250.801 222.503 L 255.500 224.776 256.235 223.638 L 256.969 222.500 256.985 223.595 L 257.000 224.690 255.000 226.500 L 253.000 228.310 252.882 226.905 L 252.763 225.500 252.922 224.627 L 253.082 223.755 251.489 224.366 L 249.896 224.977 250.507 223.989 L 251.118 223.000 250.118 223.000 L 249.118 223.000 248.498 224.003 L 247.879 225.005 246.071 224.038 L 244.263 223.070 243.392 223.785 L 242.521 224.500 244.312 222.365 L 246.102 220.229 250.801 222.503 M360.920 223.411 L 366.000 223.323 365.999 223.911 L 365.997 224.500 369.749 224.500 L 373.500 224.500 373.500 225.500 L 373.500 226.500 372.000 226.304 L 370.500 226.108 356.000 226.136 L 341.500 226.164 324.464 226.544 L 307.428 226.925 305.129 226.324 L 302.831 225.723 304.074 224.954 L 305.317 224.186 330.331 224.088 L 355.345 223.989 355.593 223.744 L 355.841 223.500 360.920 223.411 M102.821 246.488 L 102.200 245.867 101.621 246.804 L 101.042 247.742 97.771 248.521 L 94.500 249.301 90.930 249.455 L 87.359 249.608 84.110 251.922 L 80.860 254.236 77.058 259.046 L 73.255 263.857 70.454 271.538 L 67.652 279.220 62.891 284.429 L 58.130 289.638 50.306 300.569 L 42.482 311.500 40.752 314.198 L 39.022 316.896 36.613 323.198 L 34.204 329.500 33.488 331.268 L 32.772 333.037 72.974 332.977 L 113.177 332.918 111.975 331.470 L 110.773 330.022 109.637 330.598 L 108.500 331.174 111.000 329.020 L 113.500 326.866 111.403 327.886 L 109.306 328.906 108.153 327.753 L 107.000 326.600 107.015 325.550 L 107.031 324.500 108.000 326.000 L 108.969 327.500 108.985 325.750 L 109.000 324.000 107.750 323.970 L 106.500 323.939 108.250 322.920 L 110.000 321.901 110.000 320.861 L 110.000 319.822 106.848 322.474 L 103.696 325.126 102.873 323.813 L 102.051 322.500 104.025 321.597 L 106.000 320.694 105.985 319.597 L 105.969 318.500 105.155 317.216 L 104.340 315.932 102.676 316.571 L 101.011 317.210 101.660 318.259 L 102.309 319.309 101.289 318.678 L 100.268 318.048 100.768 315.432 L 101.268 312.816 102.119 314.158 L 102.969 315.500 103.112 315.000 L 103.255 314.500 103.491 312.250 L 103.727 310.000 102.485 310.000 L 101.244 310.000 99.817 312.148 L 98.391 314.297 97.062 313.854 L 95.732 313.411 97.528 311.615 L 99.324 309.818 98.109 309.068 L 96.894 308.317 97.197 306.933 L 97.500 305.549 99.760 303.694 L 102.019 301.840 101.493 300.989 L 100.967 300.138 101.920 299.549 L 102.873 298.961 102.765 297.230 L 102.657 295.500 103.436 293.125 L 104.214 290.750 103.107 291.434 L 102.000 292.118 102.000 294.059 L 102.000 296.000 99.500 296.000 L 97.000 296.000 97.000 295.000 L 97.000 294.000 98.000 294.000 L 99.000 294.000 99.000 292.800 L 99.000 291.600 97.878 292.722 L 96.756 293.844 95.367 293.311 L 93.977 292.777 94.582 294.639 L 95.186 296.500 93.115 294.000 L 91.044 291.500 91.022 290.781 L 91.000 290.063 92.250 290.367 L 93.500 290.672 92.750 290.253 L 92.000 289.833 92.000 288.962 L 92.000 288.091 94.500 285.591 L 97.000 283.091 96.970 281.795 L 96.939 280.500 95.927 282.238 L 94.914 283.975 92.707 285.151 L 90.500 286.327 91.792 284.761 L 93.083 283.194 91.792 282.676 L 90.500 282.158 92.294 282.079 L 94.088 282.000 93.834 280.750 L 93.580 279.500 94.606 277.500 L 95.632 275.500 95.505 274.000 L 95.377 272.500 96.310 271.251 L 97.243 270.002 96.008 267.020 L 94.773 264.039 95.415 261.482 L 96.057 258.925 97.278 259.081 L 98.500 259.237 100.250 259.118 L 102.000 259.000 102.000 257.200 L 102.000 255.400 101.233 254.450 L 100.467 253.500 100.840 253.690 L 101.213 253.880 102.456 252.718 L 103.700 251.557 102.276 250.133 L 100.852 248.709 102.147 247.909 L 103.442 247.109 102.821 246.488 M88.837 257.604 L 89.173 257.840 84.013 272.670 L 78.852 287.500 77.511 294.000 L 76.169 300.500 75.057 303.389 L 73.944 306.277 73.391 305.724 L 72.838 305.171 73.919 303.151 L 75.000 301.131 75.000 300.459 L 75.000 299.786 73.623 300.314 L 72.246 300.843 72.912 297.671 L 73.578 294.500 73.493 291.813 L 73.409 289.126 75.209 288.656 L 77.008 288.185 76.397 286.593 L 75.786 285.000 75.025 285.000 L 74.264 285.000 77.382 277.153 L 80.500 269.306 81.741 267.811 L 82.983 266.316 82.360 265.694 L 81.738 265.072 83.382 261.607 L 85.027 258.142 86.763 257.755 L 88.500 257.368 88.837 257.604 M214.186 259.000 L 215.371 259.000 217.686 261.174 L 220.000 263.349 220.000 261.686 L 220.000 260.024 222.196 260.262 L 224.391 260.500 229.273 265.000 L 234.155 269.500 234.828 269.543 L 235.500 269.585 241.202 273.293 L 246.904 277.000 248.952 277.000 L 251.000 277.000 251.000 277.839 L 251.000 278.679 248.500 279.818 L 246.000 280.957 246.000 279.586 L 246.000 278.214 244.560 277.661 L 243.119 277.109 239.310 279.673 L 235.500 282.237 230.442 286.994 L 225.384 291.750 222.082 293.458 L 218.780 295.165 219.299 294.326 L 219.817 293.487 218.002 284.993 L 216.186 276.500 214.608 270.000 L 213.030 263.500 213.015 261.250 L 213.000 259.000 214.186 259.000 M259.971 277.672 L 260.442 278.109 258.971 279.049 L 257.500 279.989 251.769 281.621 L 246.038 283.253 246.501 284.001 L 246.964 284.750 244.292 284.750 L 241.621 284.750 243.467 283.401 L 245.312 282.051 250.906 280.507 L 256.500 278.963 258.000 278.099 L 259.500 277.235 259.971 277.672 M425.906 286.000 L 422.818 282.500 423.549 284.500 L 424.280 286.500 426.683 292.914 L 429.086 299.329 428.178 299.914 L 427.270 300.500 426.567 302.750 L 425.865 305.000 426.844 305.000 L 427.823 305.000 427.488 306.750 L 427.153 308.500 427.061 309.000 L 426.969 309.500 425.909 308.000 L 424.848 306.500 425.252 308.000 L 425.657 309.500 427.939 309.834 L 430.222 310.168 429.552 309.084 L 428.882 308.000 429.774 308.000 L 430.667 308.000 430.667 312.543 L 430.667 317.086 429.333 316.574 L 428.000 316.063 428.000 316.564 L 428.000 317.064 430.250 317.918 L 432.500 318.771 429.750 320.046 L 427.000 321.321 427.000 322.136 L 427.000 322.950 430.155 322.319 L 433.311 321.688 432.586 322.860 L 431.862 324.033 430.681 323.344 L 429.500 322.656 431.348 324.765 L 433.196 326.874 432.537 327.940 L 431.879 329.005 430.189 328.109 L 428.500 327.213 427.500 328.357 L 426.500 329.500 426.359 331.260 L 426.219 333.020 440.540 332.940 L 454.862 332.859 453.503 328.680 L 452.144 324.500 449.587 317.748 L 447.031 310.995 444.377 305.748 L 441.723 300.500 437.973 295.000 L 434.223 289.500 431.409 287.000 L 428.596 284.500 431.298 287.827 L 434.000 291.153 434.000 292.577 L 434.000 294.000 434.883 294.000 L 435.767 294.000 436.492 296.250 L 437.216 298.500 437.066 299.375 L 436.917 300.250 438.434 301.928 L 439.952 303.605 440.266 305.552 L 440.580 307.500 442.425 310.281 L 444.271 313.062 443.856 313.477 L 443.442 313.891 442.386 313.196 L 441.329 312.500 438.606 306.500 L 435.882 300.500 436.026 300.112 L 436.171 299.724 435.249 299.112 L 434.327 298.500 431.660 294.000 L 428.993 289.500 425.906 286.000 M260.862 287.000 L 261.787 287.000 260.796 291.250 L 259.805 295.500 258.473 298.460 L 257.141 301.419 257.819 302.460 L 258.498 303.500 258.845 301.000 L 259.192 298.500 259.998 297.500 L 260.804 296.500 261.968 292.149 L 263.131 287.798 263.672 288.339 L 264.212 288.879 262.187 295.190 L 260.161 301.500 259.442 305.395 L 258.723 309.289 259.792 308.628 L 260.862 307.967 261.434 308.893 L 262.006 309.820 261.491 311.160 L 260.976 312.500 258.649 312.634 L 256.322 312.768 256.777 310.384 L 257.233 308.000 256.584 308.000 L 255.936 308.000 254.942 310.250 L 253.948 312.500 254.411 308.750 L 254.874 305.000 253.937 305.000 L 253.000 305.000 252.985 307.250 L 252.969 309.500 251.924 311.000 L 250.879 312.500 251.578 309.000 L 252.278 305.500 252.611 303.000 L 252.944 300.500 253.513 297.500 L 254.081 294.500 252.633 298.324 L 251.185 302.149 250.592 302.741 L 250.000 303.333 250.000 300.226 L 250.000 297.118 250.871 296.580 L 251.742 296.042 252.367 292.913 L 252.993 289.783 254.470 290.350 L 255.947 290.917 256.943 289.208 L 257.939 287.500 257.970 289.072 L 258.000 290.644 256.388 295.376 L 254.775 300.108 255.277 300.610 L 255.779 301.112 257.494 295.306 L 259.209 289.500 259.573 288.250 L 259.937 287.000 260.862 287.000 M343.135 288.000 L 342.270 288.000 339.885 289.862 L 337.500 291.725 335.340 292.401 L 333.181 293.077 331.968 294.539 L 330.755 296.000 331.406 296.000 L 332.057 296.000 338.029 292.986 L 344.000 289.971 344.000 288.986 L 344.000 288.000 343.135 288.000 M171.189 290.363 L 173.500 290.732 173.421 292.866 L 173.341 295.000 173.948 295.000 L 174.555 295.000 176.777 293.443 L 179.000 291.887 179.000 293.355 L 179.000 294.824 175.000 295.500 L 171.000 296.176 171.000 296.935 L 171.000 297.694 173.250 298.780 L 175.500 299.865 173.939 299.932 L 172.377 300.000 170.176 297.949 L 167.974 295.898 167.045 296.472 L 166.116 297.046 166.353 294.273 L 166.590 291.500 168.284 291.637 L 169.978 291.774 169.428 290.884 L 168.878 289.994 171.189 290.363 M180.703 306.323 L 181.175 308.147 182.365 307.690 L 183.556 307.233 183.452 309.609 L 183.348 311.986 182.683 312.651 L 182.017 313.316 183.211 314.754 L 184.404 316.192 181.952 315.846 L 179.500 315.500 179.367 313.235 L 179.234 310.969 179.686 312.985 L 180.139 315.000 180.935 315.000 L 181.731 315.000 180.909 310.750 L 180.087 306.500 180.160 305.500 L 180.232 304.500 180.703 306.323 M119.000 309.000 L 118.000 309.000 118.000 310.500 L 118.000 312.000 119.000 312.000 L 120.000 312.000 120.000 313.000 L 120.000 314.000 119.250 313.882 L 118.500 313.763 117.559 313.882 L 116.618 314.000 118.458 315.345 L 120.298 316.691 117.899 316.595 L 115.500 316.500 115.180 318.750 L 114.861 321.000 113.930 321.000 L 113.000 321.000 112.480 320.979 L 111.961 320.958 110.606 322.224 L 109.251 323.489 109.732 324.745 L 110.214 326.000 111.607 326.000 L 113.000 326.000 113.000 324.500 L 113.000 323.000 114.667 323.000 L 116.333 323.000 115.664 322.331 L 114.996 321.662 116.748 319.659 L 118.500 317.656 117.250 318.387 L 116.000 319.118 116.000 318.059 L 116.000 317.000 117.417 317.000 L 118.833 317.000 119.338 318.250 L 119.842 319.500 119.921 318.191 L 120.000 316.882 120.893 317.434 L 121.786 317.986 120.917 314.243 L 120.048 310.500 120.024 309.750 L 120.000 309.000 119.000 309.000 M109.941 310.116 L 108.382 310.000 106.441 311.433 L 104.500 312.865 105.750 314.133 L 107.000 315.400 107.000 314.578 L 107.000 313.755 108.456 314.964 L 109.912 316.172 110.913 315.554 L 111.913 314.936 111.352 313.474 L 110.790 312.011 109.964 312.522 L 109.138 313.033 108.557 312.092 L 107.976 311.151 109.738 310.692 L 111.500 310.232 109.941 310.116 M352.583 312.670 L 351.166 312.126 350.710 313.313 L 350.255 314.500 350.190 315.376 L 350.126 316.253 347.892 317.376 L 345.658 318.500 345.205 319.871 L 344.752 321.243 348.099 318.871 L 351.446 316.500 352.723 315.321 L 354.000 314.143 354.000 313.678 L 354.000 313.214 352.583 312.670 M257.905 315.000 L 258.810 315.000 258.389 319.250 L 257.969 323.500 258.914 321.500 L 259.859 319.500 259.930 321.050 L 260.000 322.600 258.936 323.664 L 257.871 324.729 259.443 326.301 L 261.015 327.872 260.008 328.495 L 259.000 329.118 259.000 328.000 L 259.000 326.882 258.250 327.336 L 257.500 327.790 256.468 326.645 L 255.435 325.500 255.238 321.000 L 255.041 316.500 255.950 318.500 L 256.859 320.500 257.048 318.500 L 257.237 316.500 257.118 315.750 L 257.000 315.000 257.905 315.000 M125.872 317.148 L 125.500 316.064 124.448 316.782 L 123.396 317.500 121.698 321.151 L 120.000 324.802 120.000 325.460 L 120.000 326.118 121.000 325.500 L 122.000 324.882 122.118 326.191 L 122.237 327.500 122.118 328.250 L 122.000 329.000 123.250 329.118 L 124.500 329.237 125.250 329.118 L 126.000 329.000 126.000 329.800 L 126.000 330.600 124.855 331.745 L 123.711 332.889 127.214 331.195 L 130.718 329.500 129.354 329.176 L 127.991 328.852 129.515 326.676 L 131.039 324.500 132.269 324.500 L 133.500 324.500 133.820 322.250 L 134.139 320.000 132.320 320.015 L 130.500 320.031 132.000 321.000 L 133.500 321.969 132.184 321.985 L 130.869 322.000 129.039 321.021 L 127.210 320.042 126.079 321.404 L 124.949 322.766 126.526 323.372 L 128.104 323.977 127.397 322.834 L 126.691 321.691 127.802 322.378 L 128.913 323.064 128.349 324.532 L 127.786 326.000 125.834 326.000 L 123.882 326.000 124.601 327.250 L 125.321 328.500 124.440 327.696 L 123.559 326.893 123.877 323.196 L 124.195 319.500 125.219 318.866 L 126.244 318.231 125.872 317.148 M147.008 316.000 L 146.000 316.000 146.000 317.059 L 146.000 318.118 144.845 317.405 L 143.691 316.691 144.494 317.990 L 145.297 319.290 142.649 318.784 L 140.000 318.277 140.000 319.080 L 140.000 319.882 140.962 320.476 L 141.924 321.071 140.962 323.601 L 140.000 326.130 140.000 326.565 L 140.000 327.000 140.813 327.000 L 141.627 327.000 143.000 323.500 L 144.373 320.000 144.946 320.000 L 145.519 320.000 146.768 318.000 L 148.017 316.000 147.008 316.000 M421.823 320.442 L 421.500 318.885 420.500 321.137 L 419.500 323.389 422.222 326.271 L 424.945 329.152 425.972 328.517 L 427.000 327.882 427.000 326.870 L 427.000 325.857 425.542 324.400 L 424.085 322.942 424.379 321.721 L 424.672 320.500 424.253 321.250 L 423.833 322.000 422.990 322.000 L 422.147 322.000 421.823 320.442 M118.551 323.000 L 118.196 323.000 117.150 326.000 L 116.104 329.000 115.493 329.000 L 114.882 329.000 115.633 327.750 L 116.384 326.500 114.645 327.912 L 112.905 329.323 114.081 330.050 L 115.256 330.776 114.623 331.800 L 113.990 332.824 115.745 332.489 L 117.500 332.153 118.000 332.070 L 118.500 331.986 118.703 327.493 L 118.907 323.000 118.551 323.000 M151.691 323.028 L 151.500 323.056 148.898 325.778 L 146.295 328.500 145.741 330.750 L 145.187 333.000 145.444 333.000 L 145.702 333.000 148.890 331.889 L 152.078 330.777 150.289 329.420 L 148.500 328.064 150.317 328.032 L 152.135 328.000 151.460 325.875 L 150.786 323.750 152.047 324.529 L 153.309 325.309 152.595 324.155 L 151.882 323.000 151.691 323.028 M138.029 327.273 L 136.220 327.409 136.722 328.717 L 137.224 330.025 135.989 331.513 L 134.755 333.000 138.678 333.000 L 142.600 333.000 143.800 331.800 L 145.000 330.600 145.000 329.733 L 145.000 328.865 142.995 329.502 L 140.990 330.138 140.414 328.637 L 139.838 327.136 138.029 327.273 " stroke="#000000" fill="none"/><path d="M1.557 0.000 L 0.000 0.000 -0.000 4.583 L -0.000 9.167 1.250 8.756 L 2.500 8.345 2.807 4.172 L 3.115 0.000 1.557 0.000 M3.382 18.973 L 0.000 18.211 0.000 21.105 L 0.000 24.000 3.893 24.000 L 7.786 24.000 8.349 22.532 L 8.913 21.064 7.838 20.400 L 6.764 19.736 3.382 18.973 M240.293 61.681 L 239.161 60.982 237.718 62.425 L 236.274 63.869 231.362 63.749 L 226.451 63.629 223.043 65.329 L 219.636 67.028 218.957 65.930 L 218.278 64.832 217.671 66.416 L 217.063 68.000 215.781 68.016 L 214.500 68.032 211.114 71.016 L 207.729 74.000 207.018 74.000 L 206.307 74.000 202.653 77.548 L 199.000 81.096 199.000 80.449 L 199.000 79.802 194.520 85.151 L 190.040 90.500 187.015 96.525 L 183.991 102.551 183.118 112.025 L 182.245 121.500 183.050 131.000 L 183.854 140.500 184.586 146.909 L 185.318 153.318 182.972 150.972 L 180.625 148.625 180.180 149.959 L 179.736 151.292 181.955 152.966 L 184.174 154.640 184.606 158.070 L 185.037 161.500 185.426 177.000 L 185.815 192.500 187.532 200.000 L 189.250 207.500 189.744 211.398 L 190.238 215.296 176.869 214.673 L 163.500 214.049 157.651 212.956 L 151.802 211.862 150.274 212.448 L 148.747 213.035 147.443 211.953 L 146.140 210.871 142.361 211.185 L 138.583 211.500 136.948 216.086 L 135.313 220.672 134.737 230.335 L 134.160 239.998 137.830 239.533 L 141.500 239.067 153.000 238.504 L 164.500 237.941 171.000 237.408 L 177.500 236.876 175.680 238.027 L 173.859 239.178 169.425 239.438 L 164.992 239.697 163.246 241.193 L 161.500 242.689 157.750 242.277 L 154.000 241.865 154.000 242.992 L 154.000 244.118 153.000 243.500 L 152.000 242.882 150.760 243.648 L 149.520 244.415 152.010 245.046 L 154.500 245.677 154.194 247.008 L 153.887 248.339 155.357 247.118 L 156.827 245.898 159.061 248.199 L 161.294 250.500 160.588 249.250 L 159.882 248.000 160.394 248.000 L 160.906 248.000 163.703 249.229 L 166.500 250.458 167.339 251.799 L 168.177 253.140 169.694 251.320 L 171.211 249.500 169.643 252.157 L 168.075 254.815 169.538 255.376 L 171.000 255.937 171.000 256.944 L 171.000 257.950 168.002 257.350 L 165.005 256.751 163.452 258.040 L 161.899 259.329 161.342 257.200 L 160.785 255.071 157.143 252.847 L 153.500 250.623 152.750 250.812 L 152.000 251.000 152.000 249.461 L 152.000 247.922 149.849 249.926 L 147.697 251.931 148.897 253.376 L 150.097 254.822 149.131 255.419 L 148.166 256.016 149.155 259.599 L 150.144 263.182 149.640 264.497 L 149.135 265.812 151.044 267.540 L 152.953 269.267 152.417 270.134 L 151.882 271.000 152.725 271.000 L 153.569 271.000 155.284 273.904 L 157.000 276.809 157.000 279.839 L 157.000 282.870 158.097 285.685 L 159.194 288.500 159.615 297.681 L 160.035 306.862 160.957 311.181 L 161.880 315.500 163.648 324.250 L 165.416 333.000 166.602 333.000 L 167.787 333.000 166.874 328.936 L 165.961 324.872 166.567 323.892 L 167.172 322.912 165.826 320.706 L 164.480 318.500 164.503 313.338 L 164.525 308.175 163.768 308.644 L 163.010 309.112 163.146 305.306 L 163.281 301.500 162.566 295.453 L 161.851 289.406 163.675 287.225 L 165.500 285.044 170.033 287.378 L 174.566 289.712 183.033 290.362 L 191.500 291.012 194.000 291.334 L 196.500 291.657 196.846 294.078 L 197.192 296.500 198.182 297.706 L 199.172 298.912 198.447 300.086 L 197.722 301.259 199.111 300.815 L 200.500 300.371 201.397 298.395 L 202.294 296.420 207.897 296.195 L 213.500 295.971 215.363 295.932 L 217.226 295.893 217.802 296.469 L 218.379 297.045 219.480 304.773 L 220.581 312.500 221.799 310.300 L 223.017 308.099 223.221 302.755 L 223.425 297.411 226.963 297.230 L 230.500 297.050 233.524 297.528 L 236.548 298.006 238.750 304.753 L 240.952 311.500 241.947 315.439 L 242.943 319.378 242.363 321.689 L 241.783 324.000 243.547 324.000 L 245.310 324.000 243.655 325.829 L 242.000 327.657 242.000 328.895 L 242.000 330.133 244.750 329.816 L 247.500 329.500 247.598 328.000 L 247.695 326.500 247.848 325.250 L 248.000 324.000 249.559 324.000 L 251.118 324.000 250.438 322.899 L 249.757 321.799 246.629 322.376 L 243.500 322.954 247.500 319.479 L 251.500 316.004 254.181 316.404 L 256.862 316.804 256.324 315.402 L 255.786 314.000 254.326 314.000 L 252.865 314.000 253.577 311.758 L 254.288 309.516 252.802 310.749 L 251.316 311.983 250.722 311.389 L 250.128 310.794 251.064 308.332 L 252.000 305.870 252.000 305.435 L 252.000 305.000 250.557 305.000 L 249.115 305.000 249.534 302.824 L 249.953 300.648 248.964 299.456 L 247.974 298.264 249.161 292.882 L 250.348 287.500 251.316 286.226 L 252.285 284.952 252.670 285.337 L 253.056 285.723 252.053 288.361 L 251.050 291.000 251.918 291.000 L 252.786 291.000 253.447 289.278 L 254.108 287.556 254.946 288.913 L 255.785 290.270 256.840 288.298 L 257.896 286.327 260.198 286.512 L 262.500 286.697 263.138 285.720 L 263.776 284.744 264.850 285.407 L 265.924 286.071 264.962 288.601 L 264.000 291.130 264.045 292.315 L 264.090 293.500 265.464 290.500 L 266.838 287.500 266.919 289.250 L 267.000 291.000 268.000 291.000 L 269.000 291.000 269.000 292.107 L 269.000 293.214 267.500 292.638 L 266.000 292.063 265.875 293.031 L 265.750 294.000 265.599 294.750 L 265.448 295.500 264.254 297.500 L 263.061 299.500 262.960 298.000 L 262.859 296.500 262.000 298.500 L 261.141 300.500 261.070 301.309 L 261.000 302.118 262.077 301.452 L 263.155 300.786 262.503 305.643 L 261.851 310.500 261.457 311.750 L 261.063 313.000 259.031 313.000 L 257.000 313.000 257.000 313.571 L 257.000 314.143 258.381 315.524 L 259.762 316.905 260.540 316.202 L 261.319 315.500 260.691 317.250 L 260.063 319.000 260.864 319.000 L 261.666 319.000 261.466 321.250 L 261.266 323.500 262.752 325.211 L 264.239 326.921 263.792 329.961 L 263.346 333.000 265.788 333.000 L 268.230 333.000 266.511 330.377 L 264.793 327.754 265.711 328.321 L 266.629 328.889 266.704 324.194 L 266.779 319.500 267.139 310.347 L 267.500 301.193 268.266 301.666 L 269.033 302.138 268.362 303.224 L 267.691 304.309 268.845 303.595 L 270.000 302.882 270.000 300.941 L 270.000 299.000 270.750 298.996 L 271.500 298.993 273.383 294.414 L 275.266 289.836 277.190 290.339 L 279.114 290.843 277.944 289.432 L 276.773 288.022 275.887 288.570 L 275.000 289.118 275.000 287.663 L 275.000 286.208 270.083 283.053 L 265.165 279.898 262.574 279.428 L 259.982 278.958 257.041 280.479 L 254.099 282.000 252.378 282.000 L 250.657 282.000 249.025 283.477 L 247.394 284.954 244.947 285.227 L 242.500 285.500 242.637 283.761 L 242.774 282.022 241.887 282.570 L 241.000 283.118 241.000 282.059 L 241.000 281.000 239.358 281.000 L 237.716 281.000 232.269 285.750 L 226.823 290.500 223.690 292.750 L 220.556 295.000 219.938 295.000 L 219.320 295.000 218.054 287.750 L 216.788 280.500 214.417 270.583 L 212.046 260.666 212.615 258.400 L 213.183 256.133 214.463 256.624 L 215.742 257.115 216.360 255.506 L 216.977 253.896 215.739 254.640 L 214.500 255.384 215.832 253.741 L 217.163 252.099 226.106 259.799 L 235.049 267.500 240.600 271.878 L 246.150 276.256 252.617 276.528 L 259.084 276.800 261.936 274.400 L 264.789 272.000 265.644 271.974 L 266.500 271.948 269.734 267.224 L 272.968 262.500 276.441 258.862 L 279.915 255.224 283.342 248.862 L 286.769 242.500 287.394 237.540 L 288.019 232.581 288.897 231.703 L 289.774 230.826 290.385 231.814 L 290.996 232.802 292.147 240.207 L 293.298 247.611 295.668 245.241 L 298.038 242.871 297.277 241.685 L 296.516 240.500 295.376 237.250 L 294.236 234.000 294.603 234.000 L 294.971 234.000 297.918 239.837 L 300.864 245.673 304.323 248.711 L 307.783 251.748 314.644 251.258 L 321.505 250.767 328.315 252.870 L 335.125 254.974 348.313 257.927 L 361.500 260.881 365.000 262.336 L 368.500 263.791 375.680 264.894 L 382.861 265.997 385.562 267.023 L 388.263 268.050 392.461 268.991 L 396.660 269.932 398.458 270.622 L 400.256 271.312 399.621 265.406 L 398.986 259.500 397.998 253.500 L 397.009 247.500 395.952 239.000 L 394.896 230.500 394.363 227.000 L 393.830 223.500 392.658 221.000 L 391.486 218.500 387.743 218.190 L 384.000 217.879 384.000 218.816 L 384.000 219.754 345.750 219.378 L 307.500 219.002 303.590 218.508 L 299.681 218.014 299.148 217.482 L 298.616 216.949 299.808 211.724 L 301.001 206.500 303.205 196.255 L 305.409 186.009 304.309 184.909 L 303.208 183.808 302.567 188.154 L 301.925 192.500 300.858 196.661 L 299.790 200.822 297.894 201.318 L 295.997 201.813 296.411 201.144 L 296.825 200.475 295.559 198.109 L 294.293 195.744 292.816 197.852 L 291.339 199.961 289.039 200.312 L 286.738 200.663 285.489 203.581 L 284.240 206.500 283.508 204.737 L 282.776 202.975 283.923 201.593 L 285.069 200.212 283.463 198.606 L 281.857 197.000 280.257 197.000 L 278.657 197.000 277.064 195.558 L 275.471 194.117 270.486 193.903 L 265.500 193.689 263.656 192.759 L 261.812 191.829 262.158 187.484 L 262.503 183.138 259.847 181.569 L 257.191 180.000 255.828 180.000 L 254.464 180.000 250.882 182.434 L 247.300 184.868 244.699 183.519 L 242.099 182.170 239.799 180.015 L 237.500 177.860 234.500 178.447 L 231.500 179.033 230.170 179.183 L 228.840 179.333 229.420 182.426 L 230.000 185.519 227.987 186.776 L 225.974 188.033 220.737 188.542 L 215.500 189.051 213.834 189.566 L 212.168 190.081 211.615 189.186 L 211.062 188.291 214.031 184.965 L 217.000 181.640 217.000 181.361 L 217.000 181.083 211.750 184.288 L 206.500 187.494 205.807 188.463 L 205.114 189.433 206.171 190.705 L 207.227 191.978 208.061 191.462 L 208.895 190.947 208.266 193.223 L 207.637 195.500 207.791 200.750 L 207.944 206.000 206.995 206.000 L 206.046 206.000 204.406 203.497 L 202.766 200.994 202.644 197.997 L 202.521 195.000 201.638 195.000 L 200.755 195.000 202.020 193.476 L 203.285 191.952 202.588 191.255 L 201.891 190.558 201.125 191.798 L 200.358 193.038 199.231 190.769 L 198.103 188.500 197.802 186.660 L 197.500 184.821 195.097 186.910 L 192.694 189.000 191.597 188.985 L 190.500 188.969 191.573 188.235 L 192.646 187.500 193.346 185.609 L 194.046 183.717 192.415 185.071 L 190.784 186.425 189.405 184.539 L 188.025 182.653 187.377 179.198 L 186.729 175.744 187.309 162.122 L 187.889 148.500 189.393 140.418 L 190.897 132.336 192.947 127.136 L 194.996 121.935 196.467 119.691 L 197.938 117.446 197.658 112.933 L 197.378 108.421 196.781 107.454 L 196.184 106.488 198.111 102.494 L 200.038 98.500 201.710 97.250 L 203.382 96.000 202.045 96.000 L 200.708 96.000 203.405 93.500 L 206.103 91.000 208.302 90.965 L 210.500 90.929 213.000 89.500 L 215.500 88.071 216.309 88.035 L 217.118 88.000 216.543 88.931 L 215.967 89.862 217.138 90.585 L 218.309 91.309 217.661 90.261 L 217.014 89.213 219.507 88.588 L 222.000 87.962 222.000 86.994 L 222.000 86.027 225.750 84.341 L 229.500 82.655 232.250 82.513 L 235.000 82.372 235.000 82.986 L 235.000 83.600 233.902 84.698 L 232.804 85.796 238.152 85.763 L 243.500 85.730 244.774 84.722 L 246.048 83.715 246.691 84.357 L 247.333 85.000 246.108 85.000 L 244.882 85.000 245.507 86.011 L 246.131 87.021 248.288 85.511 L 250.445 84.000 251.282 84.000 L 252.118 84.000 251.500 85.000 L 250.882 86.000 251.972 86.000 L 253.063 86.000 253.638 84.500 L 254.214 83.000 255.493 83.000 L 256.771 83.000 259.213 81.733 L 261.655 80.466 261.189 79.066 L 260.722 77.666 263.861 79.901 L 267.000 82.136 267.000 81.235 L 267.000 80.333 268.456 80.333 L 269.912 80.333 269.397 81.167 L 268.882 82.000 271.241 82.000 L 273.600 82.000 274.687 83.087 L 275.774 84.174 276.448 83.084 L 277.121 81.995 279.081 83.044 L 281.041 84.092 282.175 83.392 L 283.309 82.691 282.675 83.716 L 282.042 84.742 283.872 86.853 L 285.703 88.964 286.433 88.234 L 287.163 87.504 286.489 90.186 L 285.816 92.868 287.908 94.175 L 290.000 95.481 290.000 96.626 L 290.000 97.770 292.581 99.461 L 295.162 101.152 296.722 100.553 L 298.283 99.954 297.093 101.388 L 295.903 102.822 297.008 103.505 L 298.114 104.188 300.557 103.575 L 303.000 102.962 303.000 101.922 L 303.000 100.882 302.000 101.500 L 301.000 102.118 301.000 100.250 L 301.000 98.382 299.532 96.441 L 298.064 94.500 298.032 92.809 L 298.000 91.118 297.011 90.507 L 296.023 89.896 296.681 91.698 L 297.339 93.500 295.170 91.595 L 293.000 89.690 293.000 89.286 L 293.000 88.882 294.000 89.500 L 295.000 90.118 295.000 89.424 L 295.000 88.729 292.444 86.360 L 289.887 83.991 290.448 83.083 L 291.010 82.176 289.327 82.423 L 287.645 82.669 285.072 81.383 L 282.500 80.096 281.029 78.048 L 279.558 76.000 278.279 76.000 L 277.000 76.000 277.000 74.387 L 277.000 72.773 274.000 73.213 L 271.000 73.654 271.000 72.910 L 271.000 72.167 272.250 71.593 L 273.500 71.018 271.125 71.616 L 268.750 72.214 269.529 70.953 L 270.309 69.691 269.059 70.464 L 267.809 71.236 264.943 68.099 L 262.078 64.962 259.289 65.164 L 256.500 65.366 254.000 64.033 L 251.500 62.701 250.656 61.600 L 249.811 60.500 250.374 62.250 L 250.937 64.000 250.028 64.000 L 249.118 64.000 248.484 62.974 L 247.850 61.947 244.637 62.164 L 241.424 62.380 240.293 61.681 M299.904 106.878 L 299.031 105.500 299.015 107.250 L 299.000 109.000 298.172 109.000 L 297.343 109.000 296.248 113.750 L 295.152 118.500 295.671 122.500 L 296.191 126.500 298.226 132.500 L 300.261 138.500 301.729 145.500 L 303.197 152.500 303.983 156.000 L 304.770 159.500 305.056 154.500 L 305.342 149.500 305.458 147.999 L 305.574 146.498 306.333 145.269 L 307.092 144.041 306.011 142.021 L 304.930 140.000 305.918 140.000 L 306.907 140.000 306.879 135.750 L 306.850 131.500 307.302 123.750 L 307.753 116.000 306.818 116.000 L 305.882 116.000 306.506 114.991 L 307.129 113.982 306.493 111.977 L 305.856 109.971 305.000 110.500 L 304.144 111.029 303.500 109.000 L 302.856 106.971 301.816 107.614 L 300.776 108.256 299.904 106.878 M212.312 129.514 L 205.980 129.365 202.480 130.568 L 198.981 131.771 197.593 132.923 L 196.204 134.075 196.689 137.288 L 197.174 140.500 197.337 145.262 L 197.500 150.024 199.462 150.647 L 201.424 151.269 203.343 153.709 L 205.263 156.149 207.881 157.147 L 210.500 158.144 215.390 159.073 L 220.281 160.001 224.038 158.990 L 227.794 157.978 228.366 156.489 L 228.938 154.999 225.719 156.338 L 222.500 157.678 221.244 157.253 L 219.988 156.829 220.574 155.881 L 221.160 154.932 218.580 155.400 L 216.000 155.868 216.000 155.362 L 216.000 154.857 217.429 153.429 L 218.857 152.000 221.429 152.000 L 224.000 152.000 224.000 152.863 L 224.000 153.727 226.038 153.613 L 228.075 153.500 228.788 152.430 L 229.500 151.359 233.500 149.798 L 237.500 148.237 237.797 145.816 L 238.095 143.396 236.047 141.543 L 234.000 139.690 234.000 137.956 L 234.000 136.222 232.125 133.906 L 230.250 131.590 225.715 131.410 L 221.181 131.230 219.913 130.446 L 218.645 129.663 212.312 129.514 M280.032 131.635 L 277.064 131.270 276.782 131.524 L 276.500 131.778 270.249 132.322 L 263.997 132.866 260.999 135.001 L 258.000 137.136 258.000 138.509 L 258.000 139.882 259.155 140.595 L 260.309 141.309 259.603 140.166 L 258.896 139.023 260.502 139.639 L 262.109 140.256 258.910 142.201 L 255.710 144.147 254.392 145.465 L 253.073 146.784 253.467 148.827 L 253.860 150.870 254.965 152.935 L 256.070 155.000 256.535 155.000 L 257.000 155.000 256.750 153.750 L 256.500 152.500 263.948 152.448 L 271.395 152.395 273.448 154.448 L 275.500 156.500 270.614 156.810 L 265.727 157.121 267.737 158.528 L 269.746 159.936 273.826 160.588 L 277.905 161.240 281.552 160.556 L 285.200 159.872 284.703 157.973 L 284.206 156.074 285.559 154.951 L 286.912 153.828 287.811 154.383 L 288.709 154.938 290.954 152.548 L 293.200 150.159 289.514 146.579 L 285.828 143.000 284.164 142.885 L 282.500 142.769 281.500 142.537 L 280.500 142.305 277.000 142.048 L 273.500 141.792 278.451 140.281 L 283.402 138.770 285.164 139.870 L 286.926 140.971 286.276 139.235 L 285.626 137.500 287.313 138.872 L 289.000 140.245 289.000 139.122 L 289.000 138.000 290.508 138.000 L 292.017 138.000 290.758 135.750 L 289.500 133.500 289.290 133.124 L 289.080 132.747 286.040 132.374 L 283.000 132.000 280.032 131.635 M207.942 135.464 L 209.193 136.237 212.505 136.459 L 215.816 136.681 218.908 137.962 L 222.000 139.243 222.000 140.036 L 222.000 140.829 214.250 141.508 L 206.500 142.186 204.776 142.401 L 203.052 142.615 202.359 143.308 L 201.667 144.000 200.645 144.000 L 199.623 144.000 201.811 141.961 L 204.000 139.922 204.000 139.028 L 204.000 138.135 206.015 137.495 L 208.029 136.856 207.360 135.773 L 206.691 134.691 207.942 135.464 M240.500 194.573 L 244.500 195.168 248.282 196.252 L 252.064 197.336 251.282 198.106 L 250.500 198.877 245.250 199.567 L 240.000 200.258 240.000 199.227 L 240.000 198.196 236.750 197.062 L 233.500 195.929 235.000 194.954 L 236.500 193.979 240.500 194.573 M237.870 202.524 L 243.500 203.815 249.293 204.284 L 255.085 204.752 255.784 205.451 L 256.483 206.150 254.742 207.125 L 253.000 208.099 253.000 209.050 L 253.000 210.000 254.750 210.030 L 256.500 210.061 254.820 211.041 L 253.139 212.022 245.320 211.516 L 237.500 211.009 234.839 210.405 L 232.178 209.801 230.474 210.754 L 228.770 211.708 231.044 213.826 L 233.318 215.945 237.909 217.419 L 242.500 218.894 249.483 219.285 L 256.466 219.677 257.862 218.281 L 259.258 216.885 260.578 217.391 L 261.898 217.898 262.521 215.934 L 263.144 213.971 264.072 214.544 L 265.000 215.118 265.000 214.059 L 265.000 213.000 266.059 213.000 L 267.118 213.000 266.500 214.000 L 265.882 215.000 266.741 215.000 L 267.600 215.000 267.600 218.435 L 267.600 221.871 266.800 221.376 L 266.000 220.882 266.000 221.941 L 266.000 223.000 264.500 223.000 L 263.000 223.000 263.000 225.392 L 263.000 227.783 260.250 228.560 L 257.500 229.337 256.714 229.418 L 255.927 229.500 255.214 230.500 L 254.500 231.500 250.000 231.500 L 245.500 231.500 244.294 230.718 L 243.087 229.936 243.619 228.218 L 244.151 226.500 243.022 228.257 L 241.893 230.013 240.007 229.004 L 238.121 227.995 237.436 229.104 L 236.750 230.214 235.890 228.857 L 235.031 227.500 235.015 228.791 L 235.000 230.081 231.000 229.845 L 227.000 229.609 227.000 228.638 L 227.000 227.667 226.381 228.286 L 225.762 228.905 224.522 227.664 L 223.281 226.424 221.228 221.783 L 219.175 217.142 216.088 215.545 L 213.000 213.949 213.000 213.340 L 213.000 212.732 214.150 208.894 L 215.300 205.056 218.400 204.085 L 221.500 203.114 224.152 202.814 L 226.805 202.513 228.945 204.451 L 231.086 206.388 230.397 204.593 L 229.709 202.798 230.974 202.016 L 232.240 201.233 237.870 202.524 M389.424 220.609 L 390.924 221.185 391.415 222.842 L 391.906 224.500 391.711 234.284 L 391.515 244.068 390.864 241.284 L 390.213 238.500 388.473 230.818 L 386.733 223.137 387.329 221.585 L 387.924 220.034 389.424 220.609 M357.417 221.500 L 360.000 221.500 360.000 222.000 L 360.000 222.500 369.471 222.467 L 378.942 222.434 378.749 224.763 L 378.556 227.092 376.877 228.611 L 375.198 230.130 371.349 229.154 L 367.500 228.177 332.361 228.351 L 297.222 228.525 295.035 228.008 L 292.848 227.492 295.365 225.127 L 297.882 222.762 326.116 222.372 L 354.351 221.983 354.592 221.741 L 354.833 221.500 357.417 221.500 M169.083 223.000 L 169.833 223.000 170.254 224.250 L 170.675 225.500 172.165 224.270 L 173.656 223.041 177.071 224.020 L 180.487 225.000 180.802 225.000 L 181.118 225.000 180.603 224.167 L 180.088 223.333 181.399 223.333 L 182.711 223.333 182.605 225.416 L 182.500 227.498 181.000 227.597 L 179.500 227.695 177.191 227.848 L 174.882 228.000 175.457 228.931 L 176.033 229.862 174.862 230.585 L 173.691 231.309 174.360 230.227 L 175.029 229.144 173.133 228.542 L 171.238 227.941 169.137 226.119 L 167.036 224.297 167.685 223.648 L 168.333 223.000 169.083 223.000 M198.068 232.000 L 199.000 232.000 198.944 233.250 L 198.888 234.500 197.194 238.594 L 195.500 242.688 194.250 242.261 L 193.000 241.833 192.889 243.167 L 192.779 244.500 192.864 247.000 L 192.950 249.500 192.400 248.275 L 191.850 247.050 192.010 246.387 L 192.171 245.724 190.991 244.995 L 189.811 244.265 191.540 240.883 L 193.269 237.500 195.202 234.750 L 197.136 232.000 198.068 232.000 M91.925 251.500 L 91.141 249.500 91.070 252.041 L 91.000 254.582 84.895 273.041 L 78.790 291.500 77.393 298.000 L 75.997 304.500 76.071 315.000 L 76.146 325.500 75.469 327.242 L 74.792 328.983 76.396 329.599 L 78.000 330.214 78.000 331.607 L 78.000 333.000 86.019 333.000 L 94.038 333.000 93.365 330.250 L 92.692 327.500 91.644 326.816 L 90.595 326.132 89.548 326.758 L 88.500 327.384 89.897 325.662 L 91.294 323.941 90.208 321.557 L 89.122 319.173 87.112 318.536 L 85.102 317.898 85.721 316.285 L 86.340 314.672 85.420 315.218 L 84.500 315.765 82.876 312.382 L 81.253 309.000 82.126 309.000 L 83.000 309.000 83.000 308.000 L 83.000 307.000 81.625 307.000 L 80.250 307.000 80.250 304.386 L 80.250 301.773 79.012 301.007 L 77.774 300.242 79.031 299.823 L 80.287 299.404 80.716 296.452 L 81.145 293.500 81.370 291.982 L 81.595 290.465 82.337 289.264 L 83.080 288.062 83.475 284.781 L 83.871 281.500 85.339 276.500 L 86.807 271.500 88.010 268.500 L 89.214 265.500 90.962 259.500 L 92.709 253.500 91.925 251.500 M296.947 260.000 L 295.145 252.500 295.072 260.125 L 295.000 267.750 295.588 270.689 L 296.176 273.629 298.102 274.832 L 300.029 276.035 299.389 271.768 L 298.750 267.500 296.947 260.000 M76.899 263.591 L 75.030 261.682 72.658 267.091 L 70.285 272.500 69.134 276.000 L 67.983 279.500 63.742 283.900 L 59.500 288.301 53.770 296.400 L 48.040 304.500 43.901 310.414 L 39.761 316.327 38.347 319.713 L 36.932 323.099 34.980 328.050 L 33.029 333.000 38.137 333.000 L 43.245 333.000 42.357 331.750 L 41.468 330.500 41.511 329.000 L 41.553 327.500 42.335 326.250 L 43.118 325.000 42.426 325.000 L 41.735 325.000 39.745 327.250 L 37.755 329.500 38.330 327.500 L 38.905 325.500 39.534 322.500 L 40.163 319.500 41.203 316.750 L 42.243 314.000 43.121 314.000 L 44.000 314.000 44.150 315.000 L 44.300 316.000 44.400 317.250 L 44.500 318.500 45.679 319.750 L 46.857 321.000 47.861 321.000 L 48.865 321.000 49.484 322.949 L 50.102 324.898 52.051 325.516 L 54.000 326.135 53.985 327.817 L 53.969 329.500 52.909 328.000 L 51.848 326.500 52.278 328.000 L 52.707 329.500 54.322 329.213 L 55.937 328.927 57.209 330.963 L 58.481 333.000 67.824 333.000 L 77.167 333.000 76.708 331.750 L 76.250 330.500 75.204 330.724 L 74.157 330.948 74.599 327.386 L 75.041 323.823 73.020 323.295 L 71.000 322.767 70.850 319.383 L 70.700 316.000 70.600 314.750 L 70.500 313.500 69.858 313.000 L 69.216 312.500 68.665 304.128 L 68.114 295.756 69.807 293.167 L 71.500 290.577 70.286 291.326 L 69.071 292.074 70.410 288.787 L 71.750 285.500 71.463 283.750 L 71.177 282.000 72.088 282.000 L 73.000 282.000 73.000 280.223 L 73.000 278.445 74.558 276.221 L 76.116 273.996 75.542 273.067 L 74.967 272.138 75.984 271.510 L 77.000 270.882 77.000 269.882 L 77.000 268.882 75.750 269.602 L 74.500 270.323 76.634 267.911 L 78.768 265.500 76.899 263.591 M427.294 289.179 L 426.000 287.857 426.000 288.304 L 426.000 288.751 428.488 294.376 L 430.975 300.001 435.637 312.251 L 440.299 324.500 440.780 328.750 L 441.260 333.000 443.130 333.000 L 445.000 333.000 445.000 332.138 L 445.000 331.276 441.937 321.388 L 438.874 311.500 433.731 301.000 L 428.588 290.500 427.294 289.179 " stroke="#000000" fill="none"/><path d="M218.750 74.079 L 217.000 74.000 217.000 75.300 L 217.000 76.600 218.099 77.699 L 219.198 78.798 216.110 79.476 L 213.023 80.154 212.470 81.048 L 211.918 81.942 215.459 81.809 L 219.000 81.676 219.000 80.905 L 219.000 80.135 221.000 79.500 L 223.000 78.865 223.000 77.810 L 223.000 76.755 221.709 77.827 L 220.418 78.898 219.245 77.020 L 218.072 75.143 219.286 74.650 L 220.500 74.158 218.750 74.079 M194.664 91.756 L 194.158 90.500 194.079 91.750 L 194.000 93.000 192.393 93.000 L 190.786 93.000 191.357 94.488 L 191.928 95.976 191.214 95.870 L 190.500 95.763 189.628 95.882 L 188.755 96.000 189.903 97.383 L 191.051 98.766 189.462 99.376 L 187.873 99.986 188.431 100.888 L 188.989 101.790 187.511 102.357 L 186.034 102.924 186.600 104.401 L 187.167 105.877 185.083 107.661 L 183.000 109.444 183.000 110.222 L 183.000 111.000 184.059 111.000 L 185.118 111.000 184.500 110.000 L 183.882 109.000 184.941 109.000 L 186.000 109.000 186.000 109.929 L 186.000 110.857 184.732 112.179 L 183.464 113.500 183.492 120.500 L 183.520 127.500 184.415 128.905 L 185.309 130.309 184.155 129.595 L 183.000 128.882 183.000 129.941 L 183.000 131.000 184.059 131.000 L 185.118 131.000 184.543 131.931 L 183.967 132.862 185.032 133.520 L 186.097 134.178 185.018 135.478 L 183.940 136.777 184.586 141.639 L 185.232 146.500 185.366 155.166 L 185.500 163.832 186.250 164.583 L 187.000 165.333 187.038 158.917 L 187.076 152.500 187.633 148.500 L 188.191 144.500 190.089 135.500 L 191.987 126.500 192.562 124.000 L 193.138 121.500 193.676 117.728 L 194.214 113.956 193.557 110.450 L 192.899 106.944 191.699 107.664 L 190.500 108.384 192.000 106.538 L 193.500 104.693 193.187 102.846 L 192.874 101.000 193.821 101.000 L 194.767 101.000 195.535 98.750 L 196.303 96.500 196.502 94.283 L 196.701 92.067 195.936 92.540 L 195.171 93.012 194.664 91.756 M215.614 132.415 L 213.727 131.681 214.179 133.036 L 214.630 134.391 217.565 135.238 L 220.500 136.085 223.850 136.142 L 227.200 136.200 228.016 135.350 L 228.833 134.500 227.416 133.211 L 226.000 131.921 226.000 133.065 L 226.000 134.209 221.750 133.679 L 217.500 133.150 215.614 132.415 M279.181 134.429 L 277.500 134.442 272.500 134.751 L 267.500 135.059 266.083 135.562 L 264.666 136.066 265.790 137.190 L 266.915 138.315 268.208 137.259 L 269.500 136.203 273.750 136.573 L 278.000 136.944 278.000 135.913 L 278.000 134.882 278.931 135.457 L 279.862 136.033 280.362 135.224 L 280.861 134.415 279.181 134.429 M224.905 142.513 L 220.500 141.952 222.750 142.944 L 225.000 143.936 224.999 144.218 L 224.999 144.500 216.586 144.514 L 208.174 144.528 208.646 143.764 L 209.118 143.000 207.963 143.000 L 206.809 143.000 203.876 144.732 L 200.943 146.465 201.230 147.982 L 201.518 149.500 206.009 150.595 L 210.500 151.690 211.042 149.095 L 211.584 146.500 213.033 148.750 L 214.481 151.000 218.221 151.000 L 221.962 151.000 222.569 148.583 L 223.175 146.165 226.184 147.214 L 229.193 148.263 227.846 149.116 L 226.500 149.969 227.500 149.969 L 228.500 149.969 230.000 148.985 L 231.500 148.000 229.250 147.383 L 227.000 146.767 227.000 145.977 L 227.000 145.187 229.000 145.710 L 231.000 146.233 231.000 145.176 L 231.000 144.118 230.155 143.596 L 229.309 143.073 224.905 142.513 M268.809 143.070 L 267.500 143.141 265.500 144.000 L 263.500 144.859 265.309 144.930 L 267.118 145.000 266.446 146.087 L 265.774 147.174 263.962 146.700 L 262.150 146.226 262.682 147.613 L 263.214 149.000 264.048 149.000 L 264.882 149.000 265.500 148.000 L 266.118 147.000 267.489 147.000 L 268.861 147.000 269.180 149.250 L 269.500 151.500 273.500 151.500 L 277.500 151.500 277.831 149.162 L 278.162 146.824 280.831 147.426 L 283.500 148.027 281.701 146.936 L 279.901 145.845 274.476 145.285 L 269.052 144.726 269.585 143.863 L 270.118 143.000 268.809 143.070 M232.887 181.000 L 232.135 181.000 231.485 183.048 L 230.835 185.096 232.029 186.535 L 233.224 187.975 232.643 189.487 L 232.063 191.000 231.031 191.000 L 230.000 191.000 230.000 189.500 L 230.000 188.000 229.200 188.000 L 228.400 188.000 227.350 189.050 L 226.300 190.100 220.400 190.600 L 214.500 191.100 212.000 192.900 L 209.500 194.701 209.190 199.474 L 208.880 204.246 209.599 205.873 L 210.318 207.500 210.159 208.250 L 210.000 209.000 211.000 209.000 L 212.000 209.000 212.036 207.750 L 212.073 206.500 215.697 203.750 L 219.322 201.000 226.783 201.000 L 234.245 201.000 233.036 199.544 L 231.828 198.088 232.568 196.889 L 233.309 195.691 232.224 196.362 L 231.138 197.033 230.506 196.009 L 229.873 194.986 231.187 194.634 L 232.500 194.282 236.373 193.032 L 240.247 191.781 241.047 193.076 L 241.848 194.371 243.424 193.063 L 245.000 191.755 245.000 190.485 L 245.000 189.214 243.431 188.612 L 241.862 188.010 242.422 185.755 L 242.982 183.500 242.407 184.750 L 241.833 186.000 239.910 186.000 L 237.987 186.000 235.813 183.500 L 233.639 181.000 232.887 181.000 M255.718 188.000 L 251.333 188.000 250.758 188.575 L 250.183 189.150 248.342 189.415 L 246.500 189.679 246.184 192.339 L 245.867 195.000 247.184 195.152 L 248.500 195.305 249.626 195.417 L 250.752 195.529 253.376 196.934 L 256.000 198.338 256.000 199.169 L 256.000 200.000 254.583 200.000 L 253.167 200.000 252.759 201.222 L 252.352 202.444 246.486 202.199 L 240.620 201.953 241.192 202.525 L 241.763 203.097 248.713 203.509 L 255.662 203.921 258.331 204.936 L 261.000 205.950 261.015 205.225 L 261.031 204.500 261.816 205.737 L 262.602 206.974 265.979 206.006 L 269.355 205.038 272.225 208.252 L 275.094 211.466 275.930 210.113 L 276.766 208.760 277.783 210.577 L 278.800 212.394 278.808 208.947 L 278.816 205.500 279.026 204.500 L 279.237 203.500 279.118 200.919 L 279.000 198.338 276.732 197.124 L 274.465 195.911 271.982 195.870 L 269.500 195.828 266.244 195.368 L 262.988 194.907 261.545 191.454 L 260.102 188.000 255.718 188.000 M190.122 190.000 L 189.245 190.000 188.218 191.250 L 187.191 192.500 187.597 196.000 L 188.002 199.500 188.481 203.000 L 188.961 206.500 189.879 210.269 L 190.798 214.038 188.843 215.084 L 186.888 216.130 181.396 215.697 L 175.904 215.264 176.215 216.882 L 176.526 218.500 182.946 218.611 L 189.365 218.723 191.432 221.239 L 193.500 223.754 196.500 227.473 L 199.500 231.191 199.550 237.538 L 199.601 243.885 200.999 246.498 L 202.397 249.110 201.242 252.170 L 200.087 255.230 201.543 256.686 L 203.000 258.143 203.000 258.771 L 203.000 259.400 201.800 258.200 L 200.600 257.000 199.813 257.000 L 199.027 257.000 197.513 260.622 L 196.000 264.244 196.000 264.745 L 196.000 265.245 197.500 264.000 L 199.000 262.755 199.000 264.294 L 199.000 265.833 200.236 266.245 L 201.473 266.658 198.736 269.193 L 196.000 271.729 196.000 272.865 L 196.000 274.000 195.035 274.000 L 194.070 274.000 193.003 272.005 L 191.935 270.011 186.218 270.137 L 180.500 270.263 178.500 271.068 L 176.500 271.873 178.000 272.067 L 179.500 272.260 182.000 272.424 L 184.500 272.588 186.500 273.727 L 188.500 274.866 186.750 275.540 L 185.000 276.214 185.079 277.857 L 185.158 279.500 185.644 278.306 L 186.129 277.112 187.590 277.673 L 189.051 278.234 187.977 279.528 L 186.903 280.822 188.106 281.565 L 189.309 282.309 188.595 281.155 L 187.882 280.000 189.013 280.000 L 190.143 280.000 189.837 282.337 L 189.531 284.674 191.194 286.337 L 192.857 288.000 193.322 288.000 L 193.786 288.000 194.342 286.551 L 194.898 285.102 193.299 285.715 L 191.701 286.329 192.390 283.581 L 193.080 280.832 192.040 281.475 L 191.000 282.118 191.000 280.952 L 191.000 279.786 192.582 280.393 L 194.164 281.000 194.550 281.000 L 194.937 281.000 194.365 282.492 L 193.792 283.983 195.396 284.599 L 197.000 285.214 197.000 286.166 L 197.000 287.118 196.000 286.500 L 195.000 285.882 195.000 286.882 L 195.000 287.882 195.950 288.469 L 196.900 289.056 197.891 287.204 L 198.882 285.351 198.691 281.629 L 198.500 277.908 196.750 278.360 L 195.000 278.813 195.000 277.023 L 195.000 275.233 197.250 274.617 L 199.500 274.000 198.000 272.924 L 196.500 271.848 198.000 272.258 L 199.500 272.669 199.487 276.712 L 199.474 280.755 200.731 280.273 L 201.989 279.790 201.435 278.895 L 200.882 278.000 201.774 278.000 L 202.667 278.000 203.327 278.660 L 203.987 279.321 201.994 280.717 L 200.000 282.113 200.000 283.616 L 200.000 285.118 200.989 284.507 L 201.977 283.896 201.517 285.198 L 201.056 286.500 202.462 288.350 L 203.867 290.200 204.872 289.579 L 205.877 288.958 206.876 290.729 L 207.875 292.500 209.188 291.103 L 210.500 289.707 209.250 290.412 L 208.000 291.118 208.000 290.059 L 208.000 289.000 208.927 289.000 L 209.854 289.000 209.472 285.977 L 209.089 282.953 208.332 281.728 L 207.574 280.502 207.458 279.001 L 207.342 277.500 207.171 275.691 L 207.000 273.882 205.845 274.595 L 204.691 275.309 205.400 274.162 L 206.108 273.016 205.154 271.311 L 204.200 269.605 205.075 267.303 L 205.950 265.000 205.010 265.000 L 204.070 265.000 202.949 262.905 L 201.828 260.811 203.888 261.464 L 205.947 262.118 204.474 258.591 L 203.000 255.064 203.079 252.782 L 203.158 250.500 203.644 251.694 L 204.129 252.888 205.404 252.398 L 206.680 251.909 207.683 253.204 L 208.687 254.500 210.410 260.801 L 212.132 267.101 212.279 269.051 L 212.426 271.000 213.321 271.000 L 214.217 271.000 213.654 268.750 L 213.092 266.500 212.106 259.500 L 211.121 252.500 210.685 248.000 L 210.249 243.500 217.409 250.500 L 224.569 257.500 231.654 263.755 L 238.738 270.010 242.506 273.005 L 246.275 276.000 251.388 276.118 L 256.500 276.237 258.000 276.032 L 259.500 275.827 261.884 273.663 L 264.269 271.500 272.712 262.067 L 281.156 252.635 284.078 246.846 L 287.000 241.057 287.000 237.151 L 287.000 233.245 288.524 231.980 L 290.048 230.715 290.501 231.168 L 290.954 231.620 292.249 239.290 L 293.545 246.959 294.676 245.148 L 295.807 243.337 293.937 237.918 L 292.068 232.500 292.639 229.286 L 293.209 226.071 294.605 224.913 L 296.000 223.755 296.000 222.378 L 296.000 221.000 297.750 220.882 L 299.500 220.763 300.250 220.882 L 301.000 221.000 301.000 220.107 L 301.000 219.214 299.372 218.589 L 297.744 217.964 298.340 213.732 L 298.937 209.500 299.476 206.500 L 300.015 203.500 298.758 206.678 L 297.500 209.856 296.750 210.595 L 296.000 211.333 296.000 210.167 L 296.000 209.000 294.500 209.000 L 293.000 209.000 293.000 207.941 L 293.000 206.882 294.170 207.605 L 295.340 208.328 294.670 206.582 L 294.000 204.836 294.000 204.418 L 294.000 204.000 292.941 204.000 L 291.882 204.000 292.500 205.000 L 293.118 206.000 291.059 206.000 L 289.000 206.000 289.000 208.559 L 289.000 211.118 288.000 210.500 L 287.000 209.882 287.000 211.466 L 287.000 213.050 284.500 214.000 L 282.000 214.950 282.000 216.598 L 282.000 218.245 280.622 217.101 L 279.244 215.958 278.673 218.143 L 278.101 220.329 276.528 219.023 L 274.954 217.717 275.449 219.109 L 275.944 220.500 274.640 222.211 L 273.337 223.921 270.669 224.936 L 268.000 225.950 268.000 227.475 L 268.000 229.000 267.083 229.000 L 266.167 229.000 265.662 227.750 L 265.158 226.500 265.079 227.795 L 265.000 229.091 262.606 231.485 L 260.212 233.879 259.606 233.273 L 259.000 232.667 259.000 233.869 L 259.000 235.070 257.000 234.000 L 255.000 232.930 254.921 234.715 L 254.842 236.500 254.339 235.254 L 253.836 234.008 248.903 234.609 L 243.970 235.210 241.735 233.760 L 239.500 232.311 238.244 232.741 L 236.988 233.171 237.666 234.335 L 238.344 235.500 236.098 233.528 L 233.852 231.556 234.176 233.028 L 234.500 234.500 232.000 234.466 L 229.500 234.432 229.817 232.616 L 230.134 230.799 229.111 231.431 L 228.088 232.064 224.538 230.580 L 220.987 229.097 220.018 226.548 L 219.050 224.000 218.466 224.000 L 217.882 224.000 218.633 225.250 L 219.384 226.500 217.692 225.128 L 216.000 223.755 216.000 222.378 L 216.000 221.000 217.500 221.000 L 219.000 221.000 219.000 220.059 L 219.000 219.118 218.105 218.565 L 217.210 218.011 216.627 219.528 L 216.045 221.045 214.023 219.782 L 212.000 218.519 212.000 216.882 L 212.000 215.245 210.750 214.230 L 209.500 213.215 207.607 212.858 L 205.714 212.500 204.983 211.000 L 204.253 209.500 200.921 202.500 L 197.590 195.500 197.225 197.233 L 196.860 198.966 194.477 198.769 L 192.095 198.572 192.539 198.128 L 192.983 197.684 191.741 196.150 L 190.500 194.616 191.750 195.367 L 193.000 196.118 193.000 195.059 L 193.000 194.000 192.000 194.000 L 191.000 194.000 191.000 192.000 L 191.000 190.000 190.122 190.000 M142.276 211.876 L 141.200 210.800 139.156 212.844 L 137.112 214.888 136.604 218.194 L 136.095 221.500 135.471 228.000 L 134.847 234.500 134.311 237.186 L 133.776 239.871 135.752 239.355 L 137.728 238.838 138.310 230.669 L 138.893 222.500 139.510 219.509 L 140.127 216.518 141.740 214.735 L 143.353 212.953 142.276 211.876 M155.500 213.572 L 151.500 213.031 149.383 214.109 L 147.267 215.187 144.185 221.843 L 141.102 228.500 140.469 232.979 L 139.835 237.458 139.359 238.229 L 138.882 239.000 142.316 239.000 L 145.750 239.000 148.875 238.375 L 152.000 237.750 152.000 235.375 L 152.000 233.000 153.059 233.000 L 154.118 233.000 153.405 234.155 L 152.691 235.309 153.862 234.585 L 155.033 233.862 154.399 232.837 L 153.765 231.811 153.471 227.457 L 153.176 223.102 155.483 220.612 L 157.791 218.122 161.645 218.155 L 165.500 218.188 168.250 217.119 L 171.000 216.050 171.000 217.533 L 171.000 219.017 172.974 217.784 L 174.949 216.551 173.724 215.873 L 172.500 215.196 166.000 214.655 L 159.500 214.114 155.500 213.572 M243.000 213.507 L 239.500 213.156 238.250 213.661 L 237.000 214.167 237.000 214.882 L 237.000 215.598 240.586 216.895 L 244.173 218.192 246.125 216.096 L 248.078 214.000 247.289 213.929 L 246.500 213.857 243.000 213.507 M383.809 223.010 L 383.118 223.000 382.500 224.000 L 381.882 225.000 382.941 225.000 L 384.000 225.000 384.000 226.000 L 384.000 227.000 382.787 226.750 L 381.574 226.500 381.744 231.000 L 381.913 235.500 382.358 246.186 L 382.803 256.872 383.556 258.091 L 384.309 259.309 383.155 258.595 L 382.000 257.882 382.000 258.941 L 382.000 260.000 383.117 260.000 L 384.233 260.000 383.739 261.889 L 383.245 263.779 383.973 264.956 L 384.700 266.133 388.600 267.483 L 392.500 268.833 392.855 267.850 L 393.211 266.868 392.037 258.684 L 390.863 250.500 390.447 247.500 L 390.031 244.500 389.109 239.000 L 388.187 233.500 386.344 228.260 L 384.500 223.020 383.809 223.010 M302.000 230.500 L 294.000 230.500 294.000 231.033 L 294.000 231.565 297.608 238.359 L 301.215 245.153 304.358 248.124 L 307.500 251.094 317.000 251.353 L 326.500 251.612 333.500 253.734 L 340.500 255.856 350.500 258.020 L 360.500 260.185 362.862 261.122 L 365.224 262.059 366.612 260.907 L 368.000 259.755 368.000 258.359 L 368.000 256.962 365.609 257.562 L 363.218 258.162 362.455 256.927 L 361.691 255.691 362.845 256.405 L 364.000 257.118 364.000 254.153 L 364.000 251.187 361.750 251.680 L 359.500 252.173 360.604 251.337 L 361.708 250.500 359.700 248.500 L 357.693 246.500 358.302 247.583 L 358.912 248.667 357.460 248.667 L 356.008 248.667 354.254 246.661 L 352.500 244.656 353.665 245.334 L 354.829 246.012 355.251 245.256 L 355.672 244.500 355.367 245.750 L 355.063 247.000 355.791 247.000 L 356.519 247.000 357.664 245.166 L 358.809 243.333 355.809 243.511 L 352.810 243.690 351.920 245.095 L 351.031 246.500 351.015 245.315 L 351.000 244.130 351.912 241.732 L 352.824 239.333 352.024 238.038 L 351.224 236.744 350.162 237.400 L 349.100 238.056 348.004 236.007 L 346.908 233.959 347.513 232.979 L 348.118 232.000 346.942 232.000 L 345.767 232.000 346.290 234.000 L 346.813 236.000 346.354 236.000 L 345.896 236.000 344.871 233.060 L 343.846 230.120 340.430 232.039 L 337.014 233.958 337.257 232.729 L 337.500 231.500 323.749 231.500 L 309.998 231.500 309.999 231.000 L 310.000 230.500 302.000 230.500 M296.421 259.500 L 295.180 254.500 295.236 261.281 L 295.292 268.062 296.162 268.600 L 297.033 269.138 296.560 269.902 L 296.088 270.667 297.486 270.667 L 298.883 270.667 298.273 267.583 L 297.662 264.500 296.421 259.500 M397.050 255.000 L 395.767 255.000 396.245 257.500 L 396.723 260.000 395.802 260.000 L 394.882 260.000 395.589 261.144 L 396.296 262.288 396.209 265.365 L 396.121 268.441 397.183 269.721 L 398.245 271.000 399.126 271.000 L 400.006 271.000 399.490 266.697 L 398.973 262.393 398.078 259.272 L 397.183 256.151 397.758 255.575 L 398.333 255.000 397.050 255.000 M261.703 280.076 L 259.500 280.152 256.191 281.351 L 252.883 282.550 253.539 283.206 L 254.196 283.862 255.759 283.262 L 257.321 282.663 256.701 285.081 L 256.080 287.500 258.018 285.000 L 259.956 282.500 260.010 284.500 L 260.064 286.500 261.532 284.559 L 263.000 282.618 263.000 283.916 L 263.000 285.214 264.500 284.638 L 266.000 284.063 266.000 285.590 L 266.000 287.118 266.878 286.575 L 267.756 286.032 268.354 289.021 L 268.952 292.010 268.917 292.755 L 268.883 293.500 267.348 293.346 L 265.813 293.191 266.383 296.846 L 266.953 300.500 266.180 298.655 L 265.407 296.811 264.123 299.629 L 262.839 302.446 263.920 302.807 L 265.000 303.167 265.000 304.583 L 265.000 306.000 266.000 306.000 L 267.000 306.000 267.000 303.500 L 267.000 301.000 267.927 301.000 L 268.855 301.000 271.619 295.250 L 274.383 289.500 274.591 288.330 L 274.800 287.160 272.474 284.975 L 270.148 282.790 268.920 283.550 L 267.691 284.309 268.314 283.301 L 268.937 282.292 266.422 281.146 L 263.906 280.000 261.703 280.076 M238.357 281.027 L 237.500 281.054 230.500 287.429 L 223.500 293.805 224.237 294.556 L 224.973 295.306 228.353 295.512 L 231.733 295.717 232.866 296.417 L 234.000 297.118 235.021 296.487 L 236.042 295.856 237.544 299.450 L 239.046 303.045 240.203 308.060 L 241.361 313.075 242.680 312.569 L 244.000 312.063 244.000 313.531 L 244.000 315.000 243.088 315.000 L 242.177 315.000 242.512 316.750 L 242.847 318.500 242.955 321.000 L 243.064 323.500 244.532 321.559 L 246.000 319.618 246.000 317.809 L 246.000 316.000 246.917 316.000 L 247.833 316.000 248.204 317.113 L 248.576 318.227 249.574 315.863 L 250.573 313.500 249.475 308.000 L 248.378 302.500 247.729 304.956 L 247.079 307.413 246.506 306.839 L 245.932 306.265 246.995 301.521 L 248.059 296.776 246.943 295.432 L 245.828 294.088 246.483 293.027 L 247.138 291.967 247.976 292.485 L 248.813 293.003 248.314 291.094 L 247.815 289.185 249.908 287.092 L 252.000 285.000 252.000 284.000 L 252.000 283.000 251.000 283.000 L 250.000 283.000 250.118 283.750 L 250.237 284.500 250.118 285.750 L 250.000 287.000 249.031 287.000 L 248.063 287.000 248.613 285.250 L 249.163 283.500 247.832 285.000 L 246.500 286.500 243.822 286.534 L 241.144 286.568 241.190 286.034 L 241.237 285.500 241.118 284.250 L 241.000 283.000 239.941 283.000 L 238.882 283.000 239.595 284.155 L 240.309 285.309 239.198 284.622 L 238.087 283.936 238.651 282.468 L 239.214 281.000 238.357 281.027 M50.169 307.528 L 47.838 307.257 47.314 308.623 L 46.790 309.989 45.907 309.442 L 45.023 308.896 45.659 310.698 L 46.296 312.500 48.563 315.572 L 50.830 318.644 53.176 322.572 L 55.523 326.500 57.511 329.776 L 59.500 333.051 65.920 332.776 L 72.341 332.500 72.754 331.250 L 73.167 330.000 71.742 330.000 L 70.318 330.000 69.048 324.250 L 67.777 318.500 66.766 317.250 L 65.755 316.000 66.628 315.985 L 67.500 315.969 66.026 315.037 L 64.553 314.106 63.947 315.087 L 63.340 316.068 60.670 313.397 L 58.000 310.727 57.965 311.614 L 57.929 312.500 56.715 310.500 L 55.500 308.500 54.000 308.150 L 52.500 307.800 50.169 307.528 M266.050 307.531 L 265.279 307.054 264.639 307.694 L 264.000 308.333 264.000 310.667 L 264.000 313.000 261.750 313.118 L 259.500 313.237 258.581 313.062 L 257.661 312.887 258.944 314.433 L 260.227 315.978 261.113 315.430 L 262.000 314.882 262.000 315.691 L 262.000 316.500 264.500 316.500 L 267.000 316.500 267.000 315.950 L 267.000 315.400 265.887 314.287 L 264.774 313.174 265.609 311.837 L 266.444 310.500 266.633 309.254 L 266.822 308.008 266.050 307.531 M76.996 308.596 L 76.003 307.603 76.481 311.552 L 76.959 315.500 77.391 320.000 L 77.822 324.500 78.539 328.750 L 79.256 333.000 84.034 333.000 L 88.813 333.000 88.254 330.750 L 87.696 328.500 85.826 325.815 L 83.957 323.130 84.228 322.261 L 84.500 321.392 82.514 317.680 L 80.528 313.967 79.473 314.372 L 78.418 314.777 78.203 312.183 L 77.988 309.588 76.996 308.596 " stroke="#000000" fill="none"/></svg>