<?xml version="1.0" standalone="no"?>
<svg xmlns:xlink="http://www.w3.org/1999/xlink" xmlns="http://www.w3.org/2000/svg" id="workspace"><path d="M239.425 0.000 L 172.081 0.000 169.476 2.750 L 166.872 5.500 163.004 12.000 L 159.135 18.500 156.951 25.000 L 154.767 31.500 154.804 41.146 L 154.841 50.791 156.493 53.986 L 158.145 57.181 157.584 60.841 L 157.023 64.500 155.931 79.236 L 154.839 93.971 156.418 97.135 L 157.996 100.300 156.899 101.622 L 155.801 102.944 157.297 104.440 L 158.792 105.935 158.859 111.503 L 158.925 117.070 159.436 117.897 L 159.947 118.723 161.457 128.061 L 162.967 137.399 166.359 144.541 L 169.751 151.683 173.321 153.890 L 176.892 156.096 177.455 160.798 L 178.019 165.500 179.627 177.000 L 181.236 188.500 182.028 191.140 L 182.820 193.781 178.039 201.140 L 173.258 208.500 167.826 213.771 L 162.394 219.043 154.447 220.014 L 146.500 220.986 135.500 224.083 L 124.500 227.180 117.500 229.119 L 110.500 231.059 97.000 232.432 L 83.500 233.806 72.000 236.338 L 60.500 238.871 54.800 239.996 L 49.100 241.121 44.300 243.556 L 39.500 245.992 38.327 245.996 L 37.153 246.000 34.046 248.615 L 30.938 251.230 28.096 255.365 L 25.255 259.500 17.877 274.000 L 10.500 288.500 10.568 293.033 L 10.637 297.566 12.318 300.937 L 14.000 304.307 14.000 305.729 L 14.000 307.151 7.750 319.301 L 1.500 331.451 1.167 332.225 L 0.833 333.000 144.204 333.000 L 287.574 333.000 287.726 330.985 L 287.878 328.971 289.806 326.519 L 291.734 324.068 292.289 324.622 L 292.843 325.177 292.572 322.838 L 292.300 320.500 291.637 317.500 L 290.975 314.500 293.443 313.365 L 295.910 312.231 296.376 313.365 L 296.842 314.500 296.921 312.750 L 297.000 311.000 298.000 311.000 L 299.000 311.000 299.030 312.250 L 299.061 313.500 300.167 311.595 L 301.273 309.690 302.595 312.595 L 303.918 315.500 303.313 312.601 L 302.708 309.702 303.948 310.468 L 305.188 311.234 304.818 315.108 L 304.449 318.983 305.474 319.413 L 306.500 319.842 303.628 319.921 L 300.755 320.000 301.926 321.411 L 303.097 322.822 301.799 323.646 L 300.500 324.469 299.500 324.485 L 298.500 324.500 298.500 325.521 L 298.500 326.543 296.247 329.521 L 293.995 332.500 294.573 330.500 L 295.151 328.500 294.022 330.257 L 292.893 332.013 290.831 330.910 L 288.769 329.806 289.218 331.153 L 289.667 332.500 379.902 332.755 L 470.138 333.011 469.476 330.755 L 468.814 328.500 462.907 316.353 L 457.000 304.206 457.000 303.523 L 457.000 302.839 453.500 297.566 L 450.000 292.293 450.000 290.515 L 450.000 288.736 448.088 285.618 L 446.176 282.500 444.945 276.183 L 443.714 269.867 440.055 264.183 L 436.395 258.500 434.151 253.838 L 431.906 249.175 427.806 244.517 L 423.705 239.858 417.466 236.910 L 411.226 233.962 397.178 231.037 L 383.129 228.112 379.283 227.076 L 375.438 226.041 367.469 224.953 L 359.500 223.865 350.000 221.521 L 340.500 219.176 328.000 217.016 L 315.500 214.855 311.232 212.375 L 306.965 209.895 307.318 203.839 L 307.672 197.784 305.888 200.142 L 304.104 202.500 304.948 198.745 L 305.792 194.989 304.896 194.436 L 304.000 193.882 304.000 195.141 L 304.000 196.400 302.750 195.138 L 301.500 193.875 303.271 192.876 L 305.042 191.877 304.435 190.895 L 303.828 189.912 305.074 188.411 L 306.320 186.909 302.911 188.705 L 299.502 190.500 298.766 191.500 L 298.031 192.500 298.015 195.719 L 298.000 198.937 296.500 198.362 L 295.000 197.786 295.000 199.278 L 295.000 200.770 292.500 202.408 L 290.000 204.046 290.000 202.145 L 290.000 200.245 288.500 199.000 L 287.000 197.755 287.000 198.493 L 287.000 199.230 284.470 197.572 L 281.941 195.915 282.606 198.568 L 283.272 201.221 280.886 200.486 L 278.500 199.751 276.000 198.415 L 273.500 197.080 274.905 197.040 L 276.310 197.000 274.500 195.000 L 272.690 193.000 271.589 193.000 L 270.488 193.000 269.075 189.808 L 267.662 186.615 267.464 182.061 L 267.265 177.507 264.052 176.586 L 260.838 175.664 258.015 177.332 L 255.191 179.000 249.956 179.000 L 244.720 179.000 243.392 177.250 L 242.064 175.500 242.032 173.678 L 242.000 171.856 239.574 167.678 L 237.148 163.500 238.572 159.500 L 239.996 155.500 240.617 153.000 L 241.238 150.500 241.321 148.000 L 241.404 145.500 241.202 140.643 L 241.000 135.786 239.448 136.382 L 237.896 136.977 238.352 136.239 L 238.809 135.500 239.394 130.243 L 239.979 124.986 241.600 121.243 L 243.221 117.500 244.038 114.106 L 244.854 110.712 243.499 109.356 L 242.143 108.000 240.271 108.000 L 238.400 108.000 237.148 106.750 L 235.895 105.500 232.698 105.349 L 229.500 105.199 219.500 103.627 L 209.500 102.055 205.000 101.104 L 200.500 100.152 196.921 98.814 L 193.342 97.475 193.821 95.988 L 194.300 94.500 195.400 93.750 L 196.500 93.000 195.296 92.219 L 194.091 91.438 194.118 89.469 L 194.144 87.500 193.761 86.000 L 193.378 84.500 192.622 82.250 L 191.865 80.000 191.004 80.000 L 190.142 80.000 190.195 76.750 L 190.249 73.500 189.775 72.000 L 189.302 70.500 188.477 68.576 L 187.653 66.652 188.781 60.074 L 189.909 53.495 193.599 46.210 L 197.289 38.925 201.990 34.713 L 206.691 30.500 214.952 26.192 L 223.213 21.883 228.577 21.493 L 233.941 21.102 235.905 20.051 L 237.869 19.000 241.006 19.000 L 244.143 19.000 245.524 17.619 L 246.905 16.238 246.386 15.719 L 245.867 15.200 247.183 15.258 L 248.500 15.315 251.133 15.158 L 253.767 15.000 254.292 12.992 L 254.817 10.985 256.883 11.300 L 258.948 11.615 259.577 12.244 L 260.206 12.872 262.500 12.000 L 264.794 11.128 265.397 11.731 L 266.000 12.333 266.002 11.417 L 266.003 10.500 271.430 10.311 L 276.856 10.121 278.050 11.561 L 279.245 13.000 280.278 13.000 L 281.311 13.000 284.589 15.500 L 287.867 18.000 288.589 18.000 L 289.311 18.000 292.656 20.551 L 296.000 23.102 296.000 22.458 L 296.000 21.814 301.053 26.044 L 306.105 30.274 308.475 34.950 L 310.844 39.626 312.411 40.926 L 313.978 42.227 313.558 42.906 L 313.139 43.585 315.175 43.738 L 317.212 43.892 315.384 41.872 L 313.556 39.852 314.528 40.044 L 315.500 40.237 316.264 40.118 L 317.029 40.000 313.772 33.750 L 310.514 27.500 310.124 26.600 L 309.733 25.700 312.089 27.350 L 314.445 29.000 315.120 29.000 L 315.795 29.000 315.498 25.750 L 315.201 22.500 314.073 18.000 L 312.944 13.500 311.479 9.747 L 310.014 5.994 309.866 5.247 L 309.718 4.500 308.244 2.250 L 306.770 0.000 239.425 0.000 M320.726 48.000 L 320.118 48.000 319.543 48.931 L 318.967 49.862 319.850 50.407 L 320.732 50.952 320.272 53.359 L 319.812 55.766 320.906 56.442 L 322.000 57.118 322.000 58.170 L 322.000 59.222 320.022 56.861 L 318.043 54.500 318.134 58.000 L 318.225 61.500 317.456 79.500 L 316.688 97.500 316.729 101.000 L 316.770 104.500 317.135 121.537 L 317.500 138.575 318.799 133.537 L 320.098 128.500 320.518 122.500 L 320.938 116.500 320.969 116.059 L 321.000 115.618 322.468 117.559 L 323.936 119.500 324.095 116.000 L 324.253 112.500 324.269 108.000 L 324.285 103.500 325.799 91.102 L 327.312 78.705 326.052 70.602 L 324.792 62.500 323.276 57.000 L 321.759 51.500 320.888 50.408 L 320.017 49.316 320.675 48.658 L 321.333 48.000 320.726 48.000 M309.276 80.432 L 306.500 80.364 303.264 81.053 L 300.028 81.742 296.011 85.371 L 291.994 89.000 290.632 89.000 L 289.270 89.000 286.635 91.073 L 284.000 93.145 284.000 92.530 L 284.000 91.916 279.250 94.633 L 274.500 97.350 269.842 100.693 L 265.183 104.036 264.144 107.018 L 263.104 110.000 263.726 110.000 L 264.349 110.000 262.147 112.344 L 259.944 114.688 259.545 117.844 L 259.146 121.000 261.323 121.015 L 263.500 121.031 262.165 121.877 L 260.829 122.724 260.915 123.362 L 261.000 124.000 261.000 125.059 L 261.000 126.118 259.845 125.405 L 258.691 124.691 259.401 125.840 L 260.111 126.989 262.033 128.018 L 263.955 129.046 263.396 127.273 L 262.837 125.500 264.382 127.392 L 265.928 129.284 266.221 130.164 L 266.515 131.044 269.486 131.583 L 272.457 132.122 273.229 133.311 L 274.000 134.500 274.879 133.136 L 275.758 131.773 283.129 132.566 L 290.500 133.359 292.476 133.079 L 294.452 132.798 297.170 130.510 L 299.889 128.222 299.278 127.611 L 298.667 127.000 299.942 127.000 L 301.217 127.000 300.594 124.519 L 299.971 122.037 303.379 119.803 L 306.787 117.569 307.394 113.145 L 308.000 108.721 308.000 106.977 L 308.000 105.233 305.794 104.656 L 303.587 104.079 304.285 103.382 L 304.983 102.684 303.869 101.342 L 302.755 100.000 300.878 100.000 L 299.000 100.000 299.118 99.250 L 299.237 98.500 299.118 97.050 L 299.000 95.600 297.916 96.684 L 296.831 97.769 295.008 97.292 L 293.185 96.815 294.873 95.158 L 296.561 93.500 299.381 92.027 L 302.201 90.554 303.449 92.262 L 304.698 93.969 305.350 93.316 L 306.003 92.664 308.467 93.983 L 310.932 95.301 310.463 96.060 L 309.994 96.820 310.586 98.363 L 311.178 99.906 312.966 98.789 L 314.754 97.673 314.328 92.586 L 313.901 87.500 312.977 84.000 L 312.053 80.500 309.276 80.432 M292.416 112.000 L 293.618 112.000 295.455 113.344 L 297.293 114.687 296.785 117.344 L 296.277 120.000 297.639 120.000 L 299.000 120.000 299.000 121.465 L 299.000 122.930 297.066 123.965 L 295.131 125.000 289.125 125.000 L 283.118 125.000 282.629 124.209 L 282.140 123.418 285.615 123.824 L 289.089 124.229 291.045 122.460 L 293.000 120.690 293.000 118.345 L 293.000 116.000 291.500 116.000 L 290.000 116.000 290.000 115.582 L 290.000 115.164 290.607 113.582 L 291.214 112.000 292.416 112.000 M186.726 140.000 L 187.118 140.000 186.475 141.040 L 185.832 142.080 188.234 141.477 L 190.636 140.875 199.568 142.980 L 208.500 145.086 210.331 145.470 L 212.163 145.855 216.608 144.517 L 221.054 143.179 221.777 142.962 L 222.500 142.745 223.797 142.248 L 225.095 141.750 226.896 143.625 L 228.697 145.500 227.746 148.263 L 226.796 151.025 227.354 152.480 L 227.913 153.936 226.956 154.527 L 226.000 155.118 226.000 157.937 L 226.000 160.756 223.750 162.416 L 221.500 164.077 222.750 164.622 L 224.000 165.167 224.000 167.392 L 224.000 169.618 222.677 171.427 L 221.354 173.236 218.801 173.516 L 216.249 173.797 214.358 174.808 L 212.467 175.820 209.984 174.446 L 207.500 173.071 206.781 173.035 L 206.063 173.000 206.610 174.427 L 207.158 175.854 205.079 175.310 L 203.000 174.767 203.000 173.383 L 203.000 172.000 202.045 172.000 L 201.091 172.000 198.691 169.600 L 196.291 167.200 195.652 165.536 L 195.014 163.873 194.092 164.443 L 193.171 165.012 192.739 163.756 L 192.308 162.500 193.065 159.815 L 193.823 157.131 192.264 157.729 L 190.704 158.327 191.225 155.606 L 191.745 152.884 190.372 153.411 L 189.000 153.937 189.000 152.969 L 189.000 152.000 190.000 152.000 L 191.000 152.000 191.000 151.088 L 191.000 150.176 188.633 150.436 L 186.267 150.696 186.721 148.961 L 187.174 147.226 186.087 146.554 L 185.000 145.882 185.000 143.608 L 185.000 141.333 185.667 140.667 L 186.333 140.000 186.726 140.000 M222.928 176.276 L 224.356 176.500 225.010 179.000 L 225.664 181.500 223.675 186.000 L 221.686 190.500 221.234 189.173 L 220.782 187.847 217.391 191.549 L 214.000 195.251 214.000 193.954 L 214.000 192.657 215.750 190.672 L 217.500 188.686 215.287 189.240 L 213.074 189.794 211.925 188.410 L 210.776 187.025 211.547 185.263 L 212.318 183.500 212.159 182.750 L 212.000 182.000 213.288 182.000 L 214.576 182.000 218.038 179.026 L 221.500 176.052 222.928 176.276 M266.809 215.104 L 267.118 215.000 266.500 216.000 L 265.882 217.000 266.941 217.000 L 268.000 217.000 268.000 219.107 L 268.000 221.214 266.250 220.451 L 264.500 219.688 260.836 219.594 L 257.172 219.500 257.652 219.017 L 258.133 218.534 262.316 216.871 L 266.500 215.207 266.809 215.104 M271.107 228.000 L 272.000 228.000 271.750 229.250 L 271.500 230.500 272.972 230.176 L 274.444 229.852 272.825 231.676 L 271.206 233.500 270.812 235.500 L 270.418 237.500 268.117 237.245 L 265.815 236.991 265.291 238.995 L 264.767 241.000 263.915 241.000 L 263.063 241.000 263.701 242.750 L 264.339 244.500 262.020 242.500 L 259.701 240.500 260.354 243.189 L 261.007 245.877 260.076 246.453 L 259.144 247.029 258.481 244.939 L 257.817 242.849 257.217 243.449 L 256.617 244.050 255.490 240.775 L 254.364 237.500 254.698 236.820 L 255.031 236.141 261.140 233.088 L 267.248 230.035 268.131 230.581 L 269.014 231.127 269.614 229.563 L 270.214 228.000 271.107 228.000 " stroke="#000000" fill="none"/><path d="M239.000 -0.000 L 171.349 0.000 169.285 2.250 L 167.221 4.500 163.795 10.000 L 160.369 15.500 158.269 20.500 L 156.170 25.500 155.093 31.500 L 154.017 37.500 154.385 45.086 L 154.754 52.671 155.998 54.997 L 157.243 57.322 156.057 75.926 L 154.870 94.529 155.961 97.396 L 157.051 100.264 156.485 102.048 L 155.919 103.832 156.959 104.475 L 158.000 105.118 158.000 107.590 L 158.000 110.061 160.462 123.392 L 162.924 136.722 165.098 142.611 L 167.272 148.500 171.636 152.733 L 176.000 156.966 176.000 158.983 L 176.000 161.000 177.067 161.000 L 178.135 161.000 177.547 162.851 L 176.960 164.702 178.408 171.101 L 179.855 177.500 179.822 180.500 L 179.789 183.500 180.819 189.000 L 181.849 194.500 178.675 199.957 L 175.500 205.415 168.900 212.092 L 162.300 218.769 155.900 219.472 L 149.500 220.175 139.500 222.668 L 129.500 225.160 124.000 227.092 L 118.500 229.025 110.000 230.435 L 101.500 231.845 93.500 232.497 L 85.500 233.149 72.000 235.993 L 58.500 238.837 54.500 239.487 L 50.500 240.137 45.129 242.569 L 39.758 245.000 38.456 245.000 L 37.153 245.000 34.020 247.637 L 30.887 250.273 27.368 255.773 L 23.850 261.274 16.925 274.787 L 10.000 288.301 10.000 292.215 L 10.000 296.129 12.001 300.815 L 14.002 305.500 9.902 313.500 L 5.801 321.500 3.908 325.186 L 2.015 328.873 1.007 329.495 L -0.000 330.118 -0.000 331.559 L 0.000 333.000 235.079 333.000 L 470.159 333.000 469.455 329.750 L 468.751 326.500 467.071 324.000 L 465.390 321.500 460.090 310.000 L 454.790 298.500 452.395 295.317 L 450.000 292.133 450.000 289.971 L 450.000 287.809 448.156 285.154 L 446.313 282.500 445.161 276.605 L 444.009 270.710 441.356 266.105 L 438.703 261.500 434.726 254.326 L 430.749 247.152 427.913 243.711 L 425.078 240.271 418.789 237.185 L 412.500 234.099 404.500 232.137 L 396.500 230.174 392.000 229.474 L 387.500 228.773 380.000 226.970 L 372.500 225.167 367.000 224.502 L 361.500 223.836 351.000 221.344 L 340.500 218.853 327.425 216.550 L 314.350 214.248 310.649 211.874 L 306.948 209.500 307.625 207.500 L 308.301 205.500 308.401 201.750 L 308.500 198.000 309.500 198.000 L 310.500 198.000 310.609 194.250 L 310.718 190.500 311.952 183.500 L 313.185 176.500 313.610 168.000 L 314.034 159.500 314.043 156.571 L 314.052 153.642 314.944 152.568 L 315.835 151.494 314.465 149.622 L 313.096 147.749 311.548 148.343 L 310.000 148.937 309.994 150.219 L 309.988 151.500 308.476 154.399 L 306.964 157.298 307.399 157.732 L 307.833 158.167 305.729 160.271 L 303.625 162.375 304.813 162.771 L 306.000 163.167 306.000 164.083 L 306.000 165.000 304.441 165.000 L 302.882 165.000 303.500 166.000 L 304.118 167.000 303.309 167.119 L 302.500 167.237 298.058 167.460 L 293.615 167.682 291.129 166.392 L 288.643 165.102 287.822 165.610 L 287.000 166.118 287.000 164.153 L 287.000 162.187 284.941 162.726 L 282.882 163.264 282.366 161.290 L 281.850 159.317 278.425 159.546 L 275.000 159.776 275.000 157.265 L 275.000 154.755 273.500 156.000 L 272.000 157.245 271.875 156.622 L 271.750 156.000 271.625 155.083 L 271.500 154.167 270.814 153.481 L 270.128 152.794 271.061 150.340 L 271.994 147.886 270.985 148.509 L 269.977 149.133 269.301 145.816 L 268.625 142.500 268.612 140.250 L 268.600 138.000 269.050 137.935 L 269.500 137.871 271.244 138.540 L 272.989 139.210 272.435 140.105 L 271.882 141.000 273.384 141.000 L 274.887 141.000 276.193 142.753 L 277.500 144.505 282.500 144.404 L 287.500 144.302 290.362 143.133 L 293.224 141.965 297.322 138.456 L 301.421 134.948 302.496 135.360 L 303.571 135.773 303.703 134.136 L 303.835 132.500 304.341 130.500 L 304.847 128.500 304.923 127.750 L 305.000 127.000 306.667 127.000 L 308.333 127.000 307.749 126.415 L 307.164 125.831 308.832 123.831 L 310.500 121.832 312.250 119.763 L 314.000 117.694 314.113 116.097 L 314.226 114.500 314.471 111.225 L 314.716 107.950 315.206 107.461 L 315.695 106.972 316.080 110.236 L 316.465 113.500 316.425 130.460 L 316.386 147.420 317.799 143.960 L 319.213 140.500 322.200 127.000 L 325.188 113.500 325.519 101.500 L 325.849 89.500 326.707 86.648 L 327.565 83.797 326.772 74.648 L 325.978 65.500 323.409 56.532 L 320.839 47.563 315.976 37.253 L 311.112 26.943 313.709 28.986 L 316.305 31.028 316.795 30.538 L 317.285 30.048 316.101 28.621 L 314.917 27.194 315.974 26.842 L 317.031 26.490 315.632 22.495 L 314.232 18.500 313.066 14.000 L 311.901 9.500 311.527 7.146 L 311.153 4.792 308.902 2.396 L 306.651 -0.000 239.000 -0.000 M268.882 14.000 L 269.646 14.000 276.073 17.118 L 282.500 20.237 287.500 22.621 L 292.500 25.006 297.560 28.753 L 302.621 32.500 305.717 35.107 L 308.813 37.714 310.771 41.607 L 312.729 45.500 313.929 49.211 L 315.129 52.922 315.317 62.961 L 315.505 73.000 314.316 73.000 L 313.126 73.000 313.713 76.622 L 314.301 80.243 311.854 78.640 L 309.407 77.037 307.246 77.453 L 305.085 77.869 300.305 79.983 L 295.525 82.098 293.262 84.223 L 291.000 86.349 290.968 85.424 L 290.936 84.500 289.524 86.364 L 288.113 88.228 284.806 88.437 L 281.500 88.647 281.730 89.762 L 281.959 90.878 279.730 91.626 L 277.500 92.373 275.305 92.122 L 273.109 91.871 271.208 92.889 L 269.306 93.906 268.237 92.837 L 267.169 91.769 265.091 93.224 L 263.013 94.679 263.673 95.340 L 264.333 96.000 262.367 96.000 L 260.400 96.000 259.150 97.250 L 257.901 98.500 255.700 98.689 L 253.500 98.878 247.250 99.295 L 241.000 99.712 241.000 98.784 L 241.000 97.857 238.700 98.158 L 236.400 98.460 233.616 96.270 L 230.832 94.080 231.415 93.138 L 231.998 92.195 229.239 91.233 L 226.480 90.271 225.053 86.636 L 223.627 83.000 222.422 83.000 L 221.217 83.000 220.448 80.250 L 219.680 77.500 219.228 79.452 L 218.775 81.405 216.916 77.583 L 215.057 73.761 216.021 71.961 L 216.984 70.161 215.742 69.620 L 214.500 69.079 217.414 69.689 L 220.329 70.299 219.660 68.557 L 218.991 66.814 218.387 64.407 L 217.783 62.000 216.892 62.000 L 216.000 62.000 216.000 60.557 L 216.000 59.113 214.250 57.795 L 212.500 56.476 211.216 54.197 L 209.932 51.919 210.518 50.971 L 211.104 50.023 209.388 50.681 L 207.672 51.340 208.395 50.170 L 209.118 49.000 207.809 48.969 L 206.500 48.937 204.682 46.440 L 202.864 43.944 203.182 42.419 L 203.500 40.894 204.388 41.033 L 205.276 41.171 206.123 39.835 L 206.969 38.500 206.985 39.781 L 207.000 41.063 205.506 41.636 L 204.011 42.210 204.595 43.153 L 205.178 44.097 206.589 42.926 L 208.000 41.755 208.000 39.771 L 208.000 37.788 210.712 35.644 L 213.423 33.500 215.459 32.472 L 217.495 31.443 217.498 29.472 L 217.500 27.500 222.750 27.198 L 228.000 26.895 228.000 25.396 L 228.000 23.897 233.250 24.103 L 238.500 24.308 240.750 23.587 L 243.000 22.865 243.000 21.933 L 243.000 21.000 244.514 21.000 L 246.027 21.000 248.044 19.750 L 250.061 18.500 250.906 19.857 L 251.750 21.214 252.434 20.107 L 253.118 19.000 252.504 18.007 L 251.890 17.013 254.421 17.223 L 256.952 17.432 257.439 18.702 L 257.927 19.972 260.626 17.471 L 263.326 14.969 265.079 15.525 L 266.832 16.081 267.475 15.041 L 268.118 14.000 268.882 14.000 M251.186 120.099 L 253.096 121.122 254.243 123.811 L 255.391 126.500 255.504 127.500 L 255.617 128.500 256.480 133.500 L 257.342 138.500 257.025 139.500 L 256.708 140.500 256.814 145.316 L 256.919 150.132 258.460 153.220 L 260.000 156.307 260.000 157.975 L 260.000 159.644 262.972 163.572 L 265.944 167.500 265.972 170.219 L 266.000 172.937 264.597 172.399 L 263.194 171.860 259.347 173.804 L 255.500 175.748 252.500 175.473 L 249.500 175.198 247.750 175.099 L 246.000 175.000 246.000 173.000 L 246.000 171.000 245.000 171.000 L 244.000 171.000 244.000 169.059 L 244.000 167.118 242.932 166.458 L 241.864 165.798 242.339 164.558 L 242.815 163.319 242.040 162.065 L 241.265 160.811 242.932 157.384 L 244.599 153.957 243.897 147.229 L 243.195 140.500 244.438 137.500 L 245.681 134.500 245.345 131.500 L 245.010 128.500 245.009 126.060 L 245.009 123.619 247.143 121.348 L 249.276 119.077 251.186 120.099 " stroke="#000000" fill="none"/><path d="M239.095 0.018 L 171.500 0.036 168.423 3.768 L 165.347 7.500 161.753 14.000 L 158.159 20.500 156.426 26.500 L 154.692 32.500 154.797 42.223 L 154.901 51.946 155.981 53.964 L 157.060 55.981 157.148 59.240 L 157.236 62.500 156.052 78.264 L 154.867 94.028 156.432 97.164 L 157.996 100.300 156.812 101.726 L 155.629 103.152 156.915 103.947 L 158.201 104.742 158.571 109.924 L 158.941 115.105 160.470 122.511 L 162.000 129.916 162.000 131.901 L 162.000 133.886 164.677 141.107 L 167.354 148.329 172.124 153.125 L 176.894 157.920 177.368 161.210 L 177.842 164.500 179.014 173.000 L 180.186 181.500 180.555 183.908 L 180.925 186.315 181.560 190.553 L 182.196 194.790 178.518 200.540 L 174.840 206.289 169.670 211.784 L 164.500 217.279 161.282 218.640 L 158.064 220.000 154.474 220.000 L 150.883 220.000 139.192 222.954 L 127.500 225.908 123.006 227.495 L 118.513 229.083 111.506 230.459 L 104.500 231.835 96.000 232.494 L 87.500 233.152 75.500 235.656 L 63.500 238.159 56.500 239.479 L 49.500 240.799 44.000 243.390 L 38.500 245.980 37.327 245.990 L 36.154 246.000 32.979 249.175 L 29.805 252.349 27.205 256.425 L 24.605 260.500 17.302 274.907 L 10.000 289.314 10.000 292.119 L 10.000 294.925 12.019 300.321 L 14.038 305.718 10.093 314.109 L 6.147 322.500 3.053 327.750 L -0.040 333.000 234.980 333.000 L 470.000 333.000 470.000 331.890 L 470.000 330.779 464.000 318.419 L 458.000 306.060 458.000 305.144 L 458.000 304.228 454.000 298.238 L 450.000 292.248 450.000 290.572 L 450.000 288.896 448.012 285.198 L 446.025 281.500 444.955 275.817 L 443.886 270.134 440.159 264.317 L 436.433 258.500 433.556 252.756 L 430.679 247.013 427.090 243.375 L 423.500 239.737 417.551 236.895 L 411.603 234.052 402.051 231.949 L 392.500 229.846 382.000 227.514 L 371.500 225.182 366.000 224.542 L 360.500 223.902 348.500 221.056 L 336.500 218.210 326.500 216.573 L 316.500 214.935 312.000 212.659 L 307.500 210.382 307.339 206.191 L 307.177 202.000 308.057 202.000 L 308.937 202.000 308.362 200.500 L 307.786 199.000 308.572 197.250 L 309.359 195.500 309.545 193.694 L 309.732 191.889 308.409 192.396 L 307.087 192.904 308.053 190.702 L 309.020 188.500 309.807 180.868 L 310.594 173.237 309.547 173.423 L 308.500 173.609 304.750 174.882 L 301.000 176.155 301.000 177.010 L 301.000 177.865 299.111 178.465 L 297.223 179.064 294.842 181.282 L 292.461 183.500 292.838 185.429 L 293.216 187.359 291.536 185.679 L 289.857 184.000 289.567 184.000 L 289.277 184.000 289.759 186.521 L 290.241 189.042 287.472 187.989 L 284.702 186.936 286.101 188.718 L 287.500 190.500 288.500 191.315 L 289.500 192.129 285.901 191.783 L 282.301 191.437 282.767 193.218 L 283.233 195.000 282.404 195.000 L 281.575 195.000 279.289 192.250 L 277.002 189.500 277.671 191.414 L 278.340 193.328 276.920 192.472 L 275.500 191.616 276.799 193.219 L 278.097 194.822 277.195 195.380 L 276.292 195.937 275.142 193.412 L 273.991 190.887 273.198 191.378 L 272.405 191.868 271.292 191.181 L 270.180 190.493 268.872 184.159 L 267.564 177.825 269.164 175.037 L 270.764 172.249 268.882 172.741 L 267.000 173.233 267.000 174.148 L 267.000 175.063 263.692 174.840 L 260.385 174.617 257.970 176.309 L 255.555 178.000 250.246 178.000 L 244.937 178.000 244.431 176.250 L 243.926 174.500 241.463 169.749 L 239.000 164.999 239.000 162.558 L 239.000 160.118 239.868 159.581 L 240.736 159.045 241.514 153.772 L 242.291 148.500 242.045 141.500 L 241.800 134.500 241.015 134.000 L 240.230 133.500 241.117 128.500 L 242.005 123.500 242.350 122.500 L 242.696 121.500 244.616 117.411 L 246.535 113.322 248.195 111.662 L 249.854 110.003 250.321 111.752 L 250.788 113.500 251.511 111.250 L 252.233 109.000 253.117 109.000 L 254.000 109.000 254.000 109.566 L 254.000 110.131 252.945 112.316 L 251.890 114.500 253.294 112.766 L 254.698 111.031 255.509 111.766 L 256.321 112.500 255.644 111.319 L 254.967 110.138 255.984 109.510 L 257.000 108.882 257.000 110.012 L 257.000 111.143 258.535 112.677 L 260.069 114.212 259.124 115.356 L 258.179 116.500 257.484 120.221 L 256.788 123.941 260.644 127.766 L 264.500 131.591 269.917 134.334 L 275.334 137.078 276.042 135.932 L 276.750 134.786 277.444 135.910 L 278.138 137.033 279.069 136.457 L 280.000 135.882 280.000 136.941 L 280.000 138.000 281.750 137.985 L 283.500 137.969 282.000 137.000 L 280.500 136.031 282.500 136.000 L 284.500 135.969 283.000 134.989 L 281.500 134.009 284.754 134.342 L 288.008 134.675 288.593 135.260 L 289.179 135.845 292.839 135.293 L 296.500 134.740 299.203 132.228 L 301.905 129.716 301.834 129.108 L 301.763 128.500 301.882 126.160 L 302.000 123.819 306.767 119.160 L 311.534 114.500 311.911 111.000 L 312.287 107.500 312.560 105.500 L 312.833 103.500 312.917 101.691 L 313.000 99.882 314.156 100.596 L 315.312 101.311 314.699 97.532 L 314.086 93.752 314.793 94.453 L 315.500 95.155 316.546 110.768 L 317.592 126.380 317.035 134.779 L 316.477 143.177 317.157 143.597 L 317.837 144.017 318.398 141.259 L 318.959 138.500 319.556 135.500 L 320.152 132.500 320.712 127.661 L 321.272 122.821 322.120 124.161 L 322.969 125.500 322.985 123.684 L 323.000 121.869 321.836 119.684 L 320.673 117.500 322.213 118.770 L 323.753 120.040 324.827 112.798 L 325.902 105.557 324.948 104.968 L 323.995 104.379 325.662 92.001 L 327.329 79.624 326.090 70.562 L 324.852 61.500 323.794 58.000 L 322.736 54.500 320.751 48.763 L 318.766 43.027 317.729 43.668 L 316.691 44.309 317.376 43.200 L 318.061 42.092 314.833 35.296 L 311.604 28.500 311.169 27.600 L 310.733 26.700 313.089 28.350 L 315.445 30.000 316.345 30.000 L 317.245 30.000 316.074 28.589 L 314.903 27.178 315.948 26.532 L 316.993 25.886 315.496 22.993 L 314.000 20.099 313.987 18.300 L 313.974 16.500 311.948 10.036 L 309.922 3.571 308.306 1.786 L 306.690 0.000 239.095 0.018 M273.889 11.326 L 275.500 11.598 277.750 12.834 L 280.000 14.070 280.000 13.312 L 280.000 12.554 282.851 15.527 L 285.702 18.500 289.255 21.500 L 292.808 24.500 296.654 26.490 L 300.500 28.480 301.300 29.740 L 302.099 31.000 303.235 31.000 L 304.371 31.000 306.686 33.174 L 309.000 35.349 309.000 36.603 L 309.000 37.857 310.250 39.221 L 311.500 40.584 312.609 42.542 L 313.718 44.500 314.776 44.500 L 315.833 44.500 316.667 45.333 L 317.500 46.167 316.500 45.965 L 315.500 45.763 314.724 45.882 L 313.949 46.000 315.355 48.750 L 316.761 51.500 316.748 72.727 L 316.736 93.955 316.000 93.500 L 315.264 93.045 314.626 88.236 L 313.988 83.428 312.388 81.144 L 310.788 78.860 306.644 79.548 L 302.500 80.236 300.000 81.523 L 297.500 82.809 295.000 85.001 L 292.500 87.194 286.000 90.452 L 279.500 93.710 276.000 95.418 L 272.500 97.127 271.000 98.066 L 269.500 99.005 267.224 99.988 L 264.947 100.971 263.724 102.005 L 262.500 103.039 259.562 105.463 L 256.625 107.886 255.796 107.374 L 254.967 106.862 255.676 105.681 L 256.384 104.500 254.770 105.808 L 253.155 107.116 249.328 106.695 L 245.500 106.275 243.500 105.541 L 241.500 104.808 240.000 104.245 L 238.500 103.682 237.645 103.876 L 236.789 104.070 235.232 102.785 L 233.675 101.500 233.302 102.607 L 232.929 103.714 223.714 103.247 L 214.500 102.780 209.500 100.638 L 204.500 98.496 202.508 97.323 L 200.517 96.150 201.269 95.398 L 202.021 94.646 203.513 96.573 L 205.005 98.500 204.325 96.500 L 203.646 94.500 202.668 93.845 L 201.690 93.191 201.782 89.946 L 201.875 86.702 199.569 83.601 L 197.263 80.500 196.591 77.666 L 195.920 74.832 197.210 75.588 L 198.500 76.344 196.750 74.343 L 195.000 72.343 195.000 70.730 L 195.000 69.118 194.061 68.538 L 193.123 67.958 193.492 66.044 L 193.860 64.130 194.825 62.315 L 195.790 60.500 195.486 57.780 L 195.183 55.061 196.216 55.280 L 197.250 55.500 197.719 54.219 L 198.188 52.937 197.344 53.128 L 196.500 53.318 194.750 52.552 L 193.000 51.786 193.000 49.787 L 193.000 47.789 195.491 44.644 L 197.982 41.500 199.741 39.073 L 201.500 36.645 205.500 32.815 L 209.500 28.984 213.969 27.272 L 218.439 25.561 221.931 23.780 L 225.423 22.000 231.140 22.000 L 236.857 22.000 238.310 20.548 L 239.762 19.095 240.258 19.591 L 240.753 20.087 244.877 18.800 L 249.000 17.513 249.000 16.870 L 249.000 16.227 253.750 15.442 L 258.500 14.658 259.375 14.870 L 260.250 15.083 261.875 13.726 L 263.500 12.368 267.500 12.091 L 271.500 11.814 271.889 11.434 L 272.278 11.055 273.889 11.326 M292.711 112.443 L 294.164 113.000 295.082 113.000 L 296.000 113.000 296.000 116.000 L 296.000 119.000 294.975 119.000 L 293.950 119.000 292.918 116.284 L 291.885 113.568 290.958 115.034 L 290.031 116.500 290.015 115.832 L 290.000 115.164 290.629 113.524 L 291.258 111.885 292.711 112.443 M196.349 143.559 L 201.198 144.036 203.105 145.056 L 205.013 146.077 210.256 146.167 L 215.500 146.257 220.315 145.752 L 225.131 145.247 224.460 149.873 L 223.789 154.500 223.604 156.500 L 223.419 158.500 222.209 158.250 L 221.000 158.000 221.118 158.750 L 221.237 159.500 221.103 162.500 L 220.969 165.500 219.954 164.000 L 218.939 162.500 219.578 165.250 L 220.217 168.000 219.140 168.000 L 218.063 168.000 218.566 169.312 L 219.070 170.625 216.569 171.963 L 214.068 173.301 212.639 172.116 L 211.211 170.930 210.355 171.177 L 209.500 171.425 207.129 170.113 L 204.759 168.800 205.438 169.900 L 206.118 171.000 205.059 171.000 L 204.000 171.000 204.000 170.071 L 204.000 169.143 202.355 167.498 L 200.709 165.852 199.870 167.176 L 199.031 168.500 198.941 167.000 L 198.851 165.500 198.407 163.000 L 197.963 160.500 196.731 159.500 L 195.500 158.500 195.337 155.104 L 195.173 151.708 192.087 149.074 L 189.000 146.440 189.000 145.303 L 189.000 144.167 190.250 143.625 L 191.500 143.083 196.349 143.559 M268.516 162.423 L 266.000 159.708 266.000 161.307 L 266.000 162.906 267.161 165.453 L 268.321 168.000 269.220 168.000 L 270.118 168.000 269.543 168.931 L 268.967 169.862 270.138 170.585 L 271.309 171.309 270.595 170.155 L 269.882 169.000 271.191 168.985 L 272.500 168.969 271.122 168.096 L 269.744 167.224 270.388 166.181 L 271.033 165.138 268.516 162.423 M223.059 178.000 L 224.118 178.000 223.500 179.000 L 222.882 180.000 223.941 180.000 L 225.000 180.000 225.000 181.000 L 225.000 182.000 223.000 184.000 L 221.000 186.000 220.000 186.000 L 219.000 186.000 219.000 187.378 L 219.000 188.755 217.477 190.019 L 215.954 191.283 216.582 189.648 L 217.209 188.013 214.882 187.152 L 212.555 186.291 215.701 183.146 L 218.846 180.000 220.423 180.000 L 222.000 180.000 222.000 179.000 L 222.000 178.000 223.059 178.000 M262.229 235.116 L 263.957 235.000 262.826 237.483 L 261.695 239.965 260.379 238.233 L 259.064 236.500 258.916 239.500 L 258.768 242.500 258.308 240.738 L 257.849 238.976 257.018 239.489 L 256.187 240.003 256.696 238.055 L 257.205 236.107 258.853 235.670 L 260.500 235.232 262.229 235.116 M295.025 313.000 L 296.000 313.000 296.000 315.441 L 296.000 317.882 297.145 318.590 L 298.290 319.297 297.779 316.625 L 297.268 313.952 298.027 313.483 L 298.787 313.014 299.365 315.318 L 299.943 317.622 298.902 321.391 L 297.862 325.161 296.482 324.631 L 295.102 324.102 294.484 326.051 L 293.865 328.000 292.874 328.000 L 291.882 328.000 292.397 328.833 L 292.912 329.667 291.456 329.667 L 290.000 329.667 290.000 328.833 L 290.000 328.000 290.969 328.000 L 291.937 328.000 291.374 326.250 L 290.811 324.500 291.890 326.000 L 292.969 327.500 293.100 325.500 L 293.230 323.500 293.132 321.500 L 293.033 319.500 293.766 321.021 L 294.500 322.542 295.667 322.521 L 296.833 322.500 297.667 321.590 L 298.500 320.679 297.243 321.403 L 295.986 322.127 295.579 320.813 L 295.173 319.500 294.612 316.250 L 294.050 313.000 295.025 313.000 " stroke="#000000" fill="none"/><path d="M191.673 0.090 L 173.500 0.239 168.423 6.370 L 163.346 12.500 160.747 17.000 L 158.148 21.500 156.499 27.935 L 154.849 34.370 155.101 42.435 L 155.353 50.500 155.849 51.434 L 156.345 52.367 157.096 50.434 L 157.848 48.500 157.489 58.500 L 157.130 68.500 156.026 80.724 L 154.922 92.949 156.513 96.024 L 158.103 99.100 157.469 101.098 L 156.835 103.096 157.803 104.298 L 158.771 105.500 159.278 112.000 L 159.785 118.500 161.444 127.349 L 163.102 136.198 165.172 141.730 L 167.242 147.262 170.737 151.131 L 174.233 155.000 175.237 155.000 L 176.240 155.000 175.657 149.250 L 175.073 143.500 174.096 137.554 L 173.119 131.609 174.029 130.054 L 174.939 128.500 174.970 130.559 L 175.000 132.618 176.417 134.556 L 177.835 136.494 176.667 137.939 L 175.500 139.384 176.750 138.633 L 178.000 137.882 178.000 139.382 L 178.000 140.882 177.211 141.370 L 176.422 141.857 177.697 152.679 L 178.972 163.500 179.547 170.000 L 180.121 176.500 180.999 180.446 L 181.876 184.392 181.367 185.216 L 180.858 186.039 182.022 189.567 L 183.186 193.095 179.843 198.745 L 176.500 204.395 169.117 212.197 L 161.735 220.000 156.799 220.000 L 151.862 220.000 141.681 222.557 L 131.500 225.115 122.174 228.078 L 112.847 231.041 98.428 232.491 L 84.009 233.940 72.754 236.441 L 61.500 238.942 57.000 239.615 L 52.500 240.288 45.500 243.217 L 38.500 246.147 36.023 247.349 L 33.545 248.551 29.924 253.343 L 26.303 258.134 18.643 273.107 L 10.982 288.080 10.834 291.881 L 10.685 295.682 12.511 300.762 L 14.338 305.842 11.066 313.171 L 7.793 320.500 4.397 326.304 L 1.000 332.107 1.000 332.554 L 1.000 333.000 144.000 333.000 L 287.000 333.000 286.882 332.250 L 286.763 331.500 286.882 328.691 L 287.000 325.882 287.851 326.408 L 288.702 326.934 289.908 323.217 L 291.114 319.500 290.807 316.052 L 290.500 312.605 294.703 311.862 L 298.907 311.120 301.061 309.967 L 303.215 308.815 304.347 309.947 L 305.480 311.080 305.643 317.481 L 305.806 323.883 304.329 325.692 L 302.852 327.500 303.590 326.079 L 304.329 324.658 301.758 326.579 L 299.187 328.500 299.212 329.000 L 299.237 329.500 299.118 330.677 L 299.000 331.853 297.250 332.311 L 295.500 332.768 382.680 332.884 L 469.860 333.000 468.965 329.877 L 468.069 326.755 466.698 324.627 L 465.328 322.500 460.137 311.148 L 454.946 299.795 452.473 296.553 L 450.000 293.311 449.996 291.406 L 449.993 289.500 448.063 286.335 L 446.133 283.170 445.075 277.447 L 444.017 271.724 441.360 267.112 L 438.703 262.500 434.726 255.326 L 430.749 248.152 427.785 244.556 L 424.821 240.959 417.290 237.434 L 409.759 233.908 409.277 234.390 L 408.794 234.872 406.147 233.807 L 403.500 232.743 394.000 230.863 L 384.500 228.984 381.780 228.544 L 379.060 228.103 377.280 227.174 L 375.500 226.245 369.500 225.711 L 363.500 225.176 356.139 223.579 L 348.778 221.981 347.912 221.446 L 347.047 220.911 344.273 220.502 L 341.500 220.092 333.500 218.525 L 325.500 216.957 320.000 215.877 L 314.500 214.797 310.213 212.149 L 305.925 209.500 306.363 207.771 L 306.802 206.043 304.903 206.333 L 303.004 206.622 300.083 209.420 L 297.163 212.218 296.186 211.615 L 295.210 211.011 294.687 212.373 L 294.165 213.735 291.832 213.577 L 289.500 213.419 289.750 212.209 L 290.000 211.000 288.383 211.000 L 286.767 211.000 287.426 208.750 L 288.086 206.500 288.580 204.154 L 289.074 201.809 287.787 202.258 L 286.500 202.707 286.809 204.421 L 287.118 206.134 285.140 205.075 L 283.161 204.016 282.660 205.258 L 282.158 206.500 282.079 204.309 L 282.000 202.118 281.000 201.500 L 280.000 200.882 280.000 201.941 L 280.000 203.000 278.500 203.000 L 277.000 203.000 277.000 201.988 L 277.000 200.976 268.000 201.413 L 259.000 201.849 259.000 199.925 L 259.000 198.000 259.950 198.000 L 260.901 198.000 261.933 199.750 L 262.966 201.500 262.344 198.000 L 261.723 194.500 264.861 197.437 L 268.000 200.374 268.000 199.270 L 268.000 198.167 267.122 197.833 L 266.243 197.500 265.509 194.100 L 264.775 190.700 266.411 191.327 L 268.046 191.955 267.018 190.033 L 265.989 188.111 265.015 187.509 L 264.041 186.908 262.121 187.935 L 260.200 188.963 259.654 187.540 L 259.107 186.116 257.054 186.271 L 255.000 186.426 255.000 187.213 L 255.000 188.000 253.107 188.000 L 251.214 188.000 250.448 189.750 L 249.682 191.500 249.866 192.324 L 250.050 193.149 249.094 192.558 L 248.138 191.967 247.510 192.984 L 246.882 194.000 245.826 194.000 L 244.770 194.000 246.408 191.500 L 248.046 189.000 247.223 189.000 L 246.400 189.000 245.417 189.983 L 244.433 190.967 244.222 188.407 L 244.010 185.847 245.386 184.471 L 246.762 183.095 247.541 183.798 L 248.321 184.500 247.591 183.234 L 246.862 181.967 245.887 182.570 L 244.912 183.172 243.467 181.973 L 242.022 180.773 242.570 179.887 L 243.118 179.000 241.873 179.000 L 240.629 179.000 238.388 176.895 L 236.148 174.790 235.118 175.427 L 234.087 176.064 234.651 177.532 L 235.214 179.000 233.072 179.000 L 230.930 179.000 228.465 177.385 L 226.000 175.770 225.956 180.635 L 225.912 185.500 224.540 189.348 L 223.168 193.197 223.618 195.678 L 224.068 198.160 223.027 197.517 L 221.986 196.873 221.386 198.437 L 220.786 200.000 219.253 200.000 L 217.720 200.000 216.286 201.750 L 214.852 203.500 215.489 202.243 L 216.127 200.986 214.563 200.386 L 213.000 199.786 213.000 197.393 L 213.000 195.000 211.941 195.000 L 210.882 195.000 211.434 194.107 L 211.986 193.213 209.493 192.588 L 207.000 191.962 207.000 190.414 L 207.000 188.865 205.081 189.474 L 203.161 190.084 202.513 188.042 L 201.865 186.000 199.933 186.000 L 198.000 186.000 198.000 183.941 L 198.000 181.882 197.000 182.500 L 196.000 183.118 196.000 181.594 L 196.000 180.070 192.894 176.532 L 189.788 172.995 190.447 171.278 L 191.106 169.561 190.448 170.219 L 189.790 170.877 187.334 168.226 L 184.878 165.576 185.333 163.834 L 185.788 162.093 184.426 160.296 L 183.064 158.500 183.032 156.833 L 183.000 155.167 181.750 154.583 L 180.500 154.000 181.607 153.464 L 182.714 152.929 180.661 148.780 L 178.608 144.631 179.804 144.232 L 181.000 143.833 181.000 143.010 L 181.000 142.187 178.750 142.668 L 176.500 143.148 178.111 141.816 L 179.721 140.483 179.462 137.492 L 179.202 134.500 179.617 135.547 L 180.032 136.595 183.480 136.192 L 186.929 135.789 191.715 138.476 L 196.500 141.162 201.250 141.447 L 206.000 141.731 206.000 140.857 L 206.000 139.983 207.868 141.149 L 209.735 142.316 211.431 141.665 L 213.127 141.014 212.607 140.174 L 212.088 139.333 213.544 139.167 L 215.000 139.000 216.504 138.833 L 218.008 138.667 216.544 137.049 L 215.080 135.431 217.040 134.207 L 219.000 132.983 219.000 134.492 L 219.000 136.000 220.059 136.000 L 221.118 136.000 220.405 137.155 L 219.691 138.309 221.095 137.502 L 222.500 136.696 224.150 135.284 L 225.799 133.872 225.650 135.564 L 225.500 137.257 227.643 137.606 L 229.787 137.955 233.780 133.623 L 237.774 129.290 239.387 123.741 L 241.000 118.192 241.000 116.646 L 241.000 115.099 239.729 114.300 L 238.458 113.500 237.263 110.778 L 236.068 108.055 233.284 107.493 L 230.500 106.931 227.500 106.016 L 224.500 105.101 217.500 104.518 L 210.500 103.936 206.566 102.880 L 202.632 101.824 199.906 102.369 L 197.181 102.914 196.622 101.457 L 196.063 100.000 193.656 100.000 L 191.250 100.000 188.154 99.381 L 185.057 98.761 186.029 96.946 L 187.000 95.131 187.000 94.507 L 187.000 93.882 186.011 94.493 L 185.023 95.104 185.644 93.484 L 186.266 91.865 185.216 89.683 L 184.167 87.500 183.677 85.249 L 183.187 82.997 184.093 83.558 L 185.000 84.118 185.000 82.559 L 185.000 81.000 183.878 81.000 L 182.755 81.000 184.000 79.500 L 185.245 78.000 184.245 78.000 L 183.246 78.000 183.675 73.250 L 184.104 68.500 185.659 62.500 L 187.215 56.500 191.236 48.040 L 195.257 39.580 200.763 34.290 L 206.269 29.000 207.290 29.000 L 208.311 29.000 211.589 26.500 L 214.867 24.000 215.455 24.000 L 216.043 24.000 219.997 21.384 L 223.950 18.767 225.538 19.376 L 227.126 19.986 231.213 18.011 L 235.299 16.037 237.570 16.607 L 239.842 17.177 242.826 14.971 L 245.810 12.764 246.771 13.359 L 247.733 13.953 249.521 11.976 L 251.310 10.000 253.088 10.000 L 254.865 10.000 255.505 7.985 L 256.144 5.971 257.242 6.649 L 258.339 7.328 265.920 7.711 L 273.500 8.095 276.353 8.024 L 279.205 7.953 283.105 11.476 L 287.006 15.000 288.413 15.000 L 289.820 15.000 294.660 18.911 L 299.500 22.823 302.078 25.161 L 304.656 27.500 308.328 32.987 L 312.000 38.473 312.128 37.987 L 312.255 37.500 312.511 35.000 L 312.766 32.500 310.764 28.557 L 308.763 24.614 311.329 26.296 L 313.896 27.978 314.336 27.239 L 314.775 26.500 314.515 24.000 L 314.255 21.500 314.112 21.000 L 313.969 20.500 313.124 21.834 L 312.278 23.168 311.671 21.584 L 311.063 20.000 312.465 20.000 L 313.868 20.000 313.386 17.345 L 312.905 14.691 311.882 12.780 L 310.860 10.870 310.476 8.875 L 310.092 6.879 307.296 3.512 L 304.500 0.144 260.191 0.072 L 215.882 0.000 216.500 1.000 L 217.118 2.000 214.118 2.000 L 211.118 2.000 210.482 0.971 L 209.846 -0.059 191.673 0.090 M323.505 64.640 L 322.064 64.087 321.473 65.044 L 320.882 66.000 321.527 67.044 L 322.172 68.088 320.971 69.535 L 319.770 70.982 318.790 78.241 L 317.809 85.500 317.579 100.000 L 317.348 114.500 317.956 122.500 L 318.564 130.500 319.290 124.500 L 320.016 118.500 320.955 112.500 L 321.894 106.500 322.512 101.025 L 323.129 95.550 323.991 94.511 L 324.853 93.472 325.768 86.647 L 326.682 79.822 326.335 75.661 L 325.988 71.500 325.467 68.347 L 324.946 65.193 323.505 64.640 M310.857 83.098 L 310.500 83.196 308.000 84.637 L 305.500 86.078 301.695 85.627 L 297.889 85.175 294.910 88.088 L 291.931 91.000 290.625 91.000 L 289.319 91.000 283.160 94.078 L 277.000 97.156 277.000 98.011 L 277.000 98.865 275.143 99.455 L 273.286 100.044 272.288 102.272 L 271.290 104.500 272.830 106.856 L 274.369 109.213 271.996 111.003 L 269.623 112.793 268.312 112.289 L 267.000 111.786 267.000 115.528 L 267.000 119.271 269.500 121.588 L 272.000 123.905 271.985 125.202 L 271.969 126.500 271.124 125.166 L 270.278 123.832 269.671 125.416 L 269.063 127.000 270.031 127.000 L 271.000 127.000 271.510 126.980 L 272.021 126.959 274.961 128.480 L 277.901 130.000 279.009 130.000 L 280.118 130.000 279.500 129.000 L 278.882 128.000 280.500 128.000 L 282.118 128.000 281.570 128.887 L 281.022 129.773 282.511 131.009 L 284.000 132.245 284.000 130.691 L 284.000 129.136 280.988 126.992 L 277.976 124.847 278.547 123.924 L 279.118 123.000 284.536 123.000 L 289.954 123.000 291.563 120.544 L 293.172 118.088 292.527 117.044 L 291.882 116.000 290.334 116.000 L 288.786 116.000 289.393 114.418 L 290.000 112.836 290.000 112.418 L 290.000 112.000 292.500 112.000 L 295.000 112.000 296.842 113.842 L 298.684 115.684 300.842 116.248 L 303.000 116.813 303.000 115.861 L 303.000 114.909 300.568 112.477 L 298.136 110.045 294.178 109.413 L 290.220 108.780 292.110 106.890 L 294.000 105.000 294.750 105.022 L 295.500 105.044 298.000 107.000 L 300.500 108.956 301.320 108.978 L 302.139 109.000 301.820 106.841 L 301.500 104.681 299.500 104.179 L 297.500 103.677 291.000 103.543 L 284.500 103.409 283.974 104.152 L 283.447 104.894 282.085 104.053 L 280.724 103.211 285.112 100.361 L 289.500 97.512 295.470 93.175 L 301.440 88.838 304.381 89.426 L 307.323 90.015 310.324 91.512 L 313.325 93.009 313.669 92.664 L 314.014 92.319 313.382 89.160 L 312.750 86.000 311.406 86.000 L 310.063 86.000 310.638 84.500 L 311.214 83.000 310.857 83.098 M279.742 113.409 L 280.014 113.681 279.382 116.840 L 278.750 120.000 277.344 120.000 L 275.937 120.000 275.313 118.372 L 274.688 116.744 277.079 114.940 L 279.470 113.137 279.742 113.409 M233.219 153.015 L 231.937 153.000 231.390 154.750 L 230.843 156.500 229.422 159.154 L 228.000 161.809 228.000 165.627 L 228.000 169.445 229.557 167.223 L 231.113 165.000 233.057 165.000 L 235.000 165.000 235.083 164.250 L 235.167 163.500 235.494 161.500 L 235.821 159.500 236.392 157.048 L 236.963 154.595 235.732 153.813 L 234.500 153.031 233.219 153.015 M262.500 178.103 L 260.500 178.124 257.263 180.312 L 254.026 182.500 254.013 183.036 L 254.000 183.571 256.044 183.571 L 258.089 183.571 261.294 180.826 L 264.500 178.081 262.500 178.103 M254.700 198.000 L 255.000 198.000 255.000 199.961 L 255.000 201.923 251.062 202.983 L 247.125 204.044 243.024 203.388 L 238.923 202.732 239.294 201.616 L 239.665 200.500 245.921 200.362 L 252.176 200.224 253.288 199.112 L 254.400 198.000 254.700 198.000 M275.765 207.580 L 276.500 208.660 279.750 210.074 L 283.000 211.488 283.000 213.161 L 283.000 214.833 284.238 215.246 L 285.476 215.659 284.226 218.404 L 282.975 221.150 283.546 222.075 L 284.118 223.000 282.147 223.000 L 280.176 223.000 280.451 225.500 L 280.725 228.000 279.862 228.000 L 279.000 228.000 279.000 229.961 L 279.000 231.922 276.873 233.904 L 274.745 235.886 275.278 238.674 L 275.811 241.462 274.486 239.650 L 273.160 237.837 272.830 240.169 L 272.500 242.500 270.778 242.213 L 269.057 241.925 268.438 244.390 L 267.820 246.855 266.410 247.396 L 265.000 247.937 265.000 250.028 L 265.000 252.118 263.984 251.490 L 262.967 250.862 263.359 250.181 L 263.750 249.500 262.945 247.500 L 262.141 245.500 262.070 248.405 L 262.000 251.310 259.944 249.449 L 257.888 247.589 255.866 248.852 L 253.843 250.115 252.645 249.121 L 251.448 248.127 250.123 244.464 L 248.799 240.801 250.046 239.651 L 251.293 238.500 250.500 240.000 L 249.707 241.500 251.067 240.236 L 252.428 238.972 251.122 235.736 L 249.815 232.500 249.741 231.293 L 249.667 230.086 248.333 229.574 L 247.000 229.063 247.000 227.088 L 247.000 225.113 249.087 223.652 L 251.174 222.190 249.337 221.688 L 247.500 221.187 242.000 221.077 L 236.500 220.967 233.250 219.906 L 230.000 218.845 230.000 218.006 L 230.000 217.167 231.250 216.727 L 232.500 216.287 234.715 217.105 L 236.929 217.924 237.525 216.959 L 238.121 215.995 239.811 216.889 L 241.500 217.784 245.291 218.288 L 249.082 218.791 251.041 218.279 L 253.000 217.767 253.000 216.467 L 253.000 215.167 254.250 214.623 L 255.500 214.079 252.822 214.630 L 250.145 215.180 248.322 214.121 L 246.500 213.061 248.596 213.030 L 250.693 213.000 254.096 211.271 L 257.500 209.542 265.000 209.303 L 272.500 209.064 273.750 208.865 L 275.000 208.667 275.015 207.583 L 275.031 206.500 275.765 207.580 M233.500 234.838 L 234.500 235.442 236.439 235.744 L 238.379 236.045 238.600 236.273 L 238.822 236.500 239.522 240.250 L 240.223 244.000 239.111 244.000 L 238.000 244.000 238.000 242.309 L 238.000 240.618 236.532 242.559 L 235.064 244.500 235.016 243.500 L 234.969 242.500 234.000 244.000 L 233.031 245.500 233.015 243.785 L 233.000 242.070 231.125 241.067 L 229.250 240.063 228.703 237.971 L 228.155 235.878 230.328 235.056 L 232.500 234.235 233.500 234.838 M308.691 244.098 L 309.882 244.000 310.569 245.111 L 311.255 246.222 311.596 252.732 L 311.936 259.241 308.420 255.621 L 304.904 252.000 304.014 252.000 L 303.123 252.000 303.312 249.250 L 303.500 246.500 305.500 245.348 L 307.500 244.196 308.691 244.098 " stroke="#000000" fill="none"/><path d="M193.648 0.149 L 186.149 -0.130 182.325 3.290 L 178.500 6.710 177.111 6.225 L 175.722 5.741 176.420 6.870 L 177.118 8.000 176.040 8.000 L 174.962 8.000 175.572 5.250 L 176.183 2.500 174.207 5.348 L 172.232 8.195 171.841 7.024 L 171.451 5.853 168.216 8.944 L 164.980 12.036 161.990 18.365 L 159.000 24.694 159.000 26.288 L 159.000 27.882 157.984 28.510 L 156.967 29.138 157.570 30.113 L 158.172 31.088 157.241 32.294 L 156.310 33.500 155.667 35.302 L 155.023 37.104 156.261 36.400 L 157.500 35.696 159.422 34.098 L 161.344 32.500 160.469 33.982 L 159.595 35.465 159.468 37.186 L 159.341 38.907 160.101 38.437 L 160.862 37.967 160.365 42.484 L 159.869 47.000 161.184 47.015 L 162.500 47.031 161.412 47.765 L 160.325 48.500 159.768 50.702 L 159.212 52.904 160.356 53.373 L 161.500 53.842 160.313 53.921 L 159.126 54.000 159.694 57.500 L 160.262 61.000 159.381 61.002 L 158.500 61.004 158.025 64.752 L 157.551 68.500 157.738 76.999 L 157.925 85.497 156.978 83.999 L 156.031 82.500 156.015 87.346 L 156.000 92.192 157.562 97.846 L 159.124 103.500 159.984 105.500 L 160.844 107.500 161.402 110.093 L 161.959 112.687 164.568 115.295 L 167.176 117.903 166.698 121.452 L 166.220 125.000 167.129 125.000 L 168.039 125.000 167.602 127.408 L 167.166 129.816 168.187 133.838 L 169.208 137.860 170.854 137.737 L 172.500 137.615 172.212 121.557 L 171.924 105.500 170.462 101.730 L 169.000 97.960 169.000 95.980 L 169.000 94.000 170.059 94.000 L 171.118 94.000 170.527 94.956 L 169.936 95.912 171.383 99.374 L 172.830 102.837 172.248 103.418 L 171.667 104.000 172.833 104.000 L 174.000 104.000 174.000 105.441 L 174.000 106.882 175.061 107.538 L 176.122 108.194 175.582 103.597 L 175.041 99.000 176.079 99.000 L 177.118 99.000 176.553 98.085 L 175.988 97.171 177.033 96.822 L 178.078 96.474 176.734 92.487 L 175.389 88.500 175.490 87.000 L 175.591 85.500 176.721 85.725 L 177.852 85.951 178.514 82.934 L 179.177 79.918 177.946 78.435 L 176.715 76.952 177.357 76.309 L 178.000 75.667 178.111 77.083 L 178.221 78.500 179.673 73.000 L 181.125 67.500 182.060 63.102 L 182.995 58.704 185.701 53.102 L 188.408 47.500 188.466 47.000 L 188.523 46.500 189.896 43.218 L 191.269 39.936 191.748 40.415 L 192.227 40.894 195.470 36.197 L 198.713 31.500 201.607 28.071 L 204.500 24.641 209.116 19.821 L 213.733 15.000 213.116 14.985 L 212.500 14.969 213.762 14.168 L 215.024 13.367 220.762 13.554 L 226.500 13.741 228.189 12.868 L 229.879 11.995 230.592 13.149 L 231.305 14.303 232.403 12.889 L 233.500 11.476 236.500 10.065 L 239.500 8.654 240.852 8.894 L 242.203 9.134 240.063 6.837 L 237.923 4.540 237.353 2.270 L 236.783 0.000 233.356 0.000 L 229.930 0.000 231.032 2.250 L 232.134 4.500 230.271 2.194 L 228.407 -0.112 222.528 0.194 L 216.649 0.500 221.953 3.788 L 227.256 7.077 226.715 7.618 L 226.174 8.160 223.837 6.636 L 221.500 5.112 217.250 4.162 L 213.000 3.213 213.000 4.023 L 213.000 4.833 214.250 5.269 L 215.500 5.704 212.500 5.693 L 209.500 5.682 206.134 6.063 L 202.767 6.443 202.301 7.658 L 201.834 8.874 200.546 8.379 L 199.258 7.885 198.642 9.489 L 198.027 11.094 196.314 10.797 L 194.601 10.500 191.083 15.208 L 187.566 19.916 186.798 18.708 L 186.031 17.500 185.897 18.500 L 185.763 19.500 185.884 20.256 L 186.004 21.013 184.144 25.256 L 182.283 29.500 181.086 32.418 L 179.890 35.337 181.632 33.918 L 183.374 32.500 182.554 34.500 L 181.733 36.500 181.804 38.250 L 181.876 40.000 180.938 40.000 L 180.000 40.000 180.033 41.250 L 180.067 42.500 181.963 40.226 L 183.859 37.952 183.559 42.726 L 183.259 47.500 182.501 50.771 L 181.742 54.042 180.871 54.580 L 180.000 55.118 180.000 57.059 L 180.000 59.000 179.000 59.000 L 178.000 59.000 178.000 58.122 L 178.000 57.244 179.525 53.372 L 181.050 49.500 182.034 47.750 L 183.017 46.000 181.401 46.000 L 179.786 46.000 180.362 44.500 L 180.937 43.000 180.014 43.000 L 179.091 43.000 178.434 46.500 L 177.777 50.000 176.639 50.032 L 175.500 50.064 177.178 51.339 L 178.856 52.615 177.943 54.058 L 177.031 55.500 177.015 54.191 L 177.000 52.882 176.000 53.500 L 175.000 54.118 174.930 51.809 L 174.859 49.500 174.000 51.500 L 173.141 53.500 173.070 54.809 L 173.000 56.118 174.000 55.500 L 175.000 54.882 175.000 55.941 L 175.000 57.000 174.035 57.000 L 173.070 57.000 172.070 55.131 L 171.070 53.263 171.785 52.548 L 172.500 51.833 172.559 51.167 L 172.618 50.500 173.420 46.000 L 174.223 41.500 176.653 36.500 L 179.083 31.500 179.886 30.000 L 180.689 28.500 181.845 26.264 L 183.000 24.027 183.000 22.474 L 183.000 20.920 185.091 16.821 L 187.182 12.723 191.984 7.921 L 196.786 3.119 196.326 2.660 L 195.867 2.200 197.183 2.258 L 198.500 2.315 200.309 2.158 L 202.118 2.000 201.632 1.214 L 201.147 0.429 193.648 0.149 M293.750 0.060 L 290.500 0.121 288.384 2.310 L 286.268 4.500 285.727 6.750 L 285.187 9.000 285.765 9.000 L 286.343 9.000 288.421 7.277 L 290.500 5.553 289.250 6.977 L 288.000 8.400 288.000 9.700 L 288.000 11.000 290.019 11.000 L 292.038 11.000 298.640 17.750 L 305.241 24.500 305.669 23.356 L 306.096 22.212 308.298 22.693 L 310.500 23.173 309.104 22.188 L 307.709 21.202 308.323 19.601 L 308.937 18.000 308.213 18.000 L 307.488 18.000 306.260 15.225 L 305.031 12.450 302.266 10.748 L 299.500 9.045 297.208 7.237 L 294.917 5.429 296.911 5.429 L 298.905 5.429 298.484 5.849 L 298.064 6.269 301.758 9.205 L 305.453 12.141 305.820 11.039 L 306.188 9.936 304.594 7.503 L 303.000 5.070 303.000 3.535 L 303.000 2.000 301.750 1.863 L 300.500 1.726 298.750 1.733 L 297.000 1.739 297.000 0.870 L 297.000 0.000 293.750 0.060 M189.595 101.030 L 188.500 101.061 186.500 102.167 L 184.500 103.273 182.281 105.282 L 180.062 107.291 180.590 108.145 L 181.118 109.000 184.125 109.000 L 187.131 109.000 189.130 110.069 L 191.128 111.139 192.464 110.030 L 193.800 108.921 198.150 109.886 L 202.500 110.851 211.148 112.071 L 219.797 113.291 222.898 112.670 L 226.000 112.050 226.000 113.060 L 226.000 114.070 227.869 113.070 L 229.737 112.070 230.369 112.702 L 231.000 113.333 231.000 112.167 L 231.000 111.000 228.750 110.921 L 226.500 110.842 227.821 110.314 L 229.142 109.786 226.321 108.277 L 223.500 106.767 218.000 106.422 L 212.500 106.077 211.000 105.903 L 209.500 105.729 203.394 106.461 L 197.288 107.192 196.651 105.532 L 196.014 103.873 195.141 104.413 L 194.267 104.953 192.479 102.976 L 190.690 101.000 189.595 101.030 M215.579 114.462 L 211.500 114.425 202.034 114.753 L 192.568 115.081 190.784 116.695 L 189.000 118.310 189.000 119.655 L 189.000 121.000 188.000 121.000 L 187.000 121.000 187.000 123.000 L 187.000 125.000 188.500 125.000 L 190.000 125.000 190.000 126.531 L 190.000 128.063 191.410 128.604 L 192.819 129.145 195.789 127.609 L 198.758 126.074 199.412 124.370 L 200.066 122.666 199.057 121.657 L 198.048 120.648 199.146 119.324 L 200.245 118.000 201.509 118.000 L 202.773 118.000 203.203 120.931 L 203.633 123.863 201.817 124.338 L 200.000 124.813 200.000 126.029 L 200.000 127.245 201.500 126.000 L 203.000 124.755 203.000 125.712 L 203.000 126.669 209.250 125.767 L 215.500 124.865 220.000 124.583 L 224.500 124.301 226.250 124.151 L 228.000 124.000 228.000 122.883 L 228.000 121.767 225.959 122.300 L 223.918 122.834 224.526 120.917 L 225.135 119.000 224.290 119.000 L 223.444 119.000 221.732 121.000 L 220.020 123.000 218.172 123.000 L 216.324 123.000 216.190 119.442 L 216.057 115.883 217.862 116.456 L 219.667 117.029 219.663 115.764 L 219.659 114.500 215.579 114.462 M232.435 184.000 L 232.000 184.000 232.000 186.500 L 232.000 189.000 231.059 189.000 L 230.118 189.000 229.421 187.872 L 228.723 186.743 227.783 188.424 L 226.842 190.105 227.958 191.449 L 229.074 192.794 231.287 192.313 L 233.500 191.833 235.750 190.748 L 238.000 189.662 238.000 187.806 L 238.000 185.950 235.435 184.975 L 232.870 184.000 232.435 184.000 M185.125 196.500 L 183.109 191.500 183.055 192.889 L 183.000 194.277 177.540 202.483 L 172.080 210.688 166.778 215.218 L 161.475 219.748 154.988 220.486 L 148.500 221.223 147.500 221.975 L 146.500 222.727 145.000 222.803 L 143.500 222.878 139.000 224.023 L 134.500 225.167 133.000 225.495 L 131.500 225.822 128.853 226.847 L 126.206 227.872 125.603 227.269 L 125.000 226.667 125.000 228.000 L 125.000 229.333 124.416 228.749 L 123.832 228.165 118.166 230.120 L 112.500 232.074 106.500 232.621 L 100.500 233.169 99.000 233.690 L 97.500 234.212 89.500 234.491 L 81.500 234.770 70.194 237.411 L 58.889 240.052 56.194 240.366 L 53.500 240.680 49.500 241.979 L 45.500 243.278 42.846 245.139 L 40.191 247.000 38.232 247.000 L 36.273 247.000 33.488 249.750 L 30.704 252.500 27.501 257.500 L 24.298 262.500 17.649 275.744 L 11.000 288.988 11.000 292.911 L 11.000 296.834 13.016 301.536 L 15.031 306.238 8.080 319.625 L 1.129 333.011 91.301 332.755 L 181.473 332.500 181.810 330.750 L 182.147 329.000 180.073 329.000 L 178.000 329.000 178.000 328.083 L 178.000 327.167 179.110 326.797 L 180.219 326.427 178.418 324.963 L 176.616 323.500 177.463 324.905 L 178.309 326.309 177.198 325.622 L 176.087 324.936 176.651 323.468 L 177.214 322.000 176.132 322.000 L 175.050 322.000 175.830 319.750 L 176.611 317.500 176.494 314.500 L 176.377 311.500 177.135 310.974 L 177.893 310.448 178.118 305.974 L 178.343 301.500 178.776 300.256 L 179.210 299.011 180.105 299.565 L 181.000 300.118 181.000 299.000 L 181.000 297.882 182.130 298.580 L 183.259 299.278 182.796 297.889 L 182.333 296.500 181.250 296.500 L 180.167 296.500 179.417 295.750 L 178.667 295.000 180.392 295.000 L 182.118 295.000 181.500 294.000 L 180.882 293.000 181.941 293.000 L 183.000 293.000 183.000 294.000 L 183.000 295.000 184.500 295.000 L 186.000 295.000 186.000 297.094 L 186.000 299.187 188.016 299.714 L 190.032 300.242 189.766 301.871 L 189.500 303.500 190.750 303.250 L 192.000 303.000 192.000 304.000 L 192.000 305.000 194.333 305.000 L 196.667 305.000 197.325 305.658 L 197.983 306.316 196.869 307.658 L 195.755 309.000 196.878 309.000 L 198.000 309.000 198.000 310.500 L 198.000 312.000 199.035 312.000 L 200.070 312.000 199.032 310.061 L 197.995 308.121 198.747 307.686 L 199.500 307.250 201.000 307.875 L 202.500 308.500 202.637 310.239 L 202.774 311.978 201.887 311.430 L 201.000 310.882 201.000 311.441 L 201.000 312.000 203.000 314.000 L 205.000 316.000 205.015 317.750 L 205.031 319.500 206.000 318.000 L 206.969 316.500 206.985 317.750 L 207.000 319.000 208.430 319.000 L 209.861 319.000 210.180 321.250 L 210.500 323.500 212.000 323.533 L 213.500 323.567 214.235 322.533 L 214.969 321.500 214.985 324.250 L 215.000 327.000 216.032 327.000 L 217.064 327.000 217.796 328.979 L 218.528 330.957 221.264 329.538 L 224.000 328.119 224.000 329.581 L 224.000 331.043 226.572 332.215 L 229.143 333.386 230.056 331.943 L 230.969 330.500 230.985 331.590 L 231.000 332.681 242.500 332.807 L 254.000 332.933 254.015 331.716 L 254.031 330.500 255.091 332.000 L 256.152 333.500 256.641 332.306 L 257.129 331.112 258.565 331.663 L 260.000 332.214 260.000 329.916 L 260.000 327.618 261.373 329.496 L 262.747 331.374 263.424 329.238 L 264.102 327.102 265.385 327.594 L 266.667 328.086 266.667 326.638 L 266.667 325.191 265.083 325.671 L 263.500 326.151 265.258 325.021 L 267.016 323.892 268.024 324.515 L 269.033 325.138 268.362 326.224 L 267.691 327.309 268.845 326.595 L 270.000 325.882 270.000 324.270 L 270.000 322.657 271.621 320.866 L 273.243 319.074 272.628 317.474 L 272.014 315.873 271.007 316.496 L 270.000 317.118 270.000 316.059 L 270.000 315.000 270.566 315.000 L 271.131 315.000 273.094 316.050 L 275.056 317.100 274.469 318.050 L 273.882 319.000 274.700 319.000 L 275.519 319.000 276.745 317.037 L 277.971 315.074 276.443 315.660 L 274.916 316.246 275.414 313.500 L 275.912 310.755 276.456 310.211 L 277.000 309.667 277.000 311.833 L 277.000 314.000 277.805 314.000 L 278.609 314.000 278.254 308.900 L 277.898 303.799 279.199 304.260 L 280.500 304.720 280.273 306.796 L 280.046 308.872 281.877 308.734 L 283.707 308.596 283.237 306.798 L 282.767 305.000 284.133 304.968 L 285.500 304.936 283.690 303.564 L 281.880 302.192 282.940 301.537 L 284.000 300.882 284.035 302.191 L 284.071 303.500 285.500 301.000 L 286.929 298.500 286.980 299.500 L 287.031 300.500 288.000 299.000 L 288.969 297.500 288.985 298.750 L 289.000 300.000 290.059 300.000 L 291.118 300.000 290.500 299.000 L 289.882 298.000 291.941 298.000 L 294.000 298.000 294.008 298.750 L 294.016 299.500 296.707 300.750 L 299.399 302.000 300.999 302.000 L 302.599 302.000 304.800 309.479 L 307.000 316.958 306.996 320.729 L 306.993 324.500 305.011 327.750 L 303.029 331.000 303.765 331.070 L 304.500 331.141 302.500 332.000 L 300.500 332.859 384.750 332.930 L 469.000 333.000 469.000 331.566 L 469.000 330.132 461.691 315.257 L 454.382 300.382 452.191 298.191 L 450.000 296.000 450.000 293.000 L 450.000 290.000 448.833 290.000 L 447.667 290.000 448.325 289.342 L 448.983 288.684 448.086 287.592 L 447.189 286.500 445.439 280.500 L 443.689 274.500 443.678 273.250 L 443.667 272.000 442.774 272.000 L 441.882 272.000 442.427 271.118 L 442.973 270.235 440.942 267.653 L 438.910 265.071 438.705 264.304 L 438.500 263.538 437.000 263.519 L 435.500 263.500 435.179 261.235 L 434.857 258.970 433.929 259.544 L 433.000 260.118 433.000 259.059 L 433.000 258.000 434.000 258.000 L 435.000 258.000 434.985 256.250 L 434.969 254.500 434.219 255.681 L 433.468 256.861 431.066 255.050 L 428.664 253.238 431.337 253.532 L 434.010 253.825 433.436 252.896 L 432.862 251.967 432.021 252.487 L 431.180 253.006 429.694 252.436 L 428.207 251.866 427.749 249.468 L 427.291 247.070 428.395 246.637 L 429.500 246.204 427.197 246.319 L 424.895 246.434 425.053 248.967 L 425.212 251.500 425.006 253.000 L 424.801 254.500 424.080 252.000 L 423.359 249.500 420.680 249.688 L 418.000 249.877 418.000 248.497 L 418.000 247.118 417.236 246.646 L 416.471 246.173 416.620 250.587 L 416.768 255.000 415.825 255.000 L 414.882 255.000 415.500 254.000 L 416.118 253.000 414.919 253.000 L 413.720 253.000 412.516 251.352 L 411.311 249.705 407.905 249.602 L 404.500 249.500 404.250 248.750 L 404.000 248.000 404.638 248.085 L 405.276 248.171 406.081 246.869 L 406.886 245.567 405.870 244.343 L 404.854 243.119 403.416 243.671 L 401.977 244.223 402.596 242.611 L 403.214 241.000 402.048 241.000 L 400.882 241.000 401.457 241.931 L 402.033 242.862 401.088 243.445 L 400.144 244.029 399.546 242.146 L 398.949 240.264 397.074 238.567 L 395.199 236.870 394.445 238.089 L 393.691 239.309 394.776 238.638 L 395.862 237.967 396.425 238.879 L 396.989 239.790 395.244 240.534 L 393.500 241.278 391.841 241.465 L 390.182 241.652 390.485 240.076 L 390.789 238.500 387.993 238.500 L 385.197 238.500 386.262 240.500 L 387.327 242.500 385.594 241.070 L 383.861 239.640 384.337 237.820 L 384.813 236.000 383.438 236.000 L 382.063 236.000 382.701 237.750 L 383.339 239.500 381.170 237.595 L 379.000 235.690 378.921 237.595 L 378.842 239.500 378.338 238.250 L 377.833 237.000 375.345 237.000 L 372.857 237.000 371.476 235.619 L 370.095 234.238 370.798 233.402 L 371.500 232.566 369.761 233.896 L 368.022 235.227 368.722 236.363 L 369.423 237.500 366.625 235.670 L 363.826 233.840 363.247 234.420 L 362.667 235.000 363.619 235.000 L 364.571 235.000 364.571 237.067 L 364.571 239.134 363.281 237.370 L 361.991 235.605 362.543 233.863 L 363.096 232.122 361.048 231.026 L 359.000 229.930 358.985 231.215 L 358.969 232.500 358.000 231.000 L 357.031 229.500 357.015 230.809 L 357.000 232.118 355.750 231.337 L 354.500 230.556 353.270 230.370 L 352.040 230.183 350.568 228.710 L 349.095 227.238 349.798 226.536 L 350.500 225.833 349.500 226.075 L 348.500 226.318 346.500 225.577 L 344.500 224.837 342.250 223.940 L 340.000 223.043 339.930 224.771 L 339.859 226.500 339.000 224.500 L 338.141 222.500 338.070 224.281 L 338.000 226.063 336.452 226.657 L 334.904 227.251 333.370 225.375 L 331.837 223.500 332.412 225.315 L 332.987 227.131 330.994 226.498 L 329.000 225.865 329.000 226.826 L 329.000 227.786 330.378 228.315 L 331.756 228.844 332.721 227.879 L 333.685 226.915 335.092 228.650 L 336.500 230.384 335.000 229.500 L 333.500 228.616 334.799 230.219 L 336.097 231.822 334.865 232.583 L 333.633 233.345 335.513 234.004 L 337.393 234.664 335.195 235.239 L 332.997 235.813 333.467 235.053 L 333.937 234.292 331.412 233.142 L 328.887 231.991 329.503 230.996 L 330.118 230.000 328.941 230.000 L 327.763 230.000 324.898 226.750 L 322.032 223.500 322.016 222.750 L 322.000 222.000 321.000 222.000 L 320.000 222.000 320.000 223.800 L 320.000 225.600 321.200 226.800 L 322.400 228.000 321.450 227.983 L 320.500 227.965 318.131 225.469 L 315.763 222.972 317.218 223.530 L 318.672 224.088 318.419 221.794 L 318.167 219.500 318.068 219.000 L 317.969 218.500 317.155 219.784 L 316.340 221.068 313.760 218.487 L 311.179 215.906 309.590 218.176 L 308.000 220.445 308.000 218.223 L 308.000 216.000 306.829 216.000 L 305.657 216.000 303.922 214.430 L 302.187 212.859 298.606 215.180 L 295.025 217.500 295.012 218.643 L 295.000 219.786 293.410 220.396 L 291.820 221.006 290.910 220.444 L 290.000 219.882 290.000 221.899 L 290.000 223.916 286.025 228.094 L 282.050 232.273 282.584 233.136 L 283.118 234.000 282.000 234.000 L 280.882 234.000 281.457 234.931 L 282.033 235.862 280.951 236.530 L 279.870 237.198 280.041 239.849 L 280.212 242.500 280.074 244.000 L 279.936 245.500 278.417 243.500 L 276.898 241.500 277.386 247.000 L 277.873 252.500 277.167 250.109 L 276.461 247.718 274.223 246.232 L 271.985 244.746 270.888 247.893 L 269.791 251.040 268.537 250.770 L 267.284 250.500 264.142 253.856 L 261.000 257.212 261.000 258.406 L 261.000 259.600 259.800 260.800 L 258.600 262.000 257.792 262.000 L 256.983 262.000 258.234 259.997 L 259.485 257.993 258.421 256.306 L 257.357 254.619 256.185 254.228 L 255.012 253.837 254.031 256.419 L 253.050 259.000 252.466 259.000 L 251.882 259.000 252.549 257.920 L 253.217 256.840 251.092 255.352 L 248.967 253.863 249.472 253.045 L 249.978 252.227 248.044 251.722 L 246.111 251.216 245.692 253.358 L 245.272 255.500 245.136 253.250 L 245.000 251.000 244.000 251.000 L 243.000 251.000 243.000 251.969 L 243.000 252.937 241.507 252.364 L 240.014 251.791 240.571 249.146 L 241.128 246.500 238.676 250.335 L 236.223 254.170 235.543 253.069 L 234.862 251.967 233.931 252.543 L 233.000 253.118 233.000 251.442 L 233.000 249.767 230.500 250.245 L 228.000 250.723 227.985 248.111 L 227.969 245.500 226.966 247.000 L 225.962 248.500 224.442 246.505 L 222.921 244.510 221.976 246.005 L 221.031 247.500 220.897 246.000 L 220.763 244.500 221.045 243.500 L 221.327 242.500 221.614 238.643 L 221.902 234.786 219.393 235.265 L 216.884 235.745 217.380 234.452 L 217.876 233.159 215.374 230.329 L 212.872 227.500 209.551 223.928 L 206.230 220.355 205.858 215.678 L 205.486 211.000 206.774 211.000 L 208.063 211.000 208.572 209.672 L 209.082 208.345 208.114 205.799 L 207.146 203.254 208.059 202.341 L 208.971 201.429 207.059 201.429 L 205.146 201.429 205.225 204.214 L 205.304 207.000 206.152 207.000 L 207.000 207.000 207.000 208.500 L 207.000 210.000 205.750 210.118 L 204.500 210.237 203.750 210.118 L 203.000 210.000 203.000 212.000 L 203.000 214.000 202.050 214.000 L 201.099 214.000 200.080 212.250 L 199.061 210.500 199.030 211.750 L 199.000 213.000 197.956 213.000 L 196.912 213.000 197.157 211.750 L 197.401 210.500 196.012 206.784 L 194.623 203.068 193.311 204.157 L 192.000 205.245 191.985 204.372 L 191.969 203.500 191.000 205.000 L 190.031 206.500 190.015 205.110 L 190.000 203.720 191.750 202.305 L 193.500 200.890 191.143 202.037 L 188.785 203.185 187.963 202.343 L 187.140 201.500 185.125 196.500 M183.000 197.000 L 184.000 197.000 184.000 199.559 L 184.000 202.118 185.126 201.422 L 186.253 200.726 185.211 202.587 L 184.170 204.448 185.098 206.183 L 186.027 207.918 186.414 212.209 L 186.801 216.500 186.901 218.309 L 187.000 220.118 187.895 219.565 L 188.790 219.011 189.359 220.494 L 189.928 221.976 186.782 220.693 L 183.636 219.409 183.393 218.180 L 183.150 216.950 183.658 217.975 L 184.167 219.000 185.333 218.967 L 186.500 218.933 184.250 217.056 L 182.000 215.179 182.000 206.090 L 182.000 197.000 183.000 197.000 M218.942 203.464 L 217.658 202.671 219.579 205.372 L 221.500 208.073 225.355 210.110 L 229.209 212.147 228.546 211.074 L 227.882 210.000 229.941 210.000 L 232.000 210.000 232.000 209.000 L 232.000 208.000 232.969 208.000 L 233.937 208.000 233.299 209.664 L 232.660 211.328 234.047 210.471 L 235.433 209.614 242.212 209.847 L 248.990 210.080 252.995 209.001 L 257.000 207.923 257.000 206.961 L 257.000 206.000 256.047 206.000 L 255.094 206.000 252.532 207.167 L 249.971 208.334 240.735 206.528 L 231.500 204.722 225.863 204.490 L 220.227 204.258 218.942 203.464 M303.041 226.525 L 304.081 227.168 303.465 229.109 L 302.849 231.050 304.112 230.775 L 305.375 230.500 308.099 237.000 L 310.824 243.500 311.625 249.500 L 312.426 255.500 312.290 262.000 L 312.155 268.500 310.918 273.748 L 309.681 278.997 305.296 281.567 L 300.910 284.137 299.705 283.722 L 298.500 283.307 301.683 281.355 L 304.867 279.403 303.949 277.951 L 303.031 276.500 303.015 278.142 L 303.000 279.783 300.382 280.440 L 297.764 281.097 297.221 280.555 L 296.679 280.012 298.589 277.849 L 300.500 275.686 298.303 276.236 L 296.105 276.785 295.763 275.143 L 295.420 273.500 296.405 270.816 L 297.389 268.132 299.208 267.656 L 301.027 267.180 302.679 263.340 L 304.330 259.500 304.536 256.250 L 304.742 253.000 304.060 253.000 L 303.377 253.000 301.171 250.945 L 298.965 248.890 299.522 245.195 L 300.078 241.500 300.635 237.000 L 301.192 232.500 301.471 229.750 L 301.750 227.000 301.875 226.441 L 302.000 225.882 303.041 226.525 M343.589 234.100 L 344.679 234.000 345.877 236.629 L 347.075 239.258 346.498 239.836 L 345.921 240.413 345.344 238.206 L 344.767 236.000 343.816 236.000 L 342.865 236.000 343.500 238.000 L 344.135 240.000 343.575 240.000 L 343.015 240.000 340.432 237.754 L 337.849 235.508 340.174 234.854 L 342.500 234.199 343.589 234.100 M308.250 282.040 L 309.000 282.000 309.000 282.429 L 309.000 282.857 307.429 284.429 L 305.857 286.000 306.835 286.000 L 307.813 286.000 307.290 288.000 L 306.767 290.000 305.383 290.000 L 304.000 290.000 304.000 288.500 L 304.000 287.000 303.000 287.000 L 302.000 287.000 302.000 286.032 L 302.000 285.064 304.750 283.572 L 307.500 282.080 308.250 282.040 " stroke="#000000" fill="none"/><path d="M193.817 0.015 L 181.135 0.000 180.500 1.999 L 179.866 3.998 177.992 2.996 L 176.118 1.993 174.455 4.246 L 172.793 6.500 172.324 5.284 L 171.856 4.069 167.946 8.284 L 164.037 12.500 161.768 17.000 L 159.500 21.500 158.744 21.835 L 157.988 22.171 158.528 23.045 L 159.068 23.919 158.141 25.709 L 157.213 27.500 156.206 32.500 L 155.198 37.500 155.443 40.500 L 155.688 43.500 155.844 44.719 L 156.000 45.937 157.415 45.394 L 158.830 44.851 158.527 53.676 L 158.223 62.500 157.620 66.000 L 157.018 69.500 156.412 79.000 L 155.807 88.500 155.928 91.361 L 156.049 94.223 157.093 96.174 L 158.138 98.126 157.923 100.813 L 157.708 103.500 158.884 106.500 L 160.059 109.500 160.502 110.760 L 160.945 112.021 160.937 112.546 L 160.929 113.071 162.422 114.565 L 163.915 116.058 163.351 117.529 L 162.786 119.000 164.518 119.000 L 166.250 119.000 165.528 122.250 L 164.806 125.500 164.937 126.500 L 165.068 127.500 165.284 131.000 L 165.500 134.500 166.285 135.081 L 167.071 135.662 167.692 139.486 L 168.312 143.311 167.156 142.596 L 166.000 141.882 166.000 142.882 L 166.000 143.882 166.895 144.435 L 167.790 144.989 168.472 143.244 L 169.154 141.500 170.621 144.274 L 172.089 147.047 171.390 148.178 L 170.691 149.309 171.732 148.666 L 172.773 148.022 173.347 150.218 L 173.921 152.413 173.460 152.873 L 173.000 153.333 173.000 152.202 L 173.000 151.070 170.750 149.971 L 168.500 148.871 171.946 152.097 L 175.392 155.323 175.708 154.377 L 176.023 153.432 174.138 142.515 L 172.253 131.597 172.493 126.049 L 172.732 120.500 172.934 113.000 L 173.135 105.500 174.220 107.750 L 175.306 110.000 176.079 110.000 L 176.853 110.000 177.274 108.250 L 177.695 106.500 178.725 109.000 L 179.754 111.500 178.381 111.823 L 177.007 112.145 177.876 113.823 L 178.744 115.500 179.444 120.322 L 180.144 125.144 182.072 127.072 L 184.000 129.000 184.000 130.500 L 184.000 132.000 186.418 132.000 L 188.836 132.000 190.412 132.605 L 191.989 133.210 191.435 134.105 L 190.882 135.000 193.241 135.000 L 195.600 135.000 196.664 133.936 L 197.729 132.871 199.376 134.519 L 201.024 136.167 200.871 133.333 L 200.718 130.500 200.859 129.282 L 201.000 128.064 203.211 128.882 L 205.422 129.700 206.961 127.821 L 208.500 125.942 217.000 125.572 L 225.500 125.201 227.250 124.494 L 229.000 123.786 229.000 122.952 L 229.000 122.118 228.000 121.500 L 227.000 120.882 227.000 119.882 L 227.000 118.882 228.000 119.500 L 229.000 120.118 229.000 119.388 L 229.000 118.657 227.339 116.823 L 225.679 114.988 226.217 114.450 L 226.755 113.912 229.627 113.396 L 232.500 112.880 233.450 111.940 L 234.400 111.000 233.200 111.000 L 232.000 111.000 232.000 109.441 L 232.000 107.882 230.956 108.527 L 229.912 109.172 228.706 108.224 L 227.500 107.276 224.892 106.654 L 222.284 106.033 212.619 105.413 L 202.954 104.793 201.290 106.147 L 199.626 107.500 200.259 105.807 L 200.893 104.114 197.197 103.807 L 193.500 103.500 193.750 102.250 L 194.000 101.000 191.250 101.006 L 188.500 101.012 185.636 102.506 L 182.771 104.000 182.457 104.000 L 182.142 104.000 180.993 98.465 L 179.844 92.931 180.384 87.215 L 180.924 81.500 181.521 76.500 L 182.118 71.500 183.151 66.000 L 184.184 60.500 186.703 54.500 L 189.223 48.500 190.331 46.000 L 191.439 43.500 194.466 39.500 L 197.494 35.500 203.285 29.594 L 209.075 23.688 210.007 22.094 L 210.939 20.500 210.970 21.809 L 211.000 23.118 212.016 22.490 L 213.033 21.862 212.552 21.084 L 212.071 20.306 218.286 17.514 L 224.500 14.722 229.214 14.753 L 233.928 14.785 233.846 14.142 L 233.763 13.500 233.882 12.050 L 234.000 10.600 235.153 11.753 L 236.306 12.906 238.268 11.857 L 240.230 10.807 243.115 11.230 L 246.000 11.654 246.000 9.846 L 246.000 8.038 248.750 7.373 L 251.500 6.708 254.243 4.791 L 256.986 2.874 257.930 3.457 L 258.873 4.040 264.937 4.367 L 271.000 4.695 271.000 3.789 L 271.000 2.882 272.250 3.666 L 273.500 4.450 275.359 4.144 L 277.219 3.837 276.605 4.831 L 275.990 5.824 277.609 5.587 L 279.228 5.349 282.686 8.611 L 286.145 11.873 289.091 12.520 L 292.036 13.167 297.292 18.423 L 302.548 23.679 305.612 27.498 L 308.677 31.318 309.795 30.627 L 310.913 29.936 310.352 28.474 L 309.790 27.011 309.103 27.436 L 308.415 27.861 308.273 25.981 L 308.132 24.100 310.715 25.082 L 313.298 26.064 311.899 24.282 L 310.500 22.500 309.229 21.689 L 307.958 20.877 308.467 20.054 L 308.975 19.231 309.155 14.475 L 309.335 9.718 307.476 8.359 L 305.618 7.000 306.505 7.000 L 307.392 7.000 304.000 3.500 L 300.608 -0.000 271.054 0.015 L 241.500 0.031 240.216 0.845 L 238.932 1.660 239.548 3.580 L 240.163 5.500 238.350 2.750 L 236.537 0.000 226.209 0.000 L 215.882 0.000 216.500 1.000 L 217.118 2.000 218.437 2.000 L 219.755 2.000 221.128 3.664 L 222.500 5.327 220.316 4.164 L 218.131 3.000 214.125 3.000 L 210.118 3.000 209.500 4.000 L 208.882 5.000 206.000 5.000 L 203.118 5.000 202.500 6.000 L 201.882 7.000 199.382 7.000 L 196.882 7.000 197.499 7.999 L 198.116 8.997 195.835 8.749 L 193.554 8.500 193.527 9.667 L 193.500 10.833 193.000 11.316 L 192.500 11.798 191.243 10.434 L 189.987 9.070 195.513 5.535 L 201.039 2.000 202.269 1.985 L 203.500 1.969 205.000 1.000 L 206.500 0.031 193.817 0.015 M324.500 80.338 L 323.500 79.999 323.847 84.999 L 324.193 90.000 323.097 90.000 L 322.000 90.000 322.000 86.833 L 322.000 83.667 321.425 84.242 L 320.850 84.817 320.501 86.658 L 320.153 88.500 320.006 90.500 L 319.859 92.500 319.000 90.500 L 318.141 88.500 317.912 91.500 L 317.684 94.500 317.492 101.284 L 317.300 108.068 318.056 108.535 L 318.812 109.002 318.395 111.251 L 317.978 113.500 318.574 112.244 L 319.171 110.988 320.025 111.515 L 320.879 112.043 320.880 110.272 L 320.880 108.500 321.590 100.501 L 322.300 92.501 323.572 91.501 L 324.845 90.500 325.172 85.588 L 325.500 80.677 324.500 80.338 M297.417 90.123 L 296.500 90.246 289.293 92.888 L 282.086 95.530 279.823 97.959 L 277.560 100.388 277.377 101.639 L 277.193 102.889 282.405 100.585 L 287.616 98.280 292.558 94.529 L 297.500 90.779 297.917 90.389 L 298.333 90.000 297.417 90.123 M287.500 105.013 L 285.500 105.019 280.157 108.083 L 274.814 111.147 275.383 111.716 L 275.952 112.285 277.573 110.939 L 279.195 109.593 281.051 109.310 L 282.908 109.027 286.204 107.017 L 289.500 105.007 287.500 105.013 M181.322 110.425 L 182.701 112.311 184.852 111.749 L 187.003 111.187 186.345 112.251 L 185.687 113.315 187.843 112.751 L 189.998 112.188 190.527 113.044 L 191.056 113.900 188.778 115.152 L 186.500 116.404 185.250 116.613 L 184.000 116.823 184.000 115.943 L 184.000 115.063 182.500 115.638 L 181.000 116.214 180.926 114.857 L 180.851 113.500 180.397 111.019 L 179.942 108.539 181.322 110.425 M291.229 109.629 L 287.500 109.331 284.500 109.948 L 281.500 110.565 281.777 112.207 L 282.053 113.849 281.027 114.484 L 280.000 115.118 280.000 118.559 L 280.000 122.000 281.500 122.000 L 283.000 122.000 282.750 120.797 L 282.500 119.593 284.500 119.547 L 286.500 119.500 287.143 120.385 L 287.785 121.270 288.943 119.107 L 290.100 116.944 291.205 117.627 L 292.309 118.309 291.585 117.138 L 290.862 115.967 289.931 116.543 L 289.000 117.118 289.000 114.059 L 289.000 111.000 290.463 111.000 L 291.926 111.000 297.029 113.011 L 302.132 115.023 301.503 114.004 L 300.873 112.986 297.916 111.456 L 294.958 109.927 291.229 109.629 M205.892 111.453 L 211.285 111.885 212.342 112.942 L 213.400 114.000 210.950 114.139 L 208.500 114.278 204.500 114.265 L 200.500 114.252 197.319 113.918 L 194.138 113.585 194.638 112.776 L 195.138 111.967 195.819 112.359 L 196.500 112.750 198.500 111.885 L 200.500 111.021 205.892 111.453 M237.086 116.097 L 235.000 113.694 234.848 115.597 L 234.695 117.500 234.518 118.500 L 234.341 119.500 233.002 124.000 L 231.663 128.500 231.428 129.500 L 231.193 130.500 230.421 132.430 L 229.648 134.360 231.787 132.862 L 233.926 131.363 235.930 128.816 L 237.933 126.269 238.553 122.385 L 239.173 118.500 237.086 116.097 M218.904 117.450 L 222.000 119.051 222.000 119.990 L 222.000 120.930 219.914 122.046 L 217.829 123.162 217.531 122.831 L 217.234 122.500 216.521 119.175 L 215.808 115.849 218.904 117.450 M229.934 182.965 L 228.000 181.930 228.000 183.965 L 228.000 186.000 227.204 186.000 L 226.407 186.000 226.454 188.468 L 226.500 190.936 228.240 192.968 L 229.980 195.000 231.240 194.985 L 232.500 194.969 231.000 194.000 L 229.500 193.031 230.500 192.932 L 231.500 192.833 233.750 192.584 L 236.000 192.334 236.000 192.733 L 236.000 193.131 234.977 195.043 L 233.954 196.955 235.641 196.308 L 237.328 195.660 236.526 197.080 L 235.725 198.500 238.112 196.217 L 240.500 193.934 239.143 193.092 L 237.786 192.250 238.758 191.650 L 239.729 191.049 239.492 188.775 L 239.255 186.500 239.128 185.250 L 239.000 184.000 235.434 184.000 L 231.869 184.000 229.934 182.965 M190.617 187.000 L 190.000 187.000 189.882 187.750 L 189.763 188.500 189.938 189.419 L 190.113 190.339 188.514 189.012 L 186.915 187.685 185.978 188.622 L 185.040 189.560 186.083 193.340 L 187.127 197.119 186.699 198.310 L 186.271 199.500 184.964 195.000 L 183.656 190.500 183.226 192.500 L 182.797 194.500 177.438 202.594 L 172.080 210.688 166.790 215.205 L 161.500 219.721 155.500 220.257 L 149.500 220.794 138.000 223.849 L 126.500 226.905 120.826 228.873 L 115.151 230.840 107.826 231.864 L 100.500 232.888 92.500 233.511 L 84.500 234.134 73.500 236.616 L 62.500 239.098 56.500 240.085 L 50.500 241.072 45.000 243.575 L 39.500 246.078 36.068 247.789 L 32.635 249.500 28.910 255.000 L 25.185 260.500 18.092 274.659 L 11.000 288.818 11.022 293.159 L 11.044 297.500 13.000 301.811 L 14.957 306.121 8.074 319.566 L 1.192 333.010 93.346 332.755 L 185.500 332.500 185.205 331.115 L 184.910 329.729 186.429 322.380 L 187.949 315.031 187.305 313.352 L 186.660 311.672 187.830 312.395 L 189.000 313.118 189.000 318.059 L 189.000 323.000 188.250 323.004 L 187.500 323.009 187.213 328.086 L 186.926 333.164 187.827 332.607 L 188.729 332.049 188.562 329.775 L 188.395 327.500 189.641 323.786 L 190.886 320.072 190.290 316.402 L 189.695 312.732 191.003 313.168 L 192.311 313.604 192.457 317.052 L 192.604 320.500 191.338 326.000 L 190.071 331.500 190.036 332.250 L 190.000 333.000 190.797 333.000 L 191.594 333.000 192.858 326.250 L 194.123 319.500 194.228 318.222 L 194.333 316.944 195.417 317.315 L 196.500 317.686 196.315 320.093 L 196.130 322.500 196.618 320.853 L 197.107 319.205 199.036 318.701 L 200.965 318.196 199.866 320.250 L 198.767 322.303 200.384 321.683 L 202.000 321.063 202.000 322.090 L 202.000 323.118 202.962 322.523 L 203.924 321.929 204.872 325.214 L 205.820 328.500 205.910 325.550 L 206.000 322.600 207.200 323.800 L 208.400 325.000 210.700 325.000 L 213.000 325.000 213.000 327.059 L 213.000 329.118 214.040 328.475 L 215.080 327.832 214.432 330.416 L 213.783 333.000 214.822 333.000 L 215.861 333.000 216.294 330.750 L 216.728 328.500 216.864 330.750 L 217.000 333.000 218.500 333.000 L 220.000 333.000 220.015 331.750 L 220.031 330.500 221.015 332.000 L 222.000 333.500 222.985 332.000 L 223.969 330.500 223.985 331.750 L 224.000 333.000 243.500 333.000 L 263.000 333.000 263.000 331.500 L 263.000 330.000 263.927 330.000 L 264.853 330.000 265.311 331.750 L 265.768 333.500 265.884 331.750 L 266.000 330.000 267.000 330.000 L 268.000 330.000 268.000 331.500 L 268.000 333.000 269.000 333.000 L 270.000 333.000 270.015 329.750 L 270.031 326.500 270.926 327.915 L 271.822 329.330 271.468 331.165 L 271.115 333.000 272.606 333.000 L 274.097 333.000 273.557 329.250 L 273.018 325.500 273.994 324.000 L 274.969 322.500 274.985 323.941 L 275.000 325.382 276.468 323.441 L 277.936 321.500 277.968 324.250 L 278.000 327.000 276.500 327.000 L 275.000 327.000 275.000 330.000 L 275.000 333.000 275.934 333.000 L 276.867 333.000 277.284 330.250 L 277.700 327.500 277.850 330.250 L 278.000 333.000 279.559 333.000 L 281.118 333.000 280.661 332.250 L 280.205 331.500 279.596 323.550 L 278.987 315.601 280.462 317.550 L 281.936 319.500 282.084 317.500 L 282.231 315.500 282.391 314.000 L 282.551 312.500 281.752 310.773 L 280.954 309.045 282.477 309.629 L 284.000 310.214 284.000 308.666 L 284.000 307.118 284.919 306.550 L 285.839 305.982 287.419 307.562 L 289.000 309.143 289.000 307.655 L 289.000 306.167 287.750 305.662 L 286.500 305.158 288.250 305.079 L 290.000 305.000 290.000 306.441 L 290.000 307.882 291.107 308.566 L 292.214 309.250 291.608 307.340 L 291.001 305.429 292.995 305.429 L 294.989 305.429 294.876 306.464 L 294.763 307.500 294.882 309.250 L 295.000 311.000 296.107 311.000 L 297.214 311.000 296.638 309.500 L 296.063 308.000 297.031 308.000 L 298.000 308.000 298.000 309.000 L 298.000 310.000 299.559 310.000 L 301.118 310.000 300.589 309.144 L 300.061 308.289 302.440 308.744 L 304.819 309.198 305.396 311.349 L 305.973 313.500 305.986 319.952 L 306.000 326.405 302.804 329.702 L 299.608 333.000 384.304 333.000 L 469.000 333.000 469.000 331.463 L 469.000 329.926 463.000 317.419 L 457.000 304.911 457.000 304.032 L 457.000 303.153 453.500 298.568 L 450.000 293.983 450.000 292.227 L 450.000 290.470 448.152 286.985 L 446.305 283.500 444.540 276.231 L 442.775 268.962 440.435 265.731 L 438.094 262.500 434.508 255.430 L 430.921 248.359 427.929 245.083 L 424.937 241.807 423.585 242.929 L 422.234 244.051 421.593 242.382 L 420.953 240.714 420.339 241.327 L 419.726 241.941 417.113 240.174 L 414.500 238.406 411.000 238.111 L 407.500 237.815 407.202 237.014 L 406.904 236.212 405.065 236.693 L 403.226 237.174 402.552 236.084 L 401.879 234.995 399.939 236.032 L 398.000 237.070 398.000 236.035 L 398.000 235.000 396.441 235.000 L 394.882 235.000 395.500 234.000 L 396.118 233.000 395.309 232.923 L 394.500 232.847 392.750 232.512 L 391.000 232.177 391.000 233.156 L 391.000 234.135 388.750 233.394 L 386.500 232.654 384.195 232.820 L 381.890 232.987 382.400 232.161 L 382.911 231.336 378.390 231.740 L 373.869 232.144 371.569 230.637 L 369.270 229.130 368.063 230.315 L 366.857 231.500 367.047 230.500 L 367.237 229.500 367.103 228.500 L 366.969 227.500 366.231 228.661 L 365.492 229.821 361.124 229.023 L 356.756 228.224 356.037 227.059 L 355.317 225.894 354.408 226.103 L 353.500 226.312 348.738 224.104 L 343.977 221.896 342.988 222.507 L 342.000 223.118 342.000 222.168 L 342.000 221.219 338.250 220.617 L 334.500 220.016 330.500 219.878 L 326.500 219.741 324.500 218.691 L 322.500 217.641 320.000 217.455 L 317.500 217.269 315.500 216.468 L 313.500 215.668 309.856 212.834 L 306.212 210.000 305.106 210.000 L 304.000 210.000 303.930 211.250 L 303.859 212.500 303.040 210.500 L 302.220 208.500 301.135 211.250 L 300.050 214.000 298.983 214.000 L 297.916 214.000 295.848 215.927 L 293.781 217.853 292.390 217.320 L 291.000 216.786 290.995 217.643 L 290.991 218.500 287.995 221.696 L 285.000 224.892 285.000 225.505 L 285.000 226.118 286.000 225.500 L 287.000 224.882 287.000 226.008 L 287.000 227.135 285.116 226.537 L 283.232 225.939 282.587 228.510 L 281.941 231.082 281.084 230.552 L 280.227 230.022 279.707 232.011 L 279.187 234.000 280.129 234.000 L 281.070 234.000 280.134 235.750 L 279.197 237.500 279.099 238.250 L 279.000 239.000 279.000 240.059 L 279.000 241.118 278.000 240.500 L 277.000 239.882 277.000 242.500 L 277.000 245.118 276.000 244.500 L 275.000 243.882 274.985 245.191 L 274.969 246.500 274.024 245.005 L 273.079 243.510 271.571 245.505 L 270.064 247.500 270.032 248.250 L 270.000 249.000 268.645 249.000 L 267.290 249.000 264.645 252.193 L 262.000 255.386 261.919 254.443 L 261.838 253.500 260.568 256.373 L 259.299 259.246 258.675 256.123 L 258.050 253.000 256.025 253.000 L 254.000 253.000 254.000 254.122 L 254.000 255.245 252.500 254.000 L 251.000 252.755 250.924 253.628 L 250.848 254.500 249.500 251.000 L 248.152 247.500 248.061 249.500 L 247.969 251.500 247.086 250.104 L 246.202 248.709 244.668 249.297 L 243.134 249.886 242.464 246.834 L 241.793 243.782 240.627 246.121 L 239.461 248.461 236.980 249.716 L 234.500 250.971 235.917 250.985 L 237.333 251.000 236.810 251.524 L 236.286 252.047 234.649 251.419 L 233.011 250.790 233.388 250.145 L 233.765 249.500 232.915 247.250 L 232.064 245.000 231.102 245.000 L 230.139 245.000 229.721 247.250 L 229.302 249.500 228.497 246.101 L 227.691 242.703 226.345 244.542 L 225.000 246.382 224.875 245.691 L 224.750 245.000 224.625 243.964 L 224.500 242.927 223.142 242.088 L 221.785 241.249 222.771 236.625 L 223.758 232.000 223.313 232.000 L 222.869 232.000 220.814 233.100 L 218.759 234.200 219.383 233.190 L 220.006 232.180 219.365 230.510 L 218.724 228.839 217.112 229.260 L 215.500 229.682 215.250 227.341 L 215.000 225.000 214.750 222.500 L 214.500 220.000 213.817 220.000 L 213.135 220.000 212.500 222.000 L 211.865 224.000 210.733 224.000 L 209.600 224.000 210.800 222.800 L 212.000 221.600 211.970 220.050 L 211.939 218.500 210.887 220.308 L 209.836 222.116 208.020 220.024 L 206.205 217.931 206.692 215.715 L 207.178 213.500 207.643 212.028 L 208.108 210.556 208.925 211.879 L 209.743 213.202 211.121 210.068 L 212.500 206.933 214.500 207.217 L 216.500 207.500 216.500 208.845 L 216.500 210.190 221.302 210.568 L 226.105 210.947 227.226 211.640 L 228.347 212.332 231.162 212.416 L 233.978 212.500 234.361 211.500 L 234.745 210.500 243.122 210.615 L 251.500 210.730 252.750 209.742 L 254.000 208.755 254.000 209.403 L 254.000 210.051 257.119 208.438 L 260.238 206.825 265.849 206.344 L 271.460 205.863 272.793 204.757 L 274.126 203.650 272.783 202.898 L 271.440 202.147 264.970 203.933 L 258.500 205.718 256.522 205.016 L 254.543 204.314 253.200 205.657 L 251.857 207.000 249.893 207.000 L 247.930 207.000 245.567 205.452 L 243.205 203.904 240.352 204.308 L 237.500 204.712 235.285 203.894 L 233.071 203.076 232.475 204.041 L 231.879 205.005 230.093 204.050 L 228.307 203.094 224.403 203.352 L 220.500 203.610 219.000 202.126 L 217.500 200.643 217.219 202.100 L 216.939 203.557 214.891 204.836 L 212.843 206.115 212.299 204.036 L 211.756 201.958 210.378 203.101 L 209.000 204.245 209.000 202.185 L 209.000 200.124 207.250 200.196 L 205.500 200.267 203.750 199.527 L 202.000 198.786 202.000 199.952 L 202.000 201.118 203.000 200.500 L 204.000 199.882 204.000 201.500 L 204.000 203.118 203.097 202.560 L 202.194 202.002 202.421 207.051 L 202.648 212.099 201.670 212.704 L 200.691 213.309 201.405 212.155 L 202.118 211.000 201.000 211.000 L 199.882 211.000 200.480 210.033 L 201.078 209.065 199.039 207.792 L 197.000 206.519 197.000 205.661 L 197.000 204.802 195.369 201.365 L 193.738 197.928 194.263 197.404 L 194.788 196.879 192.503 194.594 L 190.218 192.309 190.726 189.655 L 191.233 187.000 190.617 187.000 M303.412 231.000 L 304.959 231.000 306.869 234.750 L 308.779 238.500 310.390 243.932 L 312.000 249.363 311.930 259.432 L 311.859 269.500 311.179 271.213 L 310.500 272.927 309.000 271.979 L 307.500 271.031 308.285 271.015 L 309.070 271.000 308.082 269.153 L 307.094 267.306 308.297 265.951 L 309.500 264.596 307.908 265.790 L 306.316 266.983 305.441 266.241 L 304.566 265.500 305.765 267.081 L 306.964 268.662 304.982 270.789 L 303.000 272.916 303.000 273.745 L 303.000 274.575 300.000 274.803 L 297.000 275.032 297.000 272.042 L 297.000 269.051 299.873 267.566 L 302.746 266.080 303.258 266.591 L 303.769 267.102 304.809 264.119 L 305.848 261.136 305.281 258.966 L 304.713 256.795 305.909 256.056 L 307.105 255.317 303.620 252.660 L 300.136 250.002 300.499 247.251 L 300.862 244.500 300.931 243.191 L 301.000 241.882 301.991 242.494 L 302.982 243.107 302.424 237.053 L 301.866 231.000 303.412 231.000 M182.346 308.000 L 183.204 308.000 182.613 314.384 L 182.021 320.769 181.006 323.134 L 179.990 325.500 180.471 322.500 L 180.951 319.500 181.220 313.750 L 181.488 308.000 182.346 308.000 M185.273 309.669 L 186.118 310.191 185.523 317.405 L 184.929 324.620 183.969 327.560 L 183.010 330.500 183.648 321.500 L 184.287 312.500 184.358 310.823 L 184.429 309.147 185.273 309.669 M282.085 320.553 L 281.171 319.988 280.750 321.244 L 280.328 322.500 281.103 325.945 L 281.877 329.390 281.380 330.195 L 280.882 331.000 281.632 332.213 L 282.382 333.427 283.646 330.463 L 284.910 327.500 284.970 329.000 L 285.031 330.500 285.839 329.227 L 286.647 327.953 286.210 324.977 L 285.773 322.000 284.953 322.000 L 284.133 322.000 283.716 324.750 L 283.300 327.500 283.150 324.309 L 283.000 321.118 282.085 320.553 " stroke="#000000" fill="none"/></svg>